<?xml version="1.0" encoding="UTF-8"?>
<svg xmlns="http://www.w3.org/2000/svg" xmlns:xlink="http://www.w3.org/1999/xlink" version="1.2" >
<font id="Hughe Light">
<font-face  font-family="Hughe" units-per-em="1024" ascent="936" descent="-280" font-style="normal" font-weight="300" font-stretch="normal" cap-height="928" x-height="468" underline-position="-125" underline-thickness="50" />
<missing-glyph  horiz-adv-x="100" d="" />
<glyph glyph-name="NULL" d="" />
<glyph glyph-name="CR" unicode="&#xd;" horiz-adv-x="256" d="" />
<glyph glyph-name="space" unicode="&#x20;" horiz-adv-x="240" d="" />
<glyph glyph-name="exclam" unicode="&#x21;" horiz-adv-x="184" d="M96 -5 C116 -5 132 11 132 31 C132 51 116 67 96 67 C76 67 60 51 60 31 C60 11 76 -5 96 -5 L96 -5 Z M124 620 C125 645 112 665 93 665 C74 665 60 645 62 620 C62 487 93 142 93 142 L99 142 C99 142 124 487 124 620 L124 620 Z " />
<glyph glyph-name="quotedbl" unicode="&#x22;" horiz-adv-x="238" d="M134 660 L162 471 L170 471 L198 660 L134 660 L134 660 Z M40 660 L67 471 L76 471 L104 660 L40 660 L40 660 Z " />
<glyph glyph-name="numbersign" unicode="&#x23;" horiz-adv-x="485" d="M356 681 L327 479 L203 479 L232 681 L213 681 L184 479 L64 479 L58 441 L179 441 L147 219 L25 219 L19 181 L142 181 L116 0 L135 0 L161 181 L285 181 L259 0 L279 0 L305 181 L415 181 L420 219 L310 219 L342 441 L460 441 L465 479 L347 479 L376 681 L356 681 L356 681 Z M198 441 L322 441 L290 219 L166 219 L198 441 L198 441 Z " />
<glyph glyph-name="dollar" unicode="&#x24;" horiz-adv-x="467" d="M43 195 L43 46 C75 28 125 12 174 3 L174 -75 L190 -75 L190 0 C213 -4 233 -6 254 -5 L254 -75 L270 -75 L270 -4 C357 6 423 79 423 168 C423 232 356 309 270 345 L270 643 C307 633 343 594 352 555 C358 530 366 490 372 465 L389 465 L389 614 C355 634 309 651 270 660 L270 736 L254 736 L254 663 C231 667 211 667 190 662 L190 736 L174 736 L174 658 C103 635 52 565 52 482 C52 427 104 364 174 327 L174 25 C126 49 84 101 71 158 C69 169 64 185 62 196 L43 195 L43 195 Z M191 18 L191 319 C212 309 234 302 254 292 L254 10 C234 9 208 12 191 18 L191 18 Z M191 382 L191 647 C213 653 231 652 255 647 L255 351 C232 359 210 369 190 381 L191 382 L191 382 Z M174 391 C124 425 91 468 91 504 C91 567 125 620 174 641 L174 391 L174 391 Z M270 282 C336 244 384 189 384 144 C384 76 335 20 270 10 L270 282 L270 282 Z " />
<glyph glyph-name="percent" unicode="&#x25;" horiz-adv-x="759" d="M79 542 C79 635 116 710 162 710 C216 710 259 626 259 522 C259 433 220 362 172 362 C120 362 79 442 79 542 L79 542 Z M30 533 C30 429 91 345 168 345 C245 345 306 431 306 539 C306 642 245 725 168 725 C91 725 30 640 30 533 L30 533 Z M513 191 C513 285 550 360 597 360 C654 360 700 276 700 171 C700 82 659 11 608 11 C555 11 513 91 513 191 L513 191 Z M464 181 C464 78 526 -5 604 -5 C683 -5 747 81 747 188 C747 292 683 375 604 375 C526 375 464 289 464 181 L464 181 Z M180 -7 L626 713 L604 727 L157 7 L180 -7 L180 -7 Z " />
<glyph glyph-name="ampersand" unicode="&#x26;" horiz-adv-x="686" d="M616 300 L441 300 L441 287 L458 287 C494 288 523 259 523 223 L523 193 C523 160 510 129 488 103 C455 134 418 174 376 225 C339 269 305 317 277 363 C365 382 435 462 435 546 C435 613 376 667 302 667 C228 667 168 595 168 506 C168 474 192 416 230 351 C128 308 51 227 51 157 C51 68 140 -3 252 -3 C339 -3 417 24 469 67 C557 -1 626 -10 688 1 L688 9 C643 1 587 14 498 95 C522 124 536 158 536 194 L536 224 C536 260 565 289 601 288 L618 288 L616 300 L616 300 Z M208 528 C208 598 248 655 299 655 C353 655 397 605 397 542 C397 461 343 386 274 369 C234 436 208 496 208 528 L208 528 Z M460 74 C415 39 351 18 280 18 C179 18 98 88 98 175 C98 236 156 305 234 342 C263 293 300 241 340 193 C383 142 422 103 458 74 L460 74 L460 74 Z " />
<glyph glyph-name="quotesingle" unicode="&#x27;" horiz-adv-x="144" d="M40 660 L67 471 L76 471 L104 660 L40 660 L40 660 Z " />
<glyph glyph-name="parenleft" unicode="&#x28;" horiz-adv-x="189" d="M173 690 C110 615 60 476 60 270 C60 64 110 -75 173 -150 L179 -145 C135 -92 99 39 99 270 C99 501 135 632 179 685 L173 690 L173 690 Z " />
<glyph glyph-name="parenright" unicode="&#x29;" horiz-adv-x="189" d="M10 -150 C73 -75 123 64 123 270 C123 476 73 615 10 690 L4 685 C48 632 84 501 84 270 C84 39 48 -92 4 -145 L10 -150 L10 -150 Z " />
<glyph glyph-name="asterisk" unicode="&#x2a;" horiz-adv-x="268" d="M261 587 C282 598 267 628 245 614 L150 543 L164 661 C166 686 132 686 134 661 L148 544 L53 614 C31 629 17 599 38 588 L147 541 L38 494 C16 483 32 454 53 468 L148 538 L134 421 C132 396 166 396 164 421 L150 539 L245 468 C266 454 282 483 260 494 L152 541 L261 587 L261 587 Z " />
<glyph glyph-name="plus" unicode="&#x2b;" horiz-adv-x="518" d="M244 432 L244 261 L75 261 L75 239 L244 239 L244 69 L269 69 L269 239 L438 239 L438 261 L269 261 L269 432 L244 432 L244 432 Z " />
<glyph glyph-name="comma" unicode="&#x2c;" horiz-adv-x="188" d="M96 67 C76 67 60 51 60 31 C60 9 89 -18 107 3 C117 -34 98 -77 74 -89 L74 -97 C110 -79 139 -32 139 9 C139 39 126 68 97 68 L96 67 L96 67 Z " />
<glyph glyph-name="hyphen" unicode="&#x2d;" horiz-adv-x="231" d="M20 216 L211 216 L211 254 L20 254 L20 216 L20 216 Z " />
<glyph glyph-name="period" unicode="&#x2e;" horiz-adv-x="221" d="M125 -5 C145 -5 161 11 161 31 C161 51 145 67 125 67 C105 67 89 51 89 31 C89 11 105 -5 125 -5 L125 -5 Z " />
<glyph glyph-name="slash" unicode="&#x2f;" horiz-adv-x="332" d="M0 -145 L22 -145 L332 710 L310 710 L0 -145 L0 -145 Z " />
<glyph glyph-name="zero" unicode="0" horiz-adv-x="561" d="M106 250 C106 385 184 494 281 494 C378 494 456 385 456 250 C456 115 378 6 281 6 C184 6 106 115 106 250 L106 250 Z M50 250 C50 108 153 -5 281 -5 C409 -5 511 108 511 250 C511 392 409 505 281 505 C153 505 50 392 50 250 L50 250 Z " />
<glyph glyph-name="one" unicode="1" horiz-adv-x="323" d="M269 13 L252 13 C216 12 187 41 187 77 L187 423 C187 459 216 488 252 487 L269 487 L269 500 L55 500 L55 487 L72 487 C108 488 137 459 137 423 L137 77 C137 41 108 12 72 13 L55 13 L55 0 L269 0 L269 13 L269 13 Z " />
<glyph glyph-name="two" unicode="2" horiz-adv-x="444" d="M406 132 L405 115 C403 79 371 50 335 50 L97 50 C262 163 385 245 385 349 C385 436 322 505 243 505 C180 505 103 440 70 358 L77 354 C103 417 165 468 218 468 C280 468 330 407 330 332 C330 200 194 129 24 11 L24 0 L407 0 L411 50 C413 77 416 109 418 132 L406 132 L406 132 Z " />
<glyph glyph-name="three" unicode="3" horiz-adv-x="419" d="M140 191 C238 191 316 123 316 38 C316 -88 187 -198 25 -208 L25 -215 C216 -203 369 -89 369 41 C369 135 275 210 158 210 C155 210 151 210 147 209 C250 256 324 324 324 379 C324 449 269 505 200 505 C135 505 50 448 10 376 L17 372 C47 425 117 468 174 468 C229 468 273 421 273 362 C273 305 195 234 93 196 C84 193 75 190 67 187 L67 179 C87 185 116 191 139 191 L140 191 L140 191 Z " />
<glyph glyph-name="four" unicode="4" horiz-adv-x="433" d="M21 8 L21 0 L284 0 L284 -150 L334 -150 L334 0 L423 0 L423 22 L334 22 L334 505 L326 505 C329 505 21 7 21 8 L21 8 Z M45 22 L284 412 C284 411 284 410 284 409 L284 22 L45 22 L45 22 Z " />
<glyph glyph-name="five" unicode="5" horiz-adv-x="403" d="M330 447 L347 500 C356 528 367 560 374 582 L361 582 L355 565 C344 529 306 500 270 500 L84 500 C84 423 68 221 68 221 L81 221 C81 221 81 225 82 231 C82 225 82 221 82 221 L118 221 C221 221 304 147 304 54 C304 -65 183 -166 32 -173 L32 -182 C211 -174 354 -61 354 71 C354 181 260 270 143 270 L86 270 C90 318 96 391 99 447 L330 447 L330 447 Z " />
<glyph glyph-name="six" unicode="6" horiz-adv-x="533" d="M470 715 C249 707 71 522 71 299 C71 130 162 -5 275 -5 C397 -5 489 93 483 216 C483 333 403 427 303 427 C189 427 114 344 134 240 L145 240 C126 337 192 414 294 414 C369 414 430 325 430 213 C436 100 370 9 281 9 C196 9 127 117 127 252 C127 270 130 298 130 316 C130 526 281 700 470 707 L470 715 L470 715 Z " />
<glyph glyph-name="seven" unicode="7" horiz-adv-x="401" d="M32 367 L33 384 C35 420 67 449 103 449 L367 449 L114 -140 L170 -140 C244 72 318 284 392 496 L389 501 L31 501 L29 476 C29 475 29 474 29 473 L28 456 C26 428 23 393 21 369 L32 367 L32 367 Z " />
<glyph glyph-name="eight" unicode="8" horiz-adv-x="502" d="M295 350 C366 367 421 437 421 517 L380 509 C380 432 340 366 288 352 C278 355 268 358 258 360 C188 374 132 443 132 515 C132 592 186 654 253 654 C323 654 379 589 379 509 L421 517 C421 599 348 665 256 665 C164 665 91 589 91 495 C91 418 147 344 221 317 C131 302 64 239 64 163 C64 70 150 -5 258 -5 C366 -5 452 75 452 174 C452 246 385 319 295 350 L295 350 Z M111 171 C111 241 161 299 229 314 C235 312 242 310 249 309 C336 292 406 224 406 157 C406 73 342 6 262 6 C179 6 112 79 112 171 L111 171 L111 171 Z " />
<glyph glyph-name="nine" unicode="9" horiz-adv-x="533" d="M63 -215 C284 -207 462 -22 462 201 C462 370 371 505 258 505 C136 505 44 407 50 284 C50 167 130 73 230 73 C344 73 419 156 399 260 L388 260 C407 163 341 86 239 86 C164 86 103 175 103 287 C97 400 163 491 252 491 C337 491 406 383 406 248 C406 230 403 202 403 184 C403 -26 252 -200 63 -207 L63 -215 L63 -215 Z " />
<glyph glyph-name="colon" unicode="&#x3a;" horiz-adv-x="221" d="M125 364 C145 364 161 380 161 400 C161 420 145 436 125 436 C105 436 89 420 89 400 C89 380 105 364 125 364 L125 364 Z M125 -5 C145 -5 161 11 161 31 C161 51 145 67 125 67 C105 67 89 51 89 31 C89 11 105 -5 125 -5 L125 -5 Z " />
<glyph glyph-name="semicolon" unicode="&#x3b;" horiz-adv-x="188" d="M96 364 C116 364 132 380 132 400 C132 420 116 436 96 436 C76 436 60 420 60 400 C60 380 76 364 96 364 L96 364 Z M96 67 C76 67 60 51 60 31 C60 9 89 -18 107 3 C117 -34 98 -77 74 -89 L74 -97 C110 -79 139 -32 139 9 C139 39 126 68 97 68 L96 67 L96 67 Z " />
<glyph glyph-name="less" unicode="&#x3c;" horiz-adv-x="498" d="M423 500 L46 290 C44 290 42 287 40 287 L40 263 L46 260 L423 50 L423 75 L61 275 L424 475 L423 500 L423 500 Z " />
<glyph glyph-name="equal" unicode="&#x3d;" horiz-adv-x="490" d="M78 211 L78 189 L420 189 L420 211 L78 211 L78 211 Z M78 311 L78 289 L420 289 L420 311 L78 311 L78 311 Z " />
<glyph glyph-name="greater" unicode="&#x3e;" horiz-adv-x="493" d="M75 50 C201 121 326 194 453 265 L453 285 C450 285 446 290 443 290 L75 500 L75 475 L429 275 L75 75 L75 50 L75 50 Z " />
<glyph glyph-name="question" unicode="&#x3f;" horiz-adv-x="329" d="M129 -5 C149 -5 165 11 165 31 C165 51 149 67 129 67 C109 67 93 51 93 31 C93 11 109 -5 129 -5 L129 -5 Z M141 329 L176 329 C268 329 294 406 294 444 C294 567 214 665 114 665 C73 665 41 635 41 598 C41 591 53 585 69 585 C86 585 112 626 129 626 C214 626 283 548 283 450 C283 423 255 368 159 368 L124 368 C118 368 114 364 114 360 L125 147 L132 147 L141 329 L141 329 Z " />
<glyph glyph-name="at" unicode="&#x40;" horiz-adv-x="1083" d="M988 0 C926 -133 731 -239 549 -239 C296 -239 94 -17 94 259 C94 535 293 757 542 757 C790 757 989 573 989 343 C989 155 906 4 802 4 C695 4 631 91 658 200 L728 480 L681 480 L657 386 C646 446 600 491 545 491 C400 491 283 361 283 198 C283 96 353 14 440 14 C503 14 570 68 605 142 C611 53 685 -12 793 -12 C923 -12 1028 146 1028 344 C1028 581 812 771 542 771 C272 771 55 544 55 260 C55 -24 275 -251 549 -251 C736 -251 939 -139 1004 1 L988 0 L988 0 Z M650 357 L611 201 C589 113 525 42 467 42 C395 42 338 116 338 208 C338 357 430 477 544 477 C603 477 650 424 650 357 L650 357 Z " />
<glyph glyph-name="A" unicode="A" horiz-adv-x="604" d="M0 0 L214 0 L214 13 L181 13 C138 12 113 45 124 87 L169 236 L397 236 L451 71 C459 38 439 13 405 13 L361 13 L361 0 L602 0 L602 13 L591 13 C558 13 521 41 509 77 L509 77 L303 675 L289 675 L102 77 C91 41 53 12 17 13 L0 13 L0 0 L0 0 Z M392 251 L174 251 L279 596 L392 251 L392 251 Z " />
<glyph glyph-name="B" unicode="B" horiz-adv-x="564" d="M302 358 C297 358 292 358 287 358 L222 356 L190 356 L190 646 L301 646 C376 646 437 586 437 511 C437 433 379 369 302 358 L302 358 Z M51 647 L68 647 C104 648 133 619 133 583 L133 77 C133 41 104 12 68 13 L51 13 L51 0 L323 0 C446 0 544 80 544 180 C544 267 456 338 338 354 C427 374 492 437 492 511 C492 594 407 660 301 660 L52 660 L51 647 L51 647 Z M190 347 L270 347 C390 347 487 273 487 180 C487 88 412 14 318 14 L190 14 L190 347 L190 347 Z " />
<glyph glyph-name="C" unicode="C" horiz-adv-x="680" d="M620 458 L620 584 C622 588 620 603 620 603 C560 637 453 666 377 666 C202 666 62 517 62 331 C62 145 202 -4 377 -4 C453 -4 561 24 621 58 L617 65 L617 65 L620 58 L620 203 L603 203 C601 192 596 176 594 165 C576 88 495 20 410 12 C410 11 378 10 376 10 C235 10 122 153 122 331 C122 509 235 652 376 652 C378 652 449 648 449 645 C513 634 577 568 593 497 C595 486 600 470 602 459 L620 458 L620 458 Z " />
<glyph glyph-name="D" unicode="D" horiz-adv-x="661" d="M51 647 L68 647 C104 648 133 619 133 583 L133 77 C133 41 104 12 68 13 L51 13 L51 0 L321 0 C482 0 611 147 611 330 C611 513 467 660 288 660 L51 660 L51 647 L51 647 Z M189 14 L189 646 L288 646 C437 646 556 505 556 330 C556 155 451 14 321 14 L189 14 L189 14 Z " />
<glyph glyph-name="E" unicode="E" horiz-adv-x="565" d="M473 156 L459 156 L443 114 C421 59 360 14 304 14 L177 14 L177 345 L266 345 C314 345 357 310 364 267 L366 253 L379 253 L379 441 L366 441 L364 429 C357 390 313 359 266 359 L177 359 L177 646 L297 646 C353 646 406 602 418 546 L427 504 L441 504 L441 660 L40 660 L40 647 L57 647 C93 648 122 619 122 583 L122 77 C122 41 93 12 57 13 L40 13 L40 0 L446 0 C452 44 465 112 472 156 L473 156 L473 156 Z " />
<glyph glyph-name="F" unicode="F" horiz-adv-x="474" d="M40 647 L57 647 C93 648 122 619 122 583 L122 77 C122 41 93 12 57 13 L40 13 L40 0 L269 0 L269 13 L242 13 C206 12 177 41 177 77 L177 340 L256 340 C304 340 347 305 354 262 L356 248 L369 248 L369 436 L356 436 L354 424 C347 385 303 354 256 354 L177 354 L177 646 L327 646 C383 646 436 602 448 546 L457 504 L471 504 L471 660 L40 660 L40 647 L40 647 Z " />
<glyph glyph-name="G" unicode="G" horiz-adv-x="784" d="M601 458 L601 589 C601 593 601 598 601 604 C541 638 437 666 366 666 C197 666 62 517 62 331 C62 145 197 -4 366 -4 C440 -4 547 24 607 58 L607 234 C607 270 636 299 672 298 L689 298 L689 311 L475 311 L475 298 L492 298 C528 299 557 270 557 234 L557 51 C499 27 423 10 367 10 C232 10 124 153 124 331 C124 509 232 652 367 652 C387 652 410 650 434 646 C497 633 560 568 576 497 C578 486 583 470 585 459 L601 458 L601 458 Z " />
<glyph glyph-name="H" unicode="H" horiz-adv-x="744" d="M705 13 L688 13 C652 12 623 41 623 77 L623 583 C623 619 652 648 688 647 L705 647 L705 660 L486 660 L486 647 L503 647 C539 648 568 619 568 583 L568 354 L177 354 L177 583 C177 619 206 648 242 647 L259 647 L259 660 L40 660 L40 647 L57 647 C93 648 122 619 122 583 L122 77 C122 41 93 12 57 13 L40 13 L40 0 L259 0 L259 13 L242 13 C206 12 177 41 177 77 L177 340 L568 340 L568 77 C568 41 539 12 503 13 L486 13 L486 0 L705 0 L705 13 L705 13 Z " />
<glyph glyph-name="I" unicode="I" horiz-adv-x="298" d="M259 13 L242 13 C206 12 177 41 177 77 L177 583 C177 619 206 648 242 647 L259 647 L259 660 L40 660 L40 647 L57 647 C93 648 122 619 122 583 L122 77 C122 41 93 12 57 13 L40 13 L40 0 L259 0 L259 13 L259 13 Z " />
<glyph glyph-name="J" unicode="J" horiz-adv-x="338" d="M299 660 L79 660 L79 647 L96 647 C132 648 161 619 161 583 L161 200 C161 67 140 1 97 1 C76 1 54 23 47 50 C44 62 33 72 22 72 C7 72 -3 62 0 50 C8 17 45 -10 83 -10 C172 -10 217 76 217 247 L217 583 C217 619 246 648 282 647 L299 647 L299 660 L299 660 Z " />
<glyph glyph-name="K" unicode="K" horiz-adv-x="613" d="M570 660 L401 660 L401 647 L412 647 C444 648 444 621 413 587 L228 394 L228 394 L190 354 L190 582 C190 618 219 647 255 646 L272 646 L272 659 L52 659 L52 646 L69 646 C105 647 134 618 134 582 L134 76 C134 40 105 11 69 12 L52 12 L52 -1 L272 -1 L272 12 L255 12 C219 11 190 40 190 76 L190 335 L198 344 C219 319 277 250 346 168 C445 51 523 -7 581 -7 L603 -7 L603 4 C568 4 503 69 385 208 C317 287 257 357 235 382 L426 580 C461 616 518 645 554 644 L569 644 L570 660 L570 660 Z M188 352 L188 352 L188 352 Z " />
<glyph glyph-name="L" unicode="L" horiz-adv-x="565" d="M474 163 C468 166 455 171 455 171 L433 104 C417 54 364 14 314 14 L177 14 L177 583 C177 619 206 648 242 647 L259 647 L259 660 L40 660 L40 647 L57 647 C93 648 122 619 122 583 L122 77 C122 41 93 12 57 13 L40 13 L40 0 L446 0 C453 46 467 117 474 163 L474 163 Z " />
<glyph glyph-name="M" unicode="M" horiz-adv-x="803" d="M762 660 L631 660 L416 66 L188 660 L63 660 L63 647 L80 647 C116 648 143 619 142 583 L123 73 C120 39 90 12 55 13 L39 13 L39 0 L254 0 L254 13 L217 13 C176 12 143 43 140 83 L159 587 C236 390 312 192 390 -5 L403 -5 L633 614 L653 77 C654 41 627 12 591 13 L574 13 L574 0 L792 0 L792 13 L775 13 C739 12 710 41 708 77 L708 77 L685 592 C688 624 714 648 748 647 L763 647 L762 660 L762 660 Z M417 66 L417 66 L417 66 Z " />
<glyph glyph-name="N" unicode="N" horiz-adv-x="678" d="M43 647 L60 647 C96 648 125 619 125 583 L125 77 C125 41 96 12 60 13 L43 13 L43 0 L223 0 L223 13 L206 13 C170 12 141 41 141 77 L141 609 C272 402 403 195 534 -12 L555 -12 L555 582 C555 618 584 647 620 646 L637 646 L637 659 L456 659 L456 646 L473 646 C509 647 538 618 538 582 L538 83 L174 659 L42 659 L43 647 L43 647 Z " />
<glyph glyph-name="O" unicode="O" horiz-adv-x="722" d="M123 330 C123 490 218 651 367 651 C516 651 611 490 611 330 C611 170 516 9 367 9 C218 9 123 170 123 330 L123 330 Z M62 330 C62 163 181 -5 367 -5 C553 -5 672 163 672 330 C672 497 553 665 367 665 C181 665 62 497 62 330 L62 330 Z " />
<glyph glyph-name="P" unicode="P" horiz-adv-x="539" d="M271 13 L254 13 C218 12 189 41 189 77 L189 298 L287 298 C416 298 519 378 519 478 C519 579 427 660 312 660 L51 660 L51 647 L68 647 C104 648 133 619 133 583 L133 77 C133 41 104 12 68 13 L51 13 L51 0 L271 0 L271 13 L271 13 Z M189 312 L189 646 L312 646 C395 646 461 571 461 478 C461 385 384 311 287 311 C287 311 216 312 189 312 L189 312 Z " />
<glyph glyph-name="Q" unicode="Q" horiz-adv-x="722" d="M747 -51 L742 -47 C721 -72 657 -92 599 -92 C510 -92 426 -54 373 -5 C555 -1 671 165 671 330 C671 497 552 665 366 665 C180 665 61 497 61 330 C61 167 174 3 352 -5 C423 -74 516 -128 592 -128 C642 -128 710 -94 746 -51 L747 -51 L747 -51 Z M122 330 C122 490 217 651 366 651 C515 651 610 490 610 330 C610 170 515 9 366 9 C217 9 122 170 122 330 L122 330 Z " />
<glyph glyph-name="R" unicode="R" horiz-adv-x="595" d="M51 647 L68 647 C104 648 133 619 133 583 L133 77 C133 41 104 12 68 13 L51 13 L51 0 L271 0 L271 13 L254 13 C218 12 189 41 189 77 L189 317 L261 317 C285 286 350 203 427 106 C501 12 518 0 573 0 L594 0 L594 11 C569 11 564 17 503 95 C418 203 346 293 324 321 C421 338 493 407 493 490 C493 584 407 660 299 660 L50 660 L51 647 L51 647 Z M277 330 L188 331 L188 646 L299 646 C374 646 435 577 435 490 C435 401 365 330 277 330 L277 330 Z " />
<glyph glyph-name="S" unicode="S" horiz-adv-x="467" d="M388 465 L388 614 C339 642 266 665 224 665 C128 665 51 583 51 481 C51 417 122 341 211 309 C306 275 383 202 383 145 C383 70 323 9 248 9 C235 9 220 10 204 12 C143 25 85 87 69 156 C67 167 62 183 60 194 L43 194 L43 45 C92 17 183 -6 248 -6 C345 -6 422 71 422 167 C422 235 347 317 253 350 C163 382 90 450 90 503 C90 585 148 650 221 650 C285 650 338 609 351 554 C357 529 365 489 371 464 L388 465 L388 465 Z " />
<glyph glyph-name="T" unicode="T" horiz-adv-x="583" d="M12 489 L28 489 L50 566 C63 610 109 646 154 646 L264 646 L264 77 C264 41 235 12 199 13 L182 13 L182 0 L401 0 L401 13 L384 13 C348 12 319 41 319 77 L319 646 L429 646 C474 646 520 610 533 566 L555 489 L571 489 C567 538 563 613 556 660 L27 660 C20 613 16 538 12 489 L12 489 Z " />
<glyph glyph-name="U" unicode="U" horiz-adv-x="686" d="M644 660 L438 660 L438 647 L460 647 C502 648 535 615 535 573 L535 182 C535 89 473 14 350 14 C236 14 179 95 179 196 L179 583 C179 619 208 648 244 647 L261 647 L261 660 L41 660 L41 647 L58 647 C94 648 123 619 123 583 L123 207 C123 89 196 -5 342 -5 C482 -5 552 76 552 177 L552 573 C552 615 585 648 627 647 L644 647 L644 660 L644 660 Z " />
<glyph glyph-name="V" unicode="V" horiz-adv-x="659" d="M628 660 L406 660 L406 647 L435 647 C487 648 516 605 502 552 L339 -16 L353 -16 L528 582 C540 617 576 647 612 646 L628 646 L628 660 L628 660 Z M261 659 L31 659 L31 646 L41 646 C72 647 108 618 121 582 L339 -16 L361 62 L181 582 C170 617 187 647 223 646 L261 646 L261 659 L261 659 Z " />
<glyph glyph-name="W" unicode="W" horiz-adv-x="937" d="M261 660 L40 660 L40 647 L50 647 C80 648 112 622 124 588 L303 -15 L317 -15 L464 574 L633 -15 L647 -15 L803 583 C812 619 849 648 885 647 L901 647 L901 660 L694 660 L694 647 L738 647 C774 647 795 619 786 583 L786 583 L656 74 L488 670 L474 670 L324 69 L185 583 C175 619 196 648 232 647 L261 647 L261 660 L261 660 Z " />
<glyph glyph-name="X" unicode="X" horiz-adv-x="613" d="M261 660 L37 660 L37 647 L46 647 C75 648 114 618 135 582 L285 321 L154 76 C135 40 90 11 54 12 L38 12 L38 -1 L249 -1 L249 12 L218 12 C174 11 157 47 180 91 L293 307 L430 69 C445 36 431 11 397 12 L362 12 L362 -1 L586 -1 L586 12 L577 12 C548 11 509 41 488 77 C434 171 379 266 326 360 L459 589 C481 622 524 648 558 647 L574 647 L574 660 L364 660 L364 647 L409 647 C445 647 457 619 437 583 L437 583 L318 373 L193 590 C178 623 192 648 226 647 L261 647 L261 660 L261 660 Z " />
<glyph glyph-name="Y" unicode="Y" horiz-adv-x="627" d="M194 0 L413 0 L413 13 L396 13 C360 12 331 41 331 77 L331 287 L486 587 C506 621 546 648 578 647 L589 647 L589 660 L390 660 L390 647 L416 647 C460 648 479 615 462 572 L320 294 L185 582 C168 618 184 647 220 646 L246 646 L246 659 L27 659 L27 646 L36 646 C64 647 101 618 119 582 L120 582 L275 265 L276 71 C273 38 245 12 211 13 L194 13 L194 0 L194 0 Z " />
<glyph glyph-name="Z" unicode="Z" horiz-adv-x="556" d="M506 163 C500 166 487 171 487 171 L465 104 C449 54 396 14 346 14 L123 14 L491 660 L119 660 C108 621 92 559 81 519 L97 519 L121 566 C144 610 198 646 243 646 L420 646 L52 0 L478 0 C485 46 499 117 506 163 L506 163 Z " />
<glyph glyph-name="bracketleft" unicode="&#x5b;" horiz-adv-x="231" d="M116 649 L221 649 L221 660 L77 660 L77 -120 L221 -120 L221 -109 L116 -109 L116 649 L116 649 Z " />
<glyph glyph-name="backslash" unicode="&#x5c;" horiz-adv-x="224" d="M207 -145 L224 -145 L-43 710 L-60 710 L207 -145 L207 -145 Z " />
<glyph glyph-name="bracketright" unicode="&#x5d;" horiz-adv-x="219" d="M110 649 L110 -109 L5 -109 L5 -120 L149 -120 L149 660 L5 660 L5 649 L110 649 L110 649 Z " />
<glyph glyph-name="asciicircum" unicode="&#x5e;" horiz-adv-x="293" d="M163 731 C161 735 155 745 147 745 C139 745 133 735 131 731 C131 731 31 532 36 538 L41 533 C70 568 120 647 146 689 C182 630 253 534 253 534 L258 539 C258 539 216 625 164 732 L163 731 L163 731 Z " />
<glyph glyph-name="underscore" unicode="&#x5f;" horiz-adv-x="371" d="M5 -50 L5 -78 L366 -78 L366 -50 L5 -50 L5 -50 Z " />
<glyph glyph-name="grave" unicode="&#x60;" horiz-adv-x="293" d="M64 715 C64 710 83 687 107 660 C136 623 220 531 220 531 L226 535 C226 535 162 642 133 680 C114 711 97 735 93 735 C85 735 64 721 64 715 L64 715 Z " />
<glyph glyph-name="a" unicode="a" horiz-adv-x="446" d="M424 37 C411 24 393 14 372 14 C344 14 333 40 333 73 L333 359 C333 440 285 505 226 505 C148 505 77 461 66 406 L116 406 C125 453 169 491 215 491 C251 491 280 438 280 371 L280 251 C252 247 209 241 183 235 C101 215 36 156 36 103 C36 44 80 -4 135 -4 C177 -4 236 26 280 67 C280 25 296 -8 338 -8 C375 -8 407 10 429 32 L424 37 L424 37 Z M280 240 L280 78 C245 50 197 30 159 30 C118 30 85 69 85 117 C85 160 129 205 183 219 C216 227 255 235 280 240 L280 240 Z " />
<glyph glyph-name="b" unicode="b" horiz-adv-x="533" d="M129 24 C170 24 222 -5 278 -5 C399 -5 496 108 496 248 C496 391 410 505 302 505 C263 505 192 484 143 458 L143 720 L133 720 L11 685 L11 673 L23 673 C77 672 93 657 93 606 L93 0 L99 0 C103 13 117 24 129 24 L129 24 Z M278 9 C203 9 143 64 143 133 L143 450 C177 468 231 483 263 483 C363 483 443 368 443 225 C443 105 370 9 278 9 L278 9 Z " />
<glyph glyph-name="c" unicode="c" horiz-adv-x="438" d="M386 41 L382 47 C367 35 313 25 260 25 C173 25 103 127 103 254 C103 386 175 491 264 491 C303 491 337 452 341 404 C342 390 353 379 366 379 C378 379 388 389 388 401 C383 459 330 505 270 505 C148 505 50 385 50 235 C50 102 125 -5 218 -5 C281 -5 356 15 386 41 L386 41 Z " />
<glyph glyph-name="d" unicode="d" horiz-adv-x="531" d="M289 673 L301 673 C355 672 371 657 371 606 L371 436 C340 474 283 505 229 505 C117 505 28 380 28 225 C28 97 109 -5 210 -5 C264 -5 333 20 371 53 L371 0 L381 0 L503 35 L503 47 L491 47 C437 48 421 63 421 114 L421 720 L411 720 L289 685 L289 673 L289 673 Z M371 60 C348 40 291 25 237 25 C150 25 80 122 80 243 C80 380 145 490 227 490 C285 490 346 452 370 411 L371 60 L371 60 Z " />
<glyph glyph-name="e" unicode="e" horiz-adv-x="445" d="M393 41 L389 47 C374 35 318 25 263 25 C174 25 103 127 103 254 C103 278 105 301 109 323 L395 323 C395 423 327 504 243 504 C136 504 50 384 50 234 C50 101 127 -6 222 -6 C286 -6 363 14 393 40 L393 41 L393 41 Z M347 360 C345 350 337 342 327 341 L111 333 C130 425 181 490 241 490 C301 490 354 427 349 366 C349 366 349 364 349 360 L347 360 L347 360 Z " />
<glyph glyph-name="f" unicode="f" horiz-adv-x="339" d="M254 13 L237 13 C201 12 172 41 172 77 L172 481 L282 481 L282 500 L172 500 L172 533 C172 631 236 709 261 709 C285 709 306 687 308 660 C310 633 355 630 355 660 C352 693 316 720 274 720 C191 720 125 642 125 544 C123 544 122 500 122 500 L52 500 L52 481 L122 481 L122 77 C122 41 93 12 57 13 L40 13 L40 0 L254 0 L254 13 L254 13 Z " />
<glyph glyph-name="g" unicode="g" horiz-adv-x="430" d="M430 500 L295 490 C185 541 69 458 69 350 C69 281 114 223 177 203 C107 201 52 162 52 112 C52 68 94 32 151 22 C81 -7 28 -64 28 -110 C28 -181 88 -238 163 -238 C301 -238 411 -154 411 -49 C411 17 337 70 244 70 C240 70 179 67 179 67 C127 67 86 96 86 132 C86 167 130 195 184 195 L228 195 C316 195 386 264 386 350 C386 399 363 443 327 471 L431 472 L430 500 L430 500 Z M228 206 C166 206 117 270 117 350 C117 430 166 494 228 494 C290 494 339 430 339 350 C339 270 290 206 228 206 L228 206 Z M165 21 C170 21 175 21 180 21 L229 24 C309 24 374 -19 374 -73 C374 -157 282 -224 167 -224 C108 -224 60 -171 60 -104 C60 -57 106 -2 164 21 L165 21 L165 21 Z " />
<glyph glyph-name="h" unicode="h" horiz-adv-x="596" d="M343 0 L557 0 L557 13 L540 13 C504 12 475 41 475 77 L475 336 C475 430 438 505 363 505 C331 505 249 476 177 439 L177 721 L167 721 L45 686 L45 674 L57 674 C111 673 127 658 127 607 L127 78 C127 42 98 13 62 14 L45 14 L45 1 L259 1 L259 14 L242 14 C206 13 177 42 177 78 L177 434 C220 455 284 471 324 471 C391 471 425 409 425 331 L425 77 C425 41 396 12 360 13 L343 13 L343 0 L343 0 Z " />
<glyph glyph-name="i" unicode="i" horiz-adv-x="303" d="M149 570 C168 570 183 585 183 603 C183 647 116 648 116 604 C116 586 131 571 149 571 L149 570 L149 570 Z M259 14 L242 14 C206 13 177 42 177 78 L177 501 L167 501 L45 466 L45 454 L57 454 C111 453 127 438 127 387 L127 78 C127 42 98 13 62 14 L45 14 L45 1 L259 1 L259 14 L259 14 Z " />
<glyph glyph-name="j" unicode="j" horiz-adv-x="239" d="M147 570 C166 570 181 585 181 603 C181 647 114 648 114 604 C114 586 129 571 147 571 L147 570 L147 570 Z M43 454 L55 454 C109 453 125 438 125 387 L125 9 C125 -129 98 -185 36 -224 L41 -231 C135 -172 176 -109 176 23 C175 25 175 488 175 488 L175 501 L165 501 L43 466 L43 454 L43 454 Z " />
<glyph glyph-name="k" unicode="k" horiz-adv-x="519" d="M549 13 L533 13 C498 12 448 39 417 73 L225 305 L349 424 C387 460 446 489 482 488 L497 488 L497 501 L325 501 L325 488 L336 488 C368 489 367 461 333 426 C284 377 236 327 186 278 C186 336 187 708 184 708 L184 721 L174 721 L52 686 L52 674 L64 674 C118 673 134 658 134 607 L134 78 C134 42 105 13 69 14 L52 14 L52 1 L266 1 L266 14 L249 14 C216 13 189 37 185 69 C185 118 186 189 186 268 L189 271 L356 71 C380 38 375 13 343 14 L332 14 L332 1 L548 1 L549 13 L549 13 Z " />
<glyph glyph-name="l" unicode="l" horiz-adv-x="303" d="M259 13 L242 13 C206 12 177 41 177 77 L177 720 L167 720 L45 685 L45 673 L57 673 C111 672 127 657 127 606 L127 77 C127 41 98 12 62 13 L45 13 L45 0 L259 0 L259 13 L259 13 Z " />
<glyph glyph-name="m" unicode="m" horiz-adv-x="914" d="M661 0 L875 0 L875 13 L858 13 C822 12 793 41 793 77 L793 336 C793 430 736 505 672 505 C646 505 559 467 469 420 C448 471 410 505 369 505 C329 505 248 476 176 439 L176 501 L166 501 L44 466 L44 454 L56 454 C110 453 126 438 126 387 L126 78 C126 42 97 13 61 14 L44 14 L44 1 L258 1 L258 14 L241 14 C205 13 176 42 176 78 L176 434 C223 458 286 476 329 476 C384 476 434 412 434 332 L434 78 C434 42 405 13 369 14 L352 14 L352 1 L566 1 L566 14 L549 14 C513 13 484 42 484 78 L484 337 C484 365 479 391 471 414 C533 446 601 472 632 472 C690 472 742 410 742 332 L742 78 C742 42 713 13 677 14 L660 14 L661 0 L661 0 Z " />
<glyph glyph-name="n" unicode="n" horiz-adv-x="587" d="M343 0 L557 0 L557 13 L540 13 C504 12 475 41 475 77 L475 336 C475 430 438 505 363 505 C331 505 249 476 177 439 L177 501 L167 501 L45 466 L45 454 L57 454 C111 453 127 438 127 387 L127 78 C127 42 98 13 62 14 L45 14 L45 1 L259 1 L259 14 L242 14 C206 13 177 42 177 78 L177 434 C220 455 284 471 324 471 C391 471 425 409 425 331 L425 77 C425 41 396 12 360 13 L343 13 L343 0 L343 0 Z " />
<glyph glyph-name="o" unicode="o" horiz-adv-x="551" d="M106 250 C106 385 182 494 276 494 C370 494 446 385 446 250 C446 115 370 6 276 6 C182 6 106 115 106 250 L106 250 Z M50 250 C50 108 151 -5 276 -5 C401 -5 501 108 501 250 C501 392 401 505 276 505 C151 505 50 392 50 250 L50 250 Z " />
<glyph glyph-name="p" unicode="p" horiz-adv-x="594" d="M250 -217 L233 -217 C197 -218 168 -189 168 -153 L168 52 C202 18 254 -4 311 -4 C438 -4 540 113 540 259 C540 396 456 506 352 506 C292 506 212 470 169 424 L169 501 L159 501 L37 466 L37 454 L49 454 C103 453 119 438 119 387 L119 -152 C119 -188 90 -217 54 -216 L37 -216 L37 -229 L251 -229 L250 -217 L250 -217 Z M169 136 L169 416 C200 448 262 473 313 473 C412 473 491 361 491 221 C491 104 411 11 311 11 C238 11 175 67 169 137 L169 136 L169 136 Z " />
<glyph glyph-name="q" unicode="q" horiz-adv-x="565" d="M539 -217 L522 -217 C486 -218 457 -189 457 -153 L457 500 L451 500 C447 487 431 476 415 476 C375 476 325 505 271 505 C157 505 65 380 65 225 C65 97 143 -5 240 -5 C295 -5 367 23 407 58 L407 -152 C407 -188 378 -217 342 -216 L325 -216 L325 -229 L539 -229 L539 -217 L539 -217 Z M407 68 C382 45 321 27 268 27 C184 27 117 124 117 245 C117 382 186 492 271 492 C346 492 407 437 407 368 L407 68 L407 68 Z " />
<glyph glyph-name="r" unicode="r" horiz-adv-x="358" d="M18 453 L30 453 C84 452 100 437 100 386 L100 77 C100 41 71 12 35 13 L18 13 L18 0 L232 0 L232 13 L215 13 C179 12 150 41 150 77 L150 418 C175 446 211 467 235 467 C260 467 299 445 324 445 C337 445 348 456 348 469 C348 488 324 504 275 504 C242 504 188 469 150 424 L150 499 L140 499 L18 464 L18 453 L18 453 Z " />
<glyph glyph-name="s" unicode="s" horiz-adv-x="385" d="M312 363 L312 461 L308 453 C308 455 311 458 312 461 C270 485 219 505 197 505 C124 505 65 448 65 378 C65 331 120 266 188 232 C246 203 293 153 293 118 C293 56 251 6 199 6 C192 6 184 7 176 8 C130 17 84 63 70 115 C68 123 64 134 62 142 L48 142 L48 34 C85 12 151 -5 196 -5 C273 -5 335 58 335 136 C335 179 285 237 223 268 C157 301 104 357 104 395 C104 450 145 494 197 494 C197 494 212 492 211 490 C249 476 285 434 293 394 C295 385 296 372 298 363 L312 363 L312 363 Z " />
<glyph glyph-name="t" unicode="t" horiz-adv-x="313" d="M283 500 L145 500 L145 640 L137 640 L99 495 L119 571 C107 528 66 491 25 487 L25 481 L95 481 L95 111 C95 27 116 -5 171 -5 C217 -5 261 17 293 44 L290 48 C269 31 237 17 196 17 C159 17 145 41 145 102 L145 481 L283 481 L283 500 L283 500 Z M119 571 L119 572 L119 572 L119 571 L119 571 Z " />
<glyph glyph-name="u" unicode="u" horiz-adv-x="561" d="M15 487 L32 487 C68 488 97 459 97 423 L97 156 C97 67 150 -5 232 -5 C295 -5 356 22 395 57 L395 0 L405 0 L527 35 L527 47 L515 47 C461 48 445 63 445 114 L445 500 L313 500 L313 487 L330 487 C366 488 395 459 395 423 L395 65 C372 44 327 28 272 28 C195 28 146 87 146 161 L147 500 L15 500 L15 487 L15 487 Z " />
<glyph glyph-name="v" unicode="v" horiz-adv-x="529" d="M218 500 L2 500 L2 487 L18 487 C53 488 91 460 104 425 L251 -10 L259 -10 L406 423 C418 459 457 488 493 487 L509 487 L509 500 L333 500 L333 487 L346 487 C382 488 401 458 390 422 L272 56 L159 422 C149 458 168 488 204 487 L217 487 L218 500 L218 500 Z " />
<glyph glyph-name="w" unicode="w" horiz-adv-x="767" d="M482 500 L265 500 L265 487 L274 487 C302 488 334 460 347 425 C357 394 368 363 378 333 L298 58 L184 431 C178 463 198 488 232 487 L260 487 L260 500 L44 500 L44 487 L54 487 C84 488 118 460 131 425 L278 -11 L286 -11 L384 314 L494 -11 L502 -11 L650 422 C662 458 701 487 737 486 L753 486 L753 499 L547 499 L547 486 L590 486 C626 486 646 458 634 422 L516 58 L404 422 C394 458 413 488 449 487 L482 487 L482 500 L482 500 Z " />
<glyph glyph-name="x" unicode="x" horiz-adv-x="570" d="M278 500 L62 500 L62 487 L72 487 C103 488 146 459 170 423 L171 423 L282 254 L177 77 L176 77 C155 41 109 12 73 13 L47 13 L47 0 L273 0 L273 13 L218 13 C182 13 170 41 191 77 L191 77 L288 244 L404 68 C421 36 410 12 378 13 L367 13 L367 0 L558 0 L558 13 L550 13 C524 12 484 41 460 77 L459 77 L319 291 L404 423 C427 459 474 489 510 488 L526 488 L526 501 L331 501 L331 488 L366 488 C402 489 411 459 390 424 L313 300 L226 432 C209 464 221 488 254 487 L278 487 L278 500 L278 500 Z " />
<glyph glyph-name="y" unicode="y" horiz-adv-x="540" d="M254 500 L38 500 L38 487 L54 487 C89 488 127 460 140 425 L284 -3 C280 -14 270 -39 260 -68 C231 -155 202 -198 174 -198 C174 -198 131 -174 114 -174 C100 -174 88 -183 88 -195 C88 -215 112 -231 143 -231 C194 -231 237 -178 273 -73 C285 -38 294 -11 294 -11 L441 422 C453 458 492 487 528 486 L544 486 L544 499 L368 499 L368 486 L381 486 C417 487 436 457 425 421 L307 55 L194 421 C184 457 203 487 239 486 L252 486 L254 500 L254 500 Z " />
<glyph glyph-name="z" unicode="z" horiz-adv-x="446" d="M393 168 L371 101 C355 51 302 11 252 11 L121 11 L396 500 L71 500 C61 470 51 422 42 391 L58 391 L67 408 C94 452 152 487 196 488 L332 488 L56 -1 L384 -1 L385 4 L385 4 C393 47 405 116 412 159 C406 162 393 167 393 167 L393 168 L393 168 Z " />
<glyph glyph-name="braceleft" unicode="&#x7b;" horiz-adv-x="217" d="M202 -120 L202 -112 L173 -112 C126 -112 89 -67 89 -10 L89 175 C89 223 63 263 30 270 C63 277 89 317 89 366 L89 550 C89 607 126 652 173 652 L202 652 L202 660 L162 660 C100 660 50 611 50 550 L50 338 C50 299 32 274 5 274 L5 266 C32 266 50 241 50 203 L50 -10 C50 -71 100 -120 162 -120 L202 -120 L202 -120 Z " />
<glyph glyph-name="bar" unicode="&#x7c;" horiz-adv-x="159" d="M60 770 L60 -234 L99 -234 L99 770 L60 770 L60 770 Z " />
<glyph glyph-name="braceright" unicode="&#x7d;" horiz-adv-x="217" d="M5 660 L5 652 L34 652 C81 652 118 607 118 550 L118 365 C118 317 144 277 177 270 C144 263 118 223 118 174 L118 -10 C118 -67 81 -112 34 -112 L5 -112 L5 -120 L45 -120 C107 -120 157 -71 157 -10 L157 202 C157 241 175 266 202 266 L202 274 C175 274 157 299 157 337 L157 550 C157 611 107 660 45 660 L5 660 L5 660 Z " />
<glyph glyph-name="asciitilde" unicode="&#x7e;" horiz-adv-x="293" d="M31 310 C31 347 47 377 67 377 C108 377 172 314 213 314 C245 314 271 356 271 408 L262 408 C262 374 245 347 224 347 C183 347 119 410 78 410 C47 410 23 366 23 310 L31 310 L31 310 Z " />
<glyph glyph-name="nbspace" unicode="&#xa0;" horiz-adv-x="178" d="" />
<glyph glyph-name="exclamdown" unicode="&#xa1;" horiz-adv-x="184" d="M88 505 C68 505 52 489 52 469 C52 449 68 433 88 433 C108 433 124 449 124 469 C124 489 108 505 88 505 L88 505 Z M60 -120 C59 -145 72 -165 91 -165 C110 -165 124 -145 122 -120 C122 145 91 358 91 358 L85 358 C85 358 60 145 60 -120 L60 -120 Z " />
<glyph glyph-name="cent" unicode="&#xa2;" horiz-adv-x="438" d="M247 575 L247 504 C136 490 50 376 50 236 C50 103 125 -4 218 -4 C227 -4 237 -4 247 -3 L247 -74 L263 -74 L263 -1 C313 6 363 22 386 42 L382 48 C367 36 315 26 263 26 L263 492 C303 492 337 454 341 405 C342 391 353 380 366 380 C378 380 388 390 388 402 C383 462 328 508 263 506 L263 576 L247 575 L247 575 Z M247 27 C166 37 103 135 103 256 C103 379 166 479 247 491 L247 27 L247 27 Z " />
<glyph glyph-name="guillemotleft" unicode="&#xab;" horiz-adv-x="392" d="M206 249 C229 289 302 416 345 459 L340 464 C250 374 158 253 158 253 L158 247 C169 221 341 36 341 36 L347 41 C347 41 243 174 206 249 L206 249 Z M68 249 C91 289 164 416 207 459 L202 464 C112 374 20 253 20 253 L20 247 C31 221 203 36 203 36 L209 41 C209 41 105 174 68 249 L68 249 Z " />
<glyph glyph-name="acute" unicode="&#xb4;" horiz-adv-x="293" d="M70 531 C70 531 151 623 180 660 C203 687 221 711 221 715 C221 721 201 735 193 735 C190 735 173 711 154 680 C125 643 64 535 64 535 L70 531 L70 531 Z " />
<glyph glyph-name="guillemotright" unicode="&#xbb;" horiz-adv-x="392" d="M51 36 C51 36 223 221 234 247 L234 253 C234 253 142 374 52 464 L47 459 C90 416 163 289 186 249 C149 174 45 41 45 41 L51 36 L51 36 Z M189 36 C189 36 361 221 372 247 L372 253 C372 253 280 374 190 464 L185 459 C228 416 301 289 324 249 C287 174 183 41 183 41 L189 36 L189 36 Z " />
<glyph glyph-name="onequarter" unicode="&#xbc;" horiz-adv-x="768" d="M138 -14 L653 656 L630 674 L116 4 L138 -14 L138 -14 Z M597 301 L596 303 C596 303 579 276 568 252 C523 180 441 57 441 57 L441 50 L559 50 L559 -2 L602 -2 L602 50 L646 50 L646 69 L602 69 L602 287 C603 290 603 291 602 290 L602 303 L596 303 C596 303 596 302 596 301 L597 301 L597 301 Z M463 69 C484 100 527 164 560 215 L560 68 L463 69 L463 69 Z M597 302 L596 302 C597 302 597 302 597 302 L597 302 Z M287 421 L278 421 C260 420 246 435 246 453 L246 626 C246 649 263 658 287 658 L287 664 L162 664 L162 658 C186 658 203 649 203 626 L203 453 C203 435 189 420 171 421 L162 421 L162 414 L287 414 L287 421 L287 421 Z " />
<glyph glyph-name="onehalf" unicode="&#xbd;" horiz-adv-x="768" d="M138 -14 L653 656 L630 674 L116 4 L138 -14 L138 -14 Z M638 0 L640 21 C642 39 644 66 646 84 L639 84 C639 60 627 43 604 43 L510 43 C582 93 633 132 633 177 C633 220 600 254 559 254 C526 254 486 221 470 181 L475 177 C485 202 513 222 538 222 C564 222 585 196 585 163 C585 95 524 64 447 11 L447 1 C454 6 461 11 468 16 C460 8 452 1 446 1 L638 0 L638 0 Z M286 423 L277 423 C259 422 245 437 245 455 L245 628 C245 651 262 660 286 660 L286 666 L161 666 L161 660 C185 660 202 651 202 628 L202 455 C202 437 188 422 170 423 L161 423 L161 416 L286 416 L286 423 L286 423 Z " />
<glyph glyph-name="threequarters" unicode="&#xbe;" horiz-adv-x="768" d="M134 512 L134 505 C144 508 159 511 169 511 C211 511 244 486 244 455 C244 399 186 351 113 347 L113 340 C211 346 289 398 289 457 C289 494 251 526 200 533 C242 556 270 584 270 607 C270 641 241 669 205 669 C169 669 125 640 105 605 L110 601 C121 621 154 637 183 637 C207 637 227 618 227 593 C227 574 209 552 181 535 C180 535 179 535 178 535 C179 535 180 535 180 535 C165 526 151 520 132 513 L134 512 L134 512 Z M136 -13 L651 657 L628 675 L114 5 L136 -13 L136 -13 Z M595 302 L594 304 C594 304 577 277 566 253 C521 181 439 58 439 58 L439 51 L557 51 L557 -1 L600 -1 L600 51 L644 51 L644 70 L600 70 L600 288 C601 291 601 292 600 291 L600 304 L594 304 C594 304 594 303 594 302 L595 302 L595 302 Z M461 70 C482 101 525 165 558 216 L558 69 L461 70 L461 70 Z M595 303 L594 303 C595 303 595 303 595 303 L595 303 Z " />
<glyph glyph-name="questiondown" unicode="&#xbf;" horiz-adv-x="329" d="M200 505 C180 505 164 489 164 469 C164 449 180 433 200 433 C220 433 236 449 236 469 C236 489 220 505 200 505 L200 505 Z M188 171 L153 171 C61 171 35 94 35 56 C35 -67 115 -165 215 -165 C256 -165 288 -135 288 -98 C288 -91 276 -85 260 -85 C243 -85 217 -126 200 -126 C115 -126 46 -48 46 50 C46 77 74 132 170 132 L205 132 C211 132 215 136 215 140 L204 353 L197 353 L188 171 L188 171 Z " />
<glyph glyph-name="Agrave" unicode="&#xc0;" horiz-adv-x="604" d="M0 0 L214 0 L214 13 L181 13 C138 12 113 45 124 87 L169 236 L397 236 L451 71 C459 38 439 13 405 13 L361 13 L361 0 L602 0 L602 13 L591 13 C558 13 521 41 509 77 L509 77 L303 675 L289 675 L102 77 C91 41 53 12 17 13 L0 13 L0 0 L0 0 Z M214 875 C214 870 233 847 257 820 C286 783 370 691 370 691 L375 695 C375 695 311 802 282 840 C263 871 246 895 242 895 C234 895 214 881 214 875 L214 875 Z M392 251 L174 251 L279 596 L392 251 L392 251 Z " />
<glyph glyph-name="Aacute" unicode="&#xc1;" horiz-adv-x="604" d="M233 691 C233 691 314 783 343 820 C366 848 385 872 385 875 C385 881 364 895 356 895 C354 895 337 871 318 840 C289 803 228 695 228 695 L233 691 L233 691 Z M0 0 L214 0 L214 13 L181 13 C138 12 113 45 124 87 L169 236 L397 236 L451 71 C459 38 439 13 405 13 L361 13 L361 0 L602 0 L602 13 L591 13 C558 13 521 41 509 77 L509 77 L303 675 L289 675 L102 77 C91 41 53 12 17 13 L0 13 L0 0 L0 0 Z M392 251 L174 251 L279 596 L392 251 L392 251 Z " />
<glyph glyph-name="Acircumflex" unicode="&#xc2;" horiz-adv-x="604" d="M0 0 L214 0 L214 13 L181 13 C138 12 113 45 124 87 L169 236 L397 236 L451 71 C459 38 439 13 405 13 L361 13 L361 0 L602 0 L602 13 L591 13 C558 13 521 41 509 77 L509 77 L303 675 L289 675 L102 77 C91 41 53 12 17 13 L0 13 L0 0 L0 0 Z M312 891 C310 895 304 905 296 905 C288 905 282 895 280 891 C280 891 180 692 185 698 L191 693 C220 727 270 805 296 847 C332 788 402 693 402 693 L408 698 C408 698 365 785 313 891 L312 891 L312 891 Z M393 251 L175 251 L280 596 L393 251 L393 251 Z " />
<glyph glyph-name="Atilde" unicode="&#xc3;" horiz-adv-x="604" d="M180 755 C180 792 196 822 216 822 C257 822 321 759 362 759 C394 759 420 801 420 853 L412 853 C412 819 395 792 373 792 C332 792 268 855 227 855 C196 855 172 811 172 755 L180 755 L180 755 Z M0 0 L214 0 L214 13 L181 13 C138 12 113 45 124 87 L169 236 L397 236 L451 71 C459 38 439 13 405 13 L361 13 L361 0 L602 0 L602 13 L591 13 C558 13 521 41 509 77 L509 77 L303 675 L289 675 L102 77 C91 41 53 12 17 13 L0 13 L0 0 L0 0 Z M392 251 L174 251 L279 596 L392 251 L392 251 Z " />
<glyph glyph-name="Adieresis" unicode="&#xc4;" horiz-adv-x="604" d="M414 761 C414 800 353 801 353 762 C353 721 414 722 414 761 L414 761 Z M239 761 C239 800 178 799 178 761 C178 721 239 720 239 760 L239 761 L239 761 Z M0 -1 L214 -1 L214 12 L181 12 C138 11 113 44 124 86 L169 235 L397 235 L451 70 C459 37 439 12 405 12 L361 12 L361 -1 L602 -1 L602 12 L591 12 C558 12 521 40 509 76 L509 76 L303 674 L289 674 L102 76 C91 40 53 11 17 12 L0 12 L0 -1 L0 -1 Z M392 250 L174 250 L279 595 L392 250 L392 250 Z " />
<glyph glyph-name="Aring" unicode="&#xc5;" horiz-adv-x="604" d="M216 788 C216 833 252 869 296 869 C340 869 376 833 376 788 C376 747 336 706 296 706 C256 706 216 747 216 788 L216 788 Z M202 788 C202 742 249 695 296 695 C343 695 390 742 390 788 C390 839 348 880 296 880 C244 880 202 839 202 788 L202 788 Z M0 0 L214 0 L214 13 L181 13 C138 12 113 45 124 87 L169 236 L397 236 L451 71 C459 38 439 13 405 13 L361 13 L361 0 L602 0 L602 13 L591 13 C558 13 521 41 509 77 L509 77 L303 675 L289 675 L102 77 C91 41 53 12 17 13 L0 13 L0 0 L0 0 Z M392 251 L174 251 L279 596 L392 251 L392 251 Z " />
<glyph glyph-name="Ccedilla" unicode="&#xc7;" horiz-adv-x="680" d="M620 458 L620 584 C622 588 620 603 620 603 C560 637 453 666 377 666 C202 666 62 517 62 331 C62 147 199 -1 372 -4 C369 -13 356 -48 340 -92 L344 -93 C359 -85 381 -78 394 -78 C421 -78 443 -102 443 -133 C443 -172 417 -204 384 -204 C355 -204 322 -198 312 -190 L309 -195 C327 -208 365 -219 394 -219 C438 -219 474 -181 474 -133 C474 -97 443 -68 405 -68 C389 -68 363 -75 348 -83 C368 -31 384 -10 389 -4 C464 -1 564 26 621 58 L617 65 L617 65 L620 58 L620 203 L603 203 C601 192 596 176 594 165 C576 88 495 20 410 12 C410 11 378 10 376 10 C235 10 122 153 122 331 C122 509 235 652 376 652 C378 652 449 648 449 645 C513 634 577 568 593 497 C595 486 600 470 602 459 L620 458 L620 458 Z " />
<glyph glyph-name="Egrave" unicode="&#xc8;" horiz-adv-x="565" d="M180 875 C180 870 199 847 223 820 C252 783 336 691 336 691 L341 695 C341 695 277 802 248 840 C229 871 212 895 208 895 C200 895 180 881 180 875 L180 875 Z M473 156 L459 156 L443 114 C421 59 360 14 304 14 L177 14 L177 345 L266 345 C314 345 357 310 364 267 L366 253 L379 253 L379 441 L366 441 L364 429 C357 390 313 359 266 359 L177 359 L177 646 L297 646 C353 646 406 602 418 546 L427 504 L441 504 L441 660 L40 660 L40 647 L57 647 C93 648 122 619 122 583 L122 77 C122 41 93 12 57 13 L40 13 L40 0 L446 0 C452 44 465 112 472 156 L473 156 L473 156 Z " />
<glyph glyph-name="Eacute" unicode="&#xc9;" horiz-adv-x="565" d="M246 691 C246 691 327 783 356 820 C379 848 398 872 398 875 C398 881 377 895 369 895 C367 895 350 871 331 840 C302 803 241 695 241 695 L246 691 L246 691 Z M473 156 L459 156 L443 114 C421 59 360 14 304 14 L177 14 L177 345 L266 345 C314 345 357 310 364 267 L366 253 L379 253 L379 441 L366 441 L364 429 C357 390 313 359 266 359 L177 359 L177 646 L297 646 C353 646 406 602 418 546 L427 504 L441 504 L441 660 L40 660 L40 647 L57 647 C93 648 122 619 122 583 L122 77 C122 41 93 12 57 13 L40 13 L40 0 L446 0 C452 44 465 112 472 156 L473 156 L473 156 Z " />
<glyph glyph-name="Ecircumflex" unicode="&#xca;" horiz-adv-x="565" d="M294 891 C292 895 286 905 278 905 C270 905 264 895 262 891 C262 891 162 692 167 698 L173 693 C202 727 252 805 278 847 C314 788 384 693 384 693 L390 698 C390 698 347 785 295 891 L294 891 L294 891 Z M474 156 L460 156 L444 114 C422 59 361 14 305 14 L178 14 L178 345 L267 345 C315 345 358 310 365 267 L367 253 L380 253 L380 441 L367 441 L365 429 C358 390 314 359 267 359 L178 359 L178 646 L298 646 C354 646 407 602 419 546 L428 504 L442 504 L442 660 L41 660 L41 647 L58 647 C94 648 123 619 123 583 L123 77 C123 41 94 12 58 13 L41 13 L41 0 L447 0 C453 44 466 112 473 156 L474 156 L474 156 Z " />
<glyph glyph-name="Edieresis" unicode="&#xcb;" horiz-adv-x="565" d="M396 761 C396 800 335 801 335 762 C335 721 396 722 396 761 L396 761 Z M221 761 C221 800 160 799 160 761 C160 721 221 720 221 760 L221 761 L221 761 Z M473 155 L459 155 L443 113 C421 58 360 13 304 13 L177 13 L177 344 L266 344 C314 344 357 309 364 266 L366 252 L379 252 L379 440 L366 440 L364 428 C357 389 313 358 266 358 L177 358 L177 645 L297 645 C353 645 406 601 418 545 L427 503 L441 503 L441 659 L40 659 L40 646 L57 646 C93 647 122 618 122 582 L122 76 C122 40 93 11 57 12 L40 12 L40 -1 L446 -1 C452 43 465 111 472 155 L473 155 L473 155 Z " />
<glyph glyph-name="Igrave" unicode="&#xcc;" horiz-adv-x="298" d="M68 875 C68 870 87 847 111 820 C140 783 224 691 224 691 L229 695 C229 695 165 802 136 840 C117 871 100 895 96 895 C88 895 68 881 68 875 L68 875 Z M259 13 L242 13 C206 12 177 41 177 77 L177 583 C177 619 206 648 242 647 L259 647 L259 660 L40 660 L40 647 L57 647 C93 648 122 619 122 583 L122 77 C122 41 93 12 57 13 L40 13 L40 0 L259 0 L259 13 L259 13 Z " />
<glyph glyph-name="Iacute" unicode="&#xcd;" horiz-adv-x="298" d="M87 691 C87 691 168 783 197 820 C220 848 239 872 239 875 C239 881 218 895 210 895 C208 895 191 871 172 840 C143 803 82 695 82 695 L87 691 L87 691 Z M259 13 L242 13 C206 12 177 41 177 77 L177 583 C177 619 206 648 242 647 L259 647 L259 660 L40 660 L40 647 L57 647 C93 648 122 619 122 583 L122 77 C122 41 93 12 57 13 L40 13 L40 0 L259 0 L259 13 L259 13 Z " />
<glyph glyph-name="Icircumflex" unicode="&#xce;" horiz-adv-x="298" d="M166 891 C164 895 158 905 150 905 C142 905 136 895 134 891 C134 891 34 692 39 698 L45 693 C74 727 124 805 150 847 C186 788 256 693 256 693 L262 698 C262 698 219 785 167 891 L166 891 L166 891 Z M260 13 L243 13 C207 12 178 41 178 77 L178 583 C178 619 207 648 243 647 L260 647 L260 660 L41 660 L41 647 L58 647 C94 648 123 619 123 583 L123 77 C123 41 94 12 58 13 L41 13 L41 0 L260 0 L260 13 L260 13 Z " />
<glyph glyph-name="Idieresis" unicode="&#xcf;" horiz-adv-x="298" d="M268 761 C268 800 207 801 207 762 C207 721 268 722 268 761 L268 761 Z M93 761 C93 800 32 799 32 761 C32 721 93 720 93 760 L93 761 L93 761 Z M259 12 L242 12 C206 11 177 40 177 76 L177 582 C177 618 206 647 242 646 L259 646 L259 659 L40 659 L40 646 L57 646 C93 647 122 618 122 582 L122 76 C122 40 93 11 57 12 L40 12 L40 -1 L259 -1 L259 12 L259 12 Z " />
<glyph glyph-name="Ntilde" unicode="&#xd1;" horiz-adv-x="678" d="M225 755 C225 792 241 822 261 822 C302 822 366 759 407 759 C439 759 465 801 465 853 L456 853 C456 819 439 792 418 792 C377 792 312 855 271 855 C240 855 216 811 216 755 L225 755 L225 755 Z M43 647 L60 647 C96 648 125 619 125 583 L125 77 C125 41 96 12 60 13 L43 13 L43 0 L223 0 L223 13 L206 13 C170 12 141 41 141 77 L141 609 C272 402 403 195 534 -12 L555 -12 L555 582 C555 618 584 647 620 646 L637 646 L637 659 L456 659 L456 646 L473 646 C509 647 538 618 538 582 L538 83 L174 659 L42 659 L43 647 L43 647 Z " />
<glyph glyph-name="Ograve" unicode="&#xd2;" horiz-adv-x="722" d="M123 330 C123 490 218 651 367 651 C516 651 611 490 611 330 C611 170 516 9 367 9 C218 9 123 170 123 330 L123 330 Z M62 330 C62 163 181 -5 367 -5 C553 -5 672 163 672 330 C672 497 553 665 367 665 C181 665 62 497 62 330 L62 330 Z M285 875 C285 870 304 847 328 820 C357 783 441 691 441 691 L446 695 C446 695 382 802 353 840 C334 871 317 895 313 895 C305 895 285 881 285 875 L285 875 Z " />
<glyph glyph-name="Oacute" unicode="&#xd3;" horiz-adv-x="722" d="M342 691 C342 691 423 783 452 820 C475 848 494 872 494 875 C494 881 473 895 465 895 C463 895 446 871 427 840 C398 803 337 695 337 695 L342 691 L342 691 Z M123 330 C123 490 218 651 367 651 C516 651 611 490 611 330 C611 170 516 9 367 9 C218 9 123 170 123 330 L123 330 Z M62 330 C62 163 181 -5 367 -5 C553 -5 672 163 672 330 C672 497 553 665 367 665 C181 665 62 497 62 330 L62 330 Z " />
<glyph glyph-name="Ocircumflex" unicode="&#xd4;" horiz-adv-x="722" d="M123 330 C123 490 218 651 367 651 C516 651 611 490 611 330 C611 170 516 9 367 9 C218 9 123 170 123 330 L123 330 Z M62 330 C62 163 181 -5 367 -5 C553 -5 672 163 672 330 C672 497 553 665 367 665 C181 665 62 497 62 330 L62 330 Z M383 891 C381 895 375 905 367 905 C359 905 353 895 351 891 C351 891 251 692 256 698 L262 693 C291 727 341 805 367 847 C403 788 473 693 473 693 L479 698 C479 698 436 785 384 891 L383 891 L383 891 Z " />
<glyph glyph-name="Otilde" unicode="&#xd5;" horiz-adv-x="722" d="M251 755 C251 792 267 822 287 822 C328 822 392 759 433 759 C465 759 491 801 491 853 L483 853 C483 819 466 792 444 792 C403 792 339 855 298 855 C267 855 243 811 243 755 L251 755 L251 755 Z M123 330 C123 490 218 651 367 651 C516 651 611 490 611 330 C611 170 516 9 367 9 C218 9 123 170 123 330 L123 330 Z M62 330 C62 163 181 -5 367 -5 C553 -5 672 163 672 330 C672 497 553 665 367 665 C181 665 62 497 62 330 L62 330 Z " />
<glyph glyph-name="Odieresis" unicode="&#xd6;" horiz-adv-x="722" d="M485 761 C485 800 424 801 424 762 C424 721 485 722 485 761 L485 761 Z M310 761 C310 800 249 799 249 761 C249 721 310 720 310 760 L310 761 L310 761 Z M123 329 C123 489 218 650 367 650 C516 650 611 489 611 329 C611 169 516 8 367 8 C218 8 123 169 123 329 L123 329 Z M62 329 C62 162 181 -6 367 -6 C553 -6 672 162 672 329 C672 496 553 664 367 664 C181 664 62 496 62 329 L62 329 Z " />
<glyph glyph-name="Oslash" unicode="&#xd8;" horiz-adv-x="722" d="M71 -13 L159 84 C211 30 282 -5 367 -5 C553 -5 672 163 672 330 C672 413 643 496 591 559 L681 658 L663 674 L575 577 C523 631 452 666 367 666 C181 666 62 498 62 331 C62 248 91 165 143 102 L53 3 L71 -13 L71 -13 Z M548 546 L173 134 C141 190 123 259 123 328 C123 488 218 649 367 649 C443 649 505 607 547 544 L548 546 L548 546 Z M560 523 C592 467 610 398 610 329 C610 169 515 8 366 8 C290 8 228 50 186 113 L560 523 L560 523 Z " />
<glyph glyph-name="Ugrave" unicode="&#xd9;" horiz-adv-x="664" d="M255 875 C255 870 274 847 298 820 C327 783 411 691 411 691 L417 695 C417 695 353 802 324 840 C305 871 288 895 284 895 C276 895 255 881 255 875 L255 875 Z M644 660 L438 660 L438 647 L460 647 C502 648 535 615 535 573 L535 182 C535 89 473 14 350 14 C236 14 179 95 179 196 L179 583 C179 619 208 648 244 647 L261 647 L261 660 L41 660 L41 647 L58 647 C94 648 123 619 123 583 L123 207 C123 89 196 -5 342 -5 C482 -5 552 76 552 177 L552 573 C552 615 585 648 627 647 L644 647 L644 660 L644 660 Z " />
<glyph glyph-name="Uacute" unicode="&#xda;" horiz-adv-x="664" d="M336 691 C336 691 417 783 446 820 C469 847 487 871 487 875 C487 881 467 895 459 895 C456 895 439 871 420 840 C391 803 330 695 330 695 L336 691 L336 691 Z M644 660 L438 660 L438 647 L460 647 C502 648 535 615 535 573 L535 182 C535 89 473 14 350 14 C236 14 179 95 179 196 L179 583 C179 619 208 648 244 647 L261 647 L261 660 L41 660 L41 647 L58 647 C94 648 123 619 123 583 L123 207 C123 89 196 -5 342 -5 C482 -5 552 76 552 177 L552 573 C552 615 585 648 627 647 L644 647 L644 660 L644 660 Z " />
<glyph glyph-name="Ucircumflex" unicode="&#xdb;" horiz-adv-x="664" d="M353 891 C351 895 345 905 338 905 C330 905 324 895 322 891 C322 891 222 692 227 698 L232 693 C261 728 311 807 337 849 C373 790 444 694 444 694 L449 699 C449 699 406 786 354 892 L353 891 L353 891 Z M645 661 L439 661 L439 648 L461 648 C503 649 536 616 536 574 L536 183 C536 90 474 15 351 15 C237 15 180 96 180 197 L180 584 C180 620 209 649 245 648 L262 648 L262 661 L42 661 L42 648 L59 648 C95 649 124 620 124 584 L124 208 C124 90 197 -4 343 -4 C483 -4 553 77 553 178 L553 574 C553 616 586 649 628 648 L645 648 L645 661 L645 661 Z " />
<glyph glyph-name="Udieresis" unicode="&#xdc;" horiz-adv-x="664" d="M455 761 C455 800 394 799 394 761 C394 721 455 720 455 760 L455 761 L455 761 Z M281 760 C281 799 220 800 220 761 C220 720 281 721 281 760 L281 760 Z M644 659 L438 659 L438 646 L460 646 C502 647 535 614 535 572 L535 181 C535 88 473 13 350 13 C236 13 179 94 179 195 L179 582 C179 618 208 647 244 646 L261 646 L261 659 L41 659 L41 646 L58 646 C94 647 123 618 123 582 L123 206 C123 88 196 -6 342 -6 C482 -6 552 75 552 176 L552 572 C552 614 585 647 627 646 L644 646 L644 659 L644 659 Z " />
<glyph glyph-name="Yacute" unicode="&#xdd;" horiz-adv-x="572" d="M291 691 C291 691 372 783 401 820 C424 848 443 872 443 875 C443 881 422 895 414 895 C412 895 395 871 376 840 C347 803 286 695 286 695 L291 691 L291 691 Z M183 0 L402 0 L402 13 L385 13 C349 12 320 41 320 77 L320 287 L475 587 C495 621 535 648 567 647 L578 647 L578 660 L379 660 L379 647 L405 647 C449 648 468 615 451 572 L309 294 L174 582 C157 618 173 647 209 646 L235 646 L235 659 L16 659 L16 646 L25 646 C53 647 90 618 108 582 L109 582 L264 265 L265 71 C262 38 234 12 200 13 L183 13 L183 0 L183 0 Z " />
<glyph glyph-name="agrave" unicode="&#xe0;" horiz-adv-x="446" d="M424 37 C411 24 393 14 372 14 C344 14 333 40 333 73 L333 359 C333 440 285 505 226 505 C148 505 77 461 66 406 L116 406 C125 453 169 491 215 491 C251 491 280 438 280 371 L280 251 C252 247 209 241 183 235 C101 215 36 156 36 103 C36 44 80 -4 135 -4 C177 -4 236 26 280 67 C280 25 296 -8 338 -8 C375 -8 407 10 429 32 L424 37 L424 37 Z M117 717 C117 712 136 689 160 662 C189 625 273 533 273 533 L279 537 C279 537 215 644 186 682 C167 713 150 737 146 737 C138 737 117 723 117 717 L117 717 Z M280 240 L280 78 C245 50 197 30 159 30 C118 30 85 69 85 117 C85 160 129 205 183 219 C216 227 255 235 280 240 L280 240 Z " />
<glyph glyph-name="aacute" unicode="&#xe1;" horiz-adv-x="446" d="M168 531 C168 531 249 623 278 660 C301 687 319 711 319 715 C319 721 299 735 291 735 C288 735 271 711 252 680 C223 643 162 535 162 535 L168 531 L168 531 Z M424 37 C411 24 393 14 372 14 C344 14 333 40 333 73 L333 359 C333 440 285 505 226 505 C148 505 77 461 66 406 L116 406 C125 453 169 491 215 491 C251 491 280 438 280 371 L280 251 C252 247 209 241 183 235 C101 215 36 156 36 103 C36 44 80 -4 135 -4 C177 -4 236 26 280 67 C280 25 296 -8 338 -8 C375 -8 407 10 429 32 L424 37 L424 37 Z M280 240 L280 78 C245 50 197 30 159 30 C118 30 85 69 85 117 C85 160 129 205 183 219 C216 227 255 235 280 240 L280 240 Z " />
<glyph glyph-name="acircumflex" unicode="&#xe2;" horiz-adv-x="446" d="M424 37 C411 24 393 14 372 14 C344 14 333 40 333 73 L333 359 C333 440 285 505 226 505 C148 505 77 461 66 406 L116 406 C125 453 169 491 215 491 C251 491 280 438 280 371 L280 251 C252 247 209 241 183 235 C101 215 36 156 36 103 C36 44 80 -4 135 -4 C177 -4 236 26 280 67 C280 25 296 -8 338 -8 C375 -8 407 10 429 32 L424 37 L424 37 Z M215 733 C213 737 207 747 200 747 C192 747 186 737 184 733 C184 733 84 534 89 540 L94 535 C123 570 173 649 199 691 C235 632 306 536 306 536 L311 541 C311 541 268 628 216 734 L215 733 L215 733 Z M281 241 L281 79 C246 51 198 31 160 31 C119 31 86 70 86 118 C86 161 130 206 184 220 C217 228 256 236 281 241 L281 241 Z " />
<glyph glyph-name="atilde" unicode="&#xe3;" horiz-adv-x="446" d="M84 595 C84 632 100 662 120 662 C161 662 225 599 266 599 C298 599 324 641 324 693 L315 693 C315 659 298 632 277 632 C236 632 171 695 130 695 C99 695 75 651 75 595 L84 595 L84 595 Z M424 37 C411 24 393 14 372 14 C344 14 333 40 333 73 L333 359 C333 440 285 505 226 505 C148 505 77 461 66 406 L116 406 C125 453 169 491 215 491 C251 491 280 438 280 371 L280 251 C252 247 209 241 183 235 C101 215 36 156 36 103 C36 44 80 -4 135 -4 C177 -4 236 26 280 67 C280 25 296 -8 338 -8 C375 -8 407 10 429 32 L424 37 L424 37 Z M280 240 L280 78 C245 50 197 30 159 30 C118 30 85 69 85 117 C85 160 129 205 183 219 C216 227 255 235 280 240 L280 240 Z " />
<glyph glyph-name="adieresis" unicode="&#xe4;" horiz-adv-x="446" d="M317 601 C317 640 256 639 256 601 C256 561 317 560 317 600 L317 601 L317 601 Z M143 600 C143 639 82 640 82 601 C82 560 143 561 143 600 L143 600 Z M424 36 C411 23 393 13 372 13 C344 13 333 39 333 72 L333 358 C333 439 285 504 226 504 C148 504 77 460 66 405 L116 405 C125 452 169 490 215 490 C251 490 280 437 280 370 L280 250 C252 246 209 240 183 234 C101 214 36 155 36 102 C36 43 80 -5 135 -5 C177 -5 236 25 280 66 C280 24 296 -9 338 -9 C375 -9 407 9 429 31 L424 36 L424 36 Z M280 239 L280 77 C245 49 197 29 159 29 C118 29 85 68 85 116 C85 159 129 204 183 218 C216 226 255 234 280 239 L280 239 Z " />
<glyph glyph-name="aring" unicode="&#xe5;" horiz-adv-x="446" d="M119 628 C119 673 155 709 200 709 C244 709 280 673 280 628 C280 587 240 546 200 546 C160 546 119 587 119 628 L119 628 Z M105 628 C105 582 153 535 200 535 C247 535 294 582 294 628 C294 679 252 720 200 720 C147 720 105 679 105 628 L105 628 Z M424 37 C411 24 393 14 372 14 C344 14 333 40 333 73 L333 359 C333 440 285 505 226 505 C148 505 77 461 66 406 L116 406 C125 453 169 491 215 491 C251 491 280 438 280 371 L280 251 C252 247 209 241 183 235 C101 215 36 156 36 103 C36 44 80 -4 135 -4 C177 -4 236 26 280 67 C280 25 296 -8 338 -8 C375 -8 407 10 429 32 L424 37 L424 37 Z M280 240 L280 78 C245 50 197 30 159 30 C118 30 85 69 85 117 C85 160 129 205 183 219 C216 227 255 235 280 240 L280 240 Z " />
<glyph glyph-name="ccedilla" unicode="&#xe7;" horiz-adv-x="438" d="M185 -94 C200 -86 222 -79 235 -79 C262 -79 284 -103 284 -134 C284 -173 258 -205 225 -205 C196 -205 163 -199 153 -191 L150 -196 C168 -209 206 -220 235 -220 C279 -220 315 -182 315 -134 C315 -98 284 -69 246 -69 C230 -69 204 -76 189 -84 L185 -94 L185 -94 Z M185 -94 C207 -35 225 -11 230 -5 C290 -3 358 16 386 40 L382 46 C367 34 313 24 260 24 C173 24 103 126 103 253 C103 385 175 490 264 490 C303 490 337 451 341 403 C342 389 353 378 366 378 C378 378 388 388 388 400 C383 458 330 504 270 504 C148 504 50 384 50 234 C50 103 122 -3 213 -7 C210 -15 197 -50 181 -94 L185 -94 L185 -94 Z " />
<glyph glyph-name="egrave" unicode="&#xe8;" horiz-adv-x="445" d="M393 41 L389 47 C374 35 318 25 263 25 C174 25 103 127 103 254 C103 278 105 301 109 323 L395 323 C395 423 327 504 243 504 C136 504 50 384 50 234 C50 101 127 -6 222 -6 C286 -6 363 14 393 40 L393 41 L393 41 Z M161 714 C161 709 180 686 204 659 C233 622 317 530 317 530 L322 534 C322 534 258 641 229 679 C210 710 193 734 189 734 C181 734 161 720 161 714 L161 714 Z M347 360 C345 350 337 342 327 341 L111 333 C130 425 181 490 241 490 C301 490 354 427 349 366 C349 366 349 364 349 360 L347 360 L347 360 Z " />
<glyph glyph-name="eacute" unicode="&#xe9;" horiz-adv-x="445" d="M211 531 C211 531 292 623 321 660 C344 688 363 712 363 715 C363 721 342 735 334 735 C332 735 315 711 296 680 C267 643 206 535 206 535 L211 531 L211 531 Z M393 41 L389 47 C374 35 318 25 263 25 C174 25 103 127 103 254 C103 278 105 301 109 323 L395 323 C395 423 327 504 243 504 C136 504 50 384 50 234 C50 101 127 -6 222 -6 C286 -6 363 14 393 40 L393 41 L393 41 Z M347 360 C345 350 337 342 327 341 L111 333 C130 425 181 490 241 490 C301 490 354 427 349 366 C349 366 349 364 349 360 L347 360 L347 360 Z " />
<glyph glyph-name="ecircumflex" unicode="&#xea;" horiz-adv-x="445" d="M393 41 L389 47 C374 35 318 25 263 25 C174 25 103 127 103 254 C103 278 105 301 109 323 L395 323 C395 423 327 504 243 504 C136 504 50 384 50 234 C50 101 127 -6 222 -6 C286 -6 363 14 393 40 L393 41 L393 41 Z M259 730 C257 734 251 744 243 744 C235 744 229 734 227 730 C227 730 127 531 132 537 L138 532 C167 566 217 644 243 686 C279 627 349 532 349 532 L355 537 C355 537 312 624 260 730 L259 730 L259 730 Z M348 360 C346 350 338 342 328 341 L112 333 C131 425 182 490 242 490 C302 490 355 427 350 366 C350 366 350 364 350 360 L348 360 L348 360 Z " />
<glyph glyph-name="edieresis" unicode="&#xeb;" horiz-adv-x="445" d="M361 601 C361 640 300 641 300 602 C300 561 361 562 361 601 L361 601 Z M186 601 C186 640 125 639 125 601 C125 561 186 560 186 600 L186 601 L186 601 Z M393 40 L389 46 C374 34 318 24 263 24 C174 24 103 126 103 253 C103 277 105 300 109 322 L395 322 C395 422 327 503 243 503 C136 503 50 383 50 233 C50 100 127 -7 222 -7 C286 -7 363 13 393 39 L393 40 L393 40 Z M347 359 C345 349 337 341 327 340 L111 332 C130 424 181 489 241 489 C301 489 354 426 349 365 C349 365 349 363 349 359 L347 359 L347 359 Z " />
<glyph glyph-name="igrave" unicode="&#xec;" horiz-adv-x="303" d="M70 715 C70 710 89 687 113 660 C142 623 226 531 226 531 L231 535 C231 535 167 642 138 680 C119 711 102 735 98 735 C90 735 70 721 70 715 L70 715 Z M259 13 L242 13 C206 12 177 41 177 77 L177 500 L167 500 L45 465 L45 453 L57 453 C111 452 127 437 127 386 L127 77 C127 41 98 12 62 13 L45 13 L45 0 L259 0 L259 13 L259 13 Z " />
<glyph glyph-name="iacute" unicode="&#xed;" horiz-adv-x="303" d="M74 531 C74 531 155 623 184 660 C207 688 226 712 226 715 C226 721 205 735 197 735 C195 735 178 711 159 680 C130 643 69 535 69 535 L74 531 L74 531 Z M259 13 L242 13 C206 12 177 41 177 77 L177 500 L167 500 L45 465 L45 453 L57 453 C111 452 127 437 127 386 L127 77 C127 41 98 12 62 13 L45 13 L45 0 L259 0 L259 13 L259 13 Z " />
<glyph glyph-name="icircumflex" unicode="&#xee;" horiz-adv-x="303" d="M168 731 C166 735 160 745 152 745 C144 745 138 735 136 731 C136 731 36 532 41 538 L47 533 C76 567 126 645 152 687 C188 628 258 533 258 533 L264 538 C264 538 221 625 169 731 L168 731 L168 731 Z M260 13 L243 13 C207 12 178 41 178 77 L178 500 L168 500 L46 465 L46 453 L58 453 C112 452 128 437 128 386 L128 77 C128 41 99 12 63 13 L46 13 L46 0 L260 0 L260 13 L260 13 Z " />
<glyph glyph-name="idieresis" unicode="&#xef;" horiz-adv-x="303" d="M270 601 C270 640 209 641 209 602 C209 561 270 562 270 601 L270 601 Z M95 601 C95 640 34 639 34 601 C34 561 95 560 95 600 L95 601 L95 601 Z M259 12 L242 12 C206 11 177 40 177 76 L177 499 L167 499 L45 464 L45 452 L57 452 C111 451 127 436 127 385 L127 76 C127 40 98 11 62 12 L45 12 L45 -1 L259 -1 L259 12 L259 12 Z " />
<glyph glyph-name="ntilde" unicode="&#xf1;" horiz-adv-x="596" d="M185 595 C185 632 201 662 221 662 C262 662 326 599 367 599 C399 599 425 641 425 693 L417 693 C417 659 400 632 378 632 C337 632 273 695 232 695 C201 695 177 651 177 595 L185 595 L185 595 Z M343 0 L557 0 L557 13 L540 13 C504 12 475 41 475 77 L475 336 C475 430 438 505 363 505 C331 505 249 476 177 439 L177 501 L167 501 L45 466 L45 454 L57 454 C111 453 127 438 127 387 L127 78 C127 42 98 13 62 14 L45 14 L45 1 L259 1 L259 14 L242 14 C206 13 177 42 177 78 L177 434 C220 455 284 471 324 471 C391 471 425 409 425 331 L425 77 C425 41 396 12 360 13 L343 13 L343 0 L343 0 Z " />
<glyph glyph-name="ograve" unicode="&#xf2;" horiz-adv-x="551" d="M106 250 C106 385 182 494 276 494 C370 494 446 385 446 250 C446 115 370 6 276 6 C182 6 106 115 106 250 L106 250 Z M50 250 C50 108 151 -5 276 -5 C401 -5 501 108 501 250 C501 392 401 505 276 505 C151 505 50 392 50 250 L50 250 Z M193 715 C193 710 212 687 236 660 C265 623 349 531 349 531 L355 535 C355 535 291 642 262 680 C243 711 226 735 222 735 C214 735 193 721 193 715 L193 715 Z " />
<glyph glyph-name="oacute" unicode="&#xf3;" horiz-adv-x="551" d="M244 531 C244 531 325 623 354 660 C377 687 395 711 395 715 C395 721 375 735 367 735 C364 735 347 711 328 680 C299 643 238 535 238 535 L244 531 L244 531 Z M106 250 C106 385 182 494 276 494 C370 494 446 385 446 250 C446 115 370 6 276 6 C182 6 106 115 106 250 L106 250 Z M50 250 C50 108 151 -5 276 -5 C401 -5 501 108 501 250 C501 392 401 505 276 505 C151 505 50 392 50 250 L50 250 Z " />
<glyph glyph-name="ocircumflex" unicode="&#xf4;" horiz-adv-x="551" d="M106 250 C106 385 182 494 276 494 C370 494 446 385 446 250 C446 115 370 6 276 6 C182 6 106 115 106 250 L106 250 Z M50 250 C50 108 151 -5 276 -5 C401 -5 501 108 501 250 C501 392 401 505 276 505 C151 505 50 392 50 250 L50 250 Z M291 731 C289 735 283 745 276 745 C268 745 262 735 260 731 C260 731 160 532 165 538 L170 533 C199 568 249 647 275 689 C311 630 382 534 382 534 L387 539 C387 539 344 626 292 732 L291 731 L291 731 Z " />
<glyph glyph-name="otilde" unicode="&#xf5;" horiz-adv-x="551" d="M160 595 C160 632 176 662 196 662 C237 662 301 599 342 599 C374 599 400 641 400 693 L391 693 C391 659 374 632 353 632 C312 632 247 695 206 695 C175 695 151 651 151 595 L160 595 L160 595 Z M106 250 C106 385 182 494 276 494 C370 494 446 385 446 250 C446 115 370 6 276 6 C182 6 106 115 106 250 L106 250 Z M50 250 C50 108 151 -5 276 -5 C401 -5 501 108 501 250 C501 392 401 505 276 505 C151 505 50 392 50 250 L50 250 Z " />
<glyph glyph-name="odieresis" unicode="&#xf6;" horiz-adv-x="551" d="M393 601 C393 640 332 639 332 601 C332 561 393 560 393 600 L393 601 L393 601 Z M219 600 C219 639 158 640 158 601 C158 560 219 561 219 600 L219 600 Z M106 249 C106 384 182 493 276 493 C370 493 446 384 446 249 C446 114 370 5 276 5 C182 5 106 114 106 249 L106 249 Z M50 249 C50 107 151 -6 276 -6 C401 -6 501 107 501 249 C501 391 401 504 276 504 C151 504 50 391 50 249 L50 249 Z " />
<glyph glyph-name="oslash" unicode="&#xf8;" horiz-adv-x="551" d="M56 -11 L122 63 C162 21 216 -5 276 -5 C401 -5 501 108 501 250 C501 318 478 379 441 424 L507 499 L495 511 L430 437 C390 479 336 505 276 505 C151 505 50 392 50 250 C50 182 73 121 110 76 L44 1 L56 -11 L56 -11 Z M405 409 L138 107 C118 147 106 196 106 249 C106 384 182 493 276 493 C328 493 374 460 405 408 L405 409 L405 409 Z M414 392 C434 352 446 302 446 248 C446 113 370 4 276 4 C224 4 178 37 147 89 L414 392 L414 392 Z " />
<glyph glyph-name="ugrave" unicode="&#xf9;" horiz-adv-x="561" d="M189 715 C189 710 208 687 232 660 C261 623 345 531 345 531 L350 535 C350 535 286 642 257 680 C238 711 221 735 217 735 C209 735 189 721 189 715 L189 715 Z M15 487 L32 487 C68 488 97 459 97 423 L97 156 C97 67 150 -5 232 -5 C295 -5 356 22 395 57 L395 0 L405 0 L527 35 L527 47 L515 47 C461 48 445 63 445 114 L445 500 L313 500 L313 487 L330 487 C366 488 395 459 395 423 L395 65 C372 44 327 28 272 28 C195 28 146 87 146 161 L147 500 L15 500 L15 487 L15 487 Z " />
<glyph glyph-name="uacute" unicode="&#xfa;" horiz-adv-x="561" d="M239 531 C239 531 320 623 349 660 C372 688 391 712 391 715 C391 721 370 735 362 735 C360 735 343 711 324 680 C295 643 234 535 234 535 L239 531 L239 531 Z M15 487 L32 487 C68 488 97 459 97 423 L97 156 C97 67 150 -5 232 -5 C295 -5 356 22 395 57 L395 0 L405 0 L527 35 L527 47 L515 47 C461 48 445 63 445 114 L445 500 L313 500 L313 487 L330 487 C366 488 395 459 395 423 L395 65 C372 44 327 28 272 28 C195 28 146 87 146 161 L147 500 L15 500 L15 487 L15 487 Z " />
<glyph glyph-name="ucircumflex" unicode="&#xfb;" horiz-adv-x="561" d="M287 731 C285 735 279 745 271 745 C263 745 257 735 255 731 C255 731 155 532 160 538 L166 533 C195 567 245 645 271 687 C307 628 377 533 377 533 L383 538 C383 538 340 625 288 731 L287 731 L287 731 Z M16 487 L33 487 C69 488 98 459 98 423 L98 156 C98 67 151 -5 233 -5 C296 -5 357 22 396 57 L396 0 L406 0 L528 35 L528 47 L516 47 C462 48 446 63 446 114 L446 500 L314 500 L314 487 L331 487 C367 488 396 459 396 423 L396 65 C373 44 328 28 273 28 C196 28 147 87 147 161 L148 500 L16 500 L16 487 L16 487 Z " />
<glyph glyph-name="udieresis" unicode="&#xfc;" horiz-adv-x="561" d="M389 601 C389 640 328 641 328 602 C328 561 389 562 389 601 L389 601 Z M214 601 C214 640 153 639 153 601 C153 561 214 560 214 600 L214 601 L214 601 Z M15 486 L32 486 C68 487 97 458 97 422 L97 155 C97 66 150 -6 232 -6 C295 -6 356 21 395 56 L395 -1 L405 -1 L527 34 L527 46 L515 46 C461 47 445 62 445 113 L445 499 L313 499 L313 486 L330 486 C366 487 395 458 395 422 L395 64 C372 43 327 27 272 27 C195 27 146 86 146 160 L147 499 L15 499 L15 486 L15 486 Z " />
<glyph glyph-name="ydieresis" unicode="&#xff;" horiz-adv-x="451" d="M373 601 C373 640 312 639 312 601 C312 561 373 560 373 600 L373 601 L373 601 Z M199 600 C199 639 138 640 138 601 C138 560 199 561 199 600 L199 600 Z M218 499 L2 499 L2 486 L18 486 C53 487 91 459 104 424 L248 -4 C244 -15 234 -40 224 -69 C195 -156 166 -199 138 -199 C138 -199 95 -175 78 -175 C64 -175 52 -184 52 -196 C52 -216 76 -232 107 -232 C158 -232 201 -179 237 -74 C249 -39 258 -12 258 -12 L405 421 C417 457 456 486 492 485 L508 485 L508 498 L332 498 L332 485 L345 485 C381 486 400 456 389 420 L271 54 L158 420 C148 456 167 486 203 485 L216 485 L218 499 L218 499 Z " />
<glyph glyph-name="Amacron" unicode="&#x100;" horiz-adv-x="604" d="M165 770 L427 770 L427 798 L165 798 L165 770 L165 770 Z M0 0 L214 0 L214 13 L181 13 C138 12 113 45 124 87 L169 236 L397 236 L451 71 C459 38 439 13 405 13 L361 13 L361 0 L602 0 L602 13 L591 13 C558 13 521 41 509 77 L509 77 L303 675 L289 675 L102 77 C91 41 53 12 17 13 L0 13 L0 0 L0 0 Z M392 251 L174 251 L279 596 L392 251 L392 251 Z " />
<glyph glyph-name="amacron" unicode="&#x101;" horiz-adv-x="446" d="M68 610 L331 610 L331 638 L68 638 L68 610 L68 610 Z M424 37 C411 24 393 14 372 14 C344 14 333 40 333 73 L333 359 C333 440 285 505 226 505 C148 505 77 461 66 406 L116 406 C125 453 169 491 215 491 C251 491 280 438 280 371 L280 251 C252 247 209 241 183 235 C101 215 36 156 36 103 C36 44 80 -4 135 -4 C177 -4 236 26 280 67 C280 25 296 -8 338 -8 C375 -8 407 10 429 32 L424 37 L424 37 Z M280 240 L280 78 C245 50 197 30 159 30 C118 30 85 69 85 117 C85 160 129 205 183 219 C216 227 255 235 280 240 L280 240 Z " />
<glyph glyph-name="Abreve" unicode="&#x102;" horiz-adv-x="604" d="M200 872 C210 814 253 768 296 768 C339 768 382 814 392 871 L383 873 C376 833 337 801 296 801 C255 801 216 833 209 873 L200 872 L200 872 Z M0 0 L214 0 L214 13 L181 13 C138 12 113 45 124 87 L169 236 L397 236 L451 71 C459 38 439 13 405 13 L361 13 L361 0 L602 0 L602 13 L591 13 C558 13 521 41 509 77 L509 77 L303 675 L289 675 L102 77 C91 41 53 12 17 13 L0 13 L0 0 L0 0 Z M392 251 L174 251 L279 596 L392 251 L392 251 Z " />
<glyph glyph-name="abreve" unicode="&#x103;" horiz-adv-x="446" d="M103 682 C113 624 156 578 200 578 C243 578 286 624 296 681 L287 683 C280 643 241 611 200 611 C158 611 119 643 112 683 L103 682 L103 682 Z M424 37 C411 24 393 14 372 14 C344 14 333 40 333 73 L333 359 C333 440 285 505 226 505 C148 505 77 461 66 406 L116 406 C125 453 169 491 215 491 C251 491 280 438 280 371 L280 251 C252 247 209 241 183 235 C101 215 36 156 36 103 C36 44 80 -4 135 -4 C177 -4 236 26 280 67 C280 25 296 -8 338 -8 C375 -8 407 10 429 32 L424 37 L424 37 Z M280 240 L280 78 C245 50 197 30 159 30 C118 30 85 69 85 117 C85 160 129 205 183 219 C216 227 255 235 280 240 L280 240 Z " />
<glyph glyph-name="Aogonek" unicode="&#x104;" horiz-adv-x="604" d="M0 0 L214 0 L214 13 L181 13 C138 12 113 45 124 87 L169 236 L397 236 L451 71 C459 38 439 13 405 13 L361 13 L361 0 L452 0 C405 -29 331 -101 331 -155 C331 -198 377 -232 434 -232 C464 -232 500 -217 515 -199 L511 -194 C500 -207 470 -218 445 -218 C399 -218 362 -188 362 -150 C362 -89 443 -10 474 1 L602 1 L602 14 L591 14 C558 14 521 42 509 78 L509 78 L303 676 L289 676 L102 78 C91 42 53 13 17 14 L0 14 L0 0 L0 0 Z M392 252 L174 252 L279 597 L392 252 L392 252 Z " />
<glyph glyph-name="aogonek" unicode="&#x105;" horiz-adv-x="446" d="M388 16 C349 6 333 33 333 73 L333 359 C333 440 285 505 226 505 C148 505 77 461 66 406 L116 406 C125 453 169 491 215 491 C251 491 280 438 280 371 L280 251 C252 247 209 241 183 235 C101 215 36 156 36 103 C36 44 80 -4 135 -4 C177 -4 236 26 280 67 C280 14 305 -18 361 -7 C323 -44 286 -94 286 -135 C286 -189 332 -232 389 -232 C419 -232 455 -217 470 -199 L466 -194 C455 -207 425 -218 400 -218 C354 -218 317 -178 317 -129 C317 -83 356 -29 390 3 C405 10 418 20 429 31 L429 42 C419 38 405 29 389 17 L388 16 L388 16 Z M281 239 L281 77 C246 49 198 29 160 29 C119 29 86 68 86 116 C86 159 130 204 184 218 C217 226 256 234 281 239 L281 239 Z " />
<glyph glyph-name="Cacute" unicode="&#x106;" horiz-adv-x="680" d="M329 691 C329 691 410 783 439 820 C462 848 481 872 481 875 C481 881 460 895 452 895 C450 895 433 871 414 840 C385 803 324 695 324 695 L329 691 L329 691 Z M620 458 L620 584 C622 588 620 603 620 603 C560 637 453 666 377 666 C202 666 62 517 62 331 C62 145 202 -4 377 -4 C453 -4 561 24 621 58 L617 65 L617 65 L620 58 L620 203 L603 203 C601 192 596 176 594 165 C576 88 495 20 410 12 C410 11 378 10 376 10 C235 10 122 153 122 331 C122 509 235 652 376 652 C378 652 449 648 449 645 C513 634 577 568 593 497 C595 486 600 470 602 459 L620 458 L620 458 Z " />
<glyph glyph-name="cacute" unicode="&#x107;" horiz-adv-x="438" d="M192 531 C192 531 273 623 302 660 C325 688 344 712 344 715 C344 721 323 735 315 735 C313 735 296 711 277 680 C248 643 187 535 187 535 L192 531 L192 531 Z M386 41 L382 47 C367 35 313 25 260 25 C173 25 103 127 103 254 C103 386 175 491 264 491 C303 491 337 452 341 404 C342 390 353 379 366 379 C378 379 388 389 388 401 C383 459 330 505 270 505 C148 505 50 385 50 235 C50 102 125 -5 218 -5 C281 -5 356 15 386 41 L386 41 Z " />
<glyph glyph-name="Ccircumflex" unicode="&#x108;" horiz-adv-x="680" d="M620 458 L620 584 C622 588 620 603 620 603 C560 637 453 666 377 666 C202 666 62 517 62 331 C62 145 202 -4 377 -4 C453 -4 561 24 621 58 L617 65 L617 65 L620 58 L620 203 L603 203 C601 192 596 176 594 165 C576 88 495 20 410 12 C410 11 378 10 376 10 C235 10 122 153 122 331 C122 509 235 652 376 652 C378 652 449 648 449 645 C513 634 577 568 593 497 C595 486 600 470 602 459 L620 458 L620 458 Z M392 892 C390 896 384 906 376 906 C368 906 362 896 360 892 C360 892 260 693 265 699 L271 694 C300 728 350 806 376 848 C412 789 482 694 482 694 L488 699 C488 699 445 786 393 892 L392 892 L392 892 Z " />
<glyph glyph-name="Cdot" unicode="&#x10a;" horiz-adv-x="680" d="M408 761 C408 800 346 800 346 761 C346 721 408 721 408 761 L408 761 Z M620 458 L620 584 C622 588 620 603 620 603 C560 637 453 666 377 666 C202 666 62 517 62 331 C62 145 202 -4 377 -4 C453 -4 561 24 621 58 L617 65 L617 65 L620 58 L620 203 L603 203 C601 192 596 176 594 165 C576 88 495 20 410 12 C410 11 378 10 376 10 C235 10 122 153 122 331 C122 509 235 652 376 652 C378 652 449 648 449 645 C513 634 577 568 593 497 C595 486 600 470 602 459 L620 458 L620 458 Z " />
<glyph glyph-name="cdot" unicode="&#x10b;" horiz-adv-x="438" d="M301 601 C301 640 239 640 239 601 C239 561 301 561 301 601 L301 601 Z M386 41 L382 47 C367 35 313 25 260 25 C173 25 103 127 103 254 C103 386 175 491 264 491 C303 491 337 452 341 404 C342 390 353 379 366 379 C378 379 388 389 388 401 C383 459 330 505 270 505 C148 505 50 385 50 235 C50 102 125 -5 218 -5 C281 -5 356 15 386 41 L386 41 Z " />
<glyph glyph-name="Ccaron" unicode="&#x10c;" horiz-adv-x="680" d="M482 927 C482 927 412 832 376 773 C350 815 300 893 271 927 L265 922 C260 928 360 729 360 729 C362 725 368 715 376 715 C384 715 390 725 392 729 C444 835 487 922 487 922 L482 927 L482 927 Z M619 458 L619 584 C621 588 619 603 619 603 C559 637 452 666 376 666 C201 666 61 517 61 331 C61 145 201 -4 376 -4 C452 -4 560 24 620 58 L616 65 L616 65 L619 58 L619 203 L602 203 C600 192 595 176 593 165 C575 88 494 20 409 12 C409 11 377 10 375 10 C234 10 121 153 121 331 C121 509 234 652 375 652 C377 652 448 648 448 645 C512 634 576 568 592 497 C594 486 599 470 601 459 L619 458 L619 458 Z " />
<glyph glyph-name="ccaron" unicode="&#x10d;" horiz-adv-x="438" d="M375 767 C375 767 305 672 269 613 C243 655 193 733 164 767 L158 762 C153 768 253 569 253 569 C255 565 261 555 269 555 C277 555 283 565 285 569 C337 675 380 762 380 762 L375 767 L375 767 Z M385 41 L381 47 C366 35 312 25 259 25 C172 25 102 127 102 254 C102 386 174 491 263 491 C302 491 336 452 340 404 C341 390 352 379 365 379 C377 379 387 389 387 401 C382 459 329 505 269 505 C147 505 49 385 49 235 C49 102 124 -5 217 -5 C280 -5 355 15 385 41 L385 41 Z " />
<glyph glyph-name="Dcaron" unicode="&#x10e;" horiz-adv-x="661" d="M450 927 C450 927 379 831 343 772 C317 814 267 893 238 928 L233 923 C228 929 328 730 328 730 C330 726 336 716 344 716 C351 716 357 726 359 730 C411 836 454 923 454 923 L450 927 L450 927 Z M50 648 L67 648 C103 649 132 620 132 584 L132 78 C132 42 103 13 67 14 L50 14 L50 1 L320 1 C481 1 610 148 610 331 C610 514 466 661 287 661 L50 661 L50 648 L50 648 Z M188 15 L188 647 L287 647 C436 647 555 506 555 331 C555 156 450 15 320 15 L188 15 L188 15 Z " />
<glyph glyph-name="dcaron" unicode="&#x10f;" horiz-adv-x="558" d="M554 753 C545 753 531 688 524 646 L496 484 L503 481 L555 634 C572 683 586 736 586 741 C586 749 563 753 554 753 L554 753 Z M316 673 L328 673 C382 672 398 657 398 606 L398 436 C367 474 310 505 256 505 C144 505 55 380 55 225 C55 97 136 -5 237 -5 C291 -5 360 20 398 53 L398 0 L408 0 L530 35 L530 47 L518 47 C464 48 448 63 448 114 L448 720 L438 720 L316 685 L316 673 L316 673 Z M398 60 C375 40 318 25 264 25 C177 25 107 122 107 243 C107 380 172 490 254 490 C312 490 373 452 397 411 L398 60 L398 60 Z " />
<glyph glyph-name="Emacron" unicode="&#x112;" horiz-adv-x="565" d="M147 770 L409 770 L409 798 L147 798 L147 770 L147 770 Z M473 156 L459 156 L443 114 C421 59 360 14 304 14 L177 14 L177 345 L266 345 C314 345 357 310 364 267 L366 253 L379 253 L379 441 L366 441 L364 429 C357 390 313 359 266 359 L177 359 L177 646 L297 646 C353 646 406 602 418 546 L427 504 L441 504 L441 660 L40 660 L40 647 L57 647 C93 648 122 619 122 583 L122 77 C122 41 93 12 57 13 L40 13 L40 0 L446 0 C452 44 465 112 472 156 L473 156 L473 156 Z " />
<glyph glyph-name="emacron" unicode="&#x113;" horiz-adv-x="445" d="M112 610 L374 610 L374 638 L112 638 L112 610 L112 610 Z M393 41 L389 47 C374 35 318 25 263 25 C174 25 103 127 103 254 C103 278 105 301 109 323 L395 323 C395 423 327 504 243 504 C136 504 50 384 50 234 C50 101 127 -6 222 -6 C286 -6 363 14 393 40 L393 41 L393 41 Z M347 360 C345 350 337 342 327 341 L111 333 C130 425 181 490 241 490 C301 490 354 427 349 366 C349 366 349 364 349 360 L347 360 L347 360 Z " />
<glyph glyph-name="Ebreve" unicode="&#x114;" horiz-adv-x="565" d="M182 872 C192 814 235 768 278 768 C321 768 364 814 374 871 L365 873 C358 833 319 801 278 801 C237 801 198 833 191 873 L182 872 L182 872 Z M473 156 L459 156 L443 114 C421 59 360 14 304 14 L177 14 L177 345 L266 345 C314 345 357 310 364 267 L366 253 L379 253 L379 441 L366 441 L364 429 C357 390 313 359 266 359 L177 359 L177 646 L297 646 C353 646 406 602 418 546 L427 504 L441 504 L441 660 L40 660 L40 647 L57 647 C93 648 122 619 122 583 L122 77 C122 41 93 12 57 13 L40 13 L40 0 L446 0 C452 44 465 112 472 156 L473 156 L473 156 Z " />
<glyph glyph-name="ebreve" unicode="&#x115;" horiz-adv-x="445" d="M147 712 C157 654 200 608 243 608 C286 608 329 654 339 711 L330 713 C323 673 284 641 243 641 C202 641 163 673 156 713 L147 712 L147 712 Z M393 41 L389 47 C374 35 318 25 263 25 C174 25 103 127 103 254 C103 278 105 301 109 323 L395 323 C395 423 327 504 243 504 C136 504 50 384 50 234 C50 101 127 -6 222 -6 C286 -6 363 14 393 40 L393 41 L393 41 Z M347 360 C345 350 337 342 327 341 L111 333 C130 425 181 490 241 490 C301 490 354 427 349 366 C349 366 349 364 349 360 L347 360 L347 360 Z " />
<glyph glyph-name="Edot" unicode="&#x116;" horiz-adv-x="565" d="M309 761 C309 800 247 800 247 761 C247 721 309 721 309 761 L309 761 Z M473 156 L459 156 L443 114 C421 59 360 14 304 14 L177 14 L177 345 L266 345 C314 345 357 310 364 267 L366 253 L379 253 L379 441 L366 441 L364 429 C357 390 313 359 266 359 L177 359 L177 646 L297 646 C353 646 406 602 418 546 L427 504 L441 504 L441 660 L40 660 L40 647 L57 647 C93 648 122 619 122 583 L122 77 C122 41 93 12 57 13 L40 13 L40 0 L446 0 C452 44 465 112 472 156 L473 156 L473 156 Z " />
<glyph glyph-name="edot" unicode="&#x117;" horiz-adv-x="445" d="M274 601 C274 640 212 640 212 601 C212 561 274 561 274 601 L274 601 Z M393 41 L389 47 C374 35 318 25 263 25 C174 25 103 127 103 254 C103 278 105 301 109 323 L395 323 C395 423 327 504 243 504 C136 504 50 384 50 234 C50 101 127 -6 222 -6 C286 -6 363 14 393 40 L393 41 L393 41 Z M347 360 C345 350 337 342 327 341 L111 333 C130 425 181 490 241 490 C301 490 354 427 349 366 C349 366 349 364 349 360 L347 360 L347 360 Z " />
<glyph glyph-name="Eogonek" unicode="&#x118;" horiz-adv-x="565" d="M473 156 L459 156 L443 114 C421 59 360 14 304 14 L177 14 L177 345 L266 345 C314 345 357 310 364 267 L366 253 L379 253 L379 441 L366 441 L364 429 C357 390 313 359 266 359 L177 359 L177 646 L297 646 C353 646 406 602 418 546 L427 504 L441 504 L441 660 L40 660 L40 647 L57 647 C93 648 122 619 122 583 L122 77 C122 41 93 12 57 13 L40 13 L40 0 L422 0 C375 -29 301 -101 301 -155 C301 -198 347 -232 404 -232 C434 -232 470 -217 485 -199 L481 -194 C470 -207 440 -218 415 -218 C369 -218 332 -188 332 -150 C332 -89 413 -10 444 1 L446 1 C452 45 465 113 472 157 L473 156 L473 156 Z " />
<glyph glyph-name="eogonek" unicode="&#x119;" horiz-adv-x="445" d="M284 0 C284 2 357 10 393 41 L389 47 C374 35 318 25 263 25 C174 25 103 127 103 254 C103 278 105 301 109 323 L395 323 C395 423 327 504 243 504 C136 504 50 384 50 234 C50 101 127 -6 222 -6 C233 -6 244 -5 255 -4 C208 -35 140 -103 140 -155 C140 -198 186 -233 243 -233 C273 -233 309 -218 324 -200 L320 -195 C309 -208 279 -219 254 -219 C208 -219 171 -188 171 -150 C171 -89 252 -11 283 0 L284 0 L284 0 Z M346 361 C344 351 336 343 326 342 L110 334 C129 426 180 491 240 491 C300 491 353 428 348 367 C348 367 348 365 348 361 L346 361 L346 361 Z " />
<glyph glyph-name="Ecaron" unicode="&#x11a;" horiz-adv-x="565" d="M383 927 C383 927 313 832 277 773 C251 815 201 893 172 927 L166 922 C161 928 261 729 261 729 C263 725 269 715 277 715 C285 715 291 725 293 729 C345 835 388 922 388 922 L383 927 L383 927 Z M472 156 L458 156 L442 114 C420 59 359 14 303 14 L176 14 L176 345 L265 345 C313 345 356 310 363 267 L365 253 L378 253 L378 441 L365 441 L363 429 C356 390 312 359 265 359 L176 359 L176 646 L296 646 C352 646 405 602 417 546 L426 504 L440 504 L440 660 L39 660 L39 647 L56 647 C92 648 121 619 121 583 L121 77 C121 41 92 12 56 13 L39 13 L39 0 L445 0 C451 44 464 112 471 156 L472 156 L472 156 Z " />
<glyph glyph-name="ecaron" unicode="&#x11b;" horiz-adv-x="445" d="M348 767 C348 767 278 672 242 613 C216 655 166 733 137 767 L131 762 C126 768 226 569 226 569 C228 565 234 555 242 555 C250 555 256 565 258 569 C310 675 353 762 353 762 L348 767 L348 767 Z M392 41 L388 47 C373 35 317 25 262 25 C173 25 102 127 102 254 C102 278 104 301 108 323 L394 323 C394 423 326 504 242 504 C135 504 49 384 49 234 C49 101 126 -6 221 -6 C285 -6 362 14 392 40 L392 41 L392 41 Z M346 360 C344 350 336 342 326 341 L110 333 C129 425 180 490 240 490 C300 490 353 427 348 366 C348 366 348 364 348 360 L346 360 L346 360 Z " />
<glyph glyph-name="Gcircumflex" unicode="&#x11c;" horiz-adv-x="784" d="M382 891 C380 895 374 905 366 905 C358 905 352 895 350 891 C350 891 250 692 255 698 L261 693 C290 727 340 805 366 847 C402 788 472 693 472 693 L478 698 C478 698 435 785 383 891 L382 891 L382 891 Z M602 458 L602 589 C602 593 602 598 602 604 C542 638 438 666 367 666 C198 666 63 517 63 331 C63 145 198 -4 367 -4 C441 -4 548 24 608 58 L608 234 C608 270 637 299 673 298 L690 298 L690 311 L476 311 L476 298 L493 298 C529 299 558 270 558 234 L558 51 C500 27 424 10 368 10 C233 10 125 153 125 331 C125 509 233 652 368 652 C388 652 411 650 435 646 C498 633 561 568 577 497 C579 486 584 470 586 459 L602 458 L602 458 Z " />
<glyph glyph-name="Gbreve" unicode="&#x11e;" horiz-adv-x="784" d="M270 872 C280 814 323 768 366 768 C409 768 452 814 462 871 L453 873 C446 833 407 801 366 801 C325 801 286 833 279 873 L270 872 L270 872 Z M601 458 L601 589 C601 593 601 598 601 604 C541 638 437 666 366 666 C197 666 62 517 62 331 C62 145 197 -4 366 -4 C440 -4 547 24 607 58 L607 234 C607 270 636 299 672 298 L689 298 L689 311 L475 311 L475 298 L492 298 C528 299 557 270 557 234 L557 51 C499 27 423 10 367 10 C232 10 124 153 124 331 C124 509 232 652 367 652 C387 652 410 650 434 646 C497 633 560 568 576 497 C578 486 583 470 585 459 L601 458 L601 458 Z " />
<glyph glyph-name="gbreve" unicode="&#x11f;" horiz-adv-x="430" d="M131 712 C141 654 184 608 227 608 C270 608 313 654 323 711 L314 713 C307 673 268 641 227 641 C186 641 147 673 140 713 L131 712 L131 712 Z M430 500 L295 490 C185 541 69 458 69 350 C69 281 114 223 177 203 C107 201 52 162 52 112 C52 68 94 32 151 22 C81 -7 28 -64 28 -110 C28 -181 88 -238 163 -238 C301 -238 411 -154 411 -49 C411 17 337 70 244 70 C240 70 179 67 179 67 C127 67 86 96 86 132 C86 167 130 195 184 195 L228 195 C316 195 386 264 386 350 C386 399 363 443 327 471 L431 472 L430 500 L430 500 Z M228 206 C166 206 117 270 117 350 C117 430 166 494 228 494 C290 494 339 430 339 350 C339 270 290 206 228 206 L228 206 Z M165 21 C170 21 175 21 180 21 L229 24 C309 24 374 -19 374 -73 C374 -157 282 -224 167 -224 C108 -224 60 -171 60 -104 C60 -57 106 -2 164 21 L165 21 L165 21 Z " />
<glyph glyph-name="Gdot" unicode="&#x120;" horiz-adv-x="784" d="M397 761 C397 800 335 800 335 761 C335 721 397 721 397 761 L397 761 Z M601 458 L601 589 C601 593 601 598 601 604 C541 638 437 666 366 666 C197 666 62 517 62 331 C62 145 197 -4 366 -4 C440 -4 547 24 607 58 L607 234 C607 270 636 299 672 298 L689 298 L689 311 L475 311 L475 298 L492 298 C528 299 557 270 557 234 L557 51 C499 27 423 10 367 10 C232 10 124 153 124 331 C124 509 232 652 367 652 C387 652 410 650 434 646 C497 633 560 568 576 497 C578 486 583 470 585 459 L601 458 L601 458 Z " />
<glyph glyph-name="gdot" unicode="&#x121;" horiz-adv-x="430" d="M258 601 C258 640 196 640 196 601 C196 561 258 561 258 601 L258 601 Z M430 500 L295 490 C185 541 69 458 69 350 C69 281 114 223 177 203 C107 201 52 162 52 112 C52 68 94 32 151 22 C81 -7 28 -64 28 -110 C28 -181 88 -238 163 -238 C301 -238 411 -154 411 -49 C411 17 337 70 244 70 C240 70 179 67 179 67 C127 67 86 96 86 132 C86 167 130 195 184 195 L228 195 C316 195 386 264 386 350 C386 399 363 443 327 471 L431 472 L430 500 L430 500 Z M228 206 C166 206 117 270 117 350 C117 430 166 494 228 494 C290 494 339 430 339 350 C339 270 290 206 228 206 L228 206 Z M165 21 C170 21 175 21 180 21 L229 24 C309 24 374 -19 374 -73 C374 -157 282 -224 167 -224 C108 -224 60 -171 60 -104 C60 -57 106 -2 164 21 L165 21 L165 21 Z " />
<glyph glyph-name="Hcircumflex" unicode="&#x124;" horiz-adv-x="744" d="M388 891 C386 895 380 905 373 905 C365 905 359 895 357 891 C357 891 257 692 262 698 L267 693 C296 728 346 807 372 849 C408 790 479 694 479 694 L484 699 C484 699 441 786 389 892 L388 891 L388 891 Z M706 14 L689 14 C653 13 624 42 624 78 L624 584 C624 620 653 649 689 648 L706 648 L706 661 L487 661 L487 648 L504 648 C540 649 569 620 569 584 L569 355 L178 355 L178 584 C178 620 207 649 243 648 L260 648 L260 661 L41 661 L41 648 L58 648 C94 649 123 620 123 584 L123 78 C123 42 94 13 58 14 L41 14 L41 1 L260 1 L260 14 L243 14 C207 13 178 42 178 78 L178 341 L569 341 L569 78 C569 42 540 13 504 14 L487 14 L487 1 L706 1 L706 14 L706 14 Z " />
<glyph glyph-name="Itilde" unicode="&#x128;" horiz-adv-x="298" d="M34 755 C34 792 50 822 70 822 C111 822 175 759 216 759 C248 759 274 801 274 853 L266 853 C266 819 249 792 227 792 C186 792 122 855 81 855 C50 855 26 811 26 755 L34 755 L34 755 Z M259 13 L242 13 C206 12 177 41 177 77 L177 583 C177 619 206 648 242 647 L259 647 L259 660 L40 660 L40 647 L57 647 C93 648 122 619 122 583 L122 77 C122 41 93 12 57 13 L40 13 L40 0 L259 0 L259 13 L259 13 Z " />
<glyph glyph-name="itilde" unicode="&#x129;" horiz-adv-x="303" d="M36 595 C36 632 52 662 72 662 C113 662 177 599 218 599 C250 599 276 641 276 693 L268 693 C268 659 251 632 229 632 C188 632 124 695 83 695 C52 695 28 651 28 595 L36 595 L36 595 Z M259 13 L242 13 C206 12 177 41 177 77 L177 500 L167 500 L45 465 L45 453 L57 453 C111 452 127 437 127 386 L127 77 C127 41 98 12 62 13 L45 13 L45 0 L259 0 L259 13 L259 13 Z " />
<glyph glyph-name="Imacron" unicode="&#x12a;" horiz-adv-x="298" d="M19 770 L281 770 L281 798 L19 798 L19 770 L19 770 Z M259 13 L242 13 C206 12 177 41 177 77 L177 583 C177 619 206 648 242 647 L259 647 L259 660 L40 660 L40 647 L57 647 C93 648 122 619 122 583 L122 77 C122 41 93 12 57 13 L40 13 L40 0 L259 0 L259 13 L259 13 Z " />
<glyph glyph-name="imacron" unicode="&#x12b;" horiz-adv-x="303" d="M21 610 L283 610 L283 638 L21 638 L21 610 L21 610 Z M259 13 L242 13 C206 12 177 41 177 77 L177 500 L167 500 L45 465 L45 453 L57 453 C111 452 127 437 127 386 L127 77 C127 41 98 12 62 13 L45 13 L45 0 L259 0 L259 13 L259 13 Z " />
<glyph glyph-name="Ibreve" unicode="&#x12c;" horiz-adv-x="298" d="M54 872 C64 814 107 768 150 768 C193 768 236 814 246 871 L237 873 C230 833 191 801 150 801 C109 801 70 833 63 873 L54 872 L54 872 Z M259 13 L242 13 C206 12 177 41 177 77 L177 583 C177 619 206 648 242 647 L259 647 L259 660 L40 660 L40 647 L57 647 C93 648 122 619 122 583 L122 77 C122 41 93 12 57 13 L40 13 L40 0 L259 0 L259 13 L259 13 Z " />
<glyph glyph-name="ibreve" unicode="&#x12d;" horiz-adv-x="303" d="M56 712 C66 654 109 608 152 608 C195 608 238 654 248 711 L239 713 C232 673 193 641 152 641 C111 641 72 673 65 713 L56 712 L56 712 Z M259 13 L242 13 C206 12 177 41 177 77 L177 500 L167 500 L45 465 L45 453 L57 453 C111 452 127 437 127 386 L127 77 C127 41 98 12 62 13 L45 13 L45 0 L259 0 L259 13 L259 13 Z " />
<glyph glyph-name="Idot" unicode="&#x130;" horiz-adv-x="298" d="M181 761 C181 800 119 800 119 761 C119 721 181 721 181 761 L181 761 Z M259 13 L242 13 C206 12 177 41 177 77 L177 583 C177 619 206 648 242 647 L259 647 L259 660 L40 660 L40 647 L57 647 C93 648 122 619 122 583 L122 77 C122 41 93 12 57 13 L40 13 L40 0 L259 0 L259 13 L259 13 Z " />
<glyph glyph-name="dotlessi" unicode="&#x131;" horiz-adv-x="303" d="M259 13 L242 13 C206 12 177 41 177 77 L177 500 L167 500 L45 465 L45 453 L57 453 C111 452 127 437 127 386 L127 77 C127 41 98 12 62 13 L45 13 L45 0 L259 0 L259 13 L259 13 Z " />
<glyph glyph-name="Jcircumflex" unicode="&#x134;" horiz-adv-x="338" d="M205 891 C203 895 197 905 189 905 C181 905 175 895 173 891 C173 891 73 692 78 698 L84 693 C113 727 163 805 189 847 C225 788 295 693 295 693 L301 698 C301 698 258 785 206 891 L205 891 L205 891 Z M300 660 L80 660 L80 647 L97 647 C133 648 162 619 162 583 L162 200 C162 67 141 1 98 1 C77 1 55 23 48 50 C45 62 34 72 23 72 C8 72 -2 62 1 50 C9 17 46 -10 84 -10 C173 -10 218 76 218 247 L218 583 C218 619 247 648 283 647 L300 647 L300 660 L300 660 Z " />
<glyph glyph-name="Lacute" unicode="&#x139;" horiz-adv-x="565" d="M125 691 C125 691 206 783 235 820 C258 847 276 871 276 875 C276 881 256 895 248 895 C245 895 228 871 209 840 C180 803 119 695 119 695 L125 691 L125 691 Z M474 163 C468 166 455 171 455 171 L433 104 C417 54 364 14 314 14 L177 14 L177 583 C177 619 206 648 242 647 L259 647 L259 660 L40 660 L40 647 L57 647 C93 648 122 619 122 583 L122 77 C122 41 93 12 57 13 L40 13 L40 0 L446 0 C453 46 467 117 474 163 L474 163 Z " />
<glyph glyph-name="Lcaron" unicode="&#x13d;" horiz-adv-x="565" d="M365 693 C356 693 342 628 335 586 L307 424 L314 421 L366 574 C383 623 397 676 397 681 C397 689 374 693 365 693 L365 693 Z M474 163 C468 166 455 171 455 171 L433 104 C417 54 364 14 314 14 L177 14 L177 583 C177 619 206 648 242 647 L259 647 L259 660 L40 660 L40 647 L57 647 C93 648 122 619 122 583 L122 77 C122 41 93 12 57 13 L40 13 L40 0 L446 0 C453 46 467 117 474 163 L474 163 Z " />
<glyph glyph-name="lcaron" unicode="&#x13e;" horiz-adv-x="303" d="M283 723 C274 723 260 658 253 616 L225 454 L232 451 L284 604 C301 653 315 706 315 711 C315 719 292 723 283 723 L283 723 Z M259 13 L242 13 C206 12 177 41 177 77 L177 720 L167 720 L45 685 L45 673 L57 673 C111 672 127 657 127 606 L127 77 C127 41 98 12 62 13 L45 13 L45 0 L259 0 L259 13 L259 13 Z " />
<glyph glyph-name="Lslash" unicode="&#x141;" horiz-adv-x="565" d="M40 0 L446 0 C453 46 467 117 474 163 C468 166 455 171 455 171 L433 104 C417 54 364 14 314 14 L177 14 L177 316 L311 372 L311 388 L177 332 L177 583 C177 619 206 648 242 647 L259 647 L259 660 L40 660 L40 647 L57 647 C93 648 122 619 122 583 L122 309 L72 288 L72 272 L122 293 L122 77 C122 41 93 12 57 13 L40 13 L40 0 L40 0 Z " />
<glyph glyph-name="lslash" unicode="&#x142;" horiz-adv-x="303" d="M45 0 L259 0 L259 13 L242 13 C206 12 177 41 177 77 L177 362 L277 402 L277 418 L177 378 L177 720 L167 720 L45 685 L45 673 L57 673 C111 672 127 657 127 606 L127 358 L27 318 L27 302 L127 342 L127 77 C127 41 98 12 62 13 L45 13 L45 0 L45 0 Z " />
<glyph glyph-name="Nacute" unicode="&#x143;" horiz-adv-x="678" d="M309 691 C309 691 390 783 419 820 C442 847 460 871 460 875 C460 881 440 895 432 895 C429 895 412 871 393 840 C364 803 303 695 303 695 L309 691 L309 691 Z M43 647 L60 647 C96 648 125 619 125 583 L125 77 C125 41 96 12 60 13 L43 13 L43 0 L223 0 L223 13 L206 13 C170 12 141 41 141 77 L141 609 C272 402 403 195 534 -12 L555 -12 L555 582 C555 618 584 647 620 646 L637 646 L637 659 L456 659 L456 646 L473 646 C509 647 538 618 538 582 L538 83 L174 659 L42 659 L43 647 L43 647 Z " />
<glyph glyph-name="nacute" unicode="&#x144;" horiz-adv-x="596" d="M223 531 C223 531 304 623 333 660 C356 688 375 712 375 715 C375 721 354 735 346 735 C344 735 327 711 308 680 C279 643 218 535 218 535 L223 531 L223 531 Z M343 0 L557 0 L557 13 L540 13 C504 12 475 41 475 77 L475 336 C475 430 438 505 363 505 C331 505 249 476 177 439 L177 501 L167 501 L45 466 L45 454 L57 454 C111 453 127 438 127 387 L127 78 C127 42 98 13 62 14 L45 14 L45 1 L259 1 L259 14 L242 14 C206 13 177 42 177 78 L177 434 C220 455 284 471 324 471 C391 471 425 409 425 331 L425 77 C425 41 396 12 360 13 L343 13 L343 0 L343 0 Z " />
<glyph glyph-name="Ncaron" unicode="&#x147;" horiz-adv-x="678" d="M446 927 C446 927 375 831 339 772 C313 814 263 893 234 928 L229 923 C224 929 324 730 324 730 C326 726 332 716 340 716 C347 716 353 726 355 730 C407 836 450 923 450 923 L446 927 L446 927 Z M42 648 L59 648 C95 649 124 620 124 584 L124 78 C124 42 95 13 59 14 L42 14 L42 1 L222 1 L222 14 L205 14 C169 13 140 42 140 78 L140 610 C271 403 402 196 533 -11 L554 -11 L554 583 C554 619 583 648 619 647 L636 647 L636 660 L455 660 L455 647 L472 647 C508 648 537 619 537 583 L537 84 L173 660 L41 660 L42 648 L42 648 Z " />
<glyph glyph-name="ncaron" unicode="&#x148;" horiz-adv-x="596" d="M406 767 C406 767 336 672 300 613 C274 655 224 733 195 767 L189 762 C184 768 284 569 284 569 C286 565 292 555 300 555 C308 555 314 565 316 569 C368 675 411 762 411 762 L406 767 L406 767 Z M342 0 L556 0 L556 13 L539 13 C503 12 474 41 474 77 L474 336 C474 430 437 505 362 505 C330 505 248 476 176 439 L176 501 L166 501 L44 466 L44 454 L56 454 C110 453 126 438 126 387 L126 78 C126 42 97 13 61 14 L44 14 L44 1 L258 1 L258 14 L241 14 C205 13 176 42 176 78 L176 434 C219 455 283 471 323 471 C390 471 424 409 424 331 L424 77 C424 41 395 12 359 13 L342 13 L342 0 L342 0 Z " />
<glyph glyph-name="Omacron" unicode="&#x14c;" horiz-adv-x="722" d="M236 770 L498 770 L498 798 L236 798 L236 770 L236 770 Z M123 330 C123 490 218 651 367 651 C516 651 611 490 611 330 C611 170 516 9 367 9 C218 9 123 170 123 330 L123 330 Z M62 330 C62 163 181 -5 367 -5 C553 -5 672 163 672 330 C672 497 553 665 367 665 C181 665 62 497 62 330 L62 330 Z " />
<glyph glyph-name="omacron" unicode="&#x14d;" horiz-adv-x="551" d="M144 610 L407 610 L407 638 L144 638 L144 610 L144 610 Z M106 250 C106 385 182 494 276 494 C370 494 446 385 446 250 C446 115 370 6 276 6 C182 6 106 115 106 250 L106 250 Z M50 250 C50 108 151 -5 276 -5 C401 -5 501 108 501 250 C501 392 401 505 276 505 C151 505 50 392 50 250 L50 250 Z " />
<glyph glyph-name="Obreve" unicode="&#x14e;" horiz-adv-x="722" d="M271 872 C281 814 324 768 367 768 C410 768 453 814 463 871 L454 873 C447 833 408 801 367 801 C326 801 287 833 280 873 L271 872 L271 872 Z M123 330 C123 490 218 651 367 651 C516 651 611 490 611 330 C611 170 516 9 367 9 C218 9 123 170 123 330 L123 330 Z M62 330 C62 163 181 -5 367 -5 C553 -5 672 163 672 330 C672 497 553 665 367 665 C181 665 62 497 62 330 L62 330 Z " />
<glyph glyph-name="obreve" unicode="&#x14f;" horiz-adv-x="551" d="M179 712 C189 654 232 608 276 608 C319 608 362 654 372 711 L363 713 C356 673 317 641 276 641 C234 641 195 673 188 713 L179 712 L179 712 Z M106 250 C106 385 182 494 276 494 C370 494 446 385 446 250 C446 115 370 6 276 6 C182 6 106 115 106 250 L106 250 Z M50 250 C50 108 151 -5 276 -5 C401 -5 501 108 501 250 C501 392 401 505 276 505 C151 505 50 392 50 250 L50 250 Z " />
<glyph glyph-name="Racute" unicode="&#x154;" horiz-adv-x="595" d="M237 691 C237 691 318 783 347 820 C370 847 388 871 388 875 C388 881 368 895 360 895 C357 895 340 871 321 840 C292 803 231 695 231 695 L237 691 L237 691 Z M51 647 L68 647 C104 648 133 619 133 583 L133 77 C133 41 104 12 68 13 L51 13 L51 0 L271 0 L271 13 L254 13 C218 12 189 41 189 77 L189 317 L261 317 C285 286 350 203 427 106 C501 12 518 0 573 0 L594 0 L594 11 C569 11 564 17 503 95 C418 203 346 293 324 321 C421 338 493 407 493 490 C493 584 407 660 299 660 L50 660 L51 647 L51 647 Z M277 330 L188 331 L188 646 L299 646 C374 646 435 577 435 490 C435 401 365 330 277 330 L277 330 Z " />
<glyph glyph-name="Rcaron" unicode="&#x158;" horiz-adv-x="595" d="M419 927 C419 927 348 831 312 772 C286 814 236 893 207 928 L202 923 C197 929 297 730 297 730 C299 726 305 716 313 716 C320 716 326 726 328 730 C380 836 423 923 423 923 L419 927 L419 927 Z M50 648 L67 648 C103 649 132 620 132 584 L132 78 C132 42 103 13 67 14 L50 14 L50 1 L270 1 L270 14 L253 14 C217 13 188 42 188 78 L188 318 L260 318 C284 287 349 204 426 107 C500 13 517 1 572 1 L593 1 L593 12 C568 12 563 18 502 96 C417 204 345 294 323 322 C420 339 492 408 492 491 C492 585 406 661 298 661 L49 661 L50 648 L50 648 Z M276 331 L187 332 L187 647 L298 647 C373 647 434 578 434 491 C434 402 364 331 276 331 L276 331 Z " />
<glyph glyph-name="rcaron" unicode="&#x159;" horiz-adv-x="385" d="M320 767 C320 767 249 671 213 612 C187 654 137 733 108 768 L103 763 C98 769 198 570 198 570 C200 566 206 556 214 556 C221 556 227 566 229 570 C281 676 324 763 324 763 L320 767 L320 767 Z M44 454 L56 454 C110 453 126 438 126 387 L126 78 C126 42 97 13 61 14 L44 14 L44 1 L258 1 L258 14 L241 14 C205 13 176 42 176 78 L176 419 C201 447 237 468 261 468 C286 468 325 446 350 446 C363 446 374 457 374 470 C374 489 350 505 301 505 C268 505 214 470 176 425 L176 500 L166 500 L44 465 L44 454 L44 454 Z " />
<glyph glyph-name="Sacute" unicode="&#x15a;" horiz-adv-x="467" d="M173 691 C173 691 254 783 283 820 C306 848 325 872 325 875 C325 881 304 895 296 895 C294 895 277 871 258 840 C229 803 168 695 168 695 L173 691 L173 691 Z M388 465 L388 614 C339 642 266 665 224 665 C128 665 51 583 51 481 C51 417 122 341 211 309 C306 275 383 202 383 145 C383 70 323 9 248 9 C235 9 220 10 204 12 C143 25 85 87 69 156 C67 167 62 183 60 194 L43 194 L43 45 C92 17 183 -6 248 -6 C345 -6 422 71 422 167 C422 235 347 317 253 350 C163 382 90 450 90 503 C90 585 148 650 221 650 C285 650 338 609 351 554 C357 529 365 489 371 464 L388 465 L388 465 Z " />
<glyph glyph-name="sacute" unicode="&#x15b;" horiz-adv-x="385" d="M119 531 C119 531 200 623 229 660 C252 688 271 712 271 715 C271 721 250 735 242 735 C240 735 223 711 204 680 C175 643 114 535 114 535 L119 531 L119 531 Z M312 363 L312 461 L308 453 C308 455 311 458 312 461 C270 485 219 505 197 505 C124 505 65 448 65 378 C65 331 120 266 188 232 C246 203 293 153 293 118 C293 56 251 6 199 6 C192 6 184 7 176 8 C130 17 84 63 70 115 C68 123 64 134 62 142 L48 142 L48 34 C85 12 151 -5 196 -5 C273 -5 335 58 335 136 C335 179 285 237 223 268 C157 301 104 357 104 395 C104 450 145 494 197 494 C197 494 212 492 211 490 C249 476 285 434 293 394 C295 385 296 372 298 363 L312 363 L312 363 Z " />
<glyph glyph-name="Scircumflex" unicode="&#x15c;" horiz-adv-x="467" d="M237 891 C235 895 229 905 221 905 C213 905 207 895 205 891 C205 891 105 692 110 698 L116 693 C145 727 195 805 221 847 C257 788 327 693 327 693 L333 698 C333 698 290 785 238 891 L237 891 L237 891 Z M389 465 L389 614 C340 642 267 665 225 665 C129 665 52 583 52 481 C52 417 123 341 212 309 C307 275 384 202 384 145 C384 70 324 9 249 9 C236 9 221 10 205 12 C144 25 86 87 70 156 C68 167 63 183 61 194 L44 194 L44 45 C93 17 184 -6 249 -6 C346 -6 423 71 423 167 C423 235 348 317 254 350 C164 382 91 450 91 503 C91 585 149 650 222 650 C286 650 339 609 352 554 C358 529 366 489 372 464 L389 465 L389 465 Z " />
<glyph glyph-name="Scedilla" unicode="&#x15e;" horiz-adv-x="467" d="M215 -94 C230 -86 252 -79 265 -79 C292 -79 314 -103 314 -134 C314 -173 288 -205 255 -205 C226 -205 193 -199 183 -191 L180 -196 C198 -209 236 -220 265 -220 C309 -220 345 -182 345 -134 C345 -98 314 -69 276 -69 C260 -69 234 -76 219 -84 L215 -94 L215 -94 Z M388 465 L388 614 C339 642 266 665 224 665 C128 665 51 583 51 481 C51 417 122 341 211 309 C306 275 383 202 383 145 C383 70 323 9 248 9 C235 9 220 10 204 12 C143 25 85 87 69 156 C67 167 62 183 60 194 L43 194 L43 45 C91 18 179 -5 244 -6 C241 -14 228 -49 212 -93 L216 -94 C238 -34 256 -10 261 -4 C352 2 423 77 423 169 C423 237 348 319 254 352 C164 384 91 452 91 505 C91 587 149 652 222 652 C286 652 339 610 352 556 C358 531 366 491 372 466 L388 465 L388 465 Z " />
<glyph glyph-name="scedilla" unicode="&#x15f;" horiz-adv-x="385" d="M163 -94 C178 -86 200 -79 213 -79 C240 -79 262 -103 262 -134 C262 -173 236 -205 203 -205 C174 -205 141 -199 131 -191 L128 -196 C146 -209 184 -220 213 -220 C257 -220 293 -182 293 -134 C293 -98 262 -69 224 -69 C208 -69 182 -76 167 -84 L163 -94 L163 -94 Z M312 363 L312 461 L308 453 C308 455 311 458 312 461 C270 485 219 505 197 505 C124 505 65 448 65 378 C65 331 120 266 188 232 C246 203 293 153 293 118 C293 56 251 6 199 6 C192 6 184 7 176 8 C130 17 84 63 70 115 C68 123 64 134 62 142 L48 142 L48 34 C84 13 147 -4 192 -5 C189 -13 176 -48 160 -92 L164 -93 C186 -33 204 -9 209 -3 C281 3 337 64 337 138 C337 181 287 239 225 270 C159 303 106 359 106 397 C106 452 147 496 199 496 C199 496 214 494 213 492 C251 478 287 436 295 396 C297 387 298 374 300 365 L312 363 L312 363 Z " />
<glyph glyph-name="Scaron" unicode="&#x160;" horiz-adv-x="467" d="M326 927 C326 927 256 832 220 773 C194 815 144 893 115 927 L109 922 C104 928 204 729 204 729 C206 725 212 715 220 715 C228 715 234 725 236 729 C288 835 331 922 331 922 L326 927 L326 927 Z M387 465 L387 614 C338 642 265 665 223 665 C127 665 50 583 50 481 C50 417 121 341 210 309 C305 275 382 202 382 145 C382 70 322 9 247 9 C234 9 219 10 203 12 C142 25 84 87 68 156 C66 167 61 183 59 194 L42 194 L42 45 C91 17 182 -6 247 -6 C344 -6 421 71 421 167 C421 235 346 317 252 350 C162 382 89 450 89 503 C89 585 147 650 220 650 C284 650 337 609 350 554 C356 529 364 489 370 464 L387 465 L387 465 Z " />
<glyph glyph-name="scaron" unicode="&#x161;" horiz-adv-x="385" d="M302 767 C302 767 232 672 196 613 C170 655 120 733 91 767 L85 762 C80 768 180 569 180 569 C182 565 188 555 196 555 C204 555 210 565 212 569 C264 675 307 762 307 762 L302 767 L302 767 Z M311 363 L311 461 L307 453 C307 455 310 458 311 461 C269 485 218 505 196 505 C123 505 64 448 64 378 C64 331 119 266 187 232 C245 203 292 153 292 118 C292 56 250 6 198 6 C191 6 183 7 175 8 C129 17 83 63 69 115 C67 123 63 134 61 142 L47 142 L47 34 C84 12 150 -5 195 -5 C272 -5 334 58 334 136 C334 179 284 237 222 268 C156 301 103 357 103 395 C103 450 144 494 196 494 C196 494 211 492 210 490 C248 476 284 434 292 394 C294 385 295 372 297 363 L311 363 L311 363 Z " />
<glyph glyph-name="Tcaron" unicode="&#x164;" horiz-adv-x="583" d="M397 927 C397 927 327 832 291 773 C265 815 215 893 186 927 L180 922 C175 928 275 729 275 729 C277 725 283 715 291 715 C299 715 305 725 307 729 C359 835 402 922 402 922 L397 927 L397 927 Z M11 489 L27 489 L49 566 C62 610 108 646 153 646 L263 646 L263 77 C263 41 234 12 198 13 L181 13 L181 0 L400 0 L400 13 L383 13 C347 12 318 41 318 77 L318 646 L428 646 C473 646 519 610 532 566 L554 489 L570 489 C566 538 562 613 555 660 L26 660 C19 613 15 538 11 489 L11 489 Z " />
<glyph glyph-name="tcaron" unicode="&#x165;" horiz-adv-x="313" d="M283 500 L145 500 L145 640 L137 640 L99 495 L119 571 C107 528 66 491 25 487 L25 481 L95 481 L95 111 C95 27 116 -5 171 -5 C217 -5 261 17 293 44 L290 48 C269 31 237 17 196 17 C159 17 145 41 145 102 L145 481 L283 481 L283 500 L283 500 Z M389 723 C380 723 366 658 359 616 L331 454 L338 451 L390 604 C407 653 421 706 421 711 C421 719 398 723 389 723 L389 723 Z M119 571 L119 572 L119 572 L119 571 L119 571 Z " />
<glyph glyph-name="Utilde" unicode="&#x168;" horiz-adv-x="664" d="M222 755 C222 792 238 822 258 822 C299 822 363 759 404 759 C436 759 462 801 462 853 L453 853 C453 819 436 792 415 792 C374 792 309 855 268 855 C237 855 213 811 213 755 L222 755 L222 755 Z M644 660 L438 660 L438 647 L460 647 C502 648 535 615 535 573 L535 182 C535 89 473 14 350 14 C236 14 179 95 179 196 L179 583 C179 619 208 648 244 647 L261 647 L261 660 L41 660 L41 647 L58 647 C94 648 123 619 123 583 L123 207 C123 89 196 -5 342 -5 C482 -5 552 76 552 177 L552 573 C552 615 585 648 627 647 L644 647 L644 660 L644 660 Z " />
<glyph glyph-name="utilde" unicode="&#x169;" horiz-adv-x="561" d="M155 595 C155 632 171 662 191 662 C232 662 296 599 337 599 C369 599 395 641 395 693 L387 693 C387 659 370 632 348 632 C307 632 243 695 202 695 C171 695 147 651 147 595 L155 595 L155 595 Z M15 487 L32 487 C68 488 97 459 97 423 L97 156 C97 67 150 -5 232 -5 C295 -5 356 22 395 57 L395 0 L405 0 L527 35 L527 47 L515 47 C461 48 445 63 445 114 L445 500 L313 500 L313 487 L330 487 C366 488 395 459 395 423 L395 65 C372 44 327 28 272 28 C195 28 146 87 146 161 L147 500 L15 500 L15 487 L15 487 Z " />
<glyph glyph-name="Umacron" unicode="&#x16a;" horiz-adv-x="664" d="M206 770 L469 770 L469 798 L206 798 L206 770 L206 770 Z M644 660 L438 660 L438 647 L460 647 C502 648 535 615 535 573 L535 182 C535 89 473 14 350 14 C236 14 179 95 179 196 L179 583 C179 619 208 648 244 647 L261 647 L261 660 L41 660 L41 647 L58 647 C94 648 123 619 123 583 L123 207 C123 89 196 -5 342 -5 C482 -5 552 76 552 177 L552 573 C552 615 585 648 627 647 L644 647 L644 660 L644 660 Z " />
<glyph glyph-name="umacron" unicode="&#x16b;" horiz-adv-x="561" d="M140 610 L402 610 L402 638 L140 638 L140 610 L140 610 Z M15 487 L32 487 C68 488 97 459 97 423 L97 156 C97 67 150 -5 232 -5 C295 -5 356 22 395 57 L395 0 L405 0 L527 35 L527 47 L515 47 C461 48 445 63 445 114 L445 500 L313 500 L313 487 L330 487 C366 488 395 459 395 423 L395 65 C372 44 327 28 272 28 C195 28 146 87 146 161 L147 500 L15 500 L15 487 L15 487 Z " />
<glyph glyph-name="Ubreve" unicode="&#x16c;" horiz-adv-x="664" d="M241 872 C251 814 294 768 338 768 C381 768 424 814 434 871 L425 873 C418 833 379 801 338 801 C296 801 257 833 250 873 L241 872 L241 872 Z M644 660 L438 660 L438 647 L460 647 C502 648 535 615 535 573 L535 182 C535 89 473 14 350 14 C236 14 179 95 179 196 L179 583 C179 619 208 648 244 647 L261 647 L261 660 L41 660 L41 647 L58 647 C94 648 123 619 123 583 L123 207 C123 89 196 -5 342 -5 C482 -5 552 76 552 177 L552 573 C552 615 585 648 627 647 L644 647 L644 660 L644 660 Z " />
<glyph glyph-name="ubreve" unicode="&#x16d;" horiz-adv-x="561" d="M175 712 C185 654 228 608 271 608 C314 608 357 654 367 711 L358 713 C351 673 312 641 271 641 C230 641 191 673 184 713 L175 712 L175 712 Z M15 487 L32 487 C68 488 97 459 97 423 L97 156 C97 67 150 -5 232 -5 C295 -5 356 22 395 57 L395 0 L405 0 L527 35 L527 47 L515 47 C461 48 445 63 445 114 L445 500 L313 500 L313 487 L330 487 C366 488 395 459 395 423 L395 65 C372 44 327 28 272 28 C195 28 146 87 146 161 L147 500 L15 500 L15 487 L15 487 Z " />
<glyph glyph-name="Uring" unicode="&#x16e;" horiz-adv-x="664" d="M257 788 C257 833 293 869 338 869 C382 869 418 833 418 788 C418 747 378 706 338 706 C298 706 257 747 257 788 L257 788 Z M243 788 C243 742 291 695 338 695 C385 695 432 742 432 788 C432 839 390 880 338 880 C285 880 243 839 243 788 L243 788 Z M644 660 L438 660 L438 647 L460 647 C502 648 535 615 535 573 L535 182 C535 89 473 14 350 14 C236 14 179 95 179 196 L179 583 C179 619 208 648 244 647 L261 647 L261 660 L41 660 L41 647 L58 647 C94 648 123 619 123 583 L123 207 C123 89 196 -5 342 -5 C482 -5 552 76 552 177 L552 573 C552 615 585 648 627 647 L644 647 L644 660 L644 660 Z " />
<glyph glyph-name="uring" unicode="&#x16f;" horiz-adv-x="561" d="M191 628 C191 673 227 709 271 709 C315 709 351 673 351 628 C351 587 311 546 271 546 C231 546 191 587 191 628 L191 628 Z M177 628 C177 582 224 535 271 535 C318 535 365 582 365 628 C365 679 323 720 271 720 C219 720 177 679 177 628 L177 628 Z M15 487 L32 487 C68 488 97 459 97 423 L97 156 C97 67 150 -5 232 -5 C295 -5 356 22 395 57 L395 0 L405 0 L527 35 L527 47 L515 47 C461 48 445 63 445 114 L445 500 L313 500 L313 487 L330 487 C366 488 395 459 395 423 L395 65 C372 44 327 28 272 28 C195 28 146 87 146 161 L147 500 L15 500 L15 487 L15 487 Z " />
<glyph glyph-name="Wcircumflex" unicode="&#x174;" horiz-adv-x="860" d="M217 660 L-4 660 L-4 647 L6 647 C36 648 68 622 80 588 L259 -15 L273 -15 L420 574 L589 -15 L603 -15 L759 583 C768 619 805 648 841 647 L857 647 L857 660 L650 660 L650 647 L694 647 C730 647 751 619 742 583 L742 583 L612 74 L444 670 L430 670 L280 69 L141 583 C131 619 152 648 188 647 L217 647 L217 660 L217 660 Z M453 891 C451 895 445 905 437 905 C429 905 423 895 421 891 C421 891 321 692 326 698 L332 693 C361 727 411 805 437 847 C473 788 543 693 543 693 L549 698 C549 698 506 785 454 891 L453 891 L453 891 Z " />
<glyph glyph-name="Ycircumflex" unicode="&#x176;" horiz-adv-x="572" d="M183 0 L402 0 L402 13 L385 13 C349 12 320 41 320 77 L320 287 L475 587 C495 621 535 648 567 647 L578 647 L578 660 L379 660 L379 647 L405 647 C449 648 468 615 451 572 L309 294 L174 582 C157 618 173 647 209 646 L235 646 L235 659 L16 659 L16 646 L25 646 C53 647 90 618 108 582 L109 582 L264 265 L265 71 C262 38 234 12 200 13 L183 13 L183 0 L183 0 Z M309 891 C307 895 301 905 293 905 C285 905 279 895 277 891 C277 891 177 692 182 698 L188 693 C217 727 267 805 293 847 C329 788 399 693 399 693 L405 698 C405 698 362 785 310 891 L309 891 L309 891 Z " />
<glyph glyph-name="Ydieresis" unicode="&#x178;" horiz-adv-x="572" d="M411 761 C411 800 350 801 350 762 C350 721 411 722 411 761 L411 761 Z M236 761 C236 800 175 799 175 761 C175 721 236 720 236 760 L236 761 L236 761 Z M183 -1 L402 -1 L402 12 L385 12 C349 11 320 40 320 76 L320 286 L475 586 C495 620 535 647 567 646 L578 646 L578 659 L379 659 L379 646 L405 646 C449 647 468 614 451 571 L309 293 L174 581 C157 617 173 646 209 645 L235 645 L235 658 L16 658 L16 645 L25 645 C53 646 90 617 108 581 L109 581 L264 264 L265 70 C262 37 234 11 200 12 L183 12 L183 -1 L183 -1 Z " />
<glyph glyph-name="Zacute" unicode="&#x179;" horiz-adv-x="556" d="M310 691 C310 691 391 783 420 820 C443 847 461 871 461 875 C461 881 441 895 433 895 C430 895 413 871 394 840 C365 803 304 695 304 695 L310 691 L310 691 Z M506 163 C500 166 487 171 487 171 L465 104 C449 54 396 14 346 14 L123 14 L491 660 L119 660 C108 621 92 559 81 519 L97 519 L121 566 C144 610 198 646 243 646 L420 646 L52 0 L478 0 C485 46 499 117 506 163 L506 163 Z " />
<glyph glyph-name="zacute" unicode="&#x17a;" horiz-adv-x="446" d="M162 531 C162 531 243 623 272 660 C295 688 314 712 314 715 C314 721 293 735 285 735 C283 735 266 711 247 680 C218 643 157 535 157 535 L162 531 L162 531 Z M393 168 L371 101 C355 51 302 11 252 11 L121 11 L396 500 L71 500 C61 470 51 422 42 391 L58 391 L67 408 C94 452 152 487 196 488 L332 488 L56 -1 L384 -1 L385 4 L385 4 C393 47 405 116 412 159 C406 162 393 167 393 167 L393 168 L393 168 Z " />
<glyph glyph-name="Zdot" unicode="&#x17b;" horiz-adv-x="556" d="M342 761 C342 800 281 799 281 761 C281 721 342 720 342 760 L342 761 L342 761 Z M506 162 C500 165 487 170 487 170 L465 103 C449 53 396 13 346 13 L123 13 L491 659 L119 659 C108 620 92 558 81 518 L97 518 L121 565 C144 609 198 645 243 645 L420 645 L52 -1 L478 -1 C485 45 499 116 506 162 L506 162 Z " />
<glyph glyph-name="zdot" unicode="&#x17c;" horiz-adv-x="446" d="M271 601 C271 640 209 640 209 601 C209 561 271 561 271 601 L271 601 Z M393 168 L371 101 C355 51 302 11 252 11 L121 11 L396 500 L71 500 C61 470 51 422 42 391 L58 391 L67 408 C94 452 152 487 196 488 L332 488 L56 -1 L384 -1 L385 4 L385 4 C393 47 405 116 412 159 C406 162 393 167 393 167 L393 168 L393 168 Z " />
<glyph glyph-name="Zcaron" unicode="&#x17d;" horiz-adv-x="556" d="M417 927 C417 927 346 831 310 772 C284 814 234 893 205 928 L200 923 C195 929 295 730 295 730 C297 726 303 716 311 716 C318 716 324 726 326 730 C378 836 421 923 421 923 L417 927 L417 927 Z M505 164 C499 167 486 172 486 172 L464 105 C448 55 395 15 345 15 L122 15 L490 661 L118 661 C107 622 91 560 80 520 L96 520 L120 567 C143 611 197 647 242 647 L419 647 L51 1 L477 1 C484 47 498 118 505 164 L505 164 Z " />
<glyph glyph-name="zcaron" unicode="&#x17e;" horiz-adv-x="446" d="M345 767 C345 767 275 672 239 613 C213 655 163 733 134 767 L128 762 C123 768 223 569 223 569 C225 565 231 555 239 555 C247 555 253 565 255 569 C307 675 350 762 350 762 L345 767 L345 767 Z M392 168 L370 101 C354 51 301 11 251 11 L120 11 L395 500 L70 500 C60 470 50 422 41 391 L57 391 L66 408 C93 452 151 487 195 488 L331 488 L55 -1 L383 -1 L384 4 L384 4 C392 47 404 116 411 159 C405 162 392 167 392 167 L392 168 L392 168 Z " />
<glyph glyph-name="oogonek" unicode="&#x1eb;" horiz-adv-x="673" d="M675 -51 L671 -47 C649 -74 593 -95 546 -95 C478 -95 403 -56 349 -5 C516 -2 622 137 622 276 C622 416 513 557 342 557 C171 557 62 416 62 276 C62 138 166 0 331 -6 C402 -75 484 -128 540 -128 C579 -128 639 -94 674 -52 L675 -51 L675 -51 Z M117 276 C117 410 205 545 342 545 C479 545 567 410 567 276 C567 142 479 7 342 7 C205 7 117 142 117 276 L117 276 Z " />
<glyph glyph-name="Adotabove" unicode="&#x226;" horiz-adv-x="604" d="M327 761 C327 800 265 800 265 761 C265 721 327 721 327 761 L327 761 Z M0 0 L214 0 L214 13 L181 13 C138 12 113 45 124 87 L169 236 L397 236 L451 71 C459 38 439 13 405 13 L361 13 L361 0 L602 0 L602 13 L591 13 C558 13 521 41 509 77 L509 77 L303 675 L289 675 L102 77 C91 41 53 12 17 13 L0 13 L0 0 L0 0 Z M392 251 L174 251 L279 596 L392 251 L392 251 Z " />
<glyph glyph-name="G_sc" unicode="&#x262;" horiz-adv-x="736" d="M553 353 L553 480 C553 484 553 489 553 496 C493 530 398 558 339 558 C186 558 63 433 63 277 C63 120 186 -5 339 -5 C402 -5 499 23 559 57 L559 183 C559 219 588 248 624 247 L641 247 L641 260 L432 260 L432 247 L449 247 C485 248 514 219 514 183 L514 50 C458 26 387 8 339 8 C216 8 118 128 118 277 C118 426 216 546 339 546 C340 546 381 544 381 542 C445 532 510 465 527 392 C529 381 534 364 536 353 L553 353 L553 353 Z " />
<glyph glyph-name="I_sc" unicode="&#x26a;" horiz-adv-x="296" d="M257 13 L240 13 C204 12 175 41 175 77 L175 476 C175 512 204 541 240 540 L257 540 L257 553 L43 553 L43 540 L60 540 C96 541 125 512 125 476 L125 77 C125 41 96 12 60 13 L43 13 L43 0 L257 0 L257 13 L257 13 Z " />
<glyph glyph-name="N_sc" unicode="&#x274;" horiz-adv-x="628" d="M43 540 L60 540 C96 541 125 512 125 476 L125 77 C125 41 96 12 60 13 L43 13 L43 0 L222 0 L222 13 L205 13 C169 12 140 41 140 77 L140 509 C256 336 372 163 488 -10 L506 -10 L506 476 C506 512 535 541 571 540 L588 540 L588 553 L409 553 L409 540 L426 540 C462 541 491 512 491 476 L491 73 L170 553 L43 553 L43 540 L43 540 Z M140 533 L140 533 L140 533 Z " />
<glyph glyph-name="R_sc" unicode="&#x280;" horiz-adv-x="554" d="M52 540 L69 540 C105 541 134 512 134 476 L134 77 C134 41 105 12 69 13 L52 13 L52 0 L266 0 L266 13 L249 13 C213 12 184 41 184 77 L184 265 L233 265 C257 239 315 178 382 106 C470 12 487 0 534 0 L554 0 L554 10 C530 10 524 17 450 96 C375 176 312 244 290 268 C377 283 442 341 442 412 C442 490 362 553 262 553 L53 553 L52 540 L52 540 Z M247 278 L185 278 L185 541 L262 541 C333 541 390 484 390 412 C390 338 326 278 247 278 L247 278 Z " />
<glyph glyph-name="Y_sc" unicode="&#x28f;" horiz-adv-x="518" d="M160 0 L374 0 L374 13 L357 13 C321 12 292 41 292 77 L292 243 L292 243 L418 476 L419 476 C439 512 481 541 514 540 L525 540 L525 553 L328 553 L328 540 L354 540 C398 541 417 508 399 465 L282 244 L169 483 C157 516 173 541 207 540 L233 540 L233 553 L21 553 L21 540 L30 540 C59 541 97 512 115 476 L244 223 L244 77 C244 41 215 12 179 13 L162 13 L160 0 L160 0 Z " />
<glyph glyph-name="B_sc" unicode="&#x299;" horiz-adv-x="511" d="M257 301 L219 299 L184 300 L184 541 L261 541 C331 541 388 490 388 427 C388 363 333 301 257 301 L257 301 Z M52 540 L69 540 C105 541 134 512 134 476 L134 77 C134 41 105 12 69 13 L52 13 L52 0 L280 0 C397 0 491 68 491 152 C491 225 411 285 304 299 C382 316 438 367 438 428 C438 498 359 554 261 554 L52 554 L52 540 L52 540 Z M184 292 L242 292 C351 292 439 230 439 153 C439 76 366 14 275 14 L184 14 L184 292 L184 292 Z " />
<glyph glyph-name="H_sc" unicode="&#x29c;" horiz-adv-x="695" d="M656 13 L639 13 C603 12 574 41 574 77 L574 476 C574 512 603 541 639 540 L656 540 L656 553 L442 553 L442 540 L459 540 C495 541 524 512 524 476 L524 299 L173 299 L173 476 C173 512 202 541 238 540 L255 540 L255 553 L41 553 L41 540 L58 540 C94 541 123 512 123 476 L123 77 C123 41 94 12 58 13 L41 13 L41 0 L255 0 L255 13 L238 13 C202 12 173 41 173 77 L173 287 L524 287 L524 77 C524 41 495 12 459 13 L442 13 L442 0 L656 0 L656 13 L656 13 Z " />
<glyph glyph-name="L_sc" unicode="&#x29f;" horiz-adv-x="524" d="M414 170 L392 103 C376 53 323 13 273 13 L173 13 L173 476 C173 512 202 541 238 540 L255 540 L255 553 L41 553 L41 540 L58 540 C94 541 123 512 123 476 L123 77 C123 41 94 12 58 13 L41 13 L41 0 L405 0 L406 6 L406 6 C413 49 426 119 433 162 C427 165 414 170 414 170 L414 170 Z " />
<glyph glyph-name="circumflex" unicode="&#x2c6;" horiz-adv-x="293" d="M163 731 C161 735 155 745 147 745 C139 745 133 735 131 731 C131 731 31 532 36 538 L41 533 C70 568 120 647 146 689 C182 630 253 534 253 534 L258 539 C258 539 216 625 164 732 L163 731 L163 731 Z " />
<glyph glyph-name="caron" unicode="&#x2c7;" horiz-adv-x="293" d="M252 767 C252 767 181 671 145 612 C119 654 69 733 40 768 L35 763 C30 769 130 570 130 570 C132 566 138 556 146 556 C154 556 160 566 162 570 C214 677 256 763 256 763 L252 767 L252 767 Z " />
<glyph glyph-name="firsttonechinese" unicode="&#x2c9;" horiz-adv-x="293" d="M15 610 L278 610 L278 638 L15 638 L15 610 L15 610 Z " />
<glyph glyph-name="breve" unicode="&#x2d8;" horiz-adv-x="293" d="M50 712 C60 654 103 608 147 608 C190 608 233 654 243 711 L234 713 C227 673 188 641 147 641 C105 641 66 673 59 713 L50 712 L50 712 Z " />
<glyph glyph-name="dotaccent" unicode="&#x2d9;" horiz-adv-x="293" d="M177 601 C177 640 116 639 116 601 C116 561 177 560 177 600 L177 601 L177 601 Z " />
<glyph glyph-name="ring" unicode="&#x2da;" horiz-adv-x="293" d="M66 628 C66 673 102 709 147 709 C191 709 227 673 227 628 C227 587 187 546 147 546 C107 546 66 587 66 628 L66 628 Z M52 628 C52 582 100 535 147 535 C194 535 241 582 241 628 C241 679 199 720 147 720 C94 720 52 679 52 628 L52 628 Z " />
<glyph glyph-name="A_sc" unicode="&#x1d00;" horiz-adv-x="549" d="M313 0 L547 0 L547 13 L536 13 C504 13 469 38 454 71 L276 566 L264 566 L104 77 C92 41 54 12 18 13 L1 13 L1 0 L212 0 L212 13 L179 13 C137 12 113 44 122 84 L158 198 L356 198 L400 69 C407 37 388 13 355 13 L312 13 L313 0 L313 0 Z M351 211 L161 211 L252 497 L351 211 L351 211 Z " />
<glyph glyph-name="C_sc" unicode="&#x1d04;" horiz-adv-x="632" d="M556 201 C554 190 549 173 547 162 C530 86 457 21 379 9 C230 -7 117 118 117 276 C117 425 221 545 350 545 C368 545 389 543 411 539 C472 523 530 460 545 391 C547 380 552 363 554 352 L571 352 L571 477 C574 477 571 494 571 494 C511 528 414 557 350 557 C190 557 62 432 62 276 C62 119 190 -6 350 -6 C414 -6 512 22 572 56 L572 200 L556 201 L556 201 Z " />
<glyph glyph-name="D_sc" unicode="&#x1d05;" horiz-adv-x="608" d="M52 540 L69 540 C105 541 134 512 134 476 L134 77 C134 41 105 12 69 13 L52 13 L52 0 L282 0 C435 0 558 123 558 277 C558 430 424 553 257 553 L52 553 L52 540 L52 540 Z M184 13 L184 541 L257 541 C396 541 508 424 508 277 C508 130 407 13 282 13 L184 13 L184 13 Z " />
<glyph glyph-name="E_sc" unicode="&#x1d07;" horiz-adv-x="524" d="M338 197 L338 383 L325 383 L323 371 C316 332 272 301 225 301 L173 301 L173 541 L255 541 C311 541 364 497 376 441 L385 399 L399 399 L399 553 L41 553 L41 540 L58 540 C94 541 123 512 123 476 L123 77 C123 41 94 12 58 13 L41 13 L41 0 L405 0 L406 6 L406 6 C413 47 425 114 432 155 L418 155 L402 113 C380 58 319 13 263 13 L173 13 L173 289 L225 289 C273 289 316 254 323 211 L325 197 L338 197 L338 197 Z " />
<glyph glyph-name="J_sc" unicode="&#x1d0a;" horiz-adv-x="289" d="M250 553 L36 553 L36 540 L53 540 C89 541 118 512 118 476 L118 168 C118 56 104 0 76 0 C64 0 49 22 42 50 C39 61 29 70 20 70 C6 70 -3 61 0 50 C8 17 36 -10 63 -10 C133 -10 168 63 168 210 L168 476 C168 512 197 541 233 540 L250 540 L250 553 L250 553 Z " />
<glyph glyph-name="K_sc" unicode="&#x1d0b;" horiz-adv-x="559" d="M518 553 L353 553 L353 540 L364 540 C394 541 396 517 369 486 L219 333 L219 333 L184 297 L184 475 C184 511 213 540 249 539 L266 539 L266 552 L52 552 L52 539 L69 539 C105 540 134 511 134 475 L134 76 C134 40 105 11 69 12 L52 12 L52 -1 L266 -1 L266 12 L249 12 C213 11 184 40 184 76 L184 279 L192 287 C208 269 246 225 291 173 C395 54 474 -6 528 -6 L548 -6 L548 4 C514 4 447 69 325 209 C278 263 242 306 227 324 L379 480 C414 514 468 540 502 539 L518 539 L518 553 L518 553 Z M184 297 L184 297 L184 297 Z " />
<glyph glyph-name="M_sc" unicode="&#x1d0d;" horiz-adv-x="749" d="M708 554 L605 554 L605 553 L582 553 L367 -5 L379 -5 L584 512 L604 68 C602 36 576 12 542 13 L526 13 L526 0 L739 0 L739 13 L722 13 C686 12 656 41 654 77 L632 481 C632 515 659 542 694 541 L709 540 L708 554 L708 554 Z M65 540 L81 540 C115 541 141 517 143 485 L125 77 C122 42 94 12 58 13 L41 13 L41 0 L254 0 L254 13 L218 13 C175 12 142 45 141 87 L159 489 C229 324 298 158 368 -6 L391 55 L391 56 L185 552 L65 552 L65 540 L65 540 Z " />
<glyph glyph-name="O_sc" unicode="&#x1d0f;" horiz-adv-x="673" d="M118 277 C118 411 206 546 343 546 C480 546 568 411 568 277 C568 143 480 8 343 8 C206 8 118 143 118 277 L118 277 Z M63 277 C63 136 172 -5 343 -5 C514 -5 623 136 623 277 C623 417 514 558 343 558 C172 558 63 417 63 277 L63 277 Z " />
<glyph glyph-name="P_sc" unicode="&#x1d18;" horiz-adv-x="487" d="M266 13 L249 13 C213 12 184 41 184 77 L184 250 L254 250 C372 250 467 317 467 400 C467 485 380 553 271 553 L52 553 L52 540 L69 540 C105 541 134 512 134 476 L134 77 C134 41 105 12 69 13 L52 13 L52 0 L266 0 L266 13 L266 13 Z M184 263 L184 541 L271 541 C351 541 415 478 415 400 C415 324 343 263 254 263 L184 263 L184 263 Z " />
<glyph glyph-name="T_sc" unicode="&#x1d1b;" horiz-adv-x="534" d="M160 0 L374 0 L374 13 L357 13 C321 12 292 41 292 77 L292 541 L379 541 C424 541 470 505 483 461 L505 384 L521 384 C517 429 510 502 507 547 L506 553 L28 553 L27 547 C24 502 17 429 13 384 L29 384 L51 461 C64 505 110 541 155 541 L242 541 L242 77 C242 41 213 12 177 13 L160 13 L160 0 L160 0 Z " />
<glyph glyph-name="U_sc" unicode="&#x1d1c;" horiz-adv-x="616" d="M596 553 L392 553 L392 540 L414 540 C456 541 489 508 489 466 L489 151 C489 74 434 12 325 12 C224 12 174 79 174 162 L174 476 C174 512 203 541 239 540 L256 540 L256 553 L42 553 L42 540 L59 540 C95 541 124 512 124 476 L124 171 C124 73 189 -5 318 -5 C442 -5 504 62 504 146 L504 466 C504 508 537 541 579 540 L596 540 L596 553 L596 553 Z " />
<glyph glyph-name="V_sc" unicode="&#x1d20;" horiz-adv-x="551" d="M235 553 L11 553 L11 540 L21 540 C51 541 84 516 100 483 L292 -15 L304 -15 L452 476 C463 512 500 541 536 540 L553 540 L553 553 L333 553 L333 540 L361 540 C414 541 443 498 428 446 L310 49 L155 476 C142 512 160 541 196 540 L234 540 L235 553 L235 553 Z " />
<glyph glyph-name="W_sc" unicode="&#x1d21;" horiz-adv-x="756" d="M753 553 L548 553 L548 540 L592 540 C627 540 648 513 640 478 L530 58 L388 563 L375 563 L248 54 L134 476 C124 512 145 541 181 540 L210 540 L210 553 L-5 553 L-5 540 L5 540 C36 541 69 511 81 476 L231 -15 L243 -15 L368 484 L511 -15 L524 -15 L654 476 C665 512 701 542 737 541 L753 541 L753 553 L753 553 Z " />
<glyph glyph-name="Z_sc" unicode="&#x1d22;" horiz-adv-x="508" d="M440 170 L418 103 C402 53 349 13 299 13 L118 13 L443 553 L122 553 C109 515 95 453 84 414 L100 414 L123 461 C146 505 201 541 246 541 L378 541 L53 0 L430 0 L431 6 L431 6 C438 49 451 119 458 162 C452 165 439 170 439 170 L440 170 L440 170 Z " />
<glyph glyph-name="Wgrave" unicode="&#x1e80;" horiz-adv-x="860" d="M217 660 L-4 660 L-4 647 L6 647 C36 648 68 622 80 588 L259 -15 L273 -15 L420 574 L589 -15 L603 -15 L759 583 C768 619 805 648 841 647 L857 647 L857 660 L650 660 L650 647 L694 647 C730 647 751 619 742 583 L742 583 L612 74 L444 670 L430 670 L280 69 L141 583 C131 619 152 648 188 647 L217 647 L217 660 L217 660 Z M355 875 C355 870 374 847 398 820 C427 783 511 691 511 691 L516 695 C516 695 452 802 423 840 C404 871 387 895 383 895 C375 895 355 881 355 875 L355 875 Z " />
<glyph glyph-name="Wacute" unicode="&#x1e82;" horiz-adv-x="860" d="M374 691 C374 691 455 783 484 820 C507 848 526 872 526 875 C526 881 505 895 497 895 C495 895 478 871 459 840 C430 803 369 695 369 695 L374 691 L374 691 Z M217 660 L-4 660 L-4 647 L6 647 C36 648 68 622 80 588 L259 -15 L273 -15 L420 574 L589 -15 L603 -15 L759 583 C768 619 805 648 841 647 L857 647 L857 660 L650 660 L650 647 L694 647 C730 647 751 619 742 583 L742 583 L612 74 L444 670 L430 670 L280 69 L141 583 C131 619 152 648 188 647 L217 647 L217 660 L217 660 Z " />
<glyph glyph-name="Wdieresis" unicode="&#x1e84;" horiz-adv-x="860" d="M555 761 C555 800 494 801 494 762 C494 721 555 722 555 761 L555 761 Z M380 761 C380 800 319 799 319 761 C319 721 380 720 380 760 L380 761 L380 761 Z M217 659 L-4 659 L-4 646 L6 646 C36 647 68 621 80 587 L259 -16 L273 -16 L420 573 L589 -16 L603 -16 L759 582 C768 618 805 647 841 646 L857 646 L857 659 L650 659 L650 646 L694 646 C730 646 751 618 742 582 L742 582 L612 73 L444 669 L430 669 L280 68 L141 582 C131 618 152 647 188 646 L217 646 L217 659 L217 659 Z " />
<glyph glyph-name="Etilde" unicode="&#x1ebc;" horiz-adv-x="565" d="M162 755 C162 792 178 822 198 822 C239 822 303 759 344 759 C376 759 402 801 402 853 L394 853 C394 819 377 792 355 792 C314 792 250 855 209 855 C178 855 154 811 154 755 L162 755 L162 755 Z M473 156 L459 156 L443 114 C421 59 360 14 304 14 L177 14 L177 345 L266 345 C314 345 357 310 364 267 L366 253 L379 253 L379 441 L366 441 L364 429 C357 390 313 359 266 359 L177 359 L177 646 L297 646 C353 646 406 602 418 546 L427 504 L441 504 L441 660 L40 660 L40 647 L57 647 C93 648 122 619 122 583 L122 77 C122 41 93 12 57 13 L40 13 L40 0 L446 0 C452 44 465 112 472 156 L473 156 L473 156 Z " />
<glyph glyph-name="Ygrave" unicode="&#x1ef2;" horiz-adv-x="572" d="M183 0 L402 0 L402 13 L385 13 C349 12 320 41 320 77 L320 287 L475 587 C495 621 535 648 567 647 L578 647 L578 660 L379 660 L379 647 L405 647 C449 648 468 615 451 572 L309 294 L174 582 C157 618 173 647 209 646 L235 646 L235 659 L16 659 L16 646 L25 646 C53 647 90 618 108 582 L109 582 L264 265 L265 71 C262 38 234 12 200 13 L183 13 L183 0 L183 0 Z M211 875 C211 870 230 847 254 820 C283 783 367 691 367 691 L372 695 C372 695 308 802 279 840 C260 871 243 895 239 895 C231 895 211 881 211 875 L211 875 Z " />
<glyph glyph-name="quoteleft" unicode="&#x2018;" horiz-adv-x="188" d="M96 502 C116 502 132 518 132 538 C132 561 109 580 84 572 C77 608 97 647 122 659 L118 667 C82 650 54 603 54 561 C54 531 67 502 96 502 L96 502 Z " />
<glyph glyph-name="quoteright" unicode="&#x2019;" horiz-adv-x="188" d="M96 665 C76 665 60 649 60 629 C60 606 83 587 108 595 C115 559 95 520 70 508 L74 500 C110 517 138 564 138 606 C138 636 125 665 96 665 L96 665 Z " />
<glyph glyph-name="quotedblleft" unicode="&#x201c;" horiz-adv-x="294" d="M202 502 C222 502 238 518 238 538 C238 561 215 580 190 572 C183 608 203 647 228 659 L224 667 C188 650 160 603 160 561 C160 531 173 502 202 502 L202 502 Z M96 502 C116 502 132 518 132 538 C132 561 109 580 84 572 C77 608 97 647 122 659 L118 667 C82 650 54 603 54 561 C54 531 67 502 96 502 L96 502 Z " />
<glyph glyph-name="quotedblright" unicode="&#x201d;" horiz-adv-x="294" d="M202 665 C182 665 166 649 166 629 C166 606 189 587 214 595 C221 559 201 520 176 508 L180 500 C216 517 244 564 244 606 C244 636 231 665 202 665 L202 665 Z M96 665 C76 665 60 649 60 629 C60 606 83 587 108 595 C115 559 95 520 70 508 L74 500 C110 517 138 564 138 606 C138 636 125 665 96 665 L96 665 Z " />
<glyph glyph-name="ellipsis" unicode="&#x2026;" horiz-adv-x="450" d="M375 0 C395 0 411 16 411 36 C411 56 395 72 375 72 C355 72 339 56 339 36 C339 16 355 0 375 0 L375 0 Z M225 0 C245 0 261 16 261 36 C261 56 245 72 225 72 C205 72 189 56 189 36 C189 16 205 0 225 0 L225 0 Z M75 0 C95 0 111 16 111 36 C111 56 95 72 75 72 C55 72 39 56 39 36 C39 16 55 0 75 0 L75 0 Z " />
<glyph glyph-name="perthousand" unicode="&#x2030;" horiz-adv-x="1064" d="M825 191 C825 285 862 360 908 360 C962 360 1005 276 1005 171 C1005 82 966 11 918 11 C866 11 825 91 825 191 L825 191 Z M776 182 C776 78 837 -5 914 -5 C991 -5 1052 81 1052 188 C1052 292 991 375 914 375 C837 375 776 289 776 182 L776 182 Z M79 542 C79 635 116 710 162 710 C216 710 259 626 259 522 C259 433 220 362 172 362 C120 362 79 442 79 542 L79 542 Z M30 533 C30 429 91 345 168 345 C245 345 306 431 306 539 C306 642 245 725 168 725 C91 725 30 640 30 533 L30 533 Z M513 191 C513 285 550 360 597 360 C654 360 700 276 700 171 C700 82 659 11 608 11 C555 11 513 91 513 191 L513 191 Z M464 181 C464 78 526 -5 604 -5 C683 -5 747 81 747 188 C747 292 683 375 604 375 C526 375 464 289 464 181 L464 181 Z M180 -7 L626 713 L604 727 L157 7 L180 -7 L180 -7 Z " />
<glyph glyph-name="guilsinglleft" unicode="&#x2039;" horiz-adv-x="255" d="M70 251 L209 459 L204 464 L20 254 L20 248 L205 37 L210 42 L70 251 L70 251 Z " />
<glyph glyph-name="guilsinglright" unicode="&#x203a;" horiz-adv-x="255" d="M50 37 L235 248 L235 254 L51 464 L46 459 L185 251 L45 42 L50 37 L50 37 Z " />
<glyph glyph-name="fraction" unicode="&#x2044;" horiz-adv-x="477" d="M41 -7 L487 713 L465 727 L19 7 L41 -7 L41 -7 Z " />
<glyph glyph-name="Euro" unicode="&#x20ac;" horiz-adv-x="719" d="M659 458 L659 603 L656 597 C656 599 658 601 659 603 C599 637 491 665 415 665 C260 665 132 548 105 391 L55 391 L50 355 L101 355 C100 339 100 322 101 306 L50 306 L45 270 L105 270 C132 113 260 -4 415 -4 C491 -4 599 24 659 58 L655 65 L655 65 L658 58 L658 203 L641 203 C639 192 634 176 632 165 C614 88 533 20 448 12 C448 11 416 10 414 10 C290 10 187 121 165 270 L458 270 L463 306 L161 306 C160 322 160 339 161 355 L463 355 L468 391 L165 391 C187 540 290 651 414 651 C437 651 464 648 492 643 C555 630 617 565 633 495 C635 484 640 468 642 457 L659 458 L659 458 Z " />
<glyph glyph-name="F_sc" unicode="&#xa730;" horiz-adv-x="433" d="M41 540 L58 540 C94 541 123 512 123 476 L123 77 C123 41 94 12 58 13 L41 13 L41 0 L265 0 L265 13 L238 13 C202 12 173 41 173 77 L173 285 L215 285 C263 285 306 250 313 207 L315 193 L328 193 L328 379 L315 379 L313 367 C306 328 262 297 215 297 L173 297 L173 541 L285 541 C341 541 394 497 406 441 L415 399 L429 399 L429 553 L41 553 L41 540 L41 540 Z " />
<glyph glyph-name="S_sc" unicode="&#xa731;" horiz-adv-x="418" d="M339 360 L339 507 L335 500 C336 502 338 504 339 506 C290 534 228 557 200 557 C118 557 52 488 52 403 C52 349 113 284 188 258 C271 229 337 168 337 120 C337 51 277 -1 202 8 C143 18 86 80 69 154 C67 165 62 181 60 192 L43 192 L43 45 C92 17 171 -6 220 -6 C305 -6 373 59 373 140 C373 197 306 265 223 294 C148 320 87 378 87 423 C87 491 136 545 198 545 C198 545 218 542 218 541 C256 530 293 490 302 450 C308 425 316 384 322 359 L339 360 L339 360 Z " />
<glyph glyph-name="X_sc" unicode="&#xf078;" horiz-adv-x="550" d="M256 553 L38 553 L38 540 L47 540 C76 541 116 511 138 475 L263 268 L156 72 C135 38 92 11 58 12 L42 12 L42 -1 L247 -1 L247 12 L216 12 C174 11 157 43 176 84 L269 258 L383 68 C399 36 386 11 353 12 L318 12 L318 -1 L536 -1 L536 12 L527 12 C498 11 458 41 436 77 L296 309 L404 479 C428 514 473 541 508 540 L524 540 L524 553 L319 553 L319 540 L364 540 C400 540 410 512 388 476 L388 476 L290 318 L190 484 C174 516 187 541 220 540 L255 540 L256 553 L256 553 Z " />
</font>
</svg>
