<?xml version="1.0" encoding="UTF-8"?>
<svg xmlns="http://www.w3.org/2000/svg" xmlns:xlink="http://www.w3.org/1999/xlink" version="1.2" >
<font id="Hughe Smooth">
<font-face  font-family="Hughe" units-per-em="1024" ascent="936" descent="-280" font-style="normal" font-weight="400" font-stretch="normal" cap-height="932" x-height="468" underline-position="-125" underline-thickness="50" />
<missing-glyph  horiz-adv-x="100" d="" />
<glyph glyph-name="NULL" d="" />
<glyph glyph-name="CR" unicode="&#xd;" horiz-adv-x="256" d="" />
<glyph glyph-name="space" unicode="&#x20;" horiz-adv-x="240" d="" />
<glyph glyph-name="exclam" unicode="&#x21;" horiz-adv-x="215" d="M114 -5 C144 -5 168 19 168 49 C168 79 144 103 114 103 C84 103 60 79 60 49 C60 19 84 -5 114 -5 L114 -5 Z M143.625 649.125 C135.25 659 123 665 109 665 C94.5 665 82.25 659 74 649.125 C56.9707 628.741 64.986 518.939 86 349 C99.8382 237.091 110.732 178 114 178 C117.268 178 126.176 237.151 137 349 C153.469 519.183 160.848 628.817 143.625 649.125 L143.625 649.125 Z " />
<glyph glyph-name="quotedbl" unicode="&#x22;" horiz-adv-x="301" d="M186 543.5 C199.724 467.363 209.079 427 213 427 C216.921 427 226.276 467.363 240 543.5 C253.724 619.637 244.37 660 213 660 C181.63 660 172.276 619.637 186 543.5 L186 543.5 Z M60.5 543.5 C73.8975 467.363 83.252 427 87.5 427 C91.748 427 101.103 467.363 114.5 543.5 C127.897 619.637 118.543 660 87.5 660 C56.4571 660 47.1025 619.637 60.5 543.5 L60.5 543.5 Z " />
<glyph glyph-name="numbersign" unicode="&#x23;" horiz-adv-x="492" d="M341.5 580 C332.677 520.528 307.732 489 269.5 489 C231.268 489 215.677 520.528 224.5 580 C233.323 639.472 232.976 671 223.5 671 C214.024 671 204.323 639.472 195.5 580 C186.677 520.528 162.078 489 124.5 489 C86.9217 489 65.6141 478.953 63 460 C60.3859 441.047 78.9217 431 116.5 431 C154.078 431 168.803 396.007 159 330 C149.197 263.993 123.559 229 85 229 C46.4414 229 24.6141 218.953 22 200 C19.3859 181.047 38.4414 171 77 171 C115.559 171 131.669 141.377 123.5 85.5 C115.331 29.6227 116.024 0 125.5 0 C134.976 0 144.331 29.6227 152.5 85.5 C160.669 141.377 185.268 171 223.5 171 C261.732 171 277.669 141.377 269.5 85.5 C261.331 29.6227 262.197 0 272 0 C281.803 0 291.331 29.6227 299.5 85.5 C307.669 141.377 330.363 171 365 171 C399.637 171 419.559 181.047 422.5 200 C425.441 218.953 408.464 229 373.5 229 C338.536 229 325.197 263.993 335 330 C344.803 396.007 369.748 431 407 431 C444.252 431 465.386 441.047 468 460 C470.614 478.953 452.252 489 415 489 C377.748 489 362.677 520.528 371.5 580 C380.323 639.472 379.803 671 370 671 C360.197 671 350.323 639.472 341.5 580 L341.5 580 Z M261.5 431 C299.732 431 314.803 396.007 305 330 C295.197 263.993 269.732 229 231.5 229 C193.268 229 178.197 263.993 188 330 C197.803 396.007 223.268 431 261.5 431 L261.5 431 Z " />
<glyph glyph-name="dollar" unicode="&#x24;" horiz-adv-x="470" d="M41 122.5 C41 71.1975 60.4639 31.3125 101.25 18.375 C148.45 3.40293 175 -12.1657 175 -37 C175 -61.8343 179.331 -75 187.5 -75 C195.669 -75 200 -62.5273 200 -39 C200 -15.4727 209.487 -4.49965 227.5 -5 C245.477 -5.49937 255 -16.2995 255 -39.5 C255 -62.7005 259.331 -75 267.5 -75 C275.669 -75 280 -62.0076 280 -37.5 C280 -12.9924 332.947 1.78389 383.625 62.5 C409.5 93.5 425 133 425 176 C425 208.5 409.25 243.75 383.25 275.5 C329.545 341.082 280 402.159 280 493 C280 583.841 300.675 624.977 324.375 596.25 C347.465 568.262 353.698 531.808 360 503 C366.302 474.192 372.945 459 378.5 459 C384.055 459 387 486.197 387 537.5 C387 588.803 369.994 626.925 335 640.875 C299.845 654.89 280 672.339 280 697.5 C280 722.661 275.669 736 267.5 736 C259.331 736 255 723.527 255 700 C255 676.473 245.532 666.25 227.5 666.25 C209.468 666.25 200 676.646 200 700.5 C200 724.354 195.669 737 187.5 737 C179.331 737 175 723.315 175 697.5 C175 671.685 126.664 650.839 83.25 590.25 C60.5 558.5 47 519 47 476 C47 447 60.75 415.25 83.625 386.125 C131.121 325.652 175 263.322 175 171.5 C175 79.6783 143.018 41.0693 107.5 85 C88.5 108.5 74 136.5 67 166 C66 171.5 64.25 178.25 62.5 185 C59.2976 197.352 55.0551 203.48 49.5 202.5 C43.9449 201.52 41 173.803 41 122.5 L41 122.5 Z M200 162.5 C200 253.668 210.146 298.688 228.25 290.125 C246.121 281.672 255 231.653 255 148 C255 64.3475 247.557 18.498 233.5 19 C226.5 19.25 219.5 20 212 21 L206 22 C202.079 22.6535 200 71.3318 200 162.5 L200 162.5 Z M200 518.5 C200 599.865 209.454 646.762 227.625 646.25 C246.368 645.722 256 594.188 256 504 C256 413.812 245.859 369.943 227.5 379 C209.538 387.861 200 437.135 200 518.5 L200 518.5 Z M124.375 459.375 C112 476.25 105 493 105 508 C105 535.5 112.25 561 124.75 582.375 C148.286 622.621 176 593.542 176 521 C176 448.458 151.983 421.727 124.375 459.375 L124.375 459.375 Z M343.125 199.5 C358.25 179.25 367 159 367 141 C367 113.5 358 88 342.75 67.25 C313.121 26.9355 281 62.8828 281 140 C281 217.117 309.752 244.181 343.125 199.5 L343.125 199.5 Z " />
<glyph glyph-name="percent" unicode="&#x25;" horiz-adv-x="762" d="M104 546 C104 633 129 703 161 703 C205 703 241 620 241 516 C241 435 213 370 178 370 C137 370 104 448 104 546 L104 546 Z M30 532 C30 428 93 345 171 345 C249 345 312 433 312 542 C312 644 249 725 171 725 C93 725 30 639 30 532 L30 532 Z M529 195 C529 283 557 353 591 353 C640 353 680 269 680 165 C680 84 648 19 608 19 C564 19 529 97 529 195 L529 195 Z M455 180 C455 77 520 -5 601 -5 C684 -5 750 82 750 190 C750 293 684 375 601 375 C520 375 455 288 455 180 L455 180 Z M411 350 C556.738 585.273 628.283 713.465 617.5 720 C606.717 726.535 523.738 605.273 378 370 C232.262 134.727 160.717 6.53535 171.5 0 C182.283 -6.53535 265.262 114.727 411 350 L411 350 Z " />
<glyph glyph-name="ampersand" unicode="&#x26;" horiz-adv-x="696" d="M527 300 C468.182 300 437 297.748 437 293.5 C437 289.252 439.945 287 445.5 287 C451.055 287 477.03 291.601 500 268.875 C511.75 257.25 519 241 519 223 L519 193 C519 179.5 516.75 166.5 512.625 154.125 C504.503 129.76 476.93 135.884 445.375 170.125 C427.75 189.25 409 210.5 389 234 C371 255.5 353.75 277.75 337.625 300.125 C306.906 342.751 345.151 372.48 396.25 435.125 C422.25 467 438 506 438 546 C438 613 377 666 300 666 C223 666 162 593 162 503 C162 487 167.75 464.75 178.125 438.5 C201.854 378.464 164.675 335.691 98.375 261.875 C67.5 227.5 49 190 49 155 C49 67 138 -4 248 -4 C291.5 -4 332.5 2.5 369.125 14.25 C435.79 35.6374 499.872 23.4375 587.625 2.875 C655.322 -12.988 694 3.25202 694 7.5 C694 11.748 664.026 5.67606 618.25 26.125 C534.863 63.3758 516.305 120.541 525.75 149.125 C530.5 163.5 533 178.5 533 194 L533 224 C533 242 540.25 258.25 552 269.875 C574.97 292.601 600.945 288 606.5 288 C612.055 288 615.346 290.079 616 294 C616.654 297.921 585.818 300 527 300 L527 300 Z M218 536 C218 599 252 650 294 650 C341 650 379 602 379 542 C379 505 368.75 469.5 351.75 440.625 C321.383 389.047 262.433 408.315 236 470.375 C224.5 497.375 218 520 218 535.5 L218 536 Z M376.375 42 C349.5 34.25 320 30 289 30 C195 30 119 99 119 184 C119 212 130.5 241.25 150 268 C190.38 323.394 244.004 310.407 277.25 263.625 C311.911 214.852 351.65 166.475 392.5 125.625 C426.733 91.3918 425.896 56.2804 376.375 42 L376.375 42 Z " />
<glyph glyph-name="quotesingle" unicode="&#x27;" horiz-adv-x="175" d="M60.5 543.5 C73.8975 467.363 83.252 427 87.5 427 C91.748 427 101.103 467.363 114.5 543.5 C127.897 619.637 118.543 660 87.5 660 C56.4571 660 47.1025 619.637 60.5 543.5 L60.5 543.5 Z " />
<glyph glyph-name="parenleft" unicode="&#x28;" horiz-adv-x="219" d="M100.75 513.75 C75.5 443.25 60 361.5 60 270 C60 178.5 75.5 96.75 100.75 26.25 C145.323 -98.2017 201.559 -148.614 204.5 -146 C207.441 -143.386 168.814 -97.2989 144.375 4.375 C128 72.5 118 160.5 118 270 C118 379.5 128 467.5 144.375 535.625 C168.814 637.299 207.441 683.386 204.5 686 C201.559 688.614 145.323 638.202 100.75 513.75 L100.75 513.75 Z " />
<glyph glyph-name="parenright" unicode="&#x29;" horiz-adv-x="219" d="M109.25 26.25 C134.5 96.75 150 178.5 150 270 C150 361.5 134.5 443.25 109.25 513.75 C64.6769 638.202 8.44091 688.614 5.5 686 C2.55909 683.386 41.186 637.299 65.625 535.625 C82 467.5 92 379.5 92 270 C92 160.5 82 72.5 65.625 4.375 C41.186 -97.2989 2.55909 -143.386 5.5 -146 C8.44091 -148.614 64.6769 -98.2017 109.25 26.25 L109.25 26.25 Z " />
<glyph glyph-name="asterisk" unicode="&#x2a;" horiz-adv-x="288" d="M265 580 C273 582.5 278.5 587.75 281 594.125 C286.004 606.884 275.438 624.528 262.375 626.5 C255.75 627.5 248.5 625.5 242 620 L197.5 582.5 C168.418 557.992 156.465 564.922 163 602.5 L173 660 C180 698 120 698 127 661 L137 603.5 C143.535 565.922 131.582 558.992 102.5 583.5 L58 621 C51.5 626.5 44.25 628.5 37.625 627.5 C24.5619 625.528 13.9965 607.884 19 595.125 C21.5 588.75 27 583.5 35 581 L89.5 561 C125.118 547.929 125.118 534.071 89.5 521 L35 501 C16.5 495 14.75 478.75 21.375 467.125 C33.3909 446.04 73.4177 473.992 102.5 498.5 C131.582 523.008 143.535 516.078 137 478.5 L127 421 C120 383 180 383 173 420 L163 477.5 C156.465 515.078 168.418 522.008 197.5 497.5 C226.582 472.992 266.685 445.324 278.625 466.5 C285.25 478.25 283.5 494.5 265 500 L210.5 520 C174.882 533.071 174.882 546.929 210.5 560 L265 580 L265 580 Z " />
<glyph glyph-name="plus" unicode="&#x2b;" horiz-adv-x="518" d="M238 349.5 C238 295.583 209.763 267 156.5 267 C103.237 267 75 261.11 75 250 C75 238.89 103.237 233 156.5 233 C209.763 233 238 204.59 238 151 C238 97.4101 244.41 69 256.5 69 C268.59 69 275 97.4101 275 151 C275 204.59 303.237 233 356.5 233 C409.763 233 438 238.89 438 250 C438 261.11 409.763 267 356.5 267 C303.237 267 275 295.583 275 349.5 C275 403.417 268.59 432 256.5 432 C244.41 432 238 403.417 238 349.5 L238 349.5 Z " />
<glyph glyph-name="comma" unicode="&#x2c;" horiz-adv-x="228" d="M153 87 C120 121 60 97 60 49 C60 19 84 -5 114 -5 C116.5 -5 119 -3.75 121.625 -1.625 C127.732 3.31853 142.091 -22.7603 122.125 -67.375 C104.574 -106.594 79 -119.252 79 -123.5 C79 -127.748 115.112 -117.715 149.125 -65.625 C167 -38.25 178 -7 178 22 C178 44 167 73 153 87 L153 87 Z " />
<glyph glyph-name="hyphen" unicode="&#x2d;" horiz-adv-x="231" d="M115.5 206 C177.913 206 211 216.047 211 235 C211 253.953 177.913 264 115.5 264 C53.0874 264 20 253.953 20 235 C20 216.047 53.0874 206 115.5 206 L115.5 206 Z " />
<glyph glyph-name="period" unicode="&#x2e;" horiz-adv-x="239" d="M125 -5 C155 -5 179 19 179 49 C179 79 155 103 125 103 C95 103 71 79 71 49 C71 19 95 -5 125 -5 L125 -5 Z " />
<glyph glyph-name="slash" unicode="&#x2f;" horiz-adv-x="343" d="M16.5 -145 C27.2833 -145 86.702 3.11364 188 282.5 C289.298 561.886 337.283 710 326.5 710 C315.717 710 256.298 561.886 155 282.5 C53.702 3.11364 5.71667 -145 16.5 -145 L16.5 -145 Z " />
<glyph glyph-name="zero" unicode="0" horiz-adv-x="568" d="M133 250 C133 382 200 488 284 488 C368 488 435 382 435 250 C435 118 368 12 284 12 C200 12 133 118 133 250 L133 250 Z M50 250 C50 108 154 -5 284 -5 C414 -5 518 108 518 250 C518 392 414 505 284 505 C154 505 50 392 50 250 L50 250 Z " />
<glyph glyph-name="one" unicode="1" horiz-adv-x="348" d="M285.5 13 C279.945 13 253.97 8.39939 231 31.125 C219.25 42.75 212 59 212 77 L212 423 C212 441 219.25 457.25 231 468.875 C253.97 491.601 279.945 487 285.5 487 C291.055 487 294 489.252 294 493.5 C294 497.748 252.597 500 174.5 500 C96.4025 500 55 497.748 55 493.5 C55 489.252 57.9449 487 63.5 487 C69.0551 487 95.03 491.601 118 468.875 C129.75 457.25 137 441 137 423 L137 77 C137 59 129.75 42.75 118 31.125 C95.03 8.39939 69.0551 13 63.5 13 C57.9449 13 55 10.748 55 6.5 C55 2.25202 96.4025 0 174.5 0 C252.597 0 294 2.25202 294 6.5 C294 10.748 291.055 13 285.5 13 L285.5 13 Z " />
<glyph glyph-name="two" unicode="2" horiz-adv-x="446" d="M407.5 148.5 C407.173 142.945 409.307 116.631 384.75 94 C372 82.25 355 75 337 75 L235.5 75 C169.166 75 210.087 110.396 319.25 216.875 C365 261.5 392 305 392 352 C392 437 327 506 247 506 C214.5 506 178.5 489.75 146.5 463.25 C81.4137 409.35 71.5591 358.134 74.5 356.5 C77.4409 354.866 87.5117 388.592 133.625 422.75 C157.25 440.25 184.5 451 210 451 C265 451 309 396 309 327 C309 259.5 277.25 209.75 225.75 163.125 C105.345 54.1174 24 15.0551 24 9.5 C24 3.94495 90.348 1 215.5 1 C340.652 1 407.52 7.4096 408.5 19.5 L410 38 C411.5 54.5 413.25 76.25 415 98 C418.156 137.221 417.921 157.827 414 157.5 C410.079 157.173 407.827 154.055 407.5 148.5 L407.5 148.5 Z " />
<glyph glyph-name="three" unicode="3" horiz-adv-x="424" d="M272.25 -131.25 C335.25 -85 374 -24 374 41 C374 86.5 351.25 127.5 314.125 157.625 C235.52 221.409 220.462 224.449 288.25 291.375 C317.75 320.5 335 350 335 376 C335 447 278 504 207 504 C172.5 504 133.25 489.75 97.625 466.5 C28.2883 421.249 11.5591 374.134 14.5 372.5 C17.4409 370.866 32.8325 400.394 81.125 426 C108 440.25 139 449 168 449 C219 449 260 406 260 352 C260 296 191 229 100 192 L84 186.5 C73.5434 182.906 68 178.748 68 174.5 C68 170.252 136.093 207.522 223.25 154.875 C266.5 128.75 296 85 296 36 C296 -26 265.75 -84 216.75 -127.625 C115.821 -217.483 25 -206.732 25 -210 C25 -213.268 134.725 -232.21 272.25 -131.25 L272.25 -131.25 Z " />
<glyph glyph-name="four" unicode="4" horiz-adv-x="433" d="M15 6 C15 2.07879 57.2687 0 137 0 C216.731 0 259 -25.9848 259 -75 C259 -124.015 271.992 -150 296.5 -150 C321.008 -150 334 -124.015 334 -75 C334 -25.9848 349.418 0 378.5 0 C407.582 0 423 5.71667 423 16.5 C423 27.2833 407.582 33 378.5 33 C349.418 33 334 114.766 334 269 C334 423.234 331.921 505 328 505 C324.079 505 263.318 406.397 148.25 223.125 C61.6385 85.1766 15 9.92121 15 6 L15 6 Z M145.75 185.625 C219.605 304.911 259 366.961 259 365 L259 362 L259 198 C259 90.8202 223.141 34 155.5 34 C87.8591 34 84.4207 86.5701 145.75 185.625 L145.75 185.625 Z " />
<glyph glyph-name="five" unicode="5" horiz-adv-x="409" d="M75.5 202 C81.7086 202 85.1732 203.906 85.5 207.5 C85.8268 211.094 86 210.921 86 207 C86 203.079 89.9843 201 97.5 201 L109 201 C207 201 285 134 285 51 C285 -7 256.75 -60.75 210.875 -100.75 C115.932 -183.534 31.1732 -172.252 31.5 -176.5 C31.8268 -180.748 137.968 -201.14 264.25 -101.5 C323.5 -54.75 360 8 360 76 C360 187 265 276 146 276 L119.5 276 C102.181 276 95.3824 300.398 98.875 346.5 C102.512 394.514 142.631 420 215.5 420 C288.369 420 328.974 426.803 333.125 439.5 C337.324 452.344 346.869 480.154 360 520 C373.131 559.846 377.748 581 373.5 581 C369.252 581 365.961 578.055 364 572.5 C362.039 566.945 357.31 540.495 327.875 518 C312.5 506.25 294 499 276 499 L180 499 C117.261 499 83.2979 436.552 75.5 319.125 C70.3931 242.222 69.2914 202 75.5 202 L75.5 202 Z " />
<glyph glyph-name="six" unicode="6" horiz-adv-x="532" d="M180.625 587 C108.5 511.5 64 409 64 297 C64 129 157 -5 273 -5 C395 -5 488 93 482 216 C482 334 401 429 301 429 C268 429 237.25 417.75 211.375 398.125 C158.718 358.187 151 318.039 151 320 L151 323 C151 425.5 185.75 519.25 242.125 588.125 C345.373 714.266 463 705.906 463 709.5 C463 713.094 320.585 733.509 180.625 587 L180.625 587 Z M288 409 C320 409 348.75 387.25 369.5 351.875 C416.737 271.344 420.965 153.013 371.625 74.125 C349.5 38.75 317.5 17 281 17 C244 17 211.125 40.5 187.625 78.75 C134.677 164.931 137.694 287.202 191 356.5 C216 389 250.5 409 288.5 409 L288 409 Z " />
<glyph glyph-name="seven" unicode="7" horiz-adv-x="403" d="M29.5 349.5 C29.8268 355.055 27.693 381.369 52.25 404 C65 415.75 82 423 100 423 L229 423 C313.306 423 314.519 325.47 232.5 141.5 C150.481 -42.4702 121.552 -140 149 -140 C176.448 -140 225.845 -30.4265 292 176.125 C358.298 383.121 392.134 494.213 390.5 496.5 C388.866 498.787 325.983 500 209 500 C92.0172 500 29.3937 493.417 28.25 481 C27.1063 468.583 24.6587 441.041 21.25 401.5 C17.8413 361.959 18.252 341 22.5 341 C26.748 341 29.1732 343.945 29.5 349.5 L29.5 349.5 Z " />
<glyph glyph-name="eight" unicode="8" horiz-adv-x="502" d="M388.625 417.375 C408.625 446.5 420.5 482 420.5 519 C420.5 601 346 666 253 666 C160 666 85 589 85 494 C85 460 96.75 425.25 116.5 394.375 C155.323 333.683 147.16 316.647 97 261.625 C72.5 234.75 58 201 58 164 C58 71 146 -3 255 -3 C364 -3 452 78 452 178 C452 210.5 436.75 244.625 411.125 275.625 C357.066 341.023 350.686 362.126 388.625 417.375 L388.625 417.375 Z M280.375 367.25 C267.892 372.145 219.728 380.4 180.875 432.125 C160.5 459.25 148 492 148 524 C148 594 193 651 249 651 C309 651 358 587 358 508 C358 474 351.75 441.875 341.25 415.75 C324.104 373.09 292.769 362.39 280.375 367.25 L280.375 367.25 Z M129 176 C129 207 137.25 235.75 151.25 259.375 C177.036 302.889 213.041 309.185 223.125 305.25 C228.25 303.25 233.5 301.5 239 300 C318 276 382 211 382 154 C382 76 327 14 259 14 C187 14 129 86.5 129 176.5 L129 176 Z " />
<glyph glyph-name="nine" unicode="9" horiz-adv-x="532" d="M351.375 -87 C423.5 -11.5 468 91 468 203 C468 371 375 505 259 505 C137 505 44 407 50 284 C50 166 131 71 231 71 C264 71 294.75 82.25 320.625 101.875 C373.282 141.813 381 181.961 381 180 L381 177 C381 74.5 346.25 -19.25 289.875 -88.125 C186.627 -214.266 69 -205.906 69 -209.5 C69 -213.094 211.415 -233.509 351.375 -87 L351.375 -87 Z M244 91 C212 91 183.25 112.75 162.5 148.125 C115.263 228.656 111.035 346.987 160.375 425.875 C182.5 461.25 214.5 483 251 483 C288 483 320.875 459.5 344.375 421.25 C397.323 335.069 394.306 212.798 341 143.5 C316 111 281.5 91 243.5 91 L244 91 Z " />
<glyph glyph-name="colon" unicode="&#x3a;" horiz-adv-x="239" d="M125 383 C155 383 179 407 179 438 C179 468 155 492 125 492 C95 492 71 468 71 438 C71 407 95 383 125 383 L125 383 Z M125 -5 C155 -5 179 19 179 49 C179 79 155 103 125 103 C95 103 71 79 71 49 C71 19 95 -5 125 -5 L125 -5 Z " />
<glyph glyph-name="semicolon" unicode="&#x3b;" horiz-adv-x="228" d="M114 383 C144 383 168 407 168 437 C168 467 144 491 114 491 C84 491 60 467 60 437 C60 407 84 383 114 383 L114 383 Z M153 87 C120 121 60 97 60 49 C60 19 84 -5 114 -5 C116.5 -5 119 -3.75 121.625 -1.625 C127.732 3.31853 142.091 -22.7603 122.125 -67.375 C104.574 -106.594 79 -119.252 79 -123.5 C79 -127.748 115.112 -117.715 149.125 -65.625 C167 -38.25 178 -7 178 22 C178 44 167 73 153 87 L153 87 Z " />
<glyph glyph-name="less" unicode="&#x3c;" horiz-adv-x="501" d="M237 399 L48 298 C46 298 42 294 40 294 L40 276 C40 264.236 41.3859 257.307 44 256 L48 254 L237 152 C360.518 85.3394 426 56.5828 426 69 C426 81.4172 364.329 120.568 248 182 C131.671 243.432 131.671 308.568 248 370 C364.329 431.432 426 470.236 426 482 C426 493.764 360.518 465.007 237 399 L237 399 Z " />
<glyph glyph-name="equal" unicode="&#x3d;" horiz-adv-x="494" d="M82 200 C82 188.89 141.245 183 253 183 C364.755 183 424 188.89 424 200 C424 211.11 364.755 217 253 217 C141.245 217 82 211.11 82 200 L82 200 Z M82 300 C82 288.89 141.245 283 253 283 C364.755 283 424 288.89 424 300 C424 311.11 364.755 317 253 317 C141.245 317 82 311.11 82 300 L82 300 Z " />
<glyph glyph-name="greater" unicode="&#x3e;" horiz-adv-x="493" d="M263.625 155.375 C387.064 224.334 453 265.89 453 277 L453 294 C450 294 446 299 443 299 L259 400 C138.749 466.007 75 494.59 75 482.5 C75 470.41 135.112 431.606 248.5 370.5 C361.888 309.394 361.888 244.606 248.5 183.5 C135.112 122.394 75 83.0707 75 70 C75 56.9293 140.352 86.5087 263.625 155.375 L263.625 155.375 Z " />
<glyph glyph-name="question" unicode="&#x3f;" horiz-adv-x="331" d="M128 -5 C158 -5 182 19 182 49 C182 79 158 103 128 103 C98 103 74 79 74 49 C74 19 98 -5 128 -5 L128 -5 Z M111 665 C71 665 39 637 39 602 C39 586 55 574 75 574 C92 574 118 606 135 606 C215 606 279 533 279 442 C279 418 251 371 155 371 L120 371 C112 371 106 366 107 360 L115 271.5 C120.228 213.662 124.732 183 128 183 C131.268 183 135.252 205.693 139.5 248.5 C143.748 291.307 152.063 314 163.5 314 L181 314 C270 314 296 393 296 433 C296 562 214 665 111 665 L111 665 Z " />
<glyph glyph-name="at" unicode="&#x40;" horiz-adv-x="1098" d="M816.5 -168 C740 -210.75 649.5 -237 563 -237 C314 -237 114 -16 114 259 C114 534 308 755 549 755 C790 755 984 572 984 343 C984 156 904 6 804 6 C713 6 662 92 689 200 L724 340 C746.874 431.495 746.701 480 723.5 480 C700.299 480 684.535 465.795 678 439 C671.465 412.205 665.164 431.296 625.625 463.375 C605.75 479.5 581 489 554 489 C401 489 278 357 278 192 C278 90 350 9 439 9 C473 9 507.25 21.25 537.625 42 C598.529 83.605 608.89 70.4555 668.75 20.25 C699.75 -5.75 742 -21 792 -21 C932 -21 1044 140 1044 341 C1044 581 824 774 550 774 C276 774 56 544 56 257 C56 -30 282 -260 564 -260 C655 -260 750.25 -231.25 831.125 -184.625 C976.655 -100.726 1007.5 -1.65354 999 -1 C990.504 -0.346465 952.65 -91.9161 816.5 -168 L816.5 -168 Z M638.5 276 L619 198 C598 115 535 49 477 49 C412 49 360 119 360 206 C360 351 445 467 552 467 C581.5 467 608 454.5 627.125 434.125 C665.531 393.209 651.244 326.976 638.5 276 L638.5 276 Z " />
<glyph glyph-name="A" unicode="A" horiz-adv-x="634" d="M109.5 0 C182.369 0 221 2.25202 221 6.5 C221 10.748 215.283 13 204.5 13 C193.717 13 158.899 6.83933 139.125 36.125 C129.25 50.75 126.5 71 133 93 L155.5 164.5 C170.205 211.228 215.072 236 285 236 C354.928 236 401.528 208.629 419.5 157 C437.472 105.371 460.835 57.3243 444.375 32.5 C436.75 21 423 14 405 14 L383.5 14 C369.449 14 362 11.748 362 7.5 C362 3.25202 408.773 1 497 1 C585.227 1 632 3.25202 632 7.5 C632 11.748 630.094 14 626.5 14 L621 14 C604.5 14 586.625 21 571.25 32.5 C541.288 54.9108 498.129 181.593 425.75 377 C353.371 572.407 311.362 676 304.5 676 C297.638 676 260.393 571.714 197 375 L100 74 C93.5 57 81 41.75 65.75 30.875 C37.2923 10.5814 12.0551 14 6.5 14 C0.944949 14 -2 11.5747 -2 7 C-2 2.42525 36.6308 0 109.5 0 L109.5 0 Z M284 257 C218.646 257 200.457 309.316 231.5 408 C262.543 506.684 297.189 506.684 331.5 408 C365.811 309.316 349.354 257 284 257 L284 257 Z " />
<glyph glyph-name="B" unicode="B" horiz-adv-x="586" d="M52.5 647 C58.0551 647 84.03 651.601 107 628.875 C118.75 617.25 126 601 126 583 L126 77 C126 59 118.75 42.75 107 31.125 C84.03 8.39939 58.0551 13 52.5 13 C46.9449 13 44 10.748 44 6.5 C44 2.25202 93.7177 0 187.5 0 L331 0 C461 0 566 81 566 182 C566 225 544 264.25 507.25 294.875 C427.205 361.579 411.766 356.481 469.375 412.75 C496.25 439 512 471.5 512 507 C512 592 421 660 308 660 L176 660 C89.7333 660 44 657.748 44 653.5 C44 649.252 46.9449 647 52.5 647 L52.5 647 Z M209 499.5 C209 590.668 226.15 639 258.5 639 L308 639 C375 639 429 580 429 507 C429 425 366 359 288 359 L248.5 359.5 C222.685 359.827 209 408.332 209 499.5 L209 499.5 Z M245.5 343 L282 343 C391 343 479 271 479 182 C479 93 409 21 322 21 L265.5 21 C228.575 21 209 76.7808 209 182 C209 287.219 221.646 343 245.5 343 L245.5 343 Z " />
<glyph glyph-name="C" unicode="C" horiz-adv-x="673" d="M611 60 C609.039 63.2677 609.039 63.2677 611 60 C612.961 56.7323 612.961 56.7323 611 60 L611 60 Z M591.5 187 C589.75 180.25 588 173.5 587 168 C570 96 497 32 419 19 C403 17 388 16 374 16 C247 16 145 156 145 330 C145 504 247 644 374 644 C397 644 423 641 450 636 C511 622 571 559 586 491 C587 485.5 588.75 478.75 590.5 472 C593.702 459.648 597.945 453 603.5 453 C609.055 453 612 478.985 612 528 C612 577.015 575.608 626.094 499.375 645.875 C456.5 657 411.5 664 374 664 C196 664 53 515 53 329 C53 143 196 -6 374 -6 C411.5 -6 456.75 0.75 499.875 11.625 C576.426 30.9292 613 80.1581 613 129.5 C613 178.842 610.055 205.173 604.5 205.5 C598.945 205.827 594.702 199.352 591.5 187 L591.5 187 Z " />
<glyph glyph-name="D" unicode="D" horiz-adv-x="682" d="M52.5 647 C58.0551 647 84.03 651.601 107 628.875 C118.75 617.25 126 601 126 583 L126 77 C126 59 118.75 42.75 107 31.125 C84.03 8.39939 58.0551 13 52.5 13 C46.9449 13 44 10.748 44 6.5 C44 2.25202 93.8909 0 188 0 L332 0 C499 0 632 147 632 330 C632 513 485 660 301 660 L172.5 660 C88.5207 660 44 657.748 44 653.5 C44 649.252 46.9449 647 52.5 647 L52.5 647 Z M209 330 C209 531.942 224.937 639 255 639 L301 639 C439 639 549 501 549 330 C549 159 452 21 332 21 L270.5 21 C230.308 21 209 128.058 209 330 L209 330 Z " />
<glyph glyph-name="E" unicode="E" horiz-adv-x="593" d="M407 347 C407 410.393 404.748 444 400.5 444 C396.252 444 393.654 441.921 393 438 L392 432 C385 393 341 362 294 362 L249.5 362 C220.418 362 205 409.985 205 500.5 C205 591.015 226.308 639 266.5 639 L328 639 C384 639 437 595 449 539 L453.5 518 C456.441 504.276 460.425 497 465 497 C469.575 497 472 525.237 472 578.5 C472 631.763 397.164 660 256 660 C114.836 660 40 657.748 40 653.5 C40 649.252 42.9449 647 48.5 647 C54.0551 647 80.03 651.601 103 628.875 C114.75 617.25 122 601 122 583 L122 77 C122 59 114.75 42.75 103 31.125 C80.03 8.39939 54.0551 13 48.5 13 C42.9449 13 40 10.748 40 6.5 C40 2.25202 115.356 0 257.5 0 C399.644 0 475.346 1.73232 476 5 C476.654 8.26768 481.498 36.5366 490.5 86.5 C499.502 136.463 501.575 163 497 163 C492.425 163 487.228 155.724 482 142 L474 121 C452 66 391 21 335 21 L270 21 C227.52 21 205 76.6076 205 181.5 C205 286.392 220.418 342 249.5 342 L294 342 C342 342 385 307 392 264 L393 257 C393.654 252.425 396.252 250 400.5 250 C404.748 250 407 283.607 407 347 L407 347 Z " />
<glyph glyph-name="F" unicode="F" horiz-adv-x="502" d="M48.5 647 C54.0551 647 80.03 651.601 103 628.875 C114.75 617.25 122 601 122 583 L122 77 C122 59 114.75 42.75 103 31.125 C80.03 8.39939 54.0551 13 48.5 13 C42.9449 13 40 10.748 40 6.5 C40 2.25202 84.5207 0 168.5 0 C252.479 0 297 2.25202 297 6.5 C297 10.748 292.323 13 283.5 13 C274.677 13 246.97 8.39939 224 31.125 C212.25 42.75 205 59 205 77 L205 207 C205 291.96 218.685 337 244.5 337 L284 337 C332 337 375 302 382 259 L383 252 C383.654 247.425 386.252 245 390.5 245 C394.748 245 397 278.607 397 342 C397 405.393 394.748 439 390.5 439 C386.252 439 383.654 436.921 383 433 L382 427 C375 388 331 357 284 357 L244.5 357 C218.685 357 205 405.852 205 498 C205 590.148 231.505 639 281.5 639 L358 639 C414 639 467 595 479 539 L483.5 518 C486.441 504.276 490.425 497 495 497 C499.575 497 502 525.237 502 578.5 C502 631.763 421.967 660 271 660 C120.033 660 40 657.748 40 653.5 C40 649.252 42.9449 647 48.5 647 L48.5 647 Z " />
<glyph glyph-name="G" unicode="G" horiz-adv-x="777" d="M594 524.5 L594 595 L594 600 C594 603.268 558.354 627.733 483.625 647.375 C442.25 658.25 399.5 665 365 665 C192 665 54 516 54 330 C54 144 192 -5 365 -5 C401 -5 445 1.75 487.375 12.75 C563.691 32.5606 600 86.6621 600 144.5 L600 233 C600 251 607.25 267.25 619 278.875 C641.97 301.601 667.945 297 673.5 297 C679.055 297 682 299.252 682 303.5 C682 307.748 640.597 310 562.5 310 C484.403 310 443 307.748 443 303.5 C443 299.252 445.945 297 451.5 297 C457.055 297 483.03 301.601 506 278.875 C517.75 267.25 525 251 525 233 L525 139.5 C525 78.3944 497.516 34.5867 443.125 24.25 C415.5 19 388.5 16 365 16 C243 16 146 156 146 330 C146 504 243 644 365 644 C385 644 408 641 432 637 C493 622 552 559 567 492 C568 486.5 569.75 479.75 571.5 473 C574.702 460.648 579.118 454 585 454 C590.882 454 594 478.426 594 524.5 L594 524.5 Z " />
<glyph glyph-name="H" unicode="H" horiz-adv-x="751" d="M703.5 13 C697.945 13 671.97 8.39939 649 31.125 C637.25 42.75 630 59 630 77 L630 583 C630 601 637.25 617.25 649 628.875 C671.97 651.601 697.945 647 703.5 647 C709.055 647 712 649.252 712 653.5 C712 657.748 669.212 660 588.5 660 C507.788 660 465 657.748 465 653.5 C465 649.252 467.945 647 473.5 647 C479.055 647 505.03 651.601 528 628.875 C539.75 617.25 547 601 547 583 L547 470 C547 396.151 487.755 357 376 357 C264.245 357 205 396.151 205 470 L205 583 C205 601 212.25 617.25 224 628.875 C246.97 651.601 272.945 647 278.5 647 C284.055 647 287 649.252 287 653.5 C287 657.748 244.212 660 163.5 660 C82.7884 660 40 657.748 40 653.5 C40 649.252 42.9449 647 48.5 647 C54.0551 647 80.03 651.601 103 628.875 C114.75 617.25 122 601 122 583 L122 77 C122 59 114.75 42.75 103 31.125 C80.03 8.39939 54.0551 13 48.5 13 C42.9449 13 40 10.748 40 6.5 C40 2.25202 82.7884 0 163.5 0 C244.212 0 287 2.25202 287 6.5 C287 10.748 284.055 13 278.5 13 C272.945 13 246.97 8.39939 224 31.125 C212.25 42.75 205 59 205 77 L205 207 C205 291.96 264.245 337 376 337 C487.755 337 547 291.96 547 207 L547 77 C547 59 539.75 42.75 528 31.125 C505.03 8.39939 479.055 13 473.5 13 C467.945 13 465 10.748 465 6.5 C465 2.25202 507.788 0 588.5 0 C669.212 0 712 2.25202 712 6.5 C712 10.748 709.055 13 703.5 13 L703.5 13 Z " />
<glyph glyph-name="I" unicode="I" horiz-adv-x="326" d="M278.5 13 C272.945 13 246.97 8.39939 224 31.125 C212.25 42.75 205 59 205 77 L205 583 C205 601 212.25 617.25 224 628.875 C246.97 651.601 272.945 647 278.5 647 C284.055 647 287 649.252 287 653.5 C287 657.748 244.212 660 163.5 660 C82.7884 660 40 657.748 40 653.5 C40 649.252 42.9449 647 48.5 647 C54.0551 647 80.03 651.601 103 628.875 C114.75 617.25 122 601 122 583 L122 77 C122 59 114.75 42.75 103 31.125 C80.03 8.39939 54.0551 13 48.5 13 C42.9449 13 40 10.748 40 6.5 C40 2.25202 82.7884 0 163.5 0 C244.212 0 287 2.25202 287 6.5 C287 10.748 284.055 13 278.5 13 L278.5 13 Z " />
<glyph glyph-name="J" unicode="J" horiz-adv-x="361" d="M198 660 C116.962 660 74 657.748 74 653.5 C74 649.252 76.9449 647 82.5 647 C88.0551 647 114.03 651.601 137 628.875 C148.75 617.25 156 601 156 583 L156 200 C156 71 142 7 113 7 C104.5 7 95.5 11.75 87.875 19.5 C71.8984 35.7385 69.8842 61.3529 56.5 73.25 C49.75 79.25 41.5 83 33 83 C10 83 -5 68 0 50 C8 17 49 -10 92 -10 C191 -10 240 84 240 270 L240 583 C240 601 247.25 617.25 259 628.875 C281.97 651.601 307.945 647 313.5 647 C319.055 647 322 649.252 322 653.5 C322 657.748 279.038 660 198 660 L198 660 Z " />
<glyph glyph-name="K" unicode="K" horiz-adv-x="628" d="M167.5 660 C86.7884 660 44 657.748 44 653.5 C44 649.252 46.9449 647 52.5 647 C58.0551 647 84.03 651.601 107 628.875 C118.75 617.25 126 601 126 583 L126 77 C126 59 118.75 42.75 107 31.125 C84.03 8.39939 58.0551 13 52.5 13 C46.9449 13 44 10.748 44 6.5 C44 2.25202 86.7884 0 167.5 0 C248.212 0 291 2.25202 291 6.5 C291 10.748 288.055 13 282.5 13 C276.945 13 250.97 8.39939 228 31.125 C216.25 42.75 209 59 209 77 L209 202 C209 283.692 210.906 329.252 214.5 333.5 C218.094 337.748 244.599 306.913 291 244.5 L362 149 C437 47 513 -4 588 -4 L603 -4 C612.803 -4 618 -1.22828 618 4 C618 9.22828 582.587 18.0893 540.5 60.5 C451.169 150.518 393.574 244.087 347.5 306.5 C301.426 368.913 305.237 433.528 358.5 493 C411.763 552.472 456.251 607.017 500 629.875 C537.972 649.714 565.772 648 571 648 C576.228 648 579 650.252 579 654.5 C579 658.748 547.991 661 489.5 661 C431.009 661 400 658.748 400 654.5 C400 650.252 401.906 648 405.5 648 C409.094 648 435.568 649.821 436 629.5 C436.25 617.75 428.5 601.5 413 584 L265 418 C265 418 252.5 404 239.375 389.375 C220.293 368.112 210 396.497 210 471 L210 585 C210 603 217.25 619.25 229 630.875 C251.97 653.601 277.945 649 283.5 649 C289.055 649 291.827 650.906 291.5 654.5 C291.173 658.094 248.212 660 167.5 660 L167.5 660 Z " />
<glyph glyph-name="L" unicode="L" horiz-adv-x="593" d="M475 144.5 C467.811 122.607 458.467 78.4021 417.25 47.25 C395.75 31 370 21 345 21 L275 21 C229.253 21 205 118.357 205 302 L205 583 C205 601 212.25 617.25 224 628.875 C246.97 651.601 272.945 647 278.5 647 C284.055 647 287 649.252 287 653.5 C287 657.748 244.212 660 163.5 660 C82.7884 660 40 657.748 40 653.5 C40 649.252 42.9449 647 48.5 647 C54.0551 647 80.03 651.601 103 628.875 C114.75 617.25 122 601 122 583 L122 77 C122 59 114.75 42.75 103 31.125 C80.03 8.39939 54.0551 13 48.5 13 C42.9449 13 40 10.748 40 6.5 C40 2.25202 115.356 0 257.5 0 C399.644 0 475.346 1.73232 476 5 C476.654 8.26768 482.131 37.6904 491.375 90 C500.605 142.226 501.012 171.972 493.25 175.125 C488.528 177.043 482.189 166.393 475 144.5 L475 144.5 Z " />
<glyph glyph-name="M" unicode="M" horiz-adv-x="830" d="M711 660 C660.024 660 597.314 563.163 530 380.5 C462.686 197.837 388.889 197.837 317 380.5 C245.111 563.163 181.708 660 134 660 C86.2919 660 61 657.748 61 653.5 C61 649.252 63.9449 647 69.5 647 C75.0551 647 101.007 651.726 122.875 628.875 C134 617.25 140.5 601 140 583 L121 73 C119.5 56 111.25 40.75 99 29.875 C75.0532 8.61613 50.2283 13 45 13 C39.7717 13 37 10.748 37 6.5 C37 2.25202 75.6308 0 148.5 0 C221.369 0 260 2.25202 260 6.5 C260 10.748 253.59 13 241.5 13 C229.41 13 197.344 7.74786 170.25 32.625 C143.336 57.3367 149.118 164.246 155 317.5 C160.882 470.754 203.018 455.543 276.375 273.5 C349.664 91.6262 393.717 10.5909 404.5 40 C415.283 69.4091 415.283 69.5823 404.5 40.5 C393.717 11.4177 391.638 -4 398.5 -4 C405.362 -4 448.151 99.0732 522 293.5 C595.849 487.927 637.945 502.132 643.5 334.5 L652 78 C652 60.5 645.5 44.25 634.5 32.5 C612.975 9.50769 587.055 14 581.5 14 C575.945 14 573 11.748 573 7.5 C573 3.25202 615.615 1 696 1 C776.385 1 819 3.25202 819 7.5 C819 11.748 816.055 14 810.5 14 C804.945 14 779.067 9.53657 755.75 32.125 C743.75 43.75 736 60 735 78 L723.5 335.5 C715.984 503.785 710.099 613.546 731.875 632.875 C754.212 652.702 777.598 648 782.5 648 C787.402 648 789.827 650.079 789.5 654 C789.173 657.921 761.976 660 711 660 L711 660 Z " />
<glyph glyph-name="N" unicode="N" horiz-adv-x="687" d="M49.5 647 C55.0551 647 81.03 651.601 104 628.875 C115.75 617.25 123 601 123 583 L123 77 C123 59 115.75 42.75 104 31.125 C81.03 8.39939 55.0551 13 49.5 13 C43.9449 13 41 10.748 41 6.5 C41 2.25202 73.7409 0 135.5 0 C197.259 0 230 2.25202 230 6.5 C230 10.748 227.055 13 221.5 13 C215.945 13 189.97 8.39939 167 31.125 C155.25 42.75 148 59 148 77 L148 330 C148 495.344 215.113 479.135 341.375 283 C467.493 87.088 539.37 -17 549.5 -17 C559.63 -17 565 86.9394 565 283 L565 583 C565 601 572.25 617.25 584 628.875 C606.97 651.601 632.945 647 638.5 647 C644.055 647 647 649.252 647 653.5 C647 657.748 614.259 660 552.5 660 C490.741 660 458 657.748 458 653.5 C458 649.252 460.945 647 466.5 647 C472.055 647 498.03 651.601 521 628.875 C532.75 617.25 540 601 540 583 L540 353.5 C540 203.514 480.581 216.853 368.5 392 C256.419 567.147 169.976 660 119 660 C68.0242 660 41 657.748 41 653.5 C41 649.252 43.9449 647 49.5 647 L49.5 647 Z " />
<glyph glyph-name="O" unicode="O" horiz-adv-x="721" d="M146 330 C146 487 231 644 363 644 C495 644 580 487 580 330 C580 173 495 16 363 16 C231 16 146 173 146 330 L146 330 Z M54 330 C54 163 174 -5 363 -5 C551 -5 671 163 671 330 C671 497 551 665 363 665 C174 665 54 497 54 330 L54 330 Z " />
<glyph glyph-name="P" unicode="P" horiz-adv-x="554" d="M282.5 13 C276.945 13 250.97 8.39939 228 31.125 C216.25 42.75 209 59 209 77 L209 186.5 C209 258.062 223.898 296 252 296 L295 296 C428 296 534 377 534 478 C534 579 437 660 316 660 L180 660 C91.1192 660 44 657.748 44 653.5 C44 649.252 46.9449 647 52.5 647 C58.0551 647 84.03 651.601 107 628.875 C118.75 617.25 126 601 126 583 L126 77 C126 59 118.75 42.75 107 31.125 C84.03 8.39939 58.0551 13 52.5 13 C46.9449 13 44 10.748 44 6.5 C44 2.25202 86.7884 0 167.5 0 C248.212 0 291 2.25202 291 6.5 C291 10.748 288.055 13 282.5 13 L282.5 13 Z M209 478 C209 583.219 227.536 639 262.5 639 L316 639 C389 639 447 567 447 478 C447 389 379 317 295 317 L252 317 C223.898 317 209 372.781 209 478 L209 478 Z " />
<glyph glyph-name="Q" unicode="Q" horiz-adv-x="721" d="M743 -48.5 C740.386 -46.2126 722.794 -59.6891 685.875 -68.25 C660 -74.25 628 -78 596 -78 C549.5 -78 506 -70.25 468 -57.25 C400.958 -34.3145 489.083 -18.9325 590.25 103.25 C642 165.75 671 248 671 330 C671 497 551 665 363 665 C174 665 54 497 54 330 C54 249.5 81.75 168.75 131.625 106.625 C229.063 -14.7446 376.827 -48.4647 464.375 -96.5 C506.75 -119.75 549 -134 586 -134 C611.5 -134 642.125 -124.875 671.125 -110.125 C726.394 -82.0142 745.614 -50.7874 743 -48.5 L743 -48.5 Z M145 329 C145 486 230 643 362 643 C494 643 579 486 579 329 C579 172 494 15 362 15 C230 15 145 172 145 329 L145 329 Z " />
<glyph glyph-name="R" unicode="R" horiz-adv-x="617" d="M52.5 647 C58.0551 647 84.03 651.601 107 628.875 C118.75 617.25 126 601 126 583 L126 77 C126 59 118.75 42.75 107 31.125 C84.03 8.39939 58.0551 13 52.5 13 C46.9449 13 44 10.748 44 6.5 C44 2.25202 86.7884 0 167.5 0 C248.212 0 291 2.25202 291 6.5 C291 10.748 288.055 13 282.5 13 C276.945 13 250.97 8.39939 228 31.125 C216.25 42.75 209 59 209 77 L209 196 C209 273.771 219.221 315 238.5 315 C257.779 315 288.698 286.434 327.5 232.375 C386.203 150.59 430.121 59.7856 495.5 18.75 C519 4 544.5 1 586 1 L601.5 1 C611.63 1 617 3.77172 617 9 C617 14.2283 598.894 11.4713 579.5 28.125 C539.823 62.1951 493.741 142.185 424.5 238.125 C383.035 295.579 414.633 327.989 471.75 388.25 C499 417 515 452.5 515 491 C515 585 422 661 307 661 L175 661 C88.7333 661 43.1732 658.575 43.5 654 C43.8268 649.425 46.9449 647 52.5 647 L52.5 647 Z M287 337 L247.5 337 C221.685 337 208 389.489 208 488.5 C208 587.511 225.15 640 257.5 640 L307 640 C374 640 428 574 428 491 C428 406 365 337 287 337 L287 337 Z " />
<glyph glyph-name="S" unicode="S" horiz-adv-x="470" d="M387 537.5 C387 588.803 360.923 633.37 306 650.625 C277.75 659.5 250.5 665 231 665 C129 665 47 580 47 474 C47 441.5 64 405.75 91.625 374.125 C148.32 309.22 252.373 289.267 317.5 227.125 C347.5 198.5 366 167.5 366 141 C366 72 309 16 238 16 C237 16 212 17 212 18 C148 26 84 90 67 163 C66 168.5 64.25 175.25 62.5 182 C59.2976 194.352 55.0551 201 49.5 201 C43.9449 201 41 173.803 41 122.5 C41 71.1975 71.0181 25.0341 133.875 9.375 C169.5 0.5 207 -5 238 -5 C342 -5 425 76 425 176 C425 210.5 407 248.25 377.75 281.625 C317.649 350.202 213.651 370.441 150.5 428.375 C121.75 454.75 104 483 104 507 C104 583 159 644 227 644 C257.5 644 285.5 632.25 307.375 614.25 C347.828 580.963 354.698 531.808 361 503 C367.302 474.192 373.772 459 379 459 C384.228 459 387 486.197 387 537.5 L387 537.5 Z " />
<glyph glyph-name="T" unicode="T" horiz-adv-x="583" d="M291.5 660 C114.065 660 19.8268 658.268 19.5 655 L19 650 C18.5 650 15.25 611 12 570.5 C7.35911 512.667 7.77172 482 13 482 C18.2283 482 24.8111 495.339 32 520.5 L43 559 C56 603 102 639 147 639 L199 639 C232.984 639 251 541.643 251 358 L251 77 C251 59 243.75 42.75 232 31.125 C209.03 8.39939 183.055 13 177.5 13 C171.945 13 169 10.748 169 6.5 C169 2.25202 211.788 0 292.5 0 C373.212 0 416 2.25202 416 6.5 C416 10.748 413.055 13 407.5 13 C401.945 13 375.97 8.39939 353 31.125 C341.25 42.75 334 59 334 77 L334 358 C334 541.643 352.016 639 386 639 L438 639 C483 639 529 603 542 559 L553 520.5 C560.189 495.339 566.772 482 572 482 C577.228 482 577.025 512.868 571.75 571.125 C566.519 628.896 468.935 660 291.5 660 L291.5 660 Z " />
<glyph glyph-name="U" unicode="U" horiz-adv-x="681" d="M532 660 C462.072 660 425 657.748 425 653.5 C425 649.252 428.811 647 436 647 C443.189 647 473.696 652.433 500.25 626.125 C513.75 612.75 522 594 522 573 L522 188 C522 97 464 24 348 24 C249 24 199 100 199 194 L199 583 C199 601 206.25 617.25 218 628.875 C240.97 651.601 266.945 647 272.5 647 C278.055 647 281 649.252 281 653.5 C281 657.748 238.212 660 157.5 660 C76.7884 660 34 657.748 34 653.5 C34 649.252 36.9449 647 42.5 647 C48.0551 647 74.03 651.601 97 628.875 C108.75 617.25 116 601 116 583 L116 210 C116 91 189 -5 336 -5 C477 -5 547 77 547 180 L547 573 C547 594 555.25 612.75 568.75 626.125 C595.304 652.433 624.945 647 630.5 647 C636.055 647 639 649.252 639 653.5 C639 657.748 601.928 660 532 660 L532 660 Z " />
<glyph glyph-name="V" unicode="V" horiz-adv-x="684" d="M154 660 C69.0404 660 24 657.748 24 653.5 C24 649.252 25.7323 647 29 647 C32.2677 647 53.7339 649.565 78.75 631.25 C92.75 621 105 606.5 113 590 L229.5 287.5 C305.637 89.8056 349.638 -15 356.5 -15 C363.362 -15 399.221 89.6323 460 287 L553 589 C559.5 605.5 571.75 620.25 586.625 630.75 C614.378 650.34 638.945 647 644.5 647 C650.055 647 653 649.252 653 653.5 C653 657.748 613.157 660 538 660 C462.843 660 423 657.748 423 653.5 C423 649.252 427.851 647 437 647 C446.149 647 482.976 654.563 508.375 622.75 C520.75 607.25 525.5 585.5 520 561 L450.5 330.5 C405.079 179.86 350.511 183.671 293 341.5 L205 583 C198.5 601 199.75 617.25 207.125 628.875 C222.142 652.545 252.583 647 265 647 C277.417 647 284 649.252 284 653.5 C284 657.748 238.96 660 154 660 L154 660 Z " />
<glyph glyph-name="W" unicode="W" horiz-adv-x="972" d="M166 660 C83.6545 660 40 657.748 40 653.5 C40 649.252 41.7323 647 45 647 C48.2677 647 69.4983 649.716 93.5 631.375 C120.092 611.055 158.434 486.021 221.5 288 C284.566 89.9788 321.638 -15 328.5 -15 C335.362 -15 364.119 79.4116 411.5 257.5 C458.881 435.588 513.796 435.588 570 257.5 C626.204 79.4116 659.638 -15 666.5 -15 C673.362 -15 705.064 89.6323 758 287 L839 589 C845 605.5 856.75 620.25 871.25 630.75 C898.45 650.447 922.772 647 928 647 C933.228 647 936 649.252 936 653.5 C936 657.748 898.755 660 828.5 660 C758.245 660 721 657.748 721 653.5 C721 649.252 728.622 647 743 647 L765 647 C800 647 821 621 815 587 L753.5 352 C713.308 198.419 662.551 212.624 607 393 C551.449 573.376 518.362 669 511.5 669 C504.638 669 475.188 571.817 426.5 388.5 C377.812 205.183 328.787 190.112 285 345 L218 582 C213.5 600 216 616.5 224.125 628.375 C240.367 652.113 269.024 647 278.5 647 C287.976 647 292.827 649.252 292.5 653.5 C292.173 657.748 248.345 660 166 660 L166 660 Z " />
<glyph glyph-name="X" unicode="X" horiz-adv-x="629" d="M465 660 C393.111 660 355 657.748 355 653.5 C355 649.252 362.795 647 377.5 647 L400 647 C434 647 448 622 432 588 L379.5 491.5 C345.189 428.434 307.944 428.607 272 492 C236.056 555.393 201.705 606.837 215.125 630.25 C227.561 651.947 256.063 646 267.5 646 C278.937 646 285 648.252 285 652.5 C285 656.748 240.653 659 157 659 C73.3475 659 29 656.748 29 652.5 C29 648.252 30.5591 646 33.5 646 C36.4409 646 58.3851 646.985 85.125 627.5 C101.25 615.75 116.5 599.5 127 582 L201.5 449.5 C250.188 362.907 252.96 274.212 209.5 193.5 L143 70 C132.5 53.5 116.75 38.75 99.375 28.25 C68.1676 9.39086 43.2283 12 38 12 C32.7717 12 30 9.74798 30 5.5 C30 1.25202 68.1111 -1 140 -1 C211.889 -1 250 1.25202 250 5.5 C250 9.74798 244.63 12 234.5 12 C224.37 12 191.129 5.12133 176 32.25 C168.75 45.25 169 63.5 178 84 L233.5 190 C269.771 259.275 311.174 256.849 353 183 C394.826 109.151 432.295 52.163 418.875 28.75 C406.439 7.05281 377.937 13 366.5 13 C355.063 13 349 10.748 349 6.5 C349 2.25202 393.347 0 477 0 C560.653 0 605 2.25202 605 6.5 C605 10.748 603.441 13 600.5 13 C597.559 13 575.615 12.0151 548.875 31.5 C532.75 43.25 517.5 59.5 507 77 C479 126.5 450.75 176.25 422.625 226 C367.671 323.207 359.961 411.898 399.5 481.5 L460 588 C471 605 487.25 620 505 630.625 C536.642 649.566 561.772 647 567 647 C572.228 647 575 649.252 575 653.5 C575 657.748 536.889 660 465 660 L465 660 Z " />
<glyph glyph-name="Y" unicode="Y" horiz-adv-x="654" d="M313 0 C394.038 0 437 2.25202 437 6.5 C437 10.748 434.055 13 428.5 13 C422.945 13 396.97 8.39939 374 31.125 C362.25 42.75 355 59 355 77 L355 193.5 C355 269.637 381.505 357.292 431.5 446.5 C481.495 535.708 516.928 606.076 551.25 628.875 C582.129 649.387 606.732 647 610 647 C613.268 647 615 649.252 615 653.5 C615 657.748 579.314 660 512 660 C444.686 660 409 657.748 409 653.5 C409 649.252 413.331 647 421.5 647 C429.669 647 463.547 654.66 480 626 C497.582 595.373 454.094 528.692 409 447 C363.906 365.308 317.307 368.773 274.5 457 C231.693 545.227 196.094 610.216 210.625 631.875 C224.633 652.755 250.504 647 259 647 C267.496 647 272 649.252 272 653.5 C272 657.748 228.345 660 146 660 C63.6545 660 20 657.748 20 653.5 C20 649.252 21.5591 647 24.5 647 C27.4409 647 49.6565 648.432 75.625 628.375 C106.759 604.329 141.371 528.471 193 427.5 C244.629 326.529 271.827 238.873 271.5 174.5 C271.173 110.127 275.037 52.9069 252 29.625 C229.188 6.57015 203.055 11 197.5 11 C191.945 11 189 9.09444 189 5.5 C189 1.90556 231.962 0 313 0 L313 0 Z " />
<glyph glyph-name="Z" unicode="Z" horiz-adv-x="557" d="M472 145.5 C464.811 123.607 455.467 79.4021 414.25 48.25 C392.75 32 367 22 342 22 L246 22 C183.261 22 209.245 132.522 321 341 C432.755 549.478 424.959 660 298.5 660 C172.041 660 104.48 658.268 103.5 655 C102.52 651.732 95.8181 626.068 83.875 581 C71.8994 535.809 67.7717 512 73 512 C78.2283 512 85.1576 520.142 93 535.5 L105 559 C128 603 182 639 227 639 L306.5 639 C358.456 639 326.928 528.305 215.5 319.5 C104.072 110.695 118.97 0 258.5 0 C398.03 0 472.346 1.90556 473 5.5 L474 11 C478 33 483.25 62 488.375 91 C497.605 143.226 498.012 172.972 490.25 176.125 C485.528 178.043 479.189 167.393 472 145.5 L472 145.5 Z " />
<glyph glyph-name="bracketleft" unicode="&#x5b;" horiz-adv-x="246" d="M183.5 643 C217.811 643 236 645.945 236 651.5 C236 657.055 207.59 660 154 660 C100.41 660 72 524.879 72 270 C72 15.1212 100.41 -120 154 -120 C207.59 -120 236 -117.055 236 -111.5 C236 -105.945 217.811 -103 183.5 -103 C149.189 -103 131 26.2313 131 270 C131 513.769 149.189 643 183.5 643 L183.5 643 Z " />
<glyph glyph-name="backslash" unicode="&#x5c;" horiz-adv-x="242" d="M229 -145 C237.496 -145 194.188 3.11364 104 282.5 C13.8121 561.886 -38.504 710 -47 710 C-55.496 710 -12.1879 561.886 78 282.5 C168.188 3.11364 220.504 -145 229 -145 L229 -145 Z " />
<glyph glyph-name="bracketright" unicode="&#x5d;" horiz-adv-x="238" d="M110 270 C110 26.2313 91.8106 -103 57.5 -103 C23.1894 -103 5 -105.945 5 -111.5 C5 -117.055 33.2369 -120 86.5 -120 C139.763 -120 168 15.1212 168 270 C168 524.879 139.763 660 86.5 660 C33.2369 660 5 657.055 5 651.5 C5 645.945 23.1894 643 57.5 643 C91.8106 643 110 513.769 110 270 L110 270 Z " />
<glyph glyph-name="asciicircum" unicode="&#x5e;" horiz-adv-x="293" d="M162.375 736.75 C158.25 741.25 153 745 147 745 C141 745 135.75 741.25 131.625 736.75 C124.827 729.334 106.501 690.867 75.875 628.125 C47.6452 570.292 35.3859 537.787 38 535.5 C40.6141 533.213 62.7291 555.886 98.875 603.25 C130.307 644.437 168.409 636.66 212.375 580.75 C237.501 548.798 252.386 533.213 255 535.5 C257.614 537.787 250.66 557.345 234.5 591.75 C193.739 678.531 169.173 729.334 162.375 736.75 L162.375 736.75 Z " />
<glyph glyph-name="underscore" unicode="&#x5f;" horiz-adv-x="371" d="M5 -71 C5 -84.7242 67.5369 -92 185.5 -92 C303.463 -92 366 -84.7242 366 -71 C366 -57.2758 303.463 -50 185.5 -50 C67.5369 -50 5 -57.2758 5 -71 L5 -71 Z " />
<glyph glyph-name="grave" unicode="&#x60;" horiz-adv-x="293" d="M64 709 C64 707 68.5 700.5 75.875 691.375 C94.072 668.86 127.448 629.608 173.875 579.75 C204.395 546.975 222.386 531.213 225 533.5 C227.614 535.787 218.432 558.478 196.875 598.125 C164.43 657.796 136.065 700.872 120.125 725.25 C113.75 735 109 741 107 741 C95 741 64 718 64 709 L64 709 Z " />
<glyph glyph-name="a" unicode="a" horiz-adv-x="457" d="M416.375 30.5 C408 27.75 397.5 26 385 26 C357 26 346 54 346 88 L346 357 C346 439 295 505 231 505 C189 505 148.75 493.25 117.625 474.125 C64.5643 441.521 71.9924 399 96.5 399 C121.008 399 134.033 427.227 164.375 459.125 C179 474.5 197 484 215 484 C244 484 267 435 267 373 L267 314 C267 275.441 253.058 252.939 226.875 248.375 C202.032 244.045 139.792 238.295 80.625 184.75 C53 159.75 36 130.5 36 103 C36 43 81 -5 136 -5 C155.5 -5 178.25 1.25 201.375 12 C249.188 34.2266 266.572 33.5373 289.25 8.75 C300 -3 315 -10 335 -10 C360 -10 381.75 -5.5 400 1.75 C431.758 14.3662 442.441 31.9056 439.5 35.5 C436.559 39.0944 429.651 34.8592 416.375 30.5 L416.375 30.5 Z M268 158 L268 80 L268 77 C268 75.0394 253.206 63.2482 221.375 53.625 C205.25 48.75 189 46 174 46 C139 46 111 81 111 124 C111 144.5 119.75 165.25 134 182.25 C161.893 215.526 203.995 221.721 230.625 227.75 C254.71 233.203 268 208.976 268 158 L268 158 Z " />
<glyph glyph-name="b" unicode="b" horiz-adv-x="533" d="M11 666 L17 666 C71 665 87 650 87 599 L87 299.5 C87 103.766 88.3859 0 91 0 C93.6141 0 98.5288 10.2784 113.5 19.125 C121.75 24 131.5 27 141 27 C179 27 226 -5 277 -5 C399 -5 496 108 496 249 C496 391 414 505 312 505 C292.5 505 266 500.25 238.875 492.625 C187.042 478.054 162 507.521 162 591.5 C162 675.479 159.402 720 154.5 720 C149.598 720 122.401 712.724 76 699 C29.599 685.276 5 675.921 5 672 C5 668.079 7.07879 666 11 666 L11 666 Z M277 16 C213 16 162 76 162 150 L162 300 C162 398.03 176.446 458.383 206.25 465.5 C223 469.5 240.5 472 255 472 C345 472 417 358 417 216 C417 105 355 16 277 16 L277 16 Z " />
<glyph glyph-name="c" unicode="c" horiz-adv-x="456" d="M401.5 59.5 C399.213 62.4409 384.52 53.8168 355.25 47.625 C335.75 43.5 312.5 41 290 41 C201 41 129 139 129 262 C129 385 190 484 265 484 C282.5 484 299 475 311.625 460.5 C337.865 430.363 333.864 390.885 347.625 377.625 C354.5 371 363.5 367 373 367 C382 367 390.25 370.75 396.25 376.75 C407.901 388.401 407.337 439.545 363.5 474.25 C339.5 493.25 307.5 505 273 505 C149 505 50 384 50 233 C50 101 129 -5 228 -5 C257.5 -5 291.75 1.75 323.625 12.625 C380.373 31.9861 403.787 56.5591 401.5 59.5 L401.5 59.5 Z " />
<glyph glyph-name="d" unicode="d" horiz-adv-x="537" d="M276 666 L282 666 C336 665 352 650 352 599 L352 524.5 C352 475.812 337.152 470.089 297.875 489.125 C277.5 499 255.5 505 234 505 C120 505 28 380 28 223 C28 96 107 -5 205 -5 C229 -5 256.5 0.75 282.5 10.25 C330.511 27.7924 351 39.6848 351 24 C351 8.31515 353.598 0 358.5 0 C363.402 0 390.599 7.27576 437 21 C483.401 34.7242 508 44.0788 508 48 C508 51.9212 505.921 54 502 54 L496 54 C442 55 426 70 426 121 L426 420.5 C426 616.234 423.402 720 418.5 720 C413.598 720 386.401 712.724 340 699 C293.599 685.276 269.173 675.921 269.5 672 C269.827 668.079 272.079 666 276 666 L276 666 Z M308 46.375 C289 43 266.5 41 244 41 C166 41 104 134 104 251 C104 380 159 484 228 484 C252 484 276.5 476 298 463.5 C337.791 440.365 350.173 354.329 350.5 238 C350.827 121.671 337.025 51.5307 308 46.375 L308 46.375 Z " />
<glyph glyph-name="e" unicode="e" horiz-adv-x="462" d="M407.5 59.5 C405.213 62.4409 390.107 53.7705 360.125 47.625 C340 43.5 316 41 293 41 C202 41 129 139 129 262 C129 272 129.25 281.75 129.875 291.25 C131.073 309.461 181.332 319 272.5 319 C363.668 319 424.735 381.668 364.75 450.625 C335.5 484.25 295 505 250 505 C139 505 50 384 50 233 C50 101 131 -5 231 -5 C261 -5 296 1.75 328.5 12.625 C385.98 31.8588 409.787 56.5591 407.5 59.5 L407.5 59.5 Z M342 380 L342 382 C342 381 342 380 342 379 L342 380 L342 380 Z M328.5 352.5 C315.39 341.407 274.551 341.094 219 337.5 C163.449 333.906 131.64 378.961 176.5 440.5 C196 467.25 220 483 246 483 C272.5 483 297.75 470 315.75 450.875 C348.764 415.797 341.913 380.614 341.75 378 C341.587 375.386 340.907 362.999 328.5 352.5 L328.5 352.5 Z " />
<glyph glyph-name="f" unicode="f" horiz-adv-x="376" d="M264.5 13 C258.945 13 232.97 8.39939 210 31.125 C198.25 42.75 191 59 191 77 L191 274 C191 402.746 210.056 471 246 471 C281.944 471 301 476.024 301 485.5 C301 494.976 281.944 500 246 500 C210.056 500 191 505.717 191 516.5 L191 533 C191 627 252 703 276 703 C287.5 703 298.25 698.25 306.375 690.5 C322.371 675.242 320.598 648.119 333.625 636.75 C340.5 630.75 349.5 627 359 627 C368 627 376.25 630.75 382.25 636.75 C393.901 648.401 390.729 684.21 362.125 702.375 C345 713.25 322 720 297 720 C199 720 120 644 120 549 C119 549 118 536.75 117.25 524.5 C116.27 508.498 104.913 500 84 500 C63.0869 500 52 494.976 52 485.5 C52 476.024 63.0869 471 84 471 C104.913 471 116 402.746 116 274 L116 77 C116 59 108.75 42.75 97 31.125 C74.03 8.39939 48.0551 13 42.5 13 C36.9449 13 34 10.748 34 6.5 C34 2.25202 75.4025 0 153.5 0 C231.597 0 273 2.25202 273 6.5 C273 10.748 270.055 13 264.5 13 L264.5 13 Z " />
<glyph glyph-name="g" unicode="g" horiz-adv-x="434" d="M97.625 -42.25 C128 -1.25558 162.811 5.82677 170 5.5 C177.189 5.17323 188.795 5.5197 203.5 6.5 L226 8 C300 8 360 -31 360 -79 C360 -157 275 -219 169 -219 C142.5 -219 118.5 -207 101.125 -187.5 C65.6888 -147.73 64.1652 -112.559 47.5 -115.5 C30.8348 -118.441 15.9044 -164.913 62.625 -205.125 C87.75 -226.75 122.5 -240 161 -240 C301 -240 414 -151 414 -41 C414 26 339 79 246 79 C239 79 177 76 177 76 C133 76 98 101 98 132 C98 165 133 192 176 192 L221 192 C308 192 378 262 378 349 C378 370 374 389.75 366.75 407.75 C352.78 442.435 352.977 456.346 385 457 C417.023 457.654 434 465.276 434 479 C434 492.724 411.041 496.906 367.625 492 C324.692 487.149 290.306 493.017 264.75 500.25 C251.5 504 237.5 506 223 506 C135 506 65 437 65 350 C65 317 75 286.5 92.25 261.375 C125.713 212.635 124.68 209.786 81.625 171.75 C61.25 153.75 49 130 49 104 C49 82 59 61.75 75.875 45.5 C111.823 10.8833 105.247 1.7158 59.375 -47.375 C24.7284 -84.4529 33.3152 -115.787 49 -113.5 C64.6848 -111.213 69.5778 -80.1024 97.625 -42.25 L97.625 -42.25 Z M224 211 C176 211 137 273 137 351 C137 428 176 490 224 490 C272 490 310 428 310 351 C310 273 272 211 224 211 L224 211 Z " />
<glyph glyph-name="h" unicode="h" horiz-adv-x="602" d="M443.5 0 C521.597 0 563 2.25202 563 6.5 C563 10.748 560.055 13 554.5 13 C548.945 13 522.97 8.39939 500 31.125 C488.25 42.75 481 59 481 77 L481 337 C481 430 446 505 375 505 C361.5 505 335.75 497.75 304.625 486 C235.863 460.042 202 488.505 202 580 C202 671.495 199.402 720 194.5 720 C189.598 720 162.401 712.724 116 699 C69.599 685.276 45 675.921 45 672 C45 668.079 47.0788 666 51 666 L57 666 C111 665 127 650 127 599 L127 77 C127 59 119.75 42.75 108 31.125 C85.03 8.39939 59.0551 13 53.5 13 C47.9449 13 45 10.748 45 6.5 C45 2.25202 86.4025 0 164.5 0 C242.597 0 284 2.25202 284 6.5 C284 10.748 281.055 13 275.5 13 C269.945 13 243.97 8.39939 221 31.125 C209.25 42.75 202 59 202 77 L202 254.5 C202 370.503 220.33 440.946 257.25 448.375 C277.75 452.5 299 455 317 455 C376 455 406 399 406 329 L406 77 C406 59 398.75 42.75 387 31.125 C364.03 8.39939 338.055 13 332.5 13 C326.945 13 324 10.748 324 6.5 C324 2.25202 365.403 0 443.5 0 L443.5 0 Z " />
<glyph glyph-name="i" unicode="i" horiz-adv-x="328" d="M160 570 C188 570 210 592 210 620 C210 648 188 670 160 670 C132 670 110 648 110 620 C110 592 132 570 160 570 L160 570 Z M275.5 13 C269.945 13 243.97 8.39939 221 31.125 C209.25 42.75 202 59 202 77 L202 288.5 C202 426.723 199.402 500 194.5 500 C189.598 500 162.401 492.724 116 479 C69.599 465.276 45 455.921 45 452 C45 448.079 47.0788 446 51 446 L57 446 C111 445 127 430 127 379 L127 77 C127 59 119.75 42.75 108 31.125 C85.03 8.39939 59.0551 13 53.5 13 C47.9449 13 45 10.748 45 6.5 C45 2.25202 86.4025 0 164.5 0 C242.597 0 284 2.25202 284 6.5 C284 10.748 281.055 13 275.5 13 L275.5 13 Z " />
<glyph glyph-name="j" unicode="j" horiz-adv-x="264" d="M158 570 C186 570 208 592 208 620 C208 648 186 670 158 670 C130 670 108 648 108 620 C108 592 130 570 158 570 L158 570 Z M49 446 L55 446 C109 445 125 430 125 379 L125 5 C125 -62.5 118.25 -110 103.75 -145.5 C78.1255 -208.236 37.2126 -225.906 39.5 -229.5 C41.7874 -233.094 106.801 -215.981 163.25 -126.375 C189 -85.5 201 -37.5 201 25 C200 27 200 481 200 481 L200 490.5 C200 496.709 197.402 500 192.5 500 C187.598 500 160.401 492.724 114 479 C67.599 465.276 43 455.921 43 452 C43 448.079 45.0788 446 49 446 L49 446 Z " />
<glyph glyph-name="k" unicode="k" horiz-adv-x="534" d="M415 500 C354.875 500 323 497.748 323 493.5 C323 489.252 324.906 487 328.5 487 C332.094 487 358.718 489.244 359.375 468.875 C360.46 435.244 314.924 399.254 275.125 354.5 C230.024 303.784 206.318 357.856 206.125 510.375 C206 609.25 205.5 701 204 701 L204 710.5 C204 716.709 201.402 720 196.5 720 C191.598 720 164.401 712.724 118 699 C71.599 685.276 47 675.921 47 672 C47 668.079 49.0788 666 53 666 L59 666 C113 665 129 650 129 599 L129 77 C129 59 121.75 42.75 110 31.125 C87.03 8.39939 61.0551 13 55.5 13 C49.9449 13 47 10.748 47 6.5 C47 2.25202 88.4025 0 166.5 0 C244.597 0 286 2.25202 286 6.5 C286 10.748 283.055 13 277.5 13 C271.945 13 248.562 8.64646 226.125 28.125 C203.855 47.4581 205.072 97.8399 205.5 154.125 C206.036 224.624 206.866 262.866 208.5 264.5 C210.134 266.134 234.386 234.259 278.5 172.5 C322.614 110.741 368.442 62.7208 360.875 32.125 C355.258 9.41145 328.094 14 324.5 14 C320.906 14 319 11.748 319 7.5 C319 3.25202 361.788 1 442.5 1 C523.212 1 566 3.25202 566 7.5 C566 11.748 563.228 14 558 14 C552.772 14 525.724 12.0073 490.625 32.5 C470.5 44.25 451.5 60.5 438 78 L350.5 199.5 C293.316 278.905 281.363 339.882 316 375.5 L369 430 C386.5 446.5 408.5 461.25 430.375 471.75 C467.355 489.5 493.772 488 499 488 C504.228 488 507 490.079 507 494 C507 497.921 475.125 500 415 500 L415 500 Z " />
<glyph glyph-name="l" unicode="l" horiz-adv-x="328" d="M275.5 13 C269.945 13 243.97 8.39939 221 31.125 C209.25 42.75 202 59 202 77 L202 398.5 C202 608.612 199.402 720 194.5 720 C189.598 720 162.401 712.724 116 699 C69.599 685.276 45 675.921 45 672 C45 668.079 47.0788 666 51 666 L57 666 C111 665 127 650 127 599 L127 77 C127 59 119.75 42.75 108 31.125 C85.03 8.39939 59.0551 13 53.5 13 C47.9449 13 45 10.748 45 6.5 C45 2.25202 86.4025 0 164.5 0 C242.597 0 284 2.25202 284 6.5 C284 10.748 281.055 13 275.5 13 L275.5 13 Z " />
<glyph glyph-name="m" unicode="m" horiz-adv-x="901" d="M742.5 0 C820.597 0 862 2.25202 862 6.5 C862 10.748 859.055 13 853.5 13 C847.945 13 821.97 8.39939 799 31.125 C787.25 42.75 780 59 780 77 L780 337 C780 430 726 505 666 505 C654.5 505 628.25 496 594 481.25 C513.934 446.769 468.862 451.314 433.75 482.375 C417.5 496.75 399 505 380 505 C363 505 335.75 497.75 304 486 C234.861 460.413 201 450.394 201 470 C201 489.606 198.402 500 193.5 500 C188.598 500 161.401 492.724 115 479 C68.599 465.276 44 455.921 44 452 C44 448.079 46.0788 446 50 446 L56 446 C110 445 126 430 126 379 L126 77 C126 59 118.75 42.75 107 31.125 C84.03 8.39939 58.0551 13 52.5 13 C46.9449 13 44 10.748 44 6.5 C44 2.25202 85.4025 0 163.5 0 C241.597 0 283 2.25202 283 6.5 C283 10.748 280.055 13 274.5 13 C268.945 13 242.97 8.39939 220 31.125 C208.25 42.75 201 59 201 77 L201 254.5 C201 370.503 219.9 442.27 258.5 451.125 C279.75 456 302 459 322 459 C371 459 415 401 415 329 L415 77 C415 59 407.75 42.75 396 31.125 C373.03 8.39939 347.055 13 341.5 13 C335.945 13 333 10.748 333 6.5 C333 2.25202 374.403 0 452.5 0 C530.597 0 572 2.25202 572 6.5 C572 10.748 569.055 13 563.5 13 C557.945 13 531.97 8.39939 509 31.125 C497.25 42.75 490 59 490 77 L490 337 C490 350.5 489 363.5 487 376 C483.169 399.947 501.115 426.319 548.875 442.5 C571.75 450.25 592.5 455 607 455 C658 455 704 399 704 329 L704 77 C704 59 696.75 42.75 685 31.125 C662.03 8.39939 636.055 13 630.5 13 C624.945 13 622.173 10.748 622.5 6.5 C622.827 2.25202 664.403 0 742.5 0 L742.5 0 Z " />
<glyph glyph-name="n" unicode="n" horiz-adv-x="593" d="M443.5 0 C521.597 0 563 2.25202 563 6.5 C563 10.748 560.055 13 554.5 13 C548.945 13 522.97 8.39939 500 31.125 C488.25 42.75 481 59 481 77 L481 337 C481 430 446 505 375 505 C361.5 505 335.75 497.75 304.625 486 C235.863 460.042 202 450.394 202 470 C202 489.606 199.402 500 194.5 500 C189.598 500 162.401 492.724 116 479 C69.599 465.276 45 455.921 45 452 C45 448.079 47.0788 446 51 446 L57 446 C111 445 127 430 127 379 L127 77 C127 59 119.75 42.75 108 31.125 C85.03 8.39939 59.0551 13 53.5 13 C47.9449 13 45 10.748 45 6.5 C45 2.25202 86.4025 0 164.5 0 C242.597 0 284 2.25202 284 6.5 C284 10.748 281.055 13 275.5 13 C269.945 13 243.97 8.39939 221 31.125 C209.25 42.75 202 59 202 77 L202 254.5 C202 370.503 220.33 440.946 257.25 448.375 C277.75 452.5 299 455 317 455 C376 455 406 399 406 329 L406 77 C406 59 398.75 42.75 387 31.125 C364.03 8.39939 338.055 13 332.5 13 C326.945 13 324 10.748 324 6.5 C324 2.25202 365.403 0 443.5 0 L443.5 0 Z " />
<glyph glyph-name="o" unicode="o" horiz-adv-x="558" d="M133 250 C133 382 198 488 279 488 C360 488 425 382 425 250 C425 118 360 12 279 12 C198 12 133 118 133 250 L133 250 Z M50 250 C50 108 152 -5 279 -5 C406 -5 508 108 508 250 C508 392 406 505 279 505 C152 505 50 392 50 250 L50 250 Z " />
<glyph glyph-name="p" unicode="p" horiz-adv-x="600" d="M266.5 -217 C260.945 -217 234.97 -221.601 212 -198.875 C200.25 -187.25 193 -171 193 -153 L193 -59.5 C193 1.60556 209.659 18.2067 248.25 5.5 C268.75 -1.25 291 -5 314 -5 C442 -5 545 114 545 263 C545 397 465 505 365 505 C337.5 505 305.25 496.5 274.5 482.375 C215.648 455.341 193 438.819 193 463 C193 487.181 190.402 500 185.5 500 C180.598 500 153.401 492.724 107 479 C60.599 465.276 36 455.921 36 452 C36 448.079 38.0788 446 42 446 L48 446 C102 445 118 430 118 379 L118 -153 C118 -171 110.75 -187.25 99 -198.875 C76.03 -221.601 50.0551 -217 44.5 -217 C38.9449 -217 36 -219.252 36 -223.5 C36 -227.748 77.4025 -230 155.5 -230 C233.597 -230 275 -227.748 275 -223.5 C275 -219.252 272.055 -217 266.5 -217 L266.5 -217 Z M193 273.5 C193 364.015 208.471 428.368 245.625 442.5 C266 450.25 288 455 308 455 C399 455 472 343 472 204 C472 100 402 16 315 16 C284.5 16 255.625 29.25 233.625 50.75 C190.009 93.3751 193 182.985 193 273.5 L193 273.5 Z " />
<glyph glyph-name="q" unicode="q" horiz-adv-x="564" d="M529.5 -217 C523.945 -217 497.97 -221.601 475 -198.875 C463.25 -187.25 456 -171 456 -153 L456 173.5 C456 386.879 454.614 500 452 500 C449.386 500 444.048 489.432 428.25 480.875 C419.25 476 408.5 473 398 473 C361 473 315 505 266 505 C151 505 58 380 58 223 C58 96 133 -5 226 -5 C251 -5 280 1.25 307.75 11.75 C359.968 31.5081 382 18.1409 382 -49.5 L382 -153 C382 -171 374.75 -187.25 363 -198.875 C340.03 -221.601 314.055 -217 308.5 -217 C302.945 -217 300 -219.252 300 -223.5 C300 -227.748 341.403 -230 419.5 -230 C497.597 -230 538.827 -227.748 538.5 -223.5 C538.173 -219.252 535.055 -217 529.5 -217 L529.5 -217 Z M335.125 47.875 C314.75 43 291 40 268 40 C196 40 138 133 138 250 C138 379 195 483 267 483 C331 483 382 423 382 349 L382 208 C382 115.852 367.303 55.574 335.125 47.875 L335.125 47.875 Z " />
<glyph glyph-name="r" unicode="r" horiz-adv-x="366" d="M24 446 L30 446 C84 445 100 430 100 379 L100 77 C100 59 92.75 42.75 81 31.125 C58.03 8.39939 32.0551 13 26.5 13 C20.9449 13 18 10.748 18 6.5 C18 2.25202 59.4025 0 137.5 0 C215.597 0 257 2.25202 257 6.5 C257 10.748 254.055 13 248.5 13 C242.945 13 216.97 8.39939 194 31.125 C182.25 42.75 175 59 175 77 L175 247 C175 358.101 182.633 427.603 202.75 439.25 C212.25 444.75 221.5 448 229 448 C255 448 295 418 321 418 C340 418 356 434 356 454 C356 482 334 504 289 504 C275 504 255.75 495.5 235.375 481.625 C191.394 451.675 175 439.473 175 463 C175 486.527 172.402 499 167.5 499 C162.598 499 135.401 491.724 89 478 C42.599 464.276 18 455.094 18 451.5 C18 447.906 20.0788 446 24 446 L24 446 Z " />
<glyph glyph-name="s" unicode="s" horiz-adv-x="385" d="M312 410.5 C312 444.811 310.961 461.094 309 457.5 C307.039 453.906 307.039 453.906 309 457.5 C310.961 461.094 292.049 476.378 250.5 492.625 C231 500.25 214 505 204 505 C124 505 60 446 60 372 C60 324 113 258 179 223 C231 195 273 147 273 115 C273 50 228 4 168 15 C126 25 83 69 69 120 C68 124 66.5 128.75 65 133.5 C62.229 142.275 58.5747 147 54 147 C49.4253 147 47 127.078 47 89.5 C47 51.9217 68.5429 17.7928 114 5.625 C138.75 -1 164 -5 184 -5 C268 -5 335 61 335 143 C335 187 289 247 232 277 C168 311 117 364 117 397 C117 422.5 126.75 445.25 142.5 461.625 C172.816 493.144 206.945 486.961 212.5 485 C218.055 483.039 242.825 473.475 267.125 441.625 C291.086 410.22 294.14 382.019 295.5 372.5 C296.86 362.981 300.425 358 305 358 C309.575 358 312 376.189 312 410.5 L312 410.5 Z " />
<glyph glyph-name="t" unicode="t" horiz-adv-x="330" d="M231.5 500 C187.386 500 164 524.253 164 570 C164 615.747 161.921 640 158 640 C154.079 640 142.299 614.015 124 565 C105.701 515.985 103.795 510.961 118.5 550.5 C133.205 590.039 132.859 572.841 88.25 522.125 C55.2077 484.559 25 477.614 25 475 C25 472.386 36.0869 471 57 471 C77.9131 471 89 408.81 89 291.5 L89 112 C89 28 114 -5 177 -5 C204.5 -5 229.75 0.25 252.125 8.875 C293.095 24.668 309.134 44.2126 307.5 46.5 C305.866 48.7874 294.809 40.7157 271.5 34.5 C256.5 30.5 237.5 28 214 28 C178 28 164 48 164 99 L164 285 C164 406.558 187.386 471 231.5 471 C275.614 471 299 476.024 299 485.5 C299 494.976 275.614 500 231.5 500 L231.5 500 Z " />
<glyph glyph-name="u" unicode="u" horiz-adv-x="567" d="M23.5 487 C29.0551 487 55.03 491.601 78 468.875 C89.75 457.25 97 441 97 423 L97 155 C97 66 146 -5 224 -5 C252.5 -5 281 1.5 307.125 12.25 C356.117 32.4096 376 45.4722 376 27.5 C376 9.52778 378.598 0 383.5 0 C388.402 0 415.599 7.27576 462 21 C508.401 34.7242 533 44.0788 533 48 C533 51.9212 530.921 54 527 54 L521 54 C467 55 451 70 451 121 L451 310.5 C451 434.345 423.803 500 372.5 500 C321.197 500 294 497.748 294 493.5 C294 489.252 296.945 487 302.5 487 C308.055 487 334.03 491.601 357 468.875 C368.75 457.25 376 441 376 423 L376 244.5 C376 127.844 364.795 56.9035 340 51 C324.25 47.25 305 45 283 45 C215 45 171 98 171 164 L171.5 332.5 C171.827 442.621 144.803 501 93.5 501 C42.1975 501 15 498.575 15 494 C15 489.425 17.9449 487 23.5 487 L23.5 487 Z " />
<glyph glyph-name="v" unicode="v" horiz-adv-x="552" d="M116.5 500 C36.4419 500 -6 497.748 -6 493.5 C-6 489.252 -3.22828 487 2 487 C7.22828 487 33.3677 490.328 63.125 468.875 C93.9982 446.618 126.544 347.99 178.5 206.5 C230.456 65.0096 260.252 -10 264.5 -10 C268.748 -10 298.371 65.8758 350 209 L429 428 C436.5 444.5 449.75 459.25 465.375 469.75 C494.216 489.131 518.772 486 524 486 C529.228 486 532 488.252 532 492.5 C532 496.748 500.125 499 440 499 C379.875 499 348 496.748 348 492.5 C348 488.252 350.252 486 354.5 486 C358.748 486 384.745 491.507 400.5 467.875 C408.25 456.25 410 440 404 422 L348.5 256.5 C312.229 148.34 273.944 148.34 238 256.5 L183 422 C177.5 439.5 179.25 455.75 186.875 467.5 C202.272 491.226 228.252 486 232.5 486 C236.748 486 239 488.425 239 493 C239 497.575 196.558 500 116.5 500 L116.5 500 Z " />
<glyph glyph-name="w" unicode="w" horiz-adv-x="818" d="M158.5 500 C78.4419 500 36 497.748 36 493.5 C36 489.252 37.7323 487 41 487 C44.2677 487 67.1835 489.372 92.75 468.875 C121.639 445.714 153.544 347.99 205.5 206.5 C257.456 65.0096 287.252 -10 291.5 -10 C295.748 -10 316.882 48.0328 352.5 157.5 C388.118 266.967 428.308 266.967 468.5 157.5 C508.692 48.0328 532.252 -10 536.5 -10 C540.748 -10 570.371 65.8758 622 209 L701 428 C708.5 444.5 721.75 459.25 737.375 469.75 C766.216 489.131 790.772 486 796 486 C801.228 486 804 488.252 804 492.5 C804 496.748 766.928 499 697 499 C627.072 499 590 496.748 590 492.5 C590 488.252 597.449 486 611.5 486 L633 486 C669 486 688 458 676 422 L620.5 256.5 C584.229 148.34 545.944 148.34 510 256.5 L455 422 C449.5 439.5 451.25 455.75 458.875 467.5 C474.272 491.226 503.717 486 514.5 486 C525.283 486 531 488.252 531 492.5 C531 496.748 488.558 499 408.5 499 C328.442 499 286 496.748 286 492.5 C286 488.252 287.559 486 290.5 486 C293.441 486 315.251 487.954 339 467.875 C366.915 444.274 375.677 409.354 384.5 385.5 C393.323 361.646 383.968 304.133 357.5 219.5 C331.032 134.867 298.291 147.513 263 256 C227.709 364.487 195.939 443.083 213 467.875 C229.27 491.518 257.851 486 267 486 C276.149 486 281 488.425 281 493 C281 497.575 238.558 500 158.5 500 L158.5 500 Z " />
<glyph glyph-name="x" unicode="x" horiz-adv-x="571" d="M430.5 500 C364.166 500 329 497.748 329 493.5 C329 489.252 334.89 487 346 487 C357.11 487 386.243 492.707 396.375 470.625 C401.25 460 399.5 445 390 428 L354 371.5 C330.473 334.575 306.047 334.575 283.5 371.5 L249 428 C239.5 445 237.5 460.25 242.25 471.125 C252.121 493.724 280.331 488 288.5 488 C296.669 488 301 490.252 301 494.5 C301 498.748 258.038 501 177 501 C95.9616 501 53 498.748 53 494.5 C53 490.252 54.7323 488 58 488 C61.2677 488 84.7838 489.673 114.375 469.875 C131.75 458.25 148 442 159 424 L213.5 334.5 C249.118 276.009 250.504 216.07 217.5 161.5 L167 78 C155.5 60 138.25 43.5 119.375 31.625 C86.0068 10.6318 57.496 13 49 13 C40.504 13 36 10.748 36 6.5 C36 2.25202 76.5364 0 153 0 C229.464 0 270 2.25202 270 6.5 C270 10.748 260.472 13 242.5 13 L215 13 C180 13 168 39 187 74 L232.5 151.5 C262.236 202.149 294.457 201.976 325.5 151 L373 73 C382.5 56 384.5 40.75 379.875 29.875 C370.423 7.65117 345.094 13 341.5 13 C337.906 13 336 10.748 336 6.5 C336 2.25202 374.631 0 447.5 0 C520.369 0 559 2.25202 559 6.5 C559 10.748 557.441 13 554.5 13 C551.559 13 530.509 12.2969 505 31.125 C472.296 55.264 439.094 115.977 394 189.5 C348.906 263.023 339.205 322.961 366 362.5 C392.795 402.039 418.782 446.38 457 468.875 C491.762 489.336 518.772 487 524 487 C529.228 487 532 489.252 532 493.5 C532 497.748 496.834 500 430.5 500 L430.5 500 Z " />
<glyph glyph-name="y" unicode="y" horiz-adv-x="563" d="M152.5 500 C72.4419 500 30 497.748 30 493.5 C30 489.252 32.7717 487 38 487 C43.2283 487 69.3677 490.328 99.125 468.875 C129.998 446.618 161.851 349.723 212.5 211.5 C263.149 73.2773 285.62 -9.26403 278.625 -27.25 C274.25 -38.5 269.5 -51.5 265 -65 C251 -103.5 237 -132.5 223.125 -151.875 C203.95 -178.651 172.757 -176.118 154.625 -168.5 C139.75 -162.25 122.5 -156 113 -156 C92 -156 75 -170 75 -188 C75 -211 102 -230 136 -230 C166.5 -230 194.25 -216.75 219.125 -190.375 C279.87 -125.967 290.338 -56.8307 300.5 -28.25 C304.5 -17 307 -10 307 -10 L465 428 C472.5 444.5 485.75 459.25 501.375 469.75 C530.216 489.131 554.772 486 560 486 C565.228 486 568 488.252 568 492.5 C568 496.748 536.125 499 476 499 C415.875 499 384 496.748 384 492.5 C384 488.252 386.252 486 390.5 486 C394.748 486 420.745 491.507 436.5 467.875 C444.25 456.25 446 440 440 422 L384.5 256.5 C348.229 148.34 309.944 148.34 274 256.5 L219 422 C213.5 439.5 215.25 455.75 222.875 467.5 C238.272 491.226 264.252 486 268.5 486 C272.748 486 275 488.425 275 493 C275 497.575 232.558 500 152.5 500 L152.5 500 Z " />
<glyph glyph-name="z" unicode="z" horiz-adv-x="446" d="M378 140.5 C370.811 118.607 361.467 74.4021 320.25 43.25 C298.75 27 273 17 248 17 L197 17 C163.67 17 189.308 100.671 271 258.5 C352.692 416.329 339.699 500 233.5 500 C127.301 500 70.6535 498.614 70 496 L69 492 C65 477.5 59.75 458.25 54.5 439 C45.0514 404.355 42.7717 386 48 386 C53.2283 386 57.7323 388.945 61 394.5 L66 403 C93 447 149 483 194 483 L247.5 483 C282.464 483 257.345 399.329 175 241.5 C92.6545 83.6712 106.167 0 214 0 C321.833 0 379.26 1.55909 379.75 4.5 L380.5 9 C384.5 31 389.625 59.25 394.625 87.5 C403.695 138.745 404.012 167.972 396.25 171.125 C391.528 173.043 385.189 162.393 378 140.5 L378 140.5 Z " />
<glyph glyph-name="braceleft" unicode="&#x7b;" horiz-adv-x="222" d="M207 -114 C207 -110.079 203.016 -108 195.5 -108 L184 -108 C163 -108 144.25 -96.75 130.75 -78.375 C101.508 -38.5731 108.827 22.9298 108.5 77.5 L108 161 C108 188.5 101 213.5 89.25 232.875 C68.675 266.802 68.675 275.198 89.25 309.125 C101 328.5 108 353.5 108 381 L108 546 C108 603 142 648 184 648 L195.5 648 C203.016 648 207 650.252 207 654.5 C207 658.748 200.071 661 187 661 L167 661 C102 661 50 610 50 546 L50 339 C50 320.5 45.5 305 37.625 294.125 C23.5016 274.621 5 274.921 5 271 C5 267.079 23.3756 267.6 37.625 248.375 C45.5 237.75 50 222.5 50 204 L50 -5 C50 -68 102 -119 167 -119 L187 -119.5 C200.071 -119.827 207 -117.921 207 -114 L207 -114 Z " />
<glyph glyph-name="bar" unicode="&#x7c;" horiz-adv-x="178" d="M60 268 C60 -60.0747 70.0475 -234 89 -234 C107.953 -234 118 -60.0747 118 268 C118 596.075 107.953 770 89 770 C70.0475 770 60 596.075 60 268 L60 268 Z " />
<glyph glyph-name="braceright" unicode="&#x7d;" horiz-adv-x="222" d="M5 654 C5 650.079 8.98434 648 16.5 648 L28 648 C49 648 67.75 636.75 81.25 618.375 C110.492 578.573 103.173 517.07 103.5 462.5 L104 379 C104 351.5 111 326.5 122.75 307.125 C143.325 273.198 143.325 264.802 122.75 230.875 C111 211.5 104 186.5 104 159 L104 -6 C104 -63 70 -108 28 -108 L16.5 -108 C8.98434 -108 5 -110.252 5 -114.5 C5 -118.748 11.9293 -121 25 -121 L45 -121 C110 -121 162 -70 162 -6 L162 201 C162 219.5 166.5 235 174.375 245.875 C188.498 265.379 207 265.079 207 269 C207 272.921 188.624 272.4 174.375 291.625 C166.5 302.25 162 317.5 162 336 L162 545 C162 608 110 659 45 659 L25 659.5 C11.9293 659.827 5 657.921 5 654 L5 654 Z " />
<glyph glyph-name="asciitilde" unicode="&#x7e;" horiz-adv-x="293" d="M41.75 354.625 C47.75 366 56 373 65 373 C104 373 168 310 207 310 C225.5 310 242.25 322.25 254.375 342.125 C281.709 386.931 271.748 420 267.5 420 C263.252 420 265.175 401.826 249.875 377.625 C243 366.75 233.5 360 223 360 C184 360 121 422 82 422 C64.5 422 48.75 409.5 37.375 389.25 C11.3366 342.896 21.252 310 25.5 310 C29.748 310 27.8226 328.221 41.75 354.625 L41.75 354.625 Z " />
<glyph glyph-name="nbspace" unicode="&#xa0;" horiz-adv-x="178" d="" />
<glyph glyph-name="exclamdown" unicode="&#xa1;" horiz-adv-x="215" d="M101 505 C71 505 47 481 47 451 C47 421 71 397 101 397 C131 397 155 421 155 451 C155 481 131 505 101 505 L101 505 Z M71.375 -149.125 C79.75 -159 92 -165 106 -165 C120.5 -165 132.75 -159 141 -149.125 C158.029 -128.741 158.251 -2.40116 129 196 C116.791 278.811 104.268 322 101 322 C97.7323 322 87.5346 278.633 78 196 C55.0376 -3.00714 54.1516 -128.817 71.375 -149.125 L71.375 -149.125 Z " />
<glyph glyph-name="cent" unicode="&#xa2;" horiz-adv-x="456" d="M246 539 C246 515.473 170.175 501.686 106.375 414.5 C71.25 366.5 50 303 50 233 C50 163.5 70.5 101.75 105.25 58.5 C168.456 -20.1667 246 -17.2995 246 -40.5 C246 -63.7005 250.331 -76 258.5 -76 C266.669 -76 271 -63.1808 271 -39 C271 -14.8192 298.488 0.54694 345.125 20 C386.656 37.3232 403.787 55.5591 401.5 58.5 C399.213 61.4409 381.259 51.0043 345.375 44.125 C297.596 34.9652 271 117.395 271 261.5 C271 405.605 293.023 481.527 313.5 456.375 C325 442.25 333 423.5 335 403 C337 382 354 366 373 366 C382 366 390.25 369.75 396.25 375.75 C407.901 387.401 407.468 439.24 362.875 474 C313.058 512.832 271 516.126 271 539 C271 561.874 266.669 574.173 258.5 574.5 C250.331 574.827 246 562.527 246 539 L246 539 Z M162 126 C141.25 163.25 129 210 129 261 C129 317 141.75 368 162.75 406.875 C197.168 470.588 246 405.164 246 264 C246 122.836 198.456 60.5543 162 126 L162 126 Z " />
<glyph glyph-name="guillemotleft" unicode="&#xab;" horiz-adv-x="393" d="M287.125 362.875 C321.697 427.296 344.614 459.386 342 462 C339.386 464.614 291.443 421.367 215 327.5 C176.941 280.765 158 253.614 158 251 C158 248.386 187.921 204.336 253.125 131.375 C309.307 68.5083 341.559 37.3859 344.5 40 C347.441 42.6141 332.772 67.3682 304.625 113 C251.168 199.665 247.614 289.251 287.125 362.875 L287.125 362.875 Z M151.125 363.875 C185.697 428.296 208.614 460.386 206 463 C203.386 465.614 155.443 422.367 79 328.5 C40.9405 281.765 22 254.614 22 252 C22 249.386 51.9215 205.336 117.125 132.375 C173.307 69.5083 205.559 38.3859 208.5 41 C211.441 43.6141 196.772 68.3682 168.625 114 C115.168 200.665 111.614 290.251 151.125 363.875 L151.125 363.875 Z " />
<glyph glyph-name="acute" unicode="&#xb4;" horiz-adv-x="293" d="M116.125 580.125 C140.5 607.5 168.5 639.5 183 658 C205 683 222 705 222 709 C222 718 191 741 179 741 C178 741 173.75 735 167.625 725.25 C152.175 700.657 123.772 657.917 92.625 598.125 C71.9829 558.498 63.5591 535.787 66.5 533.5 C69.4409 531.213 86.8135 547.206 116.125 580.125 L116.125 580.125 Z " />
<glyph glyph-name="guillemotright" unicode="&#xbb;" horiz-adv-x="393" d="M140.875 130.375 C206.079 203.336 236 247.386 236 250 C236 252.614 217.059 279.765 179 326.5 C102.557 420.367 54.6141 463.614 52 461 C49.3859 458.386 72.3031 426.296 106.875 361.875 C146.386 288.251 143.299 198.165 90.125 111.25 C62.119 65.4736 47.3859 40.7874 50 38.5 C52.6141 36.2126 84.6929 67.5083 140.875 130.375 L140.875 130.375 Z M278.875 129.375 C344.079 202.336 374 246.386 374 249 C374 251.614 355.059 278.765 317 325.5 C240.557 419.367 192.614 462.614 190 460 C187.386 457.386 210.303 425.296 244.875 360.875 C284.386 287.251 281.299 197.165 228.125 110.25 C200.119 64.4736 185.386 39.7874 188 37.5 C190.614 35.2126 222.693 66.5083 278.875 129.375 L278.875 129.375 Z " />
<glyph glyph-name="onequarter" unicode="&#xbc;" horiz-adv-x="768" d="M401 317 C568.959 535.934 652.11 656.504 641 665 C629.89 673.496 534.959 561.934 367 343 C199.041 124.066 115.89 3.49596 127 -5 C138.11 -13.496 233.041 98.0657 401 317 L401 317 Z M590 287.375 C576.201 264.683 542.443 209.409 489.25 129.875 C459.108 84.8066 443 59.2677 443 56 C443 52.7323 460.843 51 494.5 51 C528.157 51 546 41.9919 546 25 C546 8.00808 556.914 -1 577.5 -1 C598.086 -1 609 8.00808 609 25 C609 41.9919 616.795 51 631.5 51 C646.205 51 654 56.0237 654 65.5 C654 74.9763 646.205 80 631.5 80 C616.795 80 609.75 118.629 609.75 191.5 C609.75 218 609.5 241.5 609 285 L609 294.5 C609 300.709 607.441 303.783 604.5 303.375 C601.559 302.967 596.065 297.348 590 287.375 L590 287.375 Z M509.375 127.5 C534.16 164.294 547 165.984 547 132 C547 98.0162 534.874 80 512 80 C489.126 80 488.387 96.342 509.375 127.5 L509.375 127.5 Z M601 304 L600 304 L600 304 L601 304 L601 304 Z M310 423 C307.386 423 294.371 420.496 282.75 431.875 C276.75 437.75 273 446 273 455 L273 628 C273 639.5 277.5 647.5 284.875 652.625 C300.999 663.83 314 661.039 314 663 C314 664.961 288.708 666 241 666 C193.292 666 168 664.961 168 663 C168 661.039 181.272 664.096 197.5 652.625 C204.75 647.5 209 639.5 209 628 L209 455 C209 446 205.5 437.75 199.75 431.875 C188.587 420.469 175.441 423 172.5 423 C169.559 423 168 421.787 168 419.5 C168 417.213 193.292 416 241 416 C288.708 416 314 417.213 314 419.5 C314 421.787 312.614 423 310 423 L310 423 Z " />
<glyph glyph-name="onehalf" unicode="&#xbd;" horiz-adv-x="768" d="M401 317 C568.959 535.934 652.11 656.504 641 665 C629.89 673.496 534.959 561.934 367 343 C199.041 124.066 115.89 3.49596 127 -5 C138.11 -13.496 233.041 98.0657 401 317 L401 317 Z M637.75 75.875 C631.75 68.5 623 64 612 64 L578.5 64 C556.607 64 575.705 78.3931 617.5 122.875 C635 141.5 645 159.5 645 178 C645 220 611 253 569 253 C551.5 253 532.25 244.75 515.375 231.5 C482.052 205.336 477.213 179.134 479.5 177.5 C481.787 175.866 486.834 186.972 504 196.875 C513.75 202.5 525.5 206 537 206 C558 206 574 184 574 156 C574 120.5 560.5 96.75 538.625 76 C488.5 28.453 453 11.5747 453 7 C453 2.42525 459.929 4.85051 473 14 C486.071 23.1495 486.915 20.2238 472.375 9.25 C461.868 1.32018 487.261 1 550 1 C612.739 1 646.866 11.7404 648.5 32 C650.134 52.2596 651.498 70.8573 653 85.625 C654.354 98.9361 653.614 105.827 651 105.5 C648.386 105.173 650.354 91.3668 637.75 75.875 L637.75 75.875 Z M311 423 C308.386 423 295.371 420.496 283.75 431.875 C277.75 437.75 274 446 274 455 L274 628 C274 639.5 278.5 647.5 285.875 652.625 C301.999 663.83 315 661.039 315 663 C315 664.961 289.708 666 242 666 C194.292 666 169 664.961 169 663 C169 661.039 182.272 664.096 198.5 652.625 C205.75 647.5 210 639.5 210 628 L210 455 C210 446 206.5 437.75 200.75 431.875 C189.587 420.469 176.441 423 173.5 423 C170.559 423 169 421.787 169 419.5 C169 417.213 194.292 416 242 416 C289.708 416 315 417.213 315 419.5 C315 421.787 313.614 423 311 423 L311 423 Z " />
<glyph glyph-name="threequarters" unicode="&#xbe;" horiz-adv-x="768" d="M143 499 C143 495.732 148.192 495.994 158.375 498.125 C163.75 499.25 169 500 173 500 C208 500 236 479 236 454 C236 427 223.25 402 202.5 383.25 C159.819 344.682 121.173 348.268 121.5 345 C121.827 341.732 176.452 331.934 250 379.375 C282.75 400.5 303 428 303 457 C303 474 295 489.75 281.25 502.5 C251.245 530.323 245.703 538.215 272.125 567.25 C283.5 579.75 290 592 290 603 C290 639 259 668 221 668 C202.5 668 181.5 660 162.25 647 C124.226 621.321 115.386 595.307 118 594 C120.614 592.693 128.143 603.776 147.875 612.5 C159.75 617.75 174 621 188 621 C209 621 226 604 226 583 C226 575 223.25 566.5 218.375 558.125 C207.993 540.289 196.441 534 193.5 534 C190.559 534 190.386 533.654 193 533 C195.614 532.346 189.756 524.566 172.875 516.125 C154.299 506.837 143 502.268 143 499 L143 499 Z M402 317 C569.959 535.934 653.11 656.504 642 665 C630.89 673.496 535.959 561.934 368 343 C200.041 124.066 116.89 3.49596 128 -5 C139.11 -13.496 234.041 98.0657 402 317 L402 317 Z M591 287.375 C577.201 264.683 543.443 209.409 490.25 129.875 C460.108 84.8066 444 59.2677 444 56 C444 52.7323 461.843 51 495.5 51 C529.157 51 547 41.9919 547 25 C547 8.00808 557.914 -1 578.5 -1 C599.086 -1 610 8.00808 610 25 C610 41.9919 617.795 51 632.5 51 C647.205 51 655 56.0237 655 65.5 C655 74.9763 647.205 80 632.5 80 C617.795 80 610.75 118.629 610.75 191.5 C610.75 218 610.5 241.5 610 285 L610 294.5 C610 300.709 608.441 303.783 605.5 303.375 C602.559 302.967 597.065 297.348 591 287.375 L591 287.375 Z M510.375 127.5 C535.16 164.294 548 165.984 548 132 C548 98.0162 535.874 80 513 80 C490.126 80 489.387 96.342 510.375 127.5 L510.375 127.5 Z M602 304 L601 304 L601 304 L602 304 L602 304 Z " />
<glyph glyph-name="questiondown" unicode="&#xbf;" horiz-adv-x="331" d="M203 505 C173 505 149 481 149 451 C149 421 173 397 203 397 C233 397 257 421 257 451 C257 481 233 505 203 505 L203 505 Z M220 -165 C260 -165 292 -137 292 -102 C292 -86 276 -74 256 -74 C239 -74 213 -106 196 -106 C116 -106 52 -33 52 58 C52 82 80 129 176 129 L211 129 C219 129 225 134 224 140 L216 228.5 C210.772 286.338 206.268 317 203 317 C199.732 317 195.748 294.307 191.5 251.5 C187.252 208.693 178.937 186 167.5 186 L150 186 C61 186 35 107 35 67 C35 -62 117 -165 220 -165 L220 -165 Z " />
<glyph glyph-name="Agrave" unicode="&#xc0;" horiz-adv-x="634" d="M109.5 0 C182.369 0 221 2.25202 221 6.5 C221 10.748 215.283 13 204.5 13 C193.717 13 158.899 6.83933 139.125 36.125 C129.25 50.75 126.5 71 133 93 L155.5 164.5 C170.205 211.228 215.072 236 285 236 C354.928 236 401.528 208.629 419.5 157 C437.472 105.371 460.835 57.3243 444.375 32.5 C436.75 21 423 14 405 14 L383.5 14 C369.449 14 362 11.748 362 7.5 C362 3.25202 408.773 1 497 1 C585.227 1 632 3.25202 632 7.5 C632 11.748 630.094 14 626.5 14 L621 14 C604.5 14 586.625 21 571.25 32.5 C541.288 54.9108 498.129 181.593 425.75 377 C353.371 572.407 311.362 676 304.5 676 C297.638 676 260.393 571.714 197 375 L100 74 C93.5 57 81 41.75 65.75 30.875 C37.2923 10.5814 12.0551 14 6.5 14 C0.944949 14 -2 11.5747 -2 7 C-2 2.42525 36.6308 0 109.5 0 L109.5 0 Z M222 870 C222 867.5 226.5 860.75 233.75 851.625 C251.295 829.542 284.34 790.678 330.375 740.75 C360.581 707.99 378.559 692.213 381.5 694.5 C384.441 696.787 375.432 719.478 353.875 759.125 C321.43 818.796 293.065 861.872 277.125 886.25 C270.75 896 266 902 264 902 C252 902 222 879 222 870 L222 870 Z M284 257 C218.646 257 200.457 309.316 231.5 408 C262.543 506.684 297.189 506.684 331.5 408 C365.811 309.316 349.354 257 284 257 L284 257 Z " />
<glyph glyph-name="Aacute" unicode="&#xc1;" horiz-adv-x="634" d="M289.125 740.125 C313.5 767.5 341.5 799.5 356 818 C378 843 395 865 395 869 C395 878 364 901 352 901 C351 901 346.75 895 340.625 885.25 C325.175 860.657 296.772 817.917 265.625 758.125 C244.983 718.498 236.559 695.787 239.5 693.5 C242.441 691.213 259.814 707.206 289.125 740.125 L289.125 740.125 Z M109.5 0 C182.369 0 221 2.25202 221 6.5 C221 10.748 215.283 13 204.5 13 C193.717 13 158.899 6.83933 139.125 36.125 C129.25 50.75 126.5 71 133 93 L155.5 164.5 C170.205 211.228 215.072 236 285 236 C354.928 236 401.528 208.629 419.5 157 C437.472 105.371 460.835 57.3243 444.375 32.5 C436.75 21 423 14 405 14 L383.5 14 C369.449 14 362 11.748 362 7.5 C362 3.25202 408.773 1 497 1 C585.227 1 632 3.25202 632 7.5 C632 11.748 630.094 14 626.5 14 L621 14 C604.5 14 586.625 21 571.25 32.5 C541.288 54.9108 498.129 181.593 425.75 377 C353.371 572.407 311.362 676 304.5 676 C297.638 676 260.393 571.714 197 375 L100 74 C93.5 57 81 41.75 65.75 30.875 C37.2923 10.5814 12.0551 14 6.5 14 C0.944949 14 -2 11.5747 -2 7 C-2 2.42525 36.6308 0 109.5 0 L109.5 0 Z M284 257 C218.646 257 200.457 309.316 231.5 408 C262.543 506.684 297.189 506.684 331.5 408 C365.811 309.316 349.354 257 284 257 L284 257 Z " />
<glyph glyph-name="Acircumflex" unicode="&#xc2;" horiz-adv-x="634" d="M109.5 0 C182.369 0 221 2.25202 221 6.5 C221 10.748 215.283 13 204.5 13 C193.717 13 158.899 6.83933 139.125 36.125 C129.25 50.75 126.5 71 133 93 L155.5 164.5 C170.205 211.228 215.072 236 285 236 C354.928 236 401.528 208.629 419.5 157 C437.472 105.371 460.835 57.3243 444.375 32.5 C436.75 21 423 14 405 14 L383.5 14 C369.449 14 362 11.748 362 7.5 C362 3.25202 408.773 1 497 1 C585.227 1 632 3.25202 632 7.5 C632 11.748 630.094 14 626.5 14 L621 14 C604.5 14 586.625 21 571.25 32.5 C541.288 54.9108 498.129 181.593 425.75 377 C353.371 572.407 311.362 676 304.5 676 C297.638 676 260.393 571.714 197 375 L100 74 C93.5 57 81 41.75 65.75 30.875 C37.2923 10.5814 12.0551 14 6.5 14 C0.944949 14 -2 11.5747 -2 7 C-2 2.42525 36.6308 0 109.5 0 L109.5 0 Z M319.5 897.75 C315.5 902.25 310.5 906 305 906 C299 906 293.75 902.25 289.625 897.75 C282.827 890.334 264.501 851.867 233.875 789.125 C205.645 731.292 193.386 698.787 196 696.5 C198.614 694.213 220.729 716.886 256.875 764.25 C288.307 805.437 326.409 797.66 370.375 741.75 C395.501 709.798 410.386 694.213 413 696.5 C415.614 698.787 408.254 718.428 391.625 753.125 C350.269 839.418 326.153 890.265 319.5 897.75 L319.5 897.75 Z M284 257 C218.646 257 200.457 309.316 231.5 408 C262.543 506.684 297.189 506.684 331.5 408 C365.811 309.316 349.354 257 284 257 L284 257 Z " />
<glyph glyph-name="Atilde" unicode="&#xc3;" horiz-adv-x="634" d="M199.75 799.625 C205.75 811 214 818 223 818 C262 818 326 755 365 755 C383.5 755 400.25 767.25 412.375 787.125 C439.709 831.931 429.748 865 425.5 865 C421.252 865 423.175 846.826 407.875 822.625 C401 811.75 391.5 805 381 805 C342 805 279 867 240 867 C222.5 867 206.75 854.5 195.375 834.25 C169.337 787.896 179.252 755 183.5 755 C187.748 755 185.823 773.221 199.75 799.625 L199.75 799.625 Z M109.5 0 C182.369 0 221 2.25202 221 6.5 C221 10.748 215.283 13 204.5 13 C193.717 13 158.899 6.83933 139.125 36.125 C129.25 50.75 126.5 71 133 93 L155.5 164.5 C170.205 211.228 215.072 236 285 236 C354.928 236 401.528 208.629 419.5 157 C437.472 105.371 460.835 57.3243 444.375 32.5 C436.75 21 423 14 405 14 L383.5 14 C369.449 14 362 11.748 362 7.5 C362 3.25202 408.773 1 497 1 C585.227 1 632 3.25202 632 7.5 C632 11.748 630.094 14 626.5 14 L621 14 C604.5 14 586.625 21 571.25 32.5 C541.288 54.9108 498.129 181.593 425.75 377 C353.371 572.407 311.362 676 304.5 676 C297.638 676 260.393 571.714 197 375 L100 74 C93.5 57 81 41.75 65.75 30.875 C37.2923 10.5814 12.0551 14 6.5 14 C0.944949 14 -2 11.5747 -2 7 C-2 2.42525 36.6308 0 109.5 0 L109.5 0 Z M284 257 C218.646 257 200.457 309.316 231.5 408 C262.543 506.684 297.189 506.684 331.5 408 C365.811 309.316 349.354 257 284 257 L284 257 Z " />
<glyph glyph-name="Adieresis" unicode="&#xc4;" horiz-adv-x="634" d="M395 730 C421 730 441 750 441 776 C441 802 421 822 395 822 C369 822 349 802 349 776 C349 750 369 730 395 730 L395 730 Z M214 730 C240 730 260 750 260 776 C260 802 240 822 214 822 C188 822 168 802 168 776 C168 750 188 730 214 730 L214 730 Z M109.5 0 C182.369 0 221 2.25202 221 6.5 C221 10.748 215.283 13 204.5 13 C193.717 13 158.899 6.83933 139.125 36.125 C129.25 50.75 126.5 71 133 93 L155.5 164.5 C170.205 211.228 215.072 236 285 236 C354.928 236 401.528 208.629 419.5 157 C437.472 105.371 460.835 57.3243 444.375 32.5 C436.75 21 423 14 405 14 L383.5 14 C369.449 14 362 11.748 362 7.5 C362 3.25202 408.773 1 497 1 C585.227 1 632 3.25202 632 7.5 C632 11.748 630.094 14 626.5 14 L621 14 C604.5 14 586.625 21 571.25 32.5 C541.288 54.9108 498.129 181.593 425.75 377 C353.371 572.407 311.362 676 304.5 676 C297.638 676 260.393 571.714 197 375 L100 74 C93.5 57 81 41.75 65.75 30.875 C37.2923 10.5814 12.0551 14 6.5 14 C0.944949 14 -2 11.5747 -2 7 C-2 2.42525 36.6308 0 109.5 0 L109.5 0 Z M284 257 C218.646 257 200.457 309.316 231.5 408 C262.543 506.684 297.189 506.684 331.5 408 C365.811 309.316 349.354 257 284 257 L284 257 Z " />
<glyph glyph-name="Aring" unicode="&#xc5;" horiz-adv-x="634" d="M231 788 C231 830 264 863 305 863 C346 863 378 830 378 788 C378 750 341 712 305 712 C268 712 231 750 231 788 L231 788 Z M210 788 C210 742 258 695 305 695 C352 695 399 742 399 788 C399 839 357 880 305 880 C252 880 210 839 210 788 L210 788 Z M109.5 0 C182.369 0 221 2.25202 221 6.5 C221 10.748 215.283 13 204.5 13 C193.717 13 158.899 6.83933 139.125 36.125 C129.25 50.75 126.5 71 133 93 L155.5 164.5 C170.205 211.228 215.072 236 285 236 C354.928 236 401.528 208.629 419.5 157 C437.472 105.371 460.835 57.3243 444.375 32.5 C436.75 21 423 14 405 14 L383.5 14 C369.449 14 362 11.748 362 7.5 C362 3.25202 408.773 1 497 1 C585.227 1 632 3.25202 632 7.5 C632 11.748 630.094 14 626.5 14 L621 14 C604.5 14 586.625 21 571.25 32.5 C541.288 54.9108 498.129 181.593 425.75 377 C353.371 572.407 311.362 676 304.5 676 C297.638 676 260.393 571.714 197 375 L100 74 C93.5 57 81 41.75 65.75 30.875 C37.2923 10.5814 12.0551 14 6.5 14 C0.944949 14 -2 11.5747 -2 7 C-2 2.42525 36.6308 0 109.5 0 L109.5 0 Z M284 257 C218.646 257 200.457 309.316 231.5 408 C262.543 506.684 297.189 506.684 331.5 408 C365.811 309.316 349.354 257 284 257 L284 257 Z " />
<glyph glyph-name="Ccedilla" unicode="&#xc7;" horiz-adv-x="673" d="M344.5 -88 C342.866 -91.9212 342.953 -91.9212 344.75 -88 C346.547 -84.0788 346.134 -84.0788 344.5 -88 L344.5 -88 Z M593.5 187 C591.75 180.25 590 173.5 589 168 C572 96 499 32 421 19 C405 17 390 16 376 16 C249 16 147 156 147 330 C147 504 249 644 376 644 C399 644 425 641 452 636 C513 622 573 559 588 491 C589 485.5 590.75 478.75 592.5 472 C595.702 459.648 599.945 453 605.5 453 C611.055 453 614 478.985 614 528 C614 577.015 577.608 626.094 501.375 645.875 C458.5 657 413.5 664 376 664 C198 664 55 515 55 329 C55 237 89.75 154.25 146.375 94 C255.606 -22.2238 364.714 -16.719 357.125 -37.125 C343.596 -73.5034 338.039 -93.3465 340 -94 C341.961 -94.6535 350.592 -89.9683 366.5 -84.5 C374.5 -81.75 382 -80 387 -80 C411 -80 431 -104 431 -135 C431 -171 405 -199 372 -199 C358.5 -199 344.75 -197.75 333.375 -195.75 C316.912 -192.855 308.48 -189.386 307.5 -192 C306.52 -194.614 317.093 -205.971 342.375 -213.75 C357 -218.25 373 -221 387 -221 C436 -221 476 -183 476 -135 C476 -96 444 -65 405 -65 C396 -65 385.25 -66.5 375.125 -69 C357.376 -73.3824 354.447 -58.6543 375.375 -26.375 C384.724 -11.9547 435.081 -7.03755 511.5 13.5 C582.234 32.5098 614.961 55.7323 613 59 C611.039 62.2677 610.866 62.2677 612.5 59 C614.134 55.7323 615 80.1581 615 129.5 C615 178.842 612.055 205.173 606.5 205.5 C600.945 205.827 596.702 199.352 593.5 187 L593.5 187 Z " />
<glyph glyph-name="Egrave" unicode="&#xc8;" horiz-adv-x="593" d="M193 869 C193 866.5 197.5 859.75 204.75 850.625 C222.295 828.542 255.448 789.608 301.875 739.75 C332.395 706.975 350.386 691.213 353 693.5 C355.614 695.787 346.627 718.485 325.375 758.125 C293.362 817.837 265.065 860.872 249.125 885.25 C242.75 895 238 901 236 901 C224 901 193 878 193 869 L193 869 Z M407 347 C407 410.393 404.748 444 400.5 444 C396.252 444 393.654 441.921 393 438 L392 432 C385 393 341 362 294 362 L249.5 362 C220.418 362 205 409.985 205 500.5 C205 591.015 226.308 639 266.5 639 L328 639 C384 639 437 595 449 539 L453.5 518 C456.441 504.276 460.425 497 465 497 C469.575 497 472 525.237 472 578.5 C472 631.763 397.164 660 256 660 C114.836 660 40 657.748 40 653.5 C40 649.252 42.9449 647 48.5 647 C54.0551 647 80.03 651.601 103 628.875 C114.75 617.25 122 601 122 583 L122 77 C122 59 114.75 42.75 103 31.125 C80.03 8.39939 54.0551 13 48.5 13 C42.9449 13 40 10.748 40 6.5 C40 2.25202 115.356 0 257.5 0 C399.644 0 475.346 1.73232 476 5 C476.654 8.26768 481.498 36.5366 490.5 86.5 C499.502 136.463 501.575 163 497 163 C492.425 163 487.228 155.724 482 142 L474 121 C452 66 391 21 335 21 L270 21 C227.52 21 205 76.6076 205 181.5 C205 286.392 220.418 342 249.5 342 L294 342 C342 342 385 307 392 264 L393 257 C393.654 252.425 396.252 250 400.5 250 C404.748 250 407 283.607 407 347 L407 347 Z " />
<glyph glyph-name="Eacute" unicode="&#xc9;" horiz-adv-x="593" d="M306.625 740.125 C331.25 767.5 359.5 799.5 374 818 C396 843 413 865 413 869 C413 878 382 901 370 901 C368.5 901 364 895 357.75 885.25 C342.054 860.764 313.837 817.956 283.125 758.125 C262.787 718.505 254.386 695.787 257 693.5 C259.614 691.213 277 707.192 306.625 740.125 L306.625 740.125 Z M407 347 C407 410.393 404.748 444 400.5 444 C396.252 444 393.654 441.921 393 438 L392 432 C385 393 341 362 294 362 L249.5 362 C220.418 362 205 409.985 205 500.5 C205 591.015 226.308 639 266.5 639 L328 639 C384 639 437 595 449 539 L453.5 518 C456.441 504.276 460.425 497 465 497 C469.575 497 472 525.237 472 578.5 C472 631.763 397.164 660 256 660 C114.836 660 40 657.748 40 653.5 C40 649.252 42.9449 647 48.5 647 C54.0551 647 80.03 651.601 103 628.875 C114.75 617.25 122 601 122 583 L122 77 C122 59 114.75 42.75 103 31.125 C80.03 8.39939 54.0551 13 48.5 13 C42.9449 13 40 10.748 40 6.5 C40 2.25202 115.356 0 257.5 0 C399.644 0 475.346 1.73232 476 5 C476.654 8.26768 481.498 36.5366 490.5 86.5 C499.502 136.463 501.575 163 497 163 C492.425 163 487.228 155.724 482 142 L474 121 C452 66 391 21 335 21 L270 21 C227.52 21 205 76.6076 205 181.5 C205 286.392 220.418 342 249.5 342 L294 342 C342 342 385 307 392 264 L393 257 C393.654 252.425 396.252 250 400.5 250 C404.748 250 407 283.607 407 347 L407 347 Z " />
<glyph glyph-name="Ecircumflex" unicode="&#xca;" horiz-adv-x="593" d="M307.375 896.75 C303.25 901.25 298 905 292 905 C286 905 280.75 901.25 276.625 896.75 C269.827 889.334 251.345 850.641 220.625 787.375 C192.86 730.193 181.386 697.787 184 695.5 C186.614 693.213 208.729 715.886 244.875 763.25 C276.307 804.437 314.26 796.853 357.875 741.25 C382.679 709.629 397.386 694.213 400 696.5 C402.614 698.787 395.647 718.253 379.5 752.5 C338.675 839.088 314.173 889.334 307.375 896.75 L307.375 896.75 Z M407 348 C407 411.393 404.748 445 400.5 445 C396.252 445 393.654 442.921 393 439 L392 433 C385 394 341 363 294 363 L249.5 363 C220.418 363 205 410.985 205 501.5 C205 592.015 226.308 640 266.5 640 L328 640 C384 640 437 596 449 540 L453.5 519 C456.441 505.276 460.425 498 465 498 C469.575 498 472 526.237 472 579.5 C472 632.763 397.164 661 256 661 C114.836 661 40 658.748 40 654.5 C40 650.252 42.9449 648 48.5 648 C54.0551 648 80.03 652.601 103 629.875 C114.75 618.25 122 602 122 584 L122 78 C122 60 114.75 43.75 103 32.125 C80.03 9.39939 54.0551 14 48.5 14 C42.9449 14 40 11.748 40 7.5 C40 3.25202 115.356 1 257.5 1 C399.644 1 475.346 2.73232 476 6 C476.654 9.26768 481.498 37.5366 490.5 87.5 C499.502 137.463 501.575 164 497 164 C492.425 164 487.228 156.724 482 143 L474 122 C452 67 391 22 335 22 L270 22 C227.52 22 205 77.6076 205 182.5 C205 287.392 220.418 343 249.5 343 L294 343 C342 343 385 308 392 265 L393 258 C393.654 253.425 396.252 251 400.5 251 C404.748 251 407 284.607 407 348 L407 348 Z " />
<glyph glyph-name="Edieresis" unicode="&#xcb;" horiz-adv-x="593" d="M383 730 C409 730 429 750 429 776 C429 802 409 822 383 822 C357 822 337 802 337 776 C337 750 357 730 383 730 L383 730 Z M201 730 C227 730 247 750 247 776 C247 802 227 822 201 822 C175 822 155 802 155 776 C155 750 175 730 201 730 L201 730 Z M407 347 C407 410.393 404.748 444 400.5 444 C396.252 444 393.654 441.921 393 438 L392 432 C385 393 341 362 294 362 L249.5 362 C220.418 362 205 409.985 205 500.5 C205 591.015 226.308 639 266.5 639 L328 639 C384 639 437 595 449 539 L453.5 518 C456.441 504.276 460.425 497 465 497 C469.575 497 472 525.237 472 578.5 C472 631.763 397.164 660 256 660 C114.836 660 40 657.748 40 653.5 C40 649.252 42.9449 647 48.5 647 C54.0551 647 80.03 651.601 103 628.875 C114.75 617.25 122 601 122 583 L122 77 C122 59 114.75 42.75 103 31.125 C80.03 8.39939 54.0551 13 48.5 13 C42.9449 13 40 10.748 40 6.5 C40 2.25202 115.356 0 257.5 0 C399.644 0 475.346 1.73232 476 5 C476.654 8.26768 481.498 36.5366 490.5 86.5 C499.502 136.463 501.575 163 497 163 C492.425 163 487.228 155.724 482 142 L474 121 C452 66 391 21 335 21 L270 21 C227.52 21 205 76.6076 205 181.5 C205 286.392 220.418 342 249.5 342 L294 342 C342 342 385 307 392 264 L393 257 C393.654 252.425 396.252 250 400.5 250 C404.748 250 407 283.607 407 347 L407 347 Z " />
<glyph glyph-name="Igrave" unicode="&#xcc;" horiz-adv-x="326" d="M81 869 C81 866.5 85.5 859.75 92.75 850.625 C110.295 828.542 143.448 789.608 189.875 739.75 C220.395 706.975 238.386 691.213 241 693.5 C243.614 695.787 234.627 718.485 213.375 758.125 C181.362 817.837 153.065 860.872 137.125 885.25 C130.75 895 126 901 124 901 C112 901 81 878 81 869 L81 869 Z M278.5 13 C272.945 13 246.97 8.39939 224 31.125 C212.25 42.75 205 59 205 77 L205 583 C205 601 212.25 617.25 224 628.875 C246.97 651.601 272.945 647 278.5 647 C284.055 647 287 649.252 287 653.5 C287 657.748 244.212 660 163.5 660 C82.7884 660 40 657.748 40 653.5 C40 649.252 42.9449 647 48.5 647 C54.0551 647 80.03 651.601 103 628.875 C114.75 617.25 122 601 122 583 L122 77 C122 59 114.75 42.75 103 31.125 C80.03 8.39939 54.0551 13 48.5 13 C42.9449 13 40 10.748 40 6.5 C40 2.25202 82.7884 0 163.5 0 C244.212 0 287 2.25202 287 6.5 C287 10.748 284.055 13 278.5 13 L278.5 13 Z " />
<glyph glyph-name="Iacute" unicode="&#xcd;" horiz-adv-x="326" d="M147.625 740.125 C172.25 767.5 200.5 799.5 215 818 C237 843 254 865 254 869 C254 878 223 901 211 901 C209.5 901 205 895 198.75 885.25 C183.054 860.764 154.837 817.956 124.125 758.125 C103.787 718.505 95.3859 695.787 98 693.5 C100.614 691.213 118 707.192 147.625 740.125 L147.625 740.125 Z M278.5 13 C272.945 13 246.97 8.39939 224 31.125 C212.25 42.75 205 59 205 77 L205 583 C205 601 212.25 617.25 224 628.875 C246.97 651.601 272.945 647 278.5 647 C284.055 647 287 649.252 287 653.5 C287 657.748 244.212 660 163.5 660 C82.7884 660 40 657.748 40 653.5 C40 649.252 42.9449 647 48.5 647 C54.0551 647 80.03 651.601 103 628.875 C114.75 617.25 122 601 122 583 L122 77 C122 59 114.75 42.75 103 31.125 C80.03 8.39939 54.0551 13 48.5 13 C42.9449 13 40 10.748 40 6.5 C40 2.25202 82.7884 0 163.5 0 C244.212 0 287 2.25202 287 6.5 C287 10.748 284.055 13 278.5 13 L278.5 13 Z " />
<glyph glyph-name="Icircumflex" unicode="&#xce;" horiz-adv-x="326" d="M179.375 896.75 C175.25 901.25 170 905 164 905 C158 905 152.75 901.25 148.625 896.75 C141.827 889.334 123.345 850.641 92.625 787.375 C64.8596 730.193 53.3859 697.787 56 695.5 C58.6141 693.213 80.7291 715.886 116.875 763.25 C148.307 804.437 186.26 796.853 229.875 741.25 C254.679 709.629 269.386 694.213 272 696.5 C274.614 698.787 267.647 718.253 251.5 752.5 C210.675 839.088 186.173 889.334 179.375 896.75 L179.375 896.75 Z M278.5 14 C272.945 14 246.97 9.39939 224 32.125 C212.25 43.75 205 60 205 78 L205 584 C205 602 212.25 618.25 224 629.875 C246.97 652.601 272.945 648 278.5 648 C284.055 648 287 650.252 287 654.5 C287 658.748 244.212 661 163.5 661 C82.7884 661 40 658.748 40 654.5 C40 650.252 42.9449 648 48.5 648 C54.0551 648 80.03 652.601 103 629.875 C114.75 618.25 122 602 122 584 L122 78 C122 60 114.75 43.75 103 32.125 C80.03 9.39939 54.0551 14 48.5 14 C42.9449 14 40 11.748 40 7.5 C40 3.25202 82.7884 1 163.5 1 C244.212 1 287 3.25202 287 7.5 C287 11.748 284.055 14 278.5 14 L278.5 14 Z " />
<glyph glyph-name="Idieresis" unicode="&#xcf;" horiz-adv-x="326" d="M255 730 C281 730 301 750 301 776 C301 802 281 822 255 822 C229 822 209 802 209 776 C209 750 229 730 255 730 L255 730 Z M73 730 C99 730 119 750 119 776 C119 802 99 822 73 822 C47 822 27 802 27 776 C27 750 47 730 73 730 L73 730 Z M278.5 13 C272.945 13 246.97 8.39939 224 31.125 C212.25 42.75 205 59 205 77 L205 583 C205 601 212.25 617.25 224 628.875 C246.97 651.601 272.945 647 278.5 647 C284.055 647 287 649.252 287 653.5 C287 657.748 244.212 660 163.5 660 C82.7884 660 40 657.748 40 653.5 C40 649.252 42.9449 647 48.5 647 C54.0551 647 80.03 651.601 103 628.875 C114.75 617.25 122 601 122 583 L122 77 C122 59 114.75 42.75 103 31.125 C80.03 8.39939 54.0551 13 48.5 13 C42.9449 13 40 10.748 40 6.5 C40 2.25202 82.7884 0 163.5 0 C244.212 0 287 2.25202 287 6.5 C287 10.748 284.055 13 278.5 13 L278.5 13 Z " />
<glyph glyph-name="Ntilde" unicode="&#xd1;" horiz-adv-x="687" d="M238.875 799.625 C245 811 253.5 818 263 818 C302 818 366 755 405 755 C423.5 755 440 767.25 451.875 787.125 C478.755 832.113 468.921 865 465 865 C461.079 865 463.175 846.826 447.875 822.625 C441 811.75 431.5 805 421 805 C382 805 318 867 279 867 C262 867 246.5 854.5 235.25 834.25 C209.439 787.79 219.079 755 223 755 C226.921 755 224.714 773.326 238.875 799.625 L238.875 799.625 Z M49.5 647 C55.0551 647 81.03 651.601 104 628.875 C115.75 617.25 123 601 123 583 L123 77 C123 59 115.75 42.75 104 31.125 C81.03 8.39939 55.0551 13 49.5 13 C43.9449 13 41 10.748 41 6.5 C41 2.25202 73.7409 0 135.5 0 C197.259 0 230 2.25202 230 6.5 C230 10.748 227.055 13 221.5 13 C215.945 13 189.97 8.39939 167 31.125 C155.25 42.75 148 59 148 77 L148 330 C148 495.344 215.113 479.135 341.375 283 C467.493 87.088 539.37 -17 549.5 -17 C559.63 -17 565 86.9394 565 283 L565 583 C565 601 572.25 617.25 584 628.875 C606.97 651.601 632.945 647 638.5 647 C644.055 647 647 649.252 647 653.5 C647 657.748 614.259 660 552.5 660 C490.741 660 458 657.748 458 653.5 C458 649.252 460.945 647 466.5 647 C472.055 647 498.03 651.601 521 628.875 C532.75 617.25 540 601 540 583 L540 353.5 C540 203.514 480.581 216.853 368.5 392 C256.419 567.147 169.976 660 119 660 C68.0242 660 41 657.748 41 653.5 C41 649.252 43.9449 647 49.5 647 L49.5 647 Z " />
<glyph glyph-name="Ograve" unicode="&#xd2;" horiz-adv-x="721" d="M146 330 C146 487 231 644 363 644 C495 644 580 487 580 330 C580 173 495 16 363 16 C231 16 146 173 146 330 L146 330 Z M54 330 C54 163 174 -5 363 -5 C551 -5 671 163 671 330 C671 497 551 665 363 665 C174 665 54 497 54 330 L54 330 Z M280 869 C280 866.5 284.5 859.75 291.75 850.625 C309.295 828.542 342.34 789.678 388.375 739.75 C418.581 706.99 436.559 691.213 439.5 693.5 C442.441 695.787 433.432 718.478 411.875 758.125 C379.43 817.796 351.065 860.872 335.125 885.25 C328.75 895 324 901 322 901 C310 901 280 878 280 869 L280 869 Z " />
<glyph glyph-name="Oacute" unicode="&#xd3;" horiz-adv-x="721" d="M384.125 740.125 C408.5 767.5 436.5 799.5 451 818 C473 843 490 865 490 869 C490 878 459 901 447 901 C446 901 441.75 895 435.625 885.25 C420.175 860.657 391.772 817.917 360.625 758.125 C339.983 718.498 331.559 695.787 334.5 693.5 C337.441 691.213 354.814 707.206 384.125 740.125 L384.125 740.125 Z M146 330 C146 487 231 644 363 644 C495 644 580 487 580 330 C580 173 495 16 363 16 C231 16 146 173 146 330 L146 330 Z M54 330 C54 163 174 -5 363 -5 C551 -5 671 163 671 330 C671 497 551 665 363 665 C174 665 54 497 54 330 L54 330 Z " />
<glyph glyph-name="Ocircumflex" unicode="&#xd4;" horiz-adv-x="721" d="M146 330 C146 487 231 644 363 644 C495 644 580 487 580 330 C580 173 495 16 363 16 C231 16 146 173 146 330 L146 330 Z M54 330 C54 163 174 -5 363 -5 C551 -5 671 163 671 330 C671 497 551 665 363 665 C174 665 54 497 54 330 L54 330 Z M377.5 896.75 C373.5 901.25 368.5 905 363 905 C357 905 351.75 901.25 347.625 896.75 C340.827 889.334 322.501 850.867 291.875 788.125 C263.645 730.292 251.386 697.787 254 695.5 C256.614 693.213 278.729 715.886 314.875 763.25 C346.307 804.437 384.409 796.66 428.375 740.75 C453.501 708.798 468.386 693.213 471 695.5 C473.614 697.787 466.254 717.428 449.625 752.125 C408.269 838.418 384.153 889.265 377.5 896.75 L377.5 896.75 Z " />
<glyph glyph-name="Otilde" unicode="&#xd5;" horiz-adv-x="721" d="M257.75 799.625 C263.75 811 272 818 281 818 C320 818 384 755 423 755 C441.5 755 458.25 767.25 470.375 787.125 C497.709 831.931 487.748 865 483.5 865 C479.252 865 481.175 846.826 465.875 822.625 C459 811.75 449.5 805 439 805 C400 805 337 867 298 867 C280.5 867 264.75 854.5 253.375 834.25 C227.337 787.896 237.252 755 241.5 755 C245.748 755 243.823 773.221 257.75 799.625 L257.75 799.625 Z M146 330 C146 487 231 644 363 644 C495 644 580 487 580 330 C580 173 495 16 363 16 C231 16 146 173 146 330 L146 330 Z M54 330 C54 163 174 -5 363 -5 C551 -5 671 163 671 330 C671 497 551 665 363 665 C174 665 54 497 54 330 L54 330 Z " />
<glyph glyph-name="Odieresis" unicode="&#xd6;" horiz-adv-x="721" d="M453 730 C479 730 499 750 499 776 C499 802 479 822 453 822 C427 822 407 802 407 776 C407 750 427 730 453 730 L453 730 Z M272 730 C298 730 318 750 318 776 C318 802 298 822 272 822 C246 822 226 802 226 776 C226 750 246 730 272 730 L272 730 Z M146 330 C146 487 231 644 363 644 C495 644 580 487 580 330 C580 173 495 16 363 16 C231 16 146 173 146 330 L146 330 Z M54 330 C54 163 174 -5 363 -5 C551 -5 671 163 671 330 C671 497 551 665 363 665 C174 665 54 497 54 330 L54 330 Z " />
<glyph glyph-name="Oslash" unicode="&#xd8;" horiz-adv-x="721" d="M112.5 30.5 C141.582 62.1965 182.039 45.8366 248 17.875 C282.5 3.25 321 -5 363 -5 C551 -5 671 163 671 330 C671 370 664 410.25 650.75 448.25 C625.012 522.064 608.764 570.15 638.5 602.5 C668.236 634.85 679.149 656.504 670 665 C660.851 673.496 640.582 661.196 611.5 629.5 C582.418 597.804 541.987 614.104 476.125 642.125 C441.75 656.75 403.5 665 362 665 C173 665 53 497 53 330 C53 290 60 250 73.25 212.25 C99.0448 138.759 115.236 90.85 85.5 58.5 C55.7641 26.15 44.8505 4.32273 54 -4.5 C63.1495 -13.3227 83.4177 -1.19646 112.5 30.5 L112.5 30.5 Z M354 350 C240.938 227.135 166.778 188.841 155.75 243.5 C150 272 147 301.5 147 331 C147 488 232 645 364 645 C398.5 645 429.75 634.25 457.125 615.5 C513.389 576.963 467.062 472.865 354 350 L354 350 Z M571.25 419.875 C577 391 580 361 580 331 C580 174 495 17 363 17 C328 17 296.25 28 268.5 47 C211.804 85.819 258.285 190.309 372 313.5 C485.715 436.691 560.284 474.945 571.25 419.875 L571.25 419.875 Z " />
<glyph glyph-name="Ugrave" unicode="&#xd9;" horiz-adv-x="659" d="M249 869 C249 866.5 253.5 859.75 260.75 850.625 C278.295 828.542 311.34 789.678 357.375 739.75 C387.581 706.99 405.559 691.213 408.5 693.5 C411.441 695.787 402.432 718.478 380.875 758.125 C348.43 817.796 320.065 860.872 304.125 885.25 C297.75 895 293 901 291 901 C279 901 249 878 249 869 L249 869 Z M532 660 C462.072 660 425 657.748 425 653.5 C425 649.252 428.811 647 436 647 C443.189 647 473.696 652.433 500.25 626.125 C513.75 612.75 522 594 522 573 L522 188 C522 97 464 24 348 24 C249 24 199 100 199 194 L199 583 C199 601 206.25 617.25 218 628.875 C240.97 651.601 266.945 647 272.5 647 C278.055 647 281 649.252 281 653.5 C281 657.748 238.212 660 157.5 660 C76.7884 660 34 657.748 34 653.5 C34 649.252 36.9449 647 42.5 647 C48.0551 647 74.03 651.601 97 628.875 C108.75 617.25 116 601 116 583 L116 210 C116 91 189 -5 336 -5 C477 -5 547 77 547 180 L547 573 C547 594 555.25 612.75 568.75 626.125 C595.304 652.433 624.945 647 630.5 647 C636.055 647 639 649.252 639 653.5 C639 657.748 601.928 660 532 660 L532 660 Z " />
<glyph glyph-name="Uacute" unicode="&#xda;" horiz-adv-x="659" d="M376.125 740.125 C400.5 767.5 428.5 799.5 443 818 C465 843 482 865 482 869 C482 878 451 901 439 901 C438 901 433.75 895 427.625 885.25 C412.175 860.657 383.772 817.917 352.625 758.125 C331.983 718.498 323.559 695.787 326.5 693.5 C329.441 691.213 346.814 707.206 376.125 740.125 L376.125 740.125 Z M532 660 C462.072 660 425 657.748 425 653.5 C425 649.252 428.811 647 436 647 C443.189 647 473.696 652.433 500.25 626.125 C513.75 612.75 522 594 522 573 L522 188 C522 97 464 24 348 24 C249 24 199 100 199 194 L199 583 C199 601 206.25 617.25 218 628.875 C240.97 651.601 266.945 647 272.5 647 C278.055 647 281 649.252 281 653.5 C281 657.748 238.212 660 157.5 660 C76.7884 660 34 657.748 34 653.5 C34 649.252 36.9449 647 42.5 647 C48.0551 647 74.03 651.601 97 628.875 C108.75 617.25 116 601 116 583 L116 210 C116 91 189 -5 336 -5 C477 -5 547 77 547 180 L547 573 C547 594 555.25 612.75 568.75 626.125 C595.304 652.433 624.945 647 630.5 647 C636.055 647 639 649.252 639 653.5 C639 657.748 601.928 660 532 660 L532 660 Z " />
<glyph glyph-name="Ucircumflex" unicode="&#xdb;" horiz-adv-x="659" d="M346.5 896.75 C342.5 901.25 337.5 905 332 905 C326 905 320.75 901.25 316.625 896.75 C309.827 889.334 291.501 850.867 260.875 788.125 C232.645 730.292 220.386 697.787 223 695.5 C225.614 693.213 247.729 715.886 283.875 763.25 C315.307 804.437 353.409 796.66 397.375 740.75 C422.501 708.798 437.386 693.213 440 695.5 C442.614 697.787 435.254 717.428 418.625 752.125 C377.269 838.418 353.153 889.265 346.5 896.75 L346.5 896.75 Z M532 660 C462.072 660 425 657.748 425 653.5 C425 649.252 428.811 647 436 647 C443.189 647 473.696 652.433 500.25 626.125 C513.75 612.75 522 594 522 573 L522 188 C522 97 464 24 348 24 C249 24 199 100 199 194 L199 583 C199 601 206.25 617.25 218 628.875 C240.97 651.601 266.945 647 272.5 647 C278.055 647 281 649.252 281 653.5 C281 657.748 238.212 660 157.5 660 C76.7884 660 34 657.748 34 653.5 C34 649.252 36.9449 647 42.5 647 C48.0551 647 74.03 651.601 97 628.875 C108.75 617.25 116 601 116 583 L116 210 C116 91 189 -5 336 -5 C477 -5 547 77 547 180 L547 573 C547 594 555.25 612.75 568.75 626.125 C595.304 652.433 624.945 647 630.5 647 C636.055 647 639 649.252 639 653.5 C639 657.748 601.928 660 532 660 L532 660 Z " />
<glyph glyph-name="Udieresis" unicode="&#xdc;" horiz-adv-x="659" d="M422 730 C448 730 468 750 468 776 C468 802 448 822 422 822 C396 822 376 802 376 776 C376 750 396 730 422 730 L422 730 Z M241 730 C267 730 287 750 287 776 C287 802 267 822 241 822 C215 822 195 802 195 776 C195 750 215 730 241 730 L241 730 Z M532 660 C462.072 660 425 657.748 425 653.5 C425 649.252 428.811 647 436 647 C443.189 647 473.696 652.433 500.25 626.125 C513.75 612.75 522 594 522 573 L522 188 C522 97 464 24 348 24 C249 24 199 100 199 194 L199 583 C199 601 206.25 617.25 218 628.875 C240.97 651.601 266.945 647 272.5 647 C278.055 647 281 649.252 281 653.5 C281 657.748 238.212 660 157.5 660 C76.7884 660 34 657.748 34 653.5 C34 649.252 36.9449 647 42.5 647 C48.0551 647 74.03 651.601 97 628.875 C108.75 617.25 116 601 116 583 L116 210 C116 91 189 -5 336 -5 C477 -5 547 77 547 180 L547 573 C547 594 555.25 612.75 568.75 626.125 C595.304 652.433 624.945 647 630.5 647 C636.055 647 639 649.252 639 653.5 C639 657.748 601.928 660 532 660 L532 660 Z " />
<glyph glyph-name="Yacute" unicode="&#xdd;" horiz-adv-x="599" d="M346.625 740.125 C371.25 767.5 399.5 799.5 414 818 C436 843 453 865 453 869 C453 878 422 901 410 901 C408.5 901 404 895 397.75 885.25 C382.054 860.764 353.837 817.956 323.125 758.125 C302.787 718.505 294.386 695.787 297 693.5 C299.614 691.213 317 707.192 346.625 740.125 L346.625 740.125 Z M302 0 C383.038 0 426 2.25202 426 6.5 C426 10.748 423.055 13 417.5 13 C411.945 13 385.97 8.39939 363 31.125 C351.25 42.75 344 59 344 77 L344 193.5 C344 269.637 370.505 357.292 420.5 446.5 C470.495 535.708 505.928 606.076 540.25 628.875 C571.129 649.387 595.732 647 599 647 C602.268 647 604 649.252 604 653.5 C604 657.748 568.314 660 501 660 C433.686 660 398 657.748 398 653.5 C398 649.252 402.331 647 410.5 647 C418.669 647 452.547 654.66 469 626 C486.582 595.373 443.094 528.692 398 447 C352.906 365.308 306.307 368.773 263.5 457 C220.693 545.227 185.094 610.216 199.625 631.875 C213.633 652.755 239.504 647 248 647 C256.496 647 261 649.252 261 653.5 C261 657.748 217.345 660 135 660 C52.6545 660 9 657.748 9 653.5 C9 649.252 10.5591 647 13.5 647 C16.4409 647 38.6565 648.432 64.625 628.375 C95.7587 604.329 130.371 528.471 182 427.5 C233.629 326.529 260.827 238.873 260.5 174.5 C260.173 110.127 264.037 52.9069 241 29.625 C218.188 6.57015 192.055 11 186.5 11 C180.945 11 178 9.09444 178 5.5 C178 1.90556 220.962 0 302 0 L302 0 Z " />
<glyph glyph-name="agrave" unicode="&#xe0;" horiz-adv-x="457" d="M416.375 30.5 C408 27.75 397.5 26 385 26 C357 26 346 54 346 88 L346 357 C346 439 295 505 231 505 C189 505 148.75 493.25 117.625 474.125 C64.5643 441.521 71.9924 399 96.5 399 C121.008 399 134.033 427.227 164.375 459.125 C179 474.5 197 484 215 484 C244 484 267 435 267 373 L267 314 C267 275.441 253.058 252.939 226.875 248.375 C202.032 244.045 139.792 238.295 80.625 184.75 C53 159.75 36 130.5 36 103 C36 43 81 -5 136 -5 C155.5 -5 178.25 1.25 201.375 12 C249.188 34.2266 266.572 33.5373 289.25 8.75 C300 -3 315 -10 335 -10 C360 -10 381.75 -5.5 400 1.75 C431.758 14.3662 442.441 31.9056 439.5 35.5 C436.559 39.0944 429.651 34.8592 416.375 30.5 L416.375 30.5 Z M121 709 C121 706.5 125.5 699.75 132.75 690.625 C150.295 668.542 183.34 629.678 229.375 579.75 C259.581 546.99 277.559 531.213 280.5 533.5 C283.441 535.787 274.432 558.478 252.875 598.125 C220.43 657.796 192.065 700.872 176.125 725.25 C169.75 735 165 741 163 741 C151 741 121 718 121 709 L121 709 Z M268 158 L268 80 L268 77 C268 75.0394 253.206 63.2482 221.375 53.625 C205.25 48.75 189 46 174 46 C139 46 111 81 111 124 C111 144.5 119.75 165.25 134 182.25 C161.893 215.526 203.995 221.721 230.625 227.75 C254.71 233.203 268 208.976 268 158 L268 158 Z " />
<glyph glyph-name="aacute" unicode="&#xe1;" horiz-adv-x="457" d="M217.125 580.125 C241.5 607.5 269.5 639.5 284 658 C306 683 323 705 323 709 C323 718 292 741 280 741 C279 741 274.75 735 268.625 725.25 C253.175 700.657 224.772 657.917 193.625 598.125 C172.983 558.498 164.559 535.787 167.5 533.5 C170.441 531.213 187.814 547.206 217.125 580.125 L217.125 580.125 Z M416.375 30.5 C408 27.75 397.5 26 385 26 C357 26 346 54 346 88 L346 357 C346 439 295 505 231 505 C189 505 148.75 493.25 117.625 474.125 C64.5643 441.521 71.9924 399 96.5 399 C121.008 399 134.033 427.227 164.375 459.125 C179 474.5 197 484 215 484 C244 484 267 435 267 373 L267 314 C267 275.441 253.058 252.939 226.875 248.375 C202.032 244.045 139.792 238.295 80.625 184.75 C53 159.75 36 130.5 36 103 C36 43 81 -5 136 -5 C155.5 -5 178.25 1.25 201.375 12 C249.188 34.2266 266.572 33.5373 289.25 8.75 C300 -3 315 -10 335 -10 C360 -10 381.75 -5.5 400 1.75 C431.758 14.3662 442.441 31.9056 439.5 35.5 C436.559 39.0944 429.651 34.8592 416.375 30.5 L416.375 30.5 Z M268 158 L268 80 L268 77 C268 75.0394 253.206 63.2482 221.375 53.625 C205.25 48.75 189 46 174 46 C139 46 111 81 111 124 C111 144.5 119.75 165.25 134 182.25 C161.893 215.526 203.995 221.721 230.625 227.75 C254.71 233.203 268 208.976 268 158 L268 158 Z " />
<glyph glyph-name="acircumflex" unicode="&#xe2;" horiz-adv-x="457" d="M416.375 30.5 C408 27.75 397.5 26 385 26 C357 26 346 54 346 88 L346 357 C346 439 295 505 231 505 C189 505 148.75 493.25 117.625 474.125 C64.5643 441.521 71.9924 399 96.5 399 C121.008 399 134.033 427.227 164.375 459.125 C179 474.5 197 484 215 484 C244 484 267 435 267 373 L267 314 C267 275.441 253.058 252.939 226.875 248.375 C202.032 244.045 139.792 238.295 80.625 184.75 C53 159.75 36 130.5 36 103 C36 43 81 -5 136 -5 C155.5 -5 178.25 1.25 201.375 12 C249.188 34.2266 266.572 33.5373 289.25 8.75 C300 -3 315 -10 335 -10 C360 -10 381.75 -5.5 400 1.75 C431.758 14.3662 442.441 31.9056 439.5 35.5 C436.559 39.0944 429.651 34.8592 416.375 30.5 L416.375 30.5 Z M218.5 736.75 C214.5 741.25 209.5 745 204 745 C198 745 192.75 741.25 188.625 736.75 C181.827 729.334 163.501 690.867 132.875 628.125 C104.645 570.292 92.3859 537.787 95 535.5 C97.6141 533.213 119.729 555.886 155.875 603.25 C187.307 644.437 225.409 636.66 269.375 580.75 C294.501 548.798 309.386 533.213 312 535.5 C314.614 537.787 307.254 557.428 290.625 592.125 C249.269 678.418 225.153 729.265 218.5 736.75 L218.5 736.75 Z M268 158 L268 80 L268 77 C268 75.0394 253.206 63.2482 221.375 53.625 C205.25 48.75 189 46 174 46 C139 46 111 81 111 124 C111 144.5 119.75 165.25 134 182.25 C161.893 215.526 203.995 221.721 230.625 227.75 C254.71 233.203 268 208.976 268 158 L268 158 Z " />
<glyph glyph-name="atilde" unicode="&#xe3;" horiz-adv-x="457" d="M97.75 639.625 C103.75 651 112 658 121 658 C160 658 224 595 263 595 C281.5 595 298.25 607.25 310.375 627.125 C337.709 671.931 327.748 705 323.5 705 C319.252 705 321.175 686.826 305.875 662.625 C299 651.75 289.5 645 279 645 C240 645 177 707 138 707 C120.5 707 104.75 694.5 93.375 674.25 C67.3366 627.896 77.252 595 81.5 595 C85.748 595 83.8226 613.221 97.75 639.625 L97.75 639.625 Z M416.375 30.5 C408 27.75 397.5 26 385 26 C357 26 346 54 346 88 L346 357 C346 439 295 505 231 505 C189 505 148.75 493.25 117.625 474.125 C64.5643 441.521 71.9924 399 96.5 399 C121.008 399 134.033 427.227 164.375 459.125 C179 474.5 197 484 215 484 C244 484 267 435 267 373 L267 314 C267 275.441 253.058 252.939 226.875 248.375 C202.032 244.045 139.792 238.295 80.625 184.75 C53 159.75 36 130.5 36 103 C36 43 81 -5 136 -5 C155.5 -5 178.25 1.25 201.375 12 C249.188 34.2266 266.572 33.5373 289.25 8.75 C300 -3 315 -10 335 -10 C360 -10 381.75 -5.5 400 1.75 C431.758 14.3662 442.441 31.9056 439.5 35.5 C436.559 39.0944 429.651 34.8592 416.375 30.5 L416.375 30.5 Z M268 158 L268 80 L268 77 C268 75.0394 253.206 63.2482 221.375 53.625 C205.25 48.75 189 46 174 46 C139 46 111 81 111 124 C111 144.5 119.75 165.25 134 182.25 C161.893 215.526 203.995 221.721 230.625 227.75 C254.71 233.203 268 208.976 268 158 L268 158 Z " />
<glyph glyph-name="adieresis" unicode="&#xe4;" horiz-adv-x="457" d="M293 570 C319 570 339 590 339 616 C339 642 319 662 293 662 C267 662 247 642 247 616 C247 590 267 570 293 570 L293 570 Z M112 570 C138 570 158 590 158 616 C158 642 138 662 112 662 C86 662 66 642 66 616 C66 590 86 570 112 570 L112 570 Z M416.375 30.5 C408 27.75 397.5 26 385 26 C357 26 346 54 346 88 L346 357 C346 439 295 505 231 505 C189 505 148.75 493.25 117.625 474.125 C64.5643 441.521 71.9924 399 96.5 399 C121.008 399 134.033 427.227 164.375 459.125 C179 474.5 197 484 215 484 C244 484 267 435 267 373 L267 314 C267 275.441 253.058 252.939 226.875 248.375 C202.032 244.045 139.792 238.295 80.625 184.75 C53 159.75 36 130.5 36 103 C36 43 81 -5 136 -5 C155.5 -5 178.25 1.25 201.375 12 C249.188 34.2266 266.572 33.5373 289.25 8.75 C300 -3 315 -10 335 -10 C360 -10 381.75 -5.5 400 1.75 C431.758 14.3662 442.441 31.9056 439.5 35.5 C436.559 39.0944 429.651 34.8592 416.375 30.5 L416.375 30.5 Z M268 158 L268 80 L268 77 C268 75.0394 253.206 63.2482 221.375 53.625 C205.25 48.75 189 46 174 46 C139 46 111 81 111 124 C111 144.5 119.75 165.25 134 182.25 C161.893 215.526 203.995 221.721 230.625 227.75 C254.71 233.203 268 208.976 268 158 L268 158 Z " />
<glyph glyph-name="aring" unicode="&#xe5;" horiz-adv-x="457" d="M129 628 C129 670 162 703 203 703 C244 703 276 670 276 628 C276 590 239 552 203 552 C166 552 129 590 129 628 L129 628 Z M108 628 C108 582 156 535 203 535 C250 535 297 582 297 628 C297 679 255 720 203 720 C150 720 108 679 108 628 L108 628 Z M416.375 30.5 C408 27.75 397.5 26 385 26 C357 26 346 54 346 88 L346 357 C346 439 295 505 231 505 C189 505 148.75 493.25 117.625 474.125 C64.5643 441.521 71.9924 399 96.5 399 C121.008 399 134.033 427.227 164.375 459.125 C179 474.5 197 484 215 484 C244 484 267 435 267 373 L267 314 C267 275.441 253.058 252.939 226.875 248.375 C202.032 244.045 139.792 238.295 80.625 184.75 C53 159.75 36 130.5 36 103 C36 43 81 -5 136 -5 C155.5 -5 178.25 1.25 201.375 12 C249.188 34.2266 266.572 33.5373 289.25 8.75 C300 -3 315 -10 335 -10 C360 -10 381.75 -5.5 400 1.75 C431.758 14.3662 442.441 31.9056 439.5 35.5 C436.559 39.0944 429.651 34.8592 416.375 30.5 L416.375 30.5 Z M268 158 L268 80 L268 77 C268 75.0394 253.206 63.2482 221.375 53.625 C205.25 48.75 189 46 174 46 C139 46 111 81 111 124 C111 144.5 119.75 165.25 134 182.25 C161.893 215.526 203.995 221.721 230.625 227.75 C254.71 233.203 268 208.976 268 158 L268 158 Z " />
<glyph glyph-name="ccedilla" unicode="&#xe7;" horiz-adv-x="456" d="M197.5 -88 C195.866 -91.9212 195.953 -91.9212 197.75 -88 C199.547 -84.0788 199.134 -84.0788 197.5 -88 L197.5 -88 Z M229.375 -24.5 C238.687 -9.97995 278.513 -4.46572 333.625 15.75 C384.681 34.4781 405.787 56.5591 403.5 59.5 C401.213 62.4409 386.52 53.8168 357.25 47.625 C337.75 43.5 314.5 41 292 41 C203 41 131 139 131 262 C131 385 192 484 267 484 C284.5 484 301 475 313.625 460.5 C339.865 430.363 335.864 390.885 349.625 377.625 C356.5 371 365.5 367 375 367 C384 367 392.25 370.75 398.25 376.75 C409.901 388.401 409.337 439.545 365.5 474.25 C341.5 493.25 309.5 505 275 505 C151 505 52 384 52 233 C52 168.5 70.75 110.25 101.5 67.5 C155.494 -7.56479 218.714 -15.719 211.125 -36.125 C197.596 -72.5034 192.039 -92.3465 194 -93 C195.961 -93.6535 204.592 -88.9683 220.5 -83.5 C228.5 -80.75 236 -79 241 -79 C265 -79 285 -103 285 -134 C285 -170 259 -198 226 -198 C212.5 -198 198.75 -196.75 187.375 -194.75 C170.912 -191.855 162.48 -188.386 161.5 -191 C160.52 -193.614 171.093 -204.971 196.375 -212.75 C211 -217.25 227 -220 241 -220 C290 -220 330 -182 330 -134 C330 -95 298 -64 259 -64 C250 -64 239.25 -65.5 229.125 -68 C211.376 -72.3824 208.331 -57.3141 229.375 -24.5 L229.375 -24.5 Z " />
<glyph glyph-name="egrave" unicode="&#xe8;" horiz-adv-x="462" d="M407.5 59.5 C405.213 62.4409 390.107 53.7705 360.125 47.625 C340 43.5 316 41 293 41 C202 41 129 139 129 262 C129 272 129.25 281.75 129.875 291.25 C131.073 309.461 181.332 319 272.5 319 C363.668 319 424.735 381.668 364.75 450.625 C335.5 484.25 295 505 250 505 C139 505 50 384 50 233 C50 101 131 -5 231 -5 C261 -5 296 1.75 328.5 12.625 C385.98 31.8588 409.787 56.5591 407.5 59.5 L407.5 59.5 Z M167 709 C167 706.5 171.5 699.75 178.75 690.625 C196.295 668.542 229.448 629.608 275.875 579.75 C306.395 546.975 324.386 531.213 327 533.5 C329.614 535.787 320.627 558.485 299.375 598.125 C267.362 657.837 239.065 700.872 223.125 725.25 C216.75 735 212 741 210 741 C198 741 167 718 167 709 L167 709 Z M342 380 L342 382 C342 381 342 380 342 379 L342 380 L342 380 Z M328.5 352.5 C315.39 341.407 274.551 341.094 219 337.5 C163.449 333.906 131.64 378.961 176.5 440.5 C196 467.25 220 483 246 483 C272.5 483 297.75 470 315.75 450.875 C348.764 415.797 341.913 380.614 341.75 378 C341.587 375.386 340.907 362.999 328.5 352.5 L328.5 352.5 Z " />
<glyph glyph-name="eacute" unicode="&#xe9;" horiz-adv-x="462" d="M264.625 580.125 C289.25 607.5 317.5 639.5 332 658 C354 683 371 705 371 709 C371 718 340 741 328 741 C326.5 741 322 735 315.75 725.25 C300.054 700.764 271.837 657.956 241.125 598.125 C220.787 558.505 212.386 535.787 215 533.5 C217.614 531.213 235 547.192 264.625 580.125 L264.625 580.125 Z M407.5 59.5 C405.213 62.4409 390.107 53.7705 360.125 47.625 C340 43.5 316 41 293 41 C202 41 129 139 129 262 C129 272 129.25 281.75 129.875 291.25 C131.073 309.461 181.332 319 272.5 319 C363.668 319 424.735 381.668 364.75 450.625 C335.5 484.25 295 505 250 505 C139 505 50 384 50 233 C50 101 131 -5 231 -5 C261 -5 296 1.75 328.5 12.625 C385.98 31.8588 409.787 56.5591 407.5 59.5 L407.5 59.5 Z M342 380 L342 382 C342 381 342 380 342 379 L342 380 L342 380 Z M328.5 352.5 C315.39 341.407 274.551 341.094 219 337.5 C163.449 333.906 131.64 378.961 176.5 440.5 C196 467.25 220 483 246 483 C272.5 483 297.75 470 315.75 450.875 C348.764 415.797 341.913 380.614 341.75 378 C341.587 375.386 340.907 362.999 328.5 352.5 L328.5 352.5 Z " />
<glyph glyph-name="ecircumflex" unicode="&#xea;" horiz-adv-x="462" d="M407.5 59.5 C405.213 62.4409 390.107 53.7705 360.125 47.625 C340 43.5 316 41 293 41 C202 41 129 139 129 262 C129 272 129.25 281.75 129.875 291.25 C131.073 309.461 181.332 319 272.5 319 C363.668 319 424.735 381.668 364.75 450.625 C335.5 484.25 295 505 250 505 C139 505 50 384 50 233 C50 101 131 -5 231 -5 C261 -5 296 1.75 328.5 12.625 C385.98 31.8588 409.787 56.5591 407.5 59.5 L407.5 59.5 Z M265.375 736.75 C261.25 741.25 256 745 250 745 C244 745 238.75 741.25 234.625 736.75 C227.827 729.334 209.345 690.641 178.625 627.375 C150.86 570.193 139.386 537.787 142 535.5 C144.614 533.213 166.729 555.886 202.875 603.25 C234.307 644.437 272.26 636.853 315.875 581.25 C340.679 549.629 355.386 534.213 358 536.5 C360.614 538.787 353.647 558.253 337.5 592.5 C296.675 679.088 272.173 729.334 265.375 736.75 L265.375 736.75 Z M342 381 L342 383 C342 382 342 381 342 380 L342 381 L342 381 Z M328.5 353.5 C315.39 342.407 274.551 342.094 219 338.5 C163.449 334.906 131.64 379.961 176.5 441.5 C196 468.25 220 484 246 484 C272.5 484 297.75 471 315.75 451.875 C348.764 416.797 341.913 381.614 341.75 379 C341.587 376.386 340.907 363.999 328.5 353.5 L328.5 353.5 Z " />
<glyph glyph-name="edieresis" unicode="&#xeb;" horiz-adv-x="462" d="M341 570 C367 570 387 590 387 616 C387 642 367 662 341 662 C315 662 295 642 295 616 C295 590 315 570 341 570 L341 570 Z M159 570 C185 570 205 590 205 616 C205 642 185 662 159 662 C133 662 113 642 113 616 C113 590 133 570 159 570 L159 570 Z M407.5 59.5 C405.213 62.4409 390.107 53.7705 360.125 47.625 C340 43.5 316 41 293 41 C202 41 129 139 129 262 C129 272 129.25 281.75 129.875 291.25 C131.073 309.461 181.332 319 272.5 319 C363.668 319 424.735 381.668 364.75 450.625 C335.5 484.25 295 505 250 505 C139 505 50 384 50 233 C50 101 131 -5 231 -5 C261 -5 296 1.75 328.5 12.625 C385.98 31.8588 409.787 56.5591 407.5 59.5 L407.5 59.5 Z M342 380 L342 382 C342 381 342 380 342 379 L342 380 L342 380 Z M328.5 352.5 C315.39 341.407 274.551 341.094 219 337.5 C163.449 333.906 131.64 378.961 176.5 440.5 C196 467.25 220 483 246 483 C272.5 483 297.75 470 315.75 450.875 C348.764 415.797 341.913 380.614 341.75 378 C341.587 375.386 340.907 362.999 328.5 352.5 L328.5 352.5 Z " />
<glyph glyph-name="igrave" unicode="&#xec;" horiz-adv-x="328" d="M81 709 C81 706.5 85.5 699.75 92.75 690.625 C110.295 668.542 143.448 629.608 189.875 579.75 C220.395 546.975 238.386 531.213 241 533.5 C243.614 535.787 234.627 558.485 213.375 598.125 C181.362 657.837 153.065 700.872 137.125 725.25 C130.75 735 126 741 124 741 C112 741 81 718 81 709 L81 709 Z M275.5 13 C269.945 13 243.97 8.39939 221 31.125 C209.25 42.75 202 59 202 77 L202 288.5 C202 426.723 199.402 500 194.5 500 C189.598 500 162.401 492.724 116 479 C69.599 465.276 45 455.921 45 452 C45 448.079 47.0788 446 51 446 L57 446 C111 445 127 430 127 379 L127 77 C127 59 119.75 42.75 108 31.125 C85.03 8.39939 59.0551 13 53.5 13 C47.9449 13 45 10.748 45 6.5 C45 2.25202 86.4025 0 164.5 0 C242.597 0 284 2.25202 284 6.5 C284 10.748 281.055 13 275.5 13 L275.5 13 Z " />
<glyph glyph-name="iacute" unicode="&#xed;" horiz-adv-x="328" d="M132.625 580.125 C157.25 607.5 185.5 639.5 200 658 C222 683 239 705 239 709 C239 718 208 741 196 741 C194.5 741 190 735 183.75 725.25 C168.054 700.764 139.837 657.956 109.125 598.125 C88.7875 558.505 80.3859 535.787 83 533.5 C85.6141 531.213 103 547.192 132.625 580.125 L132.625 580.125 Z M275.5 13 C269.945 13 243.97 8.39939 221 31.125 C209.25 42.75 202 59 202 77 L202 288.5 C202 426.723 199.402 500 194.5 500 C189.598 500 162.401 492.724 116 479 C69.599 465.276 45 455.921 45 452 C45 448.079 47.0788 446 51 446 L57 446 C111 445 127 430 127 379 L127 77 C127 59 119.75 42.75 108 31.125 C85.03 8.39939 59.0551 13 53.5 13 C47.9449 13 45 10.748 45 6.5 C45 2.25202 86.4025 0 164.5 0 C242.597 0 284 2.25202 284 6.5 C284 10.748 281.055 13 275.5 13 L275.5 13 Z " />
<glyph glyph-name="icircumflex" unicode="&#xee;" horiz-adv-x="328" d="M179.375 736.75 C175.25 741.25 170 745 164 745 C158 745 152.75 741.25 148.625 736.75 C141.827 729.334 123.345 690.641 92.625 627.375 C64.8596 570.193 53.3859 537.787 56 535.5 C58.6141 533.213 80.7291 555.886 116.875 603.25 C148.307 644.437 186.26 636.853 229.875 581.25 C254.679 549.629 269.386 534.213 272 536.5 C274.614 538.787 267.647 558.253 251.5 592.5 C210.675 679.088 186.173 729.334 179.375 736.75 L179.375 736.75 Z M275.5 14 C269.945 14 243.97 9.39939 221 32.125 C209.25 43.75 202 60 202 78 L202 289.5 C202 427.723 199.402 501 194.5 501 C189.598 501 162.401 493.724 116 480 C69.599 466.276 45 456.921 45 453 C45 449.079 47.0788 447 51 447 L57 447 C111 446 127 431 127 380 L127 78 C127 60 119.75 43.75 108 32.125 C85.03 9.39939 59.0551 14 53.5 14 C47.9449 14 45 11.748 45 7.5 C45 3.25202 86.4025 1 164.5 1 C242.597 1 284 3.25202 284 7.5 C284 11.748 281.055 14 275.5 14 L275.5 14 Z " />
<glyph glyph-name="idieresis" unicode="&#xef;" horiz-adv-x="328" d="M255 570 C281 570 301 590 301 616 C301 642 281 662 255 662 C229 662 209 642 209 616 C209 590 229 570 255 570 L255 570 Z M73 570 C99 570 119 590 119 616 C119 642 99 662 73 662 C47 662 27 642 27 616 C27 590 47 570 73 570 L73 570 Z M275.5 13 C269.945 13 243.97 8.39939 221 31.125 C209.25 42.75 202 59 202 77 L202 288.5 C202 426.723 199.402 500 194.5 500 C189.598 500 162.401 492.724 116 479 C69.599 465.276 45 455.921 45 452 C45 448.079 47.0788 446 51 446 L57 446 C111 445 127 430 127 379 L127 77 C127 59 119.75 42.75 108 31.125 C85.03 8.39939 59.0551 13 53.5 13 C47.9449 13 45 10.748 45 6.5 C45 2.25202 86.4025 0 164.5 0 C242.597 0 284 2.25202 284 6.5 C284 10.748 281.055 13 275.5 13 L275.5 13 Z " />
<glyph glyph-name="ntilde" unicode="&#xf1;" horiz-adv-x="602" d="M198.875 639.625 C205 651 213.5 658 223 658 C262 658 326 595 365 595 C383.5 595 400 607.25 411.875 627.125 C438.755 672.113 428.921 705 425 705 C421.079 705 423.175 686.826 407.875 662.625 C401 651.75 391.5 645 381 645 C342 645 278 707 239 707 C222 707 206.5 694.5 195.25 674.25 C169.439 627.79 179.079 595 183 595 C186.921 595 184.714 613.326 198.875 639.625 L198.875 639.625 Z M443.5 0 C521.597 0 563 2.25202 563 6.5 C563 10.748 560.055 13 554.5 13 C548.945 13 522.97 8.39939 500 31.125 C488.25 42.75 481 59 481 77 L481 337 C481 430 446 505 375 505 C361.5 505 335.75 497.75 304.625 486 C235.863 460.042 202 450.394 202 470 C202 489.606 199.402 500 194.5 500 C189.598 500 162.401 492.724 116 479 C69.599 465.276 45 455.921 45 452 C45 448.079 47.0788 446 51 446 L57 446 C111 445 127 430 127 379 L127 77 C127 59 119.75 42.75 108 31.125 C85.03 8.39939 59.0551 13 53.5 13 C47.9449 13 45 10.748 45 6.5 C45 2.25202 86.4025 0 164.5 0 C242.597 0 284 2.25202 284 6.5 C284 10.748 281.055 13 275.5 13 C269.945 13 243.97 8.39939 221 31.125 C209.25 42.75 202 59 202 77 L202 254.5 C202 370.503 220.33 440.946 257.25 448.375 C277.75 452.5 299 455 317 455 C376 455 406 399 406 329 L406 77 C406 59 398.75 42.75 387 31.125 C364.03 8.39939 338.055 13 332.5 13 C326.945 13 324 10.748 324 6.5 C324 2.25202 365.403 0 443.5 0 L443.5 0 Z " />
<glyph glyph-name="ograve" unicode="&#xf2;" horiz-adv-x="558" d="M133 250 C133 382 198 488 279 488 C360 488 425 382 425 250 C425 118 360 12 279 12 C198 12 133 118 133 250 L133 250 Z M50 250 C50 108 152 -5 279 -5 C406 -5 508 108 508 250 C508 392 406 505 279 505 C152 505 50 392 50 250 L50 250 Z M196 709 C196 706.5 200.5 699.75 207.75 690.625 C225.295 668.542 258.448 629.608 304.875 579.75 C335.395 546.975 353.386 531.213 356 533.5 C358.614 535.787 349.627 558.485 328.375 598.125 C296.362 657.837 268.065 700.872 252.125 725.25 C245.75 735 241 741 239 741 C227 741 196 718 196 709 L196 709 Z " />
<glyph glyph-name="oacute" unicode="&#xf3;" horiz-adv-x="558" d="M293.625 580.125 C318.25 607.5 346.5 639.5 361 658 C383 683 400 705 400 709 C400 718 369 741 357 741 C355.5 741 351 735 344.75 725.25 C329.054 700.764 300.837 657.956 270.125 598.125 C249.787 558.505 241.386 535.787 244 533.5 C246.614 531.213 264 547.192 293.625 580.125 L293.625 580.125 Z M133 250 C133 382 198 488 279 488 C360 488 425 382 425 250 C425 118 360 12 279 12 C198 12 133 118 133 250 L133 250 Z M50 250 C50 108 152 -5 279 -5 C406 -5 508 108 508 250 C508 392 406 505 279 505 C152 505 50 392 50 250 L50 250 Z " />
<glyph glyph-name="ocircumflex" unicode="&#xf4;" horiz-adv-x="558" d="M133 250 C133 382 198 488 279 488 C360 488 425 382 425 250 C425 118 360 12 279 12 C198 12 133 118 133 250 L133 250 Z M50 250 C50 108 152 -5 279 -5 C406 -5 508 108 508 250 C508 392 406 505 279 505 C152 505 50 392 50 250 L50 250 Z M294.375 736.75 C290.25 741.25 285 745 279 745 C273 745 267.75 741.25 263.625 736.75 C256.827 729.334 238.345 690.641 207.625 627.375 C179.86 570.193 168.386 537.787 171 535.5 C173.614 533.213 195.729 555.886 231.875 603.25 C263.307 644.437 301.26 636.853 344.875 581.25 C369.679 549.629 384.386 534.213 387 536.5 C389.614 538.787 382.647 558.253 366.5 592.5 C325.675 679.088 301.173 729.334 294.375 736.75 L294.375 736.75 Z " />
<glyph glyph-name="otilde" unicode="&#xf5;" horiz-adv-x="558" d="M173.875 639.625 C180 651 188.5 658 198 658 C237 658 301 595 340 595 C358.5 595 375 607.25 386.875 627.125 C413.755 672.113 403.921 705 400 705 C396.079 705 398.175 686.826 382.875 662.625 C376 651.75 366.5 645 356 645 C317 645 253 707 214 707 C197 707 181.5 694.5 170.25 674.25 C144.439 627.79 154.079 595 158 595 C161.921 595 159.714 613.326 173.875 639.625 L173.875 639.625 Z M133 250 C133 382 198 488 279 488 C360 488 425 382 425 250 C425 118 360 12 279 12 C198 12 133 118 133 250 L133 250 Z M50 250 C50 108 152 -5 279 -5 C406 -5 508 108 508 250 C508 392 406 505 279 505 C152 505 50 392 50 250 L50 250 Z " />
<glyph glyph-name="odieresis" unicode="&#xf6;" horiz-adv-x="558" d="M370 570 C396 570 416 590 416 616 C416 642 396 662 370 662 C344 662 324 642 324 616 C324 590 344 570 370 570 L370 570 Z M188 570 C214 570 234 590 234 616 C234 642 214 662 188 662 C162 662 142 642 142 616 C142 590 162 570 188 570 L188 570 Z M133 250 C133 382 198 488 279 488 C360 488 425 382 425 250 C425 118 360 12 279 12 C198 12 133 118 133 250 L133 250 Z M50 250 C50 108 152 -5 279 -5 C406 -5 508 108 508 250 C508 392 406 505 279 505 C152 505 50 392 50 250 L50 250 Z " />
<glyph glyph-name="oslash" unicode="&#xf8;" horiz-adv-x="558" d="M92 24 C113.567 48.1808 144.18 34.9679 195.25 12.625 C221.25 1.25 249.5 -5 279 -5 C406 -5 508 108 508 250 C508 283 502.5 314.5 492.375 343.375 C473.146 398.215 460.78 434.166 483 459 C505.22 483.834 513.882 499.772 508 505 C502.118 510.228 487.567 500.181 466 476 C444.433 451.819 413.82 465.032 362.75 487.375 C336.75 498.75 308.5 505 279 505 C152 505 50 392 50 250 C50 217 55.5 185.5 65.625 156.625 C84.8545 101.785 97.2202 65.8343 75 41 C52.7798 16.1657 44.1182 0.228283 50 -5 C55.8818 -10.2283 70.4333 -0.180808 92 24 L92 24 Z M273.5 262 C194.749 174.426 144.457 147.429 138.125 186.125 C134.75 206.75 133 228.5 133 251 C133 383 198 489 279 489 C302.5 489 324.625 479.875 344.25 463.75 C386.64 428.92 352.251 349.574 273.5 262 L273.5 262 Z M419.875 313.875 C423.25 293.25 425 271.5 425 249 C425 117 360 11 279 11 C255.5 11 233.25 20 213.5 36 C170.895 70.5156 204.922 149.599 284 237.5 C363.078 325.401 413.543 352.571 419.875 313.875 L419.875 313.875 Z " />
<glyph glyph-name="ugrave" unicode="&#xf9;" horiz-adv-x="567" d="M191 709 C191 706.5 195.5 699.75 202.75 690.625 C220.295 668.542 253.448 629.608 299.875 579.75 C330.395 546.975 348.386 531.213 351 533.5 C353.614 535.787 344.627 558.485 323.375 598.125 C291.362 657.837 263.065 700.872 247.125 725.25 C240.75 735 236 741 234 741 C222 741 191 718 191 709 L191 709 Z M23.5 487 C29.0551 487 55.03 491.601 78 468.875 C89.75 457.25 97 441 97 423 L97 155 C97 66 146 -5 224 -5 C252.5 -5 281 1.5 307.125 12.25 C356.117 32.4096 376 45.4722 376 27.5 C376 9.52778 378.598 0 383.5 0 C388.402 0 415.599 7.27576 462 21 C508.401 34.7242 533 44.0788 533 48 C533 51.9212 530.921 54 527 54 L521 54 C467 55 451 70 451 121 L451 310.5 C451 434.345 423.803 500 372.5 500 C321.197 500 294 497.748 294 493.5 C294 489.252 296.945 487 302.5 487 C308.055 487 334.03 491.601 357 468.875 C368.75 457.25 376 441 376 423 L376 244.5 C376 127.844 364.795 56.9035 340 51 C324.25 47.25 305 45 283 45 C215 45 171 98 171 164 L171.5 332.5 C171.827 442.621 144.803 501 93.5 501 C42.1975 501 15 498.575 15 494 C15 489.425 17.9449 487 23.5 487 L23.5 487 Z " />
<glyph glyph-name="uacute" unicode="&#xfa;" horiz-adv-x="567" d="M288.625 580.125 C313.25 607.5 341.5 639.5 356 658 C378 683 395 705 395 709 C395 718 364 741 352 741 C350.5 741 346 735 339.75 725.25 C324.054 700.764 295.837 657.956 265.125 598.125 C244.787 558.505 236.386 535.787 239 533.5 C241.614 531.213 259 547.192 288.625 580.125 L288.625 580.125 Z M23.5 487 C29.0551 487 55.03 491.601 78 468.875 C89.75 457.25 97 441 97 423 L97 155 C97 66 146 -5 224 -5 C252.5 -5 281 1.5 307.125 12.25 C356.117 32.4096 376 45.4722 376 27.5 C376 9.52778 378.598 0 383.5 0 C388.402 0 415.599 7.27576 462 21 C508.401 34.7242 533 44.0788 533 48 C533 51.9212 530.921 54 527 54 L521 54 C467 55 451 70 451 121 L451 310.5 C451 434.345 423.803 500 372.5 500 C321.197 500 294 497.748 294 493.5 C294 489.252 296.945 487 302.5 487 C308.055 487 334.03 491.601 357 468.875 C368.75 457.25 376 441 376 423 L376 244.5 C376 127.844 364.795 56.9035 340 51 C324.25 47.25 305 45 283 45 C215 45 171 98 171 164 L171.5 332.5 C171.827 442.621 144.803 501 93.5 501 C42.1975 501 15 498.575 15 494 C15 489.425 17.9449 487 23.5 487 L23.5 487 Z " />
<glyph glyph-name="ucircumflex" unicode="&#xfb;" horiz-adv-x="567" d="M289.375 736.75 C285.25 741.25 280 745 274 745 C268 745 262.75 741.25 258.625 736.75 C251.827 729.334 233.345 690.641 202.625 627.375 C174.86 570.193 163.386 537.787 166 535.5 C168.614 533.213 190.729 555.886 226.875 603.25 C258.307 644.437 296.26 636.853 339.875 581.25 C364.679 549.629 379.386 534.213 382 536.5 C384.614 538.787 377.647 558.253 361.5 592.5 C320.675 679.088 296.173 729.334 289.375 736.75 L289.375 736.75 Z M23.5 488 C29.0551 488 55.03 492.601 78 469.875 C89.75 458.25 97 442 97 424 L97 156 C97 67 146 -4 224 -4 C252.5 -4 281 2.5 307.125 13.25 C356.117 33.4096 376 46.4722 376 28.5 C376 10.5278 378.598 1 383.5 1 C388.402 1 415.599 8.27576 462 22 C508.401 35.7242 533 45.0788 533 49 C533 52.9212 530.921 55 527 55 L521 55 C467 56 451 71 451 122 L451 311.5 C451 435.345 423.803 501 372.5 501 C321.197 501 294 498.748 294 494.5 C294 490.252 296.945 488 302.5 488 C308.055 488 334.03 492.601 357 469.875 C368.75 458.25 376 442 376 424 L376 245.5 C376 128.844 364.795 57.9035 340 52 C324.25 48.25 305 46 283 46 C215 46 171 99 171 165 L171.5 333.5 C171.827 443.621 144.803 502 93.5 502 C42.1975 502 15 499.575 15 495 C15 490.425 17.9449 488 23.5 488 L23.5 488 Z " />
<glyph glyph-name="udieresis" unicode="&#xfc;" horiz-adv-x="567" d="M365 570 C391 570 411 590 411 616 C411 642 391 662 365 662 C339 662 319 642 319 616 C319 590 339 570 365 570 L365 570 Z M183 570 C209 570 229 590 229 616 C229 642 209 662 183 662 C157 662 137 642 137 616 C137 590 157 570 183 570 L183 570 Z M23.5 487 C29.0551 487 55.03 491.601 78 468.875 C89.75 457.25 97 441 97 423 L97 155 C97 66 146 -5 224 -5 C252.5 -5 281 1.5 307.125 12.25 C356.117 32.4096 376 45.4722 376 27.5 C376 9.52778 378.598 0 383.5 0 C388.402 0 415.599 7.27576 462 21 C508.401 34.7242 533 44.0788 533 48 C533 51.9212 530.921 54 527 54 L521 54 C467 55 451 70 451 121 L451 310.5 C451 434.345 423.803 500 372.5 500 C321.197 500 294 497.748 294 493.5 C294 489.252 296.945 487 302.5 487 C308.055 487 334.03 491.601 357 468.875 C368.75 457.25 376 441 376 423 L376 244.5 C376 127.844 364.795 56.9035 340 51 C324.25 47.25 305 45 283 45 C215 45 171 98 171 164 L171.5 332.5 C171.827 442.621 144.803 501 93.5 501 C42.1975 501 15 498.575 15 494 C15 489.425 17.9449 487 23.5 487 L23.5 487 Z " />
<glyph glyph-name="ydieresis" unicode="&#xff;" horiz-adv-x="474" d="M354 570 C380 570 400 590 400 616 C400 642 380 662 354 662 C328 662 308 642 308 616 C308 590 328 570 354 570 L354 570 Z M172 570 C198 570 218 590 218 616 C218 642 198 662 172 662 C146 662 126 642 126 616 C126 590 146 570 172 570 L172 570 Z M116.5 500 C36.4419 500 -6 497.748 -6 493.5 C-6 489.252 -3.22828 487 2 487 C7.22828 487 33.3677 490.328 63.125 468.875 C93.9982 446.618 125.851 349.723 176.5 211.5 C227.149 73.2773 249.62 -9.26403 242.625 -27.25 C238.25 -38.5 233.5 -51.5 229 -65 C215 -103.5 201 -132.5 187.125 -151.875 C167.95 -178.651 136.757 -176.118 118.625 -168.5 C103.75 -162.25 86.5 -156 77 -156 C56 -156 39 -170 39 -188 C39 -211 66 -230 100 -230 C130.5 -230 158.25 -216.75 183.125 -190.375 C243.87 -125.967 254.338 -56.8307 264.5 -28.25 C268.5 -17 271 -10 271 -10 L429 428 C436.5 444.5 449.75 459.25 465.375 469.75 C494.216 489.131 518.772 486 524 486 C529.228 486 532 488.252 532 492.5 C532 496.748 500.125 499 440 499 C379.875 499 348 496.748 348 492.5 C348 488.252 350.252 486 354.5 486 C358.748 486 384.745 491.507 400.5 467.875 C408.25 456.25 410 440 404 422 L348.5 256.5 C312.229 148.34 273.944 148.34 238 256.5 L183 422 C177.5 439.5 179.25 455.75 186.875 467.5 C202.272 491.226 228.252 486 232.5 486 C236.748 486 239 488.425 239 493 C239 497.575 196.558 500 116.5 500 L116.5 500 Z " />
<glyph glyph-name="Amacron" unicode="&#x100;" horiz-adv-x="634" d="M304.5 767 C390.44 767 436 774.103 436 787.5 C436 800.897 390.44 808 304.5 808 C218.56 808 173 800.897 173 787.5 C173 774.103 218.56 767 304.5 767 L304.5 767 Z M109.5 0 C182.369 0 221 2.25202 221 6.5 C221 10.748 215.283 13 204.5 13 C193.717 13 158.899 6.83933 139.125 36.125 C129.25 50.75 126.5 71 133 93 L155.5 164.5 C170.205 211.228 215.072 236 285 236 C354.928 236 401.528 208.629 419.5 157 C437.472 105.371 460.835 57.3243 444.375 32.5 C436.75 21 423 14 405 14 L383.5 14 C369.449 14 362 11.748 362 7.5 C362 3.25202 408.773 1 497 1 C585.227 1 632 3.25202 632 7.5 C632 11.748 630.094 14 626.5 14 L621 14 C604.5 14 586.625 21 571.25 32.5 C541.288 54.9108 498.129 181.593 425.75 377 C353.371 572.407 311.362 676 304.5 676 C297.638 676 260.393 571.714 197 375 L100 74 C93.5 57 81 41.75 65.75 30.875 C37.2923 10.5814 12.0551 14 6.5 14 C0.944949 14 -2 11.5747 -2 7 C-2 2.42525 36.6308 0 109.5 0 L109.5 0 Z M284 257 C218.646 257 200.457 309.316 231.5 408 C262.543 506.684 297.189 506.684 331.5 408 C365.811 309.316 349.354 257 284 257 L284 257 Z " />
<glyph glyph-name="amacron" unicode="&#x101;" horiz-adv-x="457" d="M202.5 607 C288.44 607 334 614.103 334 627.5 C334 640.897 288.44 648 202.5 648 C116.56 648 71 640.897 71 627.5 C71 614.103 116.56 607 202.5 607 L202.5 607 Z M416.375 30.5 C408 27.75 397.5 26 385 26 C357 26 346 54 346 88 L346 357 C346 439 295 505 231 505 C189 505 148.75 493.25 117.625 474.125 C64.5643 441.521 71.9924 399 96.5 399 C121.008 399 134.033 427.227 164.375 459.125 C179 474.5 197 484 215 484 C244 484 267 435 267 373 L267 314 C267 275.441 253.058 252.939 226.875 248.375 C202.032 244.045 139.792 238.295 80.625 184.75 C53 159.75 36 130.5 36 103 C36 43 81 -5 136 -5 C155.5 -5 178.25 1.25 201.375 12 C249.188 34.2266 266.572 33.5373 289.25 8.75 C300 -3 315 -10 335 -10 C360 -10 381.75 -5.5 400 1.75 C431.758 14.3662 442.441 31.9056 439.5 35.5 C436.559 39.0944 429.651 34.8592 416.375 30.5 L416.375 30.5 Z M268 158 L268 80 L268 77 C268 75.0394 253.206 63.2482 221.375 53.625 C205.25 48.75 189 46 174 46 C139 46 111 81 111 124 C111 144.5 119.75 165.25 134 182.25 C161.893 215.526 203.995 221.721 230.625 227.75 C254.71 233.203 268 208.976 268 158 L268 158 Z " />
<glyph glyph-name="Abreve" unicode="&#x102;" horiz-adv-x="634" d="M244.875 789.5 C263.5 768.75 285 756 305 756 C324.5 756 345.75 769 364.25 790 C404.2 835.348 404.748 872.52 400.5 873.5 C396.252 874.48 390.964 849.962 360.375 826.25 C344.25 813.75 324.5 806 305 806 C285 806 265 813.75 248.75 826.25 C218.036 849.876 212.748 874.307 208.5 873 C204.252 871.693 204.674 834.288 244.875 789.5 L244.875 789.5 Z M109.5 0 C182.369 0 221 2.25202 221 6.5 C221 10.748 215.283 13 204.5 13 C193.717 13 158.899 6.83933 139.125 36.125 C129.25 50.75 126.5 71 133 93 L155.5 164.5 C170.205 211.228 215.072 236 285 236 C354.928 236 401.528 208.629 419.5 157 C437.472 105.371 460.835 57.3243 444.375 32.5 C436.75 21 423 14 405 14 L383.5 14 C369.449 14 362 11.748 362 7.5 C362 3.25202 408.773 1 497 1 C585.227 1 632 3.25202 632 7.5 C632 11.748 630.094 14 626.5 14 L621 14 C604.5 14 586.625 21 571.25 32.5 C541.288 54.9108 498.129 181.593 425.75 377 C353.371 572.407 311.362 676 304.5 676 C297.638 676 260.393 571.714 197 375 L100 74 C93.5 57 81 41.75 65.75 30.875 C37.2923 10.5814 12.0551 14 6.5 14 C0.944949 14 -2 11.5747 -2 7 C-2 2.42525 36.6308 0 109.5 0 L109.5 0 Z M284 257 C218.646 257 200.457 309.316 231.5 408 C262.543 506.684 297.189 506.684 331.5 408 C365.811 309.316 349.354 257 284 257 L284 257 Z " />
<glyph glyph-name="abreve" unicode="&#x103;" horiz-adv-x="457" d="M142.875 599.5 C161.5 578.75 183 566 203 566 C222.5 566 243.75 579 262.25 600 C302.2 645.348 302.748 682.52 298.5 683.5 C294.252 684.48 288.964 659.962 258.375 636.25 C242.25 623.75 222.5 616 203 616 C183 616 163 623.75 146.75 636.25 C116.036 659.876 110.748 684.307 106.5 683 C102.252 681.693 102.674 644.288 142.875 599.5 L142.875 599.5 Z M416.375 30.5 C408 27.75 397.5 26 385 26 C357 26 346 54 346 88 L346 357 C346 439 295 505 231 505 C189 505 148.75 493.25 117.625 474.125 C64.5643 441.521 71.9924 399 96.5 399 C121.008 399 134.033 427.227 164.375 459.125 C179 474.5 197 484 215 484 C244 484 267 435 267 373 L267 314 C267 275.441 253.058 252.939 226.875 248.375 C202.032 244.045 139.792 238.295 80.625 184.75 C53 159.75 36 130.5 36 103 C36 43 81 -5 136 -5 C155.5 -5 178.25 1.25 201.375 12 C249.188 34.2266 266.572 33.5373 289.25 8.75 C300 -3 315 -10 335 -10 C360 -10 381.75 -5.5 400 1.75 C431.758 14.3662 442.441 31.9056 439.5 35.5 C436.559 39.0944 429.651 34.8592 416.375 30.5 L416.375 30.5 Z M268 158 L268 80 L268 77 C268 75.0394 253.206 63.2482 221.375 53.625 C205.25 48.75 189 46 174 46 C139 46 111 81 111 124 C111 144.5 119.75 165.25 134 182.25 C161.893 215.526 203.995 221.721 230.625 227.75 C254.71 233.203 268 208.976 268 158 L268 158 Z " />
<glyph glyph-name="Aogonek" unicode="&#x104;" horiz-adv-x="634" d="M109.5 0 C182.369 0 221 2.25202 221 6.5 C221 10.748 215.283 13 204.5 13 C193.717 13 158.899 6.83933 139.125 36.125 C129.25 50.75 126.5 71 133 93 L155.5 164.5 C170.205 211.228 215.072 236 285 236 C354.928 236 401.528 208.629 419.5 157 C437.472 105.371 460.835 57.3243 444.375 32.5 C436.75 21 423 14 405 14 L383.5 14 C369.449 14 362 11.748 362 7.5 C362 3.25202 376.032 1 402.5 1 C428.968 1 408.181 -16.5217 362.375 -69.375 C338 -97.5 320 -128 320 -154 C320 -198 372 -233 436 -233 C451.5 -233 468.25 -229.5 483 -223.75 C508.418 -213.841 517.134 -199.961 515.5 -198 C513.866 -196.039 505.943 -202.133 489.25 -206.875 C478.25 -210 465 -212 452 -212 C404 -212 365 -183 365 -146 C365 -116 384.75 -82 408.25 -54.125 C444.393 -11.2533 501.371 1 553 1 C604.629 1 632 3.25202 632 7.5 C632 11.748 630.094 14 626.5 14 L621 14 C604.5 14 586.625 21 571.25 32.5 C541.288 54.9108 498.129 181.593 425.75 377 C353.371 572.407 311.362 676 304.5 676 C297.638 676 260.393 571.714 197 375 L100 74 C93.5 57 81 41.75 65.75 30.875 C37.2923 10.5814 12.0551 14 6.5 14 C0.944949 14 -2 11.5747 -2 7 C-2 2.42525 36.6308 0 109.5 0 L109.5 0 Z M284 257 C218.646 257 200.457 309.316 231.5 408 C262.543 506.684 297.189 506.684 331.5 408 C365.811 309.316 349.354 257 284 257 L284 257 Z " />
<glyph glyph-name="aogonek" unicode="&#x105;" horiz-adv-x="457" d="M414.5 29.75 C406 27.25 396 26 385 26 C357 26 346 54 346 88 L346 357 C346 439 295 505 231 505 C189 505 148.75 493.25 117.625 474.125 C64.5643 441.521 71.9924 399 96.5 399 C121.008 399 134.033 427.227 164.375 459.125 C179 474.5 197 484 215 484 C244 484 267 435 267 373 L267 314 C267 275.441 253.058 252.939 226.875 248.375 C202.032 244.045 139.792 238.295 80.625 184.75 C53 159.75 36 130.5 36 103 C36 43 81 -5 136 -5 C155.5 -5 178.25 1.25 201.375 12 C249.188 34.2266 266.572 33.5373 289.25 8.75 C300 -3 315 -10 335 -10 C341 -10 346.75 -9.75 352.25 -9.25 C362.605 -8.30864 342.218 -24.8165 310.25 -71.5 C294.5 -94.5 284 -118 284 -139 C284 -192 336 -234 400 -234 C415.5 -234 432.25 -230.5 447 -224.75 C472.418 -214.841 481.134 -200.961 479.5 -199 C477.866 -197.039 469.943 -203.133 453.25 -207.875 C442.25 -211 429 -213 416 -213 C368 -213 329 -177 329 -131 C329 -106.5 340.5 -79.75 356.375 -55.375 C385.444 -10.7421 417.272 9.00961 429.375 17.25 C440.269 24.6675 443.484 31.8622 440.625 35.375 C437.766 38.8878 429.161 34.0621 414.5 29.75 L414.5 29.75 Z M269 158 L269 80 L269 77 C269 75.0394 254.206 63.2482 222.375 53.625 C206.25 48.75 190 46 175 46 C140 46 112 81 112 124 C112 144.5 120.75 165.25 135 182.25 C162.893 215.526 204.995 221.721 231.625 227.75 C255.71 233.203 269 208.976 269 158 L269 158 Z " />
<glyph glyph-name="Cacute" unicode="&#x106;" horiz-adv-x="673" d="M373.625 740.125 C398.25 767.5 426.5 799.5 441 818 C463 843 480 865 480 869 C480 878 449 901 437 901 C435.5 901 431 895 424.75 885.25 C409.054 860.764 380.837 817.956 350.125 758.125 C329.787 718.505 321.386 695.787 324 693.5 C326.614 691.213 344 707.192 373.625 740.125 L373.625 740.125 Z M611 60 C609.039 63.2677 609.039 63.2677 611 60 C612.961 56.7323 612.961 56.7323 611 60 L611 60 Z M591.5 187 C589.75 180.25 588 173.5 587 168 C570 96 497 32 419 19 C403 17 388 16 374 16 C247 16 145 156 145 330 C145 504 247 644 374 644 C397 644 423 641 450 636 C511 622 571 559 586 491 C587 485.5 588.75 478.75 590.5 472 C593.702 459.648 597.945 453 603.5 453 C609.055 453 612 478.985 612 528 C612 577.015 575.608 626.094 499.375 645.875 C456.5 657 411.5 664 374 664 C196 664 53 515 53 329 C53 143 196 -6 374 -6 C411.5 -6 456.75 0.75 499.875 11.625 C576.426 30.9292 613 80.1581 613 129.5 C613 178.842 610.055 205.173 604.5 205.5 C598.945 205.827 594.702 199.352 591.5 187 L591.5 187 Z " />
<glyph glyph-name="cacute" unicode="&#x107;" horiz-adv-x="456" d="M241.625 580.125 C266.25 607.5 294.5 639.5 309 658 C331 683 348 705 348 709 C348 718 317 741 305 741 C303.5 741 299 735 292.75 725.25 C277.054 700.764 248.837 657.956 218.125 598.125 C197.787 558.505 189.386 535.787 192 533.5 C194.614 531.213 212 547.192 241.625 580.125 L241.625 580.125 Z M401.5 59.5 C399.213 62.4409 384.52 53.8168 355.25 47.625 C335.75 43.5 312.5 41 290 41 C201 41 129 139 129 262 C129 385 190 484 265 484 C282.5 484 299 475 311.625 460.5 C337.865 430.363 333.864 390.885 347.625 377.625 C354.5 371 363.5 367 373 367 C382 367 390.25 370.75 396.25 376.75 C407.901 388.401 407.337 439.545 363.5 474.25 C339.5 493.25 307.5 505 273 505 C149 505 50 384 50 233 C50 101 129 -5 228 -5 C257.5 -5 291.75 1.75 323.625 12.625 C380.373 31.9861 403.787 56.5591 401.5 59.5 L401.5 59.5 Z " />
<glyph glyph-name="Ccircumflex" unicode="&#x108;" horiz-adv-x="673" d="M390.375 896.75 C386.25 901.25 381 905 375 905 C369 905 363.75 901.25 359.625 896.75 C352.827 889.334 334.345 850.641 303.625 787.375 C275.86 730.193 264.386 697.787 267 695.5 C269.614 693.213 291.729 715.886 327.875 763.25 C359.307 804.437 397.26 796.853 440.875 741.25 C465.679 709.629 480.386 694.213 483 696.5 C485.614 698.787 478.647 718.253 462.5 752.5 C421.675 839.088 397.173 889.334 390.375 896.75 L390.375 896.75 Z M611 61 C609.039 64.2677 609.039 64.2677 611 61 C612.961 57.7323 612.961 57.7323 611 61 L611 61 Z M591.5 188 C589.75 181.25 588 174.5 587 169 C570 97 497 33 419 20 C403 18 388 17 374 17 C247 17 145 157 145 331 C145 505 247 645 374 645 C397 645 423 642 450 637 C511 623 571 560 586 492 C587 486.5 588.75 479.75 590.5 473 C593.702 460.648 597.945 454 603.5 454 C609.055 454 612 479.985 612 529 C612 578.015 575.608 627.094 499.375 646.875 C456.5 658 411.5 665 374 665 C196 665 53 516 53 330 C53 144 196 -5 374 -5 C411.5 -5 456.75 1.75 499.875 12.625 C576.426 31.9292 613 81.1581 613 130.5 C613 179.842 610.055 206.173 604.5 206.5 C598.945 206.827 594.702 200.352 591.5 188 L591.5 188 Z " />
<glyph glyph-name="Cdot" unicode="&#x10a;" horiz-adv-x="673" d="M375 730 C401 730 421 750 421 776 C421 802 401 822 375 822 C349 822 329 802 329 776 C329 750 349 730 375 730 L375 730 Z M611 60 C609.039 63.2677 609.039 63.2677 611 60 C612.961 56.7323 612.961 56.7323 611 60 L611 60 Z M591.5 187 C589.75 180.25 588 173.5 587 168 C570 96 497 32 419 19 C403 17 388 16 374 16 C247 16 145 156 145 330 C145 504 247 644 374 644 C397 644 423 641 450 636 C511 622 571 559 586 491 C587 485.5 588.75 478.75 590.5 472 C593.702 459.648 597.945 453 603.5 453 C609.055 453 612 478.985 612 528 C612 577.015 575.608 626.094 499.375 645.875 C456.5 657 411.5 664 374 664 C196 664 53 515 53 329 C53 143 196 -6 374 -6 C411.5 -6 456.75 0.75 499.875 11.625 C576.426 30.9292 613 80.1581 613 129.5 C613 178.842 610.055 205.173 604.5 205.5 C598.945 205.827 594.702 199.352 591.5 187 L591.5 187 Z " />
<glyph glyph-name="cdot" unicode="&#x10b;" horiz-adv-x="456" d="M273 570 C299 570 319 590 319 616 C319 642 299 662 273 662 C247 662 227 642 227 616 C227 590 247 570 273 570 L273 570 Z M401.5 59.5 C399.213 62.4409 384.52 53.8168 355.25 47.625 C335.75 43.5 312.5 41 290 41 C201 41 129 139 129 262 C129 385 190 484 265 484 C282.5 484 299 475 311.625 460.5 C337.865 430.363 333.864 390.885 347.625 377.625 C354.5 371 363.5 367 373 367 C382 367 390.25 370.75 396.25 376.75 C407.901 388.401 407.337 439.545 363.5 474.25 C339.5 493.25 307.5 505 273 505 C149 505 50 384 50 233 C50 101 129 -5 228 -5 C257.5 -5 291.75 1.75 323.625 12.625 C380.373 31.9861 403.787 56.5591 401.5 59.5 L401.5 59.5 Z " />
<glyph glyph-name="Ccaron" unicode="&#x10c;" horiz-adv-x="673" d="M440.875 879.75 C397.26 824.147 359.307 816.563 327.875 857.75 C291.729 905.114 269.614 927.787 267 925.5 C264.386 923.213 275.86 890.807 303.625 833.625 C334.345 770.359 352.827 731.666 359.625 724.25 C363.75 719.75 369 716 375 716 C381 716 386.25 719.75 390.375 724.25 C397.173 731.666 421.739 782.469 462.5 869.25 C478.66 903.655 485.614 923.039 483 925 C480.386 926.961 465.679 911.371 440.875 879.75 L440.875 879.75 Z M611 61 C609.039 64.2677 609.039 64.2677 611 61 C612.961 57.7323 612.961 57.7323 611 61 L611 61 Z M591.5 188 C589.75 181.25 588 174.5 587 169 C570 97 497 33 419 20 C403 18 388 17 374 17 C247 17 145 157 145 331 C145 505 247 645 374 645 C397 645 423 642 450 637 C511 623 571 560 586 492 C587 486.5 588.75 479.75 590.5 473 C593.702 460.648 597.945 454 603.5 454 C609.055 454 612 479.985 612 529 C612 578.015 575.608 627.094 499.375 646.875 C456.5 658 411.5 665 374 665 C196 665 53 516 53 330 C53 144 196 -5 374 -5 C411.5 -5 456.75 1.75 499.875 12.625 C576.426 31.9292 613 81.1581 613 130.5 C613 179.842 610.055 206.173 604.5 206.5 C598.945 206.827 594.702 200.352 591.5 188 L591.5 188 Z " />
<glyph glyph-name="ccaron" unicode="&#x10d;" horiz-adv-x="456" d="M338.875 719.75 C295.26 664.147 257.307 656.563 225.875 697.75 C189.729 745.114 167.614 767.787 165 765.5 C162.386 763.213 173.86 730.807 201.625 673.625 C232.345 610.359 250.827 571.666 257.625 564.25 C261.75 559.75 267 556 273 556 C279 556 284.25 559.75 288.375 564.25 C295.173 571.666 319.739 622.469 360.5 709.25 C376.66 743.655 383.614 763.039 381 765 C378.386 766.961 363.679 751.371 338.875 719.75 L338.875 719.75 Z M401.5 60.5 C399.213 63.4409 384.52 54.8168 355.25 48.625 C335.75 44.5 312.5 42 290 42 C201 42 129 140 129 263 C129 386 190 485 265 485 C282.5 485 299 476 311.625 461.5 C337.865 431.363 333.864 391.885 347.625 378.625 C354.5 372 363.5 368 373 368 C382 368 390.25 371.75 396.25 377.75 C407.901 389.401 407.337 440.545 363.5 475.25 C339.5 494.25 307.5 506 273 506 C149 506 50 385 50 234 C50 102 129 -4 228 -4 C257.5 -4 291.75 2.75 323.625 13.625 C380.373 32.9861 403.787 57.5591 401.5 60.5 L401.5 60.5 Z " />
<glyph glyph-name="Dcaron" unicode="&#x10e;" horiz-adv-x="682" d="M403.375 879.25 C359.409 823.34 321.307 815.563 289.875 856.75 C253.729 904.114 231.614 926.787 229 924.5 C226.386 922.213 238.645 889.708 266.875 831.875 C297.501 769.133 315.827 730.666 322.625 723.25 C326.75 718.75 332 715 338 715 C343.5 715 348.5 718.75 352.5 723.25 C359.153 730.735 383.269 781.582 424.625 867.875 C441.254 902.572 448.614 922.213 446 924.5 C443.386 926.787 428.501 911.202 403.375 879.25 L403.375 879.25 Z M52.5 647 C58.0551 647 84.03 651.601 107 628.875 C118.75 617.25 126 601 126 583 L126 77 C126 59 118.75 42.75 107 31.125 C84.03 8.39939 58.0551 13 52.5 13 C46.9449 13 44 10.748 44 6.5 C44 2.25202 93.8909 0 188 0 L332 0 C499 0 632 147 632 330 C632 513 485 660 301 660 L172.5 660 C88.5207 660 44 657.748 44 653.5 C44 649.252 46.9449 647 52.5 647 L52.5 647 Z M209 330 C209 531.942 224.937 639 255 639 L301 639 C439 639 549 501 549 330 C549 159 452 21 332 21 L270.5 21 C230.308 21 209 128.058 209 330 L209 330 Z " />
<glyph glyph-name="dcaron" unicode="&#x10f;" horiz-adv-x="564" d="M561 753 C546 753 532 687 526 645 L514 563.5 C506.158 510.237 503.559 481.48 506.5 480.5 C509.441 479.52 521.74 504.812 542 553.5 L573 628 C592 673 608 729 608 736 C608 747 574 753 561 753 L561 753 Z M303 666 L309 666 C363 665 379 650 379 599 L379 524.5 C379 475.812 364.152 470.089 324.875 489.125 C304.5 499 282.5 505 261 505 C147 505 55 380 55 223 C55 96 134 -5 232 -5 C256 -5 283.5 0.75 309.5 10.25 C357.511 27.7924 378 39.6848 378 24 C378 8.31515 380.598 0 385.5 0 C390.402 0 417.599 7.27576 464 21 C510.401 34.7242 535 44.0788 535 48 C535 51.9212 532.921 54 529 54 L523 54 C469 55 453 70 453 121 L453 420.5 C453 616.234 450.402 720 445.5 720 C440.598 720 413.401 712.724 367 699 C320.599 685.276 296.173 675.921 296.5 672 C296.827 668.079 299.079 666 303 666 L303 666 Z M335 46.375 C316 43 293.5 41 271 41 C193 41 131 134 131 251 C131 380 186 484 255 484 C279 484 303.5 476 325 463.5 C364.791 440.365 377.173 354.329 377.5 238 C377.827 121.671 364.025 51.5307 335 46.375 L335 46.375 Z " />
<glyph glyph-name="Emacron" unicode="&#x112;" horiz-adv-x="593" d="M292 767 C377.613 767 423 774.103 423 787.5 C423 800.897 377.613 808 292 808 C206.387 808 161 800.897 161 787.5 C161 774.103 206.387 767 292 767 L292 767 Z M407 347 C407 410.393 404.748 444 400.5 444 C396.252 444 393.654 441.921 393 438 L392 432 C385 393 341 362 294 362 L249.5 362 C220.418 362 205 409.985 205 500.5 C205 591.015 226.308 639 266.5 639 L328 639 C384 639 437 595 449 539 L453.5 518 C456.441 504.276 460.425 497 465 497 C469.575 497 472 525.237 472 578.5 C472 631.763 397.164 660 256 660 C114.836 660 40 657.748 40 653.5 C40 649.252 42.9449 647 48.5 647 C54.0551 647 80.03 651.601 103 628.875 C114.75 617.25 122 601 122 583 L122 77 C122 59 114.75 42.75 103 31.125 C80.03 8.39939 54.0551 13 48.5 13 C42.9449 13 40 10.748 40 6.5 C40 2.25202 115.356 0 257.5 0 C399.644 0 475.346 1.73232 476 5 C476.654 8.26768 481.498 36.5366 490.5 86.5 C499.502 136.463 501.575 163 497 163 C492.425 163 487.228 155.724 482 142 L474 121 C452 66 391 21 335 21 L270 21 C227.52 21 205 76.6076 205 181.5 C205 286.392 220.418 342 249.5 342 L294 342 C342 342 385 307 392 264 L393 257 C393.654 252.425 396.252 250 400.5 250 C404.748 250 407 283.607 407 347 L407 347 Z " />
<glyph glyph-name="emacron" unicode="&#x113;" horiz-adv-x="462" d="M250 607 C335.613 607 381 614.103 381 627.5 C381 640.897 335.613 648 250 648 C164.387 648 119 640.897 119 627.5 C119 614.103 164.387 607 250 607 L250 607 Z M407.5 59.5 C405.213 62.4409 390.107 53.7705 360.125 47.625 C340 43.5 316 41 293 41 C202 41 129 139 129 262 C129 272 129.25 281.75 129.875 291.25 C131.073 309.461 181.332 319 272.5 319 C363.668 319 424.735 381.668 364.75 450.625 C335.5 484.25 295 505 250 505 C139 505 50 384 50 233 C50 101 131 -5 231 -5 C261 -5 296 1.75 328.5 12.625 C385.98 31.8588 409.787 56.5591 407.5 59.5 L407.5 59.5 Z M342 380 L342 382 C342 381 342 380 342 379 L342 380 L342 380 Z M328.5 352.5 C315.39 341.407 274.551 341.094 219 337.5 C163.449 333.906 131.64 378.961 176.5 440.5 C196 467.25 220 483 246 483 C272.5 483 297.75 470 315.75 450.875 C348.764 415.797 341.913 380.614 341.75 378 C341.587 375.386 340.907 362.999 328.5 352.5 L328.5 352.5 Z " />
<glyph glyph-name="Ebreve" unicode="&#x114;" horiz-adv-x="593" d="M231.875 789.5 C250.5 768.75 272 756 292 756 C312 756 333.5 769 352.125 790 C392.251 835.243 392.748 872.52 388.5 873.5 C384.252 874.48 378.964 849.876 348.25 826.25 C332 813.75 312 806 292 806 C272 806 252 813.75 235.75 826.25 C205.036 849.876 199.748 874.307 195.5 873 C191.252 871.693 191.674 834.288 231.875 789.5 L231.875 789.5 Z M407 347 C407 410.393 404.748 444 400.5 444 C396.252 444 393.654 441.921 393 438 L392 432 C385 393 341 362 294 362 L249.5 362 C220.418 362 205 409.985 205 500.5 C205 591.015 226.308 639 266.5 639 L328 639 C384 639 437 595 449 539 L453.5 518 C456.441 504.276 460.425 497 465 497 C469.575 497 472 525.237 472 578.5 C472 631.763 397.164 660 256 660 C114.836 660 40 657.748 40 653.5 C40 649.252 42.9449 647 48.5 647 C54.0551 647 80.03 651.601 103 628.875 C114.75 617.25 122 601 122 583 L122 77 C122 59 114.75 42.75 103 31.125 C80.03 8.39939 54.0551 13 48.5 13 C42.9449 13 40 10.748 40 6.5 C40 2.25202 115.356 0 257.5 0 C399.644 0 475.346 1.73232 476 5 C476.654 8.26768 481.498 36.5366 490.5 86.5 C499.502 136.463 501.575 163 497 163 C492.425 163 487.228 155.724 482 142 L474 121 C452 66 391 21 335 21 L270 21 C227.52 21 205 76.6076 205 181.5 C205 286.392 220.418 342 249.5 342 L294 342 C342 342 385 307 392 264 L393 257 C393.654 252.425 396.252 250 400.5 250 C404.748 250 407 283.607 407 347 L407 347 Z " />
<glyph glyph-name="ebreve" unicode="&#x115;" horiz-adv-x="462" d="M189.875 629.5 C208.5 608.75 230 596 250 596 C270 596 291.5 609 310.125 630 C350.251 675.243 350.748 712.52 346.5 713.5 C342.252 714.48 336.964 689.876 306.25 666.25 C290 653.75 270 646 250 646 C230 646 210 653.75 193.75 666.25 C163.036 689.876 157.748 714.307 153.5 713 C149.252 711.693 149.674 674.288 189.875 629.5 L189.875 629.5 Z M407.5 59.5 C405.213 62.4409 390.107 53.7705 360.125 47.625 C340 43.5 316 41 293 41 C202 41 129 139 129 262 C129 272 129.25 281.75 129.875 291.25 C131.073 309.461 181.332 319 272.5 319 C363.668 319 424.735 381.668 364.75 450.625 C335.5 484.25 295 505 250 505 C139 505 50 384 50 233 C50 101 131 -5 231 -5 C261 -5 296 1.75 328.5 12.625 C385.98 31.8588 409.787 56.5591 407.5 59.5 L407.5 59.5 Z M342 380 L342 382 C342 381 342 380 342 379 L342 380 L342 380 Z M328.5 352.5 C315.39 341.407 274.551 341.094 219 337.5 C163.449 333.906 131.64 378.961 176.5 440.5 C196 467.25 220 483 246 483 C272.5 483 297.75 470 315.75 450.875 C348.764 415.797 341.913 380.614 341.75 378 C341.587 375.386 340.907 362.999 328.5 352.5 L328.5 352.5 Z " />
<glyph glyph-name="Edot" unicode="&#x116;" horiz-adv-x="593" d="M292 730 C318 730 338 750 338 776 C338 802 318 822 292 822 C266 822 246 802 246 776 C246 750 266 730 292 730 L292 730 Z M407 347 C407 410.393 404.748 444 400.5 444 C396.252 444 393.654 441.921 393 438 L392 432 C385 393 341 362 294 362 L249.5 362 C220.418 362 205 409.985 205 500.5 C205 591.015 226.308 639 266.5 639 L328 639 C384 639 437 595 449 539 L453.5 518 C456.441 504.276 460.425 497 465 497 C469.575 497 472 525.237 472 578.5 C472 631.763 397.164 660 256 660 C114.836 660 40 657.748 40 653.5 C40 649.252 42.9449 647 48.5 647 C54.0551 647 80.03 651.601 103 628.875 C114.75 617.25 122 601 122 583 L122 77 C122 59 114.75 42.75 103 31.125 C80.03 8.39939 54.0551 13 48.5 13 C42.9449 13 40 10.748 40 6.5 C40 2.25202 115.356 0 257.5 0 C399.644 0 475.346 1.73232 476 5 C476.654 8.26768 481.498 36.5366 490.5 86.5 C499.502 136.463 501.575 163 497 163 C492.425 163 487.228 155.724 482 142 L474 121 C452 66 391 21 335 21 L270 21 C227.52 21 205 76.6076 205 181.5 C205 286.392 220.418 342 249.5 342 L294 342 C342 342 385 307 392 264 L393 257 C393.654 252.425 396.252 250 400.5 250 C404.748 250 407 283.607 407 347 L407 347 Z " />
<glyph glyph-name="edot" unicode="&#x117;" horiz-adv-x="462" d="M250 570 C276 570 296 590 296 616 C296 642 276 662 250 662 C224 662 204 642 204 616 C204 590 224 570 250 570 L250 570 Z M407.5 59.5 C405.213 62.4409 390.107 53.7705 360.125 47.625 C340 43.5 316 41 293 41 C202 41 129 139 129 262 C129 272 129.25 281.75 129.875 291.25 C131.073 309.461 181.332 319 272.5 319 C363.668 319 424.735 381.668 364.75 450.625 C335.5 484.25 295 505 250 505 C139 505 50 384 50 233 C50 101 131 -5 231 -5 C261 -5 296 1.75 328.5 12.625 C385.98 31.8588 409.787 56.5591 407.5 59.5 L407.5 59.5 Z M342 380 L342 382 C342 381 342 380 342 379 L342 380 L342 380 Z M328.5 352.5 C315.39 341.407 274.551 341.094 219 337.5 C163.449 333.906 131.64 378.961 176.5 440.5 C196 467.25 220 483 246 483 C272.5 483 297.75 470 315.75 450.875 C348.764 415.797 341.913 380.614 341.75 378 C341.587 375.386 340.907 362.999 328.5 352.5 L328.5 352.5 Z " />
<glyph glyph-name="Eogonek" unicode="&#x118;" horiz-adv-x="593" d="M407 347 C407 410.393 404.748 444 400.5 444 C396.252 444 393.654 441.921 393 438 L392 432 C385 393 341 362 294 362 L249.5 362 C220.418 362 205 409.985 205 500.5 C205 591.015 226.308 639 266.5 639 L328 639 C384 639 437 595 449 539 L453.5 518 C456.441 504.276 460.425 497 465 497 C469.575 497 472 525.237 472 578.5 C472 631.763 397.164 660 256 660 C114.836 660 40 657.748 40 653.5 C40 649.252 42.9449 647 48.5 647 C54.0551 647 80.03 651.601 103 628.875 C114.75 617.25 122 601 122 583 L122 77 C122 59 114.75 42.75 103 31.125 C80.03 8.39939 54.0551 13 48.5 13 C42.9449 13 40 10.748 40 6.5 C40 2.25202 109.466 0 240.5 0 C371.534 0 406.181 -17.5217 360.375 -70.375 C336 -98.5 318 -129 318 -155 C318 -199 370 -234 434 -234 C449.5 -234 466.25 -230.5 481 -224.75 C506.418 -214.841 515.134 -200.961 513.5 -199 C511.866 -197.039 503.943 -203.133 487.25 -207.875 C476.25 -211 463 -213 450 -213 C402 -213 363 -184 363 -147 C363 -117 383.125 -83 407 -55.125 C443.722 -12.251 474.106 1.73232 475.25 5 C476.394 8.26768 481.498 36.5366 490.5 86.5 C499.502 136.463 501.575 163 497 163 C492.425 163 487.228 155.724 482 142 L474 121 C452 66 391 21 335 21 L270 21 C227.52 21 205 76.6076 205 181.5 C205 286.392 220.418 342 249.5 342 L294 342 C342 342 385 307 392 264 L393 257 C393.654 252.425 396.252 250 400.5 250 C404.748 250 407 283.607 407 347 L407 347 Z " />
<glyph glyph-name="eogonek" unicode="&#x119;" horiz-adv-x="462" d="M342 380 L342 382 C342 381 342 380 342 379 L342 380 L342 380 Z M328.5 352.5 C315.39 341.407 274.551 341.094 219 337.5 C163.449 333.906 131.64 378.961 176.5 440.5 C196 467.25 220 483 246 483 C272.5 483 297.75 470 315.75 450.875 C348.764 415.797 341.913 380.614 341.75 378 C341.587 375.386 340.907 362.999 328.5 352.5 L328.5 352.5 Z M272.5 318 C363.668 318 424.735 380.668 364.75 449.625 C335.5 483.25 295 504 250 504 C139 504 50 383 50 232 C50 100 131 -6 231 -6 C237.5 -6 244.25 -5.75 251.125 -5.25 C264.81 -4.2547 240.301 -20.8511 199.625 -72 C178.75 -98.25 164 -126 164 -150 C164 -197 216 -235 280 -235 C295.5 -235 312.25 -231.5 327 -225.75 C352.418 -215.841 361.134 -201.961 359.5 -200 C357.866 -198.039 349.943 -204.133 333.25 -208.875 C322.25 -212 309 -214 296 -214 C248 -214 209 -182 209 -142 C209 -81 288 -3 318 8 C336.5 13.5 354.5 20.5 370.625 28.375 C399.205 42.3326 410.787 55.5591 408.5 58.5 C406.213 61.4409 391.107 52.7705 361.125 46.625 C341 42.5 317 40 294 40 C203 40 130 138 130 261 C130 271 130.125 280.75 130.625 290.25 C131.583 308.457 181.332 318 272.5 318 L272.5 318 Z " />
<glyph glyph-name="Ecaron" unicode="&#x11a;" horiz-adv-x="593" d="M357.875 879.75 C314.26 824.147 276.307 816.563 244.875 857.75 C208.729 905.114 186.614 927.787 184 925.5 C181.386 923.213 192.86 890.807 220.625 833.625 C251.345 770.359 269.827 731.666 276.625 724.25 C280.75 719.75 286 716 292 716 C298 716 303.25 719.75 307.375 724.25 C314.173 731.666 338.739 782.469 379.5 869.25 C395.66 903.655 402.614 923.039 400 925 C397.386 926.961 382.679 911.371 357.875 879.75 L357.875 879.75 Z M407 348 C407 411.393 404.748 445 400.5 445 C396.252 445 393.654 442.921 393 439 L392 433 C385 394 341 363 294 363 L249.5 363 C220.418 363 205 410.985 205 501.5 C205 592.015 226.308 640 266.5 640 L328 640 C384 640 437 596 449 540 L453.5 519 C456.441 505.276 460.425 498 465 498 C469.575 498 472 526.237 472 579.5 C472 632.763 397.164 661 256 661 C114.836 661 40 658.748 40 654.5 C40 650.252 42.9449 648 48.5 648 C54.0551 648 80.03 652.601 103 629.875 C114.75 618.25 122 602 122 584 L122 78 C122 60 114.75 43.75 103 32.125 C80.03 9.39939 54.0551 14 48.5 14 C42.9449 14 40 11.748 40 7.5 C40 3.25202 115.356 1 257.5 1 C399.644 1 475.346 2.73232 476 6 C476.654 9.26768 481.498 37.5366 490.5 87.5 C499.502 137.463 501.575 164 497 164 C492.425 164 487.228 156.724 482 143 L474 122 C452 67 391 22 335 22 L270 22 C227.52 22 205 77.6076 205 182.5 C205 287.392 220.418 343 249.5 343 L294 343 C342 343 385 308 392 265 L393 258 C393.654 253.425 396.252 251 400.5 251 C404.748 251 407 284.607 407 348 L407 348 Z " />
<glyph glyph-name="ecaron" unicode="&#x11b;" horiz-adv-x="462" d="M315.875 719.75 C272.26 664.147 234.307 656.563 202.875 697.75 C166.729 745.114 144.614 767.787 142 765.5 C139.386 763.213 150.86 730.807 178.625 673.625 C209.345 610.359 227.827 571.666 234.625 564.25 C238.75 559.75 244 556 250 556 C256 556 261.25 559.75 265.375 564.25 C272.173 571.666 296.739 622.469 337.5 709.25 C353.66 743.655 360.614 763.039 358 765 C355.386 766.961 340.679 751.371 315.875 719.75 L315.875 719.75 Z M407.5 60.5 C405.213 63.4409 390.107 54.7705 360.125 48.625 C340 44.5 316 42 293 42 C202 42 129 140 129 263 C129 273 129.25 282.75 129.875 292.25 C131.073 310.461 181.332 320 272.5 320 C363.668 320 424.735 382.668 364.75 451.625 C335.5 485.25 295 506 250 506 C139 506 50 385 50 234 C50 102 131 -4 231 -4 C261 -4 296 2.75 328.5 13.625 C385.98 32.8588 409.787 57.5591 407.5 60.5 L407.5 60.5 Z M342 381 L342 383 C342 382 342 381 342 380 L342 381 L342 381 Z M328.5 353.5 C315.39 342.407 274.551 342.094 219 338.5 C163.449 334.906 131.64 379.961 176.5 441.5 C196 468.25 220 484 246 484 C272.5 484 297.75 471 315.75 451.875 C348.764 416.797 341.913 381.614 341.75 379 C341.587 376.386 340.907 363.999 328.5 353.5 L328.5 353.5 Z " />
<glyph glyph-name="Gcircumflex" unicode="&#x11c;" horiz-adv-x="777" d="M380.375 896.75 C376.25 901.25 371 905 365 905 C359 905 353.75 901.25 349.625 896.75 C342.827 889.334 324.345 850.641 293.625 787.375 C265.86 730.193 254.386 697.787 257 695.5 C259.614 693.213 281.729 715.886 317.875 763.25 C349.307 804.437 387.26 796.853 430.875 741.25 C455.679 709.629 470.386 694.213 473 696.5 C475.614 698.787 468.647 718.253 452.5 752.5 C411.675 839.088 387.173 889.334 380.375 896.75 L380.375 896.75 Z M594 525.5 L594 596 L594 601 C594 604.268 558.354 628.733 483.625 648.375 C442.25 659.25 399.5 666 365 666 C192 666 54 517 54 331 C54 145 192 -4 365 -4 C401 -4 445 2.75 487.375 13.75 C563.691 33.5606 600 87.6621 600 145.5 L600 234 C600 252 607.25 268.25 619 279.875 C641.97 302.601 667.945 298 673.5 298 C679.055 298 682 300.252 682 304.5 C682 308.748 640.597 311 562.5 311 C484.403 311 443 308.748 443 304.5 C443 300.252 445.945 298 451.5 298 C457.055 298 483.03 302.601 506 279.875 C517.75 268.25 525 252 525 234 L525 140.5 C525 79.3944 497.516 35.5867 443.125 25.25 C415.5 20 388.5 17 365 17 C243 17 146 157 146 331 C146 505 243 645 365 645 C385 645 408 642 432 638 C493 623 552 560 567 493 C568 487.5 569.75 480.75 571.5 474 C574.702 461.648 579.118 455 585 455 C590.882 455 594 479.426 594 525.5 L594 525.5 Z " />
<glyph glyph-name="Gbreve" unicode="&#x11e;" horiz-adv-x="777" d="M304.875 789.5 C323.5 768.75 345 756 365 756 C385 756 406.5 769 425.125 790 C465.251 835.243 465.748 872.52 461.5 873.5 C457.252 874.48 451.964 849.876 421.25 826.25 C405 813.75 385 806 365 806 C345 806 325 813.75 308.75 826.25 C278.036 849.876 272.748 874.307 268.5 873 C264.252 871.693 264.674 834.288 304.875 789.5 L304.875 789.5 Z M594 524.5 L594 595 L594 600 C594 603.268 558.354 627.733 483.625 647.375 C442.25 658.25 399.5 665 365 665 C192 665 54 516 54 330 C54 144 192 -5 365 -5 C401 -5 445 1.75 487.375 12.75 C563.691 32.5606 600 86.6621 600 144.5 L600 233 C600 251 607.25 267.25 619 278.875 C641.97 301.601 667.945 297 673.5 297 C679.055 297 682 299.252 682 303.5 C682 307.748 640.597 310 562.5 310 C484.403 310 443 307.748 443 303.5 C443 299.252 445.945 297 451.5 297 C457.055 297 483.03 301.601 506 278.875 C517.75 267.25 525 251 525 233 L525 139.5 C525 78.3944 497.516 34.5867 443.125 24.25 C415.5 19 388.5 16 365 16 C243 16 146 156 146 330 C146 504 243 644 365 644 C385 644 408 641 432 637 C493 622 552 559 567 492 C568 486.5 569.75 479.75 571.5 473 C574.702 460.648 579.118 454 585 454 C590.882 454 594 478.426 594 524.5 L594 524.5 Z " />
<glyph glyph-name="gbreve" unicode="&#x11f;" horiz-adv-x="434" d="M160.875 629.5 C179.5 608.75 201 596 221 596 C241 596 262.5 609 281.125 630 C321.251 675.243 321.748 712.52 317.5 713.5 C313.252 714.48 307.964 689.876 277.25 666.25 C261 653.75 241 646 221 646 C201 646 181 653.75 164.75 666.25 C134.036 689.876 128.748 714.307 124.5 713 C120.252 711.693 120.674 674.288 160.875 629.5 L160.875 629.5 Z M97.625 -42.25 C128 -1.25558 162.811 5.82677 170 5.5 C177.189 5.17323 188.795 5.5197 203.5 6.5 L226 8 C300 8 360 -31 360 -79 C360 -157 275 -219 169 -219 C142.5 -219 118.5 -207 101.125 -187.5 C65.6888 -147.73 64.1652 -112.559 47.5 -115.5 C30.8348 -118.441 15.9044 -164.913 62.625 -205.125 C87.75 -226.75 122.5 -240 161 -240 C301 -240 414 -151 414 -41 C414 26 339 79 246 79 C239 79 177 76 177 76 C133 76 98 101 98 132 C98 165 133 192 176 192 L221 192 C308 192 378 262 378 349 C378 370 374 389.75 366.75 407.75 C352.78 442.435 352.977 456.346 385 457 C417.023 457.654 434 465.276 434 479 C434 492.724 411.041 496.906 367.625 492 C324.692 487.149 290.306 493.017 264.75 500.25 C251.5 504 237.5 506 223 506 C135 506 65 437 65 350 C65 317 75 286.5 92.25 261.375 C125.713 212.635 124.68 209.786 81.625 171.75 C61.25 153.75 49 130 49 104 C49 82 59 61.75 75.875 45.5 C111.823 10.8833 105.247 1.7158 59.375 -47.375 C24.7284 -84.4529 33.3152 -115.787 49 -113.5 C64.6848 -111.213 69.5778 -80.1024 97.625 -42.25 L97.625 -42.25 Z M224 211 C176 211 137 273 137 351 C137 428 176 490 224 490 C272 490 310 428 310 351 C310 273 272 211 224 211 L224 211 Z " />
<glyph glyph-name="Gdot" unicode="&#x120;" horiz-adv-x="777" d="M365 730 C391 730 411 750 411 776 C411 802 391 822 365 822 C339 822 319 802 319 776 C319 750 339 730 365 730 L365 730 Z M594 524.5 L594 595 L594 600 C594 603.268 558.354 627.733 483.625 647.375 C442.25 658.25 399.5 665 365 665 C192 665 54 516 54 330 C54 144 192 -5 365 -5 C401 -5 445 1.75 487.375 12.75 C563.691 32.5606 600 86.6621 600 144.5 L600 233 C600 251 607.25 267.25 619 278.875 C641.97 301.601 667.945 297 673.5 297 C679.055 297 682 299.252 682 303.5 C682 307.748 640.597 310 562.5 310 C484.403 310 443 307.748 443 303.5 C443 299.252 445.945 297 451.5 297 C457.055 297 483.03 301.601 506 278.875 C517.75 267.25 525 251 525 233 L525 139.5 C525 78.3944 497.516 34.5867 443.125 24.25 C415.5 19 388.5 16 365 16 C243 16 146 156 146 330 C146 504 243 644 365 644 C385 644 408 641 432 637 C493 622 552 559 567 492 C568 486.5 569.75 479.75 571.5 473 C574.702 460.648 579.118 454 585 454 C590.882 454 594 478.426 594 524.5 L594 524.5 Z " />
<glyph glyph-name="gdot" unicode="&#x121;" horiz-adv-x="434" d="M221 570 C247 570 267 590 267 616 C267 642 247 662 221 662 C195 662 175 642 175 616 C175 590 195 570 221 570 L221 570 Z M97.625 -42.25 C128 -1.25558 162.811 5.82677 170 5.5 C177.189 5.17323 188.795 5.5197 203.5 6.5 L226 8 C300 8 360 -31 360 -79 C360 -157 275 -219 169 -219 C142.5 -219 118.5 -207 101.125 -187.5 C65.6888 -147.73 64.1652 -112.559 47.5 -115.5 C30.8348 -118.441 15.9044 -164.913 62.625 -205.125 C87.75 -226.75 122.5 -240 161 -240 C301 -240 414 -151 414 -41 C414 26 339 79 246 79 C239 79 177 76 177 76 C133 76 98 101 98 132 C98 165 133 192 176 192 L221 192 C308 192 378 262 378 349 C378 370 374 389.75 366.75 407.75 C352.78 442.435 352.977 456.346 385 457 C417.023 457.654 434 465.276 434 479 C434 492.724 411.041 496.906 367.625 492 C324.692 487.149 290.306 493.017 264.75 500.25 C251.5 504 237.5 506 223 506 C135 506 65 437 65 350 C65 317 75 286.5 92.25 261.375 C125.713 212.635 124.68 209.786 81.625 171.75 C61.25 153.75 49 130 49 104 C49 82 59 61.75 75.875 45.5 C111.823 10.8833 105.247 1.7158 59.375 -47.375 C24.7284 -84.4529 33.3152 -115.787 49 -113.5 C64.6848 -111.213 69.5778 -80.1024 97.625 -42.25 L97.625 -42.25 Z M224 211 C176 211 137 273 137 351 C137 428 176 490 224 490 C272 490 310 428 310 351 C310 273 272 211 224 211 L224 211 Z " />
<glyph glyph-name="Hcircumflex" unicode="&#x124;" horiz-adv-x="751" d="M391.375 896.75 C387.25 901.25 382 905 376 905 C370 905 364.75 901.25 360.625 896.75 C353.827 889.334 335.345 850.641 304.625 787.375 C276.86 730.193 265.386 697.787 268 695.5 C270.614 693.213 292.729 715.886 328.875 763.25 C360.307 804.437 398.26 796.853 441.875 741.25 C466.679 709.629 481.386 694.213 484 696.5 C486.614 698.787 479.647 718.253 463.5 752.5 C422.675 839.088 398.173 889.334 391.375 896.75 L391.375 896.75 Z M703.5 14 C697.945 14 671.97 9.39939 649 32.125 C637.25 43.75 630 60 630 78 L630 584 C630 602 637.25 618.25 649 629.875 C671.97 652.601 697.945 648 703.5 648 C709.055 648 712 650.252 712 654.5 C712 658.748 669.212 661 588.5 661 C507.788 661 465 658.748 465 654.5 C465 650.252 467.945 648 473.5 648 C479.055 648 505.03 652.601 528 629.875 C539.75 618.25 547 602 547 584 L547 471 C547 397.151 487.755 358 376 358 C264.245 358 205 397.151 205 471 L205 584 C205 602 212.25 618.25 224 629.875 C246.97 652.601 272.945 648 278.5 648 C284.055 648 287 650.252 287 654.5 C287 658.748 244.212 661 163.5 661 C82.7884 661 40 658.748 40 654.5 C40 650.252 42.9449 648 48.5 648 C54.0551 648 80.03 652.601 103 629.875 C114.75 618.25 122 602 122 584 L122 78 C122 60 114.75 43.75 103 32.125 C80.03 9.39939 54.0551 14 48.5 14 C42.9449 14 40 11.748 40 7.5 C40 3.25202 82.7884 1 163.5 1 C244.212 1 287 3.25202 287 7.5 C287 11.748 284.055 14 278.5 14 C272.945 14 246.97 9.39939 224 32.125 C212.25 43.75 205 60 205 78 L205 208 C205 292.96 264.245 338 376 338 C487.755 338 547 292.96 547 208 L547 78 C547 60 539.75 43.75 528 32.125 C505.03 9.39939 479.055 14 473.5 14 C467.945 14 465 11.748 465 7.5 C465 3.25202 507.788 1 588.5 1 C669.212 1 712 3.25202 712 7.5 C712 11.748 709.055 14 703.5 14 L703.5 14 Z " />
<glyph glyph-name="Itilde" unicode="&#x128;" horiz-adv-x="326" d="M58.875 799.625 C65 811 73.5 818 83 818 C122 818 186 755 225 755 C243.5 755 260 767.25 271.875 787.125 C298.755 832.113 288.921 865 285 865 C281.079 865 283.175 846.826 267.875 822.625 C261 811.75 251.5 805 241 805 C202 805 138 867 99 867 C82 867 66.5 854.5 55.25 834.25 C29.4389 787.79 39.0788 755 43 755 C46.9212 755 44.7139 773.326 58.875 799.625 L58.875 799.625 Z M278.5 13 C272.945 13 246.97 8.39939 224 31.125 C212.25 42.75 205 59 205 77 L205 583 C205 601 212.25 617.25 224 628.875 C246.97 651.601 272.945 647 278.5 647 C284.055 647 287 649.252 287 653.5 C287 657.748 244.212 660 163.5 660 C82.7884 660 40 657.748 40 653.5 C40 649.252 42.9449 647 48.5 647 C54.0551 647 80.03 651.601 103 628.875 C114.75 617.25 122 601 122 583 L122 77 C122 59 114.75 42.75 103 31.125 C80.03 8.39939 54.0551 13 48.5 13 C42.9449 13 40 10.748 40 6.5 C40 2.25202 82.7884 0 163.5 0 C244.212 0 287 2.25202 287 6.5 C287 10.748 284.055 13 278.5 13 L278.5 13 Z " />
<glyph glyph-name="itilde" unicode="&#x129;" horiz-adv-x="328" d="M58.875 639.625 C65 651 73.5 658 83 658 C122 658 186 595 225 595 C243.5 595 260 607.25 271.875 627.125 C298.755 672.113 288.921 705 285 705 C281.079 705 283.175 686.826 267.875 662.625 C261 651.75 251.5 645 241 645 C202 645 138 707 99 707 C82 707 66.5 694.5 55.25 674.25 C29.4389 627.79 39.0788 595 43 595 C46.9212 595 44.7139 613.326 58.875 639.625 L58.875 639.625 Z M275.5 13 C269.945 13 243.97 8.39939 221 31.125 C209.25 42.75 202 59 202 77 L202 288.5 C202 426.723 199.402 500 194.5 500 C189.598 500 162.401 492.724 116 479 C69.599 465.276 45 455.921 45 452 C45 448.079 47.0788 446 51 446 L57 446 C111 445 127 430 127 379 L127 77 C127 59 119.75 42.75 108 31.125 C85.03 8.39939 59.0551 13 53.5 13 C47.9449 13 45 10.748 45 6.5 C45 2.25202 86.4025 0 164.5 0 C242.597 0 284 2.25202 284 6.5 C284 10.748 281.055 13 275.5 13 L275.5 13 Z " />
<glyph glyph-name="Imacron" unicode="&#x12a;" horiz-adv-x="326" d="M164 767 C249.613 767 295 774.103 295 787.5 C295 800.897 249.613 808 164 808 C78.3869 808 33 800.897 33 787.5 C33 774.103 78.3869 767 164 767 L164 767 Z M278.5 13 C272.945 13 246.97 8.39939 224 31.125 C212.25 42.75 205 59 205 77 L205 583 C205 601 212.25 617.25 224 628.875 C246.97 651.601 272.945 647 278.5 647 C284.055 647 287 649.252 287 653.5 C287 657.748 244.212 660 163.5 660 C82.7884 660 40 657.748 40 653.5 C40 649.252 42.9449 647 48.5 647 C54.0551 647 80.03 651.601 103 628.875 C114.75 617.25 122 601 122 583 L122 77 C122 59 114.75 42.75 103 31.125 C80.03 8.39939 54.0551 13 48.5 13 C42.9449 13 40 10.748 40 6.5 C40 2.25202 82.7884 0 163.5 0 C244.212 0 287 2.25202 287 6.5 C287 10.748 284.055 13 278.5 13 L278.5 13 Z " />
<glyph glyph-name="imacron" unicode="&#x12b;" horiz-adv-x="328" d="M164 607 C249.613 607 295 614.103 295 627.5 C295 640.897 249.613 648 164 648 C78.3869 648 33 640.897 33 627.5 C33 614.103 78.3869 607 164 607 L164 607 Z M275.5 13 C269.945 13 243.97 8.39939 221 31.125 C209.25 42.75 202 59 202 77 L202 288.5 C202 426.723 199.402 500 194.5 500 C189.598 500 162.401 492.724 116 479 C69.599 465.276 45 455.921 45 452 C45 448.079 47.0788 446 51 446 L57 446 C111 445 127 430 127 379 L127 77 C127 59 119.75 42.75 108 31.125 C85.03 8.39939 59.0551 13 53.5 13 C47.9449 13 45 10.748 45 6.5 C45 2.25202 86.4025 0 164.5 0 C242.597 0 284 2.25202 284 6.5 C284 10.748 281.055 13 275.5 13 L275.5 13 Z " />
<glyph glyph-name="Ibreve" unicode="&#x12c;" horiz-adv-x="326" d="M103.875 789.5 C122.5 768.75 144 756 164 756 C184 756 205.5 769 224.125 790 C264.251 835.243 264.748 872.52 260.5 873.5 C256.252 874.48 250.964 849.876 220.25 826.25 C204 813.75 184 806 164 806 C144 806 124 813.75 107.75 826.25 C77.0359 849.876 71.748 874.307 67.5 873 C63.252 871.693 63.6738 834.288 103.875 789.5 L103.875 789.5 Z M278.5 13 C272.945 13 246.97 8.39939 224 31.125 C212.25 42.75 205 59 205 77 L205 583 C205 601 212.25 617.25 224 628.875 C246.97 651.601 272.945 647 278.5 647 C284.055 647 287 649.252 287 653.5 C287 657.748 244.212 660 163.5 660 C82.7884 660 40 657.748 40 653.5 C40 649.252 42.9449 647 48.5 647 C54.0551 647 80.03 651.601 103 628.875 C114.75 617.25 122 601 122 583 L122 77 C122 59 114.75 42.75 103 31.125 C80.03 8.39939 54.0551 13 48.5 13 C42.9449 13 40 10.748 40 6.5 C40 2.25202 82.7884 0 163.5 0 C244.212 0 287 2.25202 287 6.5 C287 10.748 284.055 13 278.5 13 L278.5 13 Z " />
<glyph glyph-name="ibreve" unicode="&#x12d;" horiz-adv-x="328" d="M103.875 629.5 C122.5 608.75 144 596 164 596 C184 596 205.5 609 224.125 630 C264.251 675.243 264.748 712.52 260.5 713.5 C256.252 714.48 250.964 689.876 220.25 666.25 C204 653.75 184 646 164 646 C144 646 124 653.75 107.75 666.25 C77.0359 689.876 71.748 714.307 67.5 713 C63.252 711.693 63.6738 674.288 103.875 629.5 L103.875 629.5 Z M275.5 13 C269.945 13 243.97 8.39939 221 31.125 C209.25 42.75 202 59 202 77 L202 288.5 C202 426.723 199.402 500 194.5 500 C189.598 500 162.401 492.724 116 479 C69.599 465.276 45 455.921 45 452 C45 448.079 47.0788 446 51 446 L57 446 C111 445 127 430 127 379 L127 77 C127 59 119.75 42.75 108 31.125 C85.03 8.39939 59.0551 13 53.5 13 C47.9449 13 45 10.748 45 6.5 C45 2.25202 86.4025 0 164.5 0 C242.597 0 284 2.25202 284 6.5 C284 10.748 281.055 13 275.5 13 L275.5 13 Z " />
<glyph glyph-name="Idot" unicode="&#x130;" horiz-adv-x="326" d="M164 730 C190 730 210 750 210 776 C210 802 190 822 164 822 C138 822 118 802 118 776 C118 750 138 730 164 730 L164 730 Z M278.5 13 C272.945 13 246.97 8.39939 224 31.125 C212.25 42.75 205 59 205 77 L205 583 C205 601 212.25 617.25 224 628.875 C246.97 651.601 272.945 647 278.5 647 C284.055 647 287 649.252 287 653.5 C287 657.748 244.212 660 163.5 660 C82.7884 660 40 657.748 40 653.5 C40 649.252 42.9449 647 48.5 647 C54.0551 647 80.03 651.601 103 628.875 C114.75 617.25 122 601 122 583 L122 77 C122 59 114.75 42.75 103 31.125 C80.03 8.39939 54.0551 13 48.5 13 C42.9449 13 40 10.748 40 6.5 C40 2.25202 82.7884 0 163.5 0 C244.212 0 287 2.25202 287 6.5 C287 10.748 284.055 13 278.5 13 L278.5 13 Z " />
<glyph glyph-name="dotlessi" unicode="&#x131;" horiz-adv-x="328" d="M275.5 13 C269.945 13 243.97 8.39939 221 31.125 C209.25 42.75 202 59 202 77 L202 288.5 C202 426.723 199.402 500 194.5 500 C189.598 500 162.401 492.724 116 479 C69.599 465.276 45 455.921 45 452 C45 448.079 47.0788 446 51 446 L57 446 C111 445 127 430 127 379 L127 77 C127 59 119.75 42.75 108 31.125 C85.03 8.39939 59.0551 13 53.5 13 C47.9449 13 45 10.748 45 6.5 C45 2.25202 86.4025 0 164.5 0 C242.597 0 284 2.25202 284 6.5 C284 10.748 281.055 13 275.5 13 L275.5 13 Z " />
<glyph glyph-name="Jcircumflex" unicode="&#x134;" horiz-adv-x="361" d="M213.375 896.75 C209.25 901.25 204 905 198 905 C192 905 186.75 901.25 182.625 896.75 C175.827 889.334 157.345 850.641 126.625 787.375 C98.8596 730.193 87.3859 697.787 90 695.5 C92.6141 693.213 114.729 715.886 150.875 763.25 C182.307 804.437 220.26 796.853 263.875 741.25 C288.679 709.629 303.386 694.213 306 696.5 C308.614 698.787 301.647 718.253 285.5 752.5 C244.675 839.088 220.173 889.334 213.375 896.75 L213.375 896.75 Z M198 661 C116.962 661 74 658.748 74 654.5 C74 650.252 76.9449 648 82.5 648 C88.0551 648 114.03 652.601 137 629.875 C148.75 618.25 156 602 156 584 L156 201 C156 72 142 8 113 8 C104.5 8 95.5 12.75 87.875 20.5 C71.8984 36.7385 69.8842 62.3529 56.5 74.25 C49.75 80.25 41.5 84 33 84 C10 84 -5 69 0 51 C8 18 49 -9 92 -9 C191 -9 240 85 240 271 L240 584 C240 602 247.25 618.25 259 629.875 C281.97 652.601 307.945 648 313.5 648 C319.055 648 322 650.252 322 654.5 C322 658.748 279.038 661 198 661 L198 661 Z " />
<glyph glyph-name="Lacute" unicode="&#x139;" horiz-adv-x="593" d="M185.125 740.125 C209.5 767.5 237.5 799.5 252 818 C274 843 291 865 291 869 C291 878 260 901 248 901 C247 901 242.75 895 236.625 885.25 C221.175 860.657 192.772 817.917 161.625 758.125 C140.983 718.498 132.559 695.787 135.5 693.5 C138.441 691.213 155.814 707.206 185.125 740.125 L185.125 740.125 Z M475 144.5 C467.811 122.607 458.467 78.4021 417.25 47.25 C395.75 31 370 21 345 21 L275 21 C229.253 21 205 118.357 205 302 L205 583 C205 601 212.25 617.25 224 628.875 C246.97 651.601 272.945 647 278.5 647 C284.055 647 287 649.252 287 653.5 C287 657.748 244.212 660 163.5 660 C82.7884 660 40 657.748 40 653.5 C40 649.252 42.9449 647 48.5 647 C54.0551 647 80.03 651.601 103 628.875 C114.75 617.25 122 601 122 583 L122 77 C122 59 114.75 42.75 103 31.125 C80.03 8.39939 54.0551 13 48.5 13 C42.9449 13 40 10.748 40 6.5 C40 2.25202 115.356 0 257.5 0 C399.644 0 475.346 1.73232 476 5 C476.654 8.26768 482.131 37.6904 491.375 90 C500.605 142.226 501.012 171.972 493.25 175.125 C488.528 177.043 482.189 166.393 475 144.5 L475 144.5 Z " />
<glyph glyph-name="Lcaron" unicode="&#x13d;" horiz-adv-x="593" d="M394 693 C379 693 365 627 359 585 L347 503.5 C339.158 450.237 336.559 421.48 339.5 420.5 C342.441 419.52 354.74 444.812 375 493.5 L406 568 C425 613 441 669 441 676 C441 687 407 693 394 693 L394 693 Z M475 144.5 C467.811 122.607 458.467 78.4021 417.25 47.25 C395.75 31 370 21 345 21 L275 21 C229.253 21 205 118.357 205 302 L205 583 C205 601 212.25 617.25 224 628.875 C246.97 651.601 272.945 647 278.5 647 C284.055 647 287 649.252 287 653.5 C287 657.748 244.212 660 163.5 660 C82.7884 660 40 657.748 40 653.5 C40 649.252 42.9449 647 48.5 647 C54.0551 647 80.03 651.601 103 628.875 C114.75 617.25 122 601 122 583 L122 77 C122 59 114.75 42.75 103 31.125 C80.03 8.39939 54.0551 13 48.5 13 C42.9449 13 40 10.748 40 6.5 C40 2.25202 115.356 0 257.5 0 C399.644 0 475.346 1.73232 476 5 C476.654 8.26768 482.131 37.6904 491.375 90 C500.605 142.226 501.012 171.972 493.25 175.125 C488.528 177.043 482.189 166.393 475 144.5 L475 144.5 Z " />
<glyph glyph-name="lcaron" unicode="&#x13e;" horiz-adv-x="328" d="M309 723 C294 723 280 657 274 615 L262 533.5 C254.158 480.237 251.559 451.48 254.5 450.5 C257.441 449.52 269.74 474.812 290 523.5 L321 598 C340 643 356 699 356 706 C356 717 322 723 309 723 L309 723 Z M275.5 13 C269.945 13 243.97 8.39939 221 31.125 C209.25 42.75 202 59 202 77 L202 398.5 C202 608.612 199.402 720 194.5 720 C189.598 720 162.401 712.724 116 699 C69.599 685.276 45 675.921 45 672 C45 668.079 47.0788 666 51 666 L57 666 C111 665 127 650 127 599 L127 77 C127 59 119.75 42.75 108 31.125 C85.03 8.39939 59.0551 13 53.5 13 C47.9449 13 45 10.748 45 6.5 C45 2.25202 86.4025 0 164.5 0 C242.597 0 284 2.25202 284 6.5 C284 10.748 281.055 13 275.5 13 L275.5 13 Z " />
<glyph glyph-name="Lslash" unicode="&#x141;" horiz-adv-x="593" d="M257.5 0 C399.644 0 475.346 1.73232 476 5 C476.654 8.26768 482.131 37.6904 491.375 90 C500.605 142.226 501.012 171.972 493.25 175.125 C488.528 177.043 482.189 166.393 475 144.5 C467.811 122.607 458.467 78.4021 417.25 47.25 C395.75 31 370 21 345 21 L275 21 C229.253 21 205 72.45 205 169.5 C205 266.55 228.213 326.662 272 343 C315.787 359.338 339 372.331 339 380.5 C339 388.669 315.787 384.338 272 368 C228.213 351.662 205 384.576 205 463 L205 583 C205 601 212.25 617.25 224 628.875 C246.97 651.601 272.945 647 278.5 647 C284.055 647 287 649.252 287 653.5 C287 657.748 244.212 660 163.5 660 C82.7884 660 40 657.748 40 653.5 C40 649.252 42.9449 647 48.5 647 C54.0551 647 80.03 651.601 103 628.875 C114.75 617.25 122 601 122 583 L122 447.5 C122 358.946 113.338 308.709 97 302.5 C80.6616 296.291 72 288.669 72 280.5 C72 272.331 80.6616 271.291 97 277.5 C113.338 283.709 122 250.621 122 182 L122 77 C122 59 114.75 42.75 103 31.125 C80.03 8.39939 54.0551 13 48.5 13 C42.9449 13 40 10.748 40 6.5 C40 2.25202 115.356 0 257.5 0 L257.5 0 Z " />
<glyph glyph-name="lslash" unicode="&#x142;" horiz-adv-x="328" d="M164.5 0 C242.597 0 284 2.25202 284 6.5 C284 10.748 281.055 13 275.5 13 C269.945 13 243.97 8.39939 221 31.125 C209.25 42.75 202 59 202 77 L202 219.5 C202 312.629 219.323 368.236 252 380 C284.677 391.764 302 402.331 302 410.5 C302 418.669 284.677 416.764 252 405 C219.323 393.236 202 444.686 202 553.5 C202 662.314 199.402 720 194.5 720 C189.598 720 162.401 712.724 116 699 C69.599 685.276 45 675.921 45 672 C45 668.079 47.0788 666 51 666 L57 666 C111 665 127 650 127 599 L127 479 C127 400.576 109.677 352.764 77 341 C44.3232 329.236 27 318.669 27 310.5 C27 302.331 44.3232 304.236 77 316 C109.677 327.764 127 289.479 127 205.5 L127 77 C127 59 119.75 42.75 108 31.125 C85.03 8.39939 59.0551 13 53.5 13 C47.9449 13 45 10.748 45 6.5 C45 2.25202 86.4025 0 164.5 0 L164.5 0 Z " />
<glyph glyph-name="Nacute" unicode="&#x143;" horiz-adv-x="687" d="M358.625 740.125 C383.25 767.5 411.5 799.5 426 818 C448 843 465 865 465 869 C465 878 434 901 422 901 C420.5 901 416 895 409.75 885.25 C394.054 860.764 365.837 817.956 335.125 758.125 C314.787 718.505 306.386 695.787 309 693.5 C311.614 691.213 329 707.192 358.625 740.125 L358.625 740.125 Z M49.5 647 C55.0551 647 81.03 651.601 104 628.875 C115.75 617.25 123 601 123 583 L123 77 C123 59 115.75 42.75 104 31.125 C81.03 8.39939 55.0551 13 49.5 13 C43.9449 13 41 10.748 41 6.5 C41 2.25202 73.7409 0 135.5 0 C197.259 0 230 2.25202 230 6.5 C230 10.748 227.055 13 221.5 13 C215.945 13 189.97 8.39939 167 31.125 C155.25 42.75 148 59 148 77 L148 330 C148 495.344 215.113 479.135 341.375 283 C467.493 87.088 539.37 -17 549.5 -17 C559.63 -17 565 86.9394 565 283 L565 583 C565 601 572.25 617.25 584 628.875 C606.97 651.601 632.945 647 638.5 647 C644.055 647 647 649.252 647 653.5 C647 657.748 614.259 660 552.5 660 C490.741 660 458 657.748 458 653.5 C458 649.252 460.945 647 466.5 647 C472.055 647 498.03 651.601 521 628.875 C532.75 617.25 540 601 540 583 L540 353.5 C540 203.514 480.581 216.853 368.5 392 C256.419 567.147 169.976 660 119 660 C68.0242 660 41 657.748 41 653.5 C41 649.252 43.9449 647 49.5 647 L49.5 647 Z " />
<glyph glyph-name="nacute" unicode="&#x144;" horiz-adv-x="602" d="M272.625 580.125 C297.25 607.5 325.5 639.5 340 658 C362 683 379 705 379 709 C379 718 348 741 336 741 C334.5 741 330 735 323.75 725.25 C308.054 700.764 279.837 657.956 249.125 598.125 C228.787 558.505 220.386 535.787 223 533.5 C225.614 531.213 243 547.192 272.625 580.125 L272.625 580.125 Z M443.5 0 C521.597 0 563 2.25202 563 6.5 C563 10.748 560.055 13 554.5 13 C548.945 13 522.97 8.39939 500 31.125 C488.25 42.75 481 59 481 77 L481 337 C481 430 446 505 375 505 C361.5 505 335.75 497.75 304.625 486 C235.863 460.042 202 450.394 202 470 C202 489.606 199.402 500 194.5 500 C189.598 500 162.401 492.724 116 479 C69.599 465.276 45 455.921 45 452 C45 448.079 47.0788 446 51 446 L57 446 C111 445 127 430 127 379 L127 77 C127 59 119.75 42.75 108 31.125 C85.03 8.39939 59.0551 13 53.5 13 C47.9449 13 45 10.748 45 6.5 C45 2.25202 86.4025 0 164.5 0 C242.597 0 284 2.25202 284 6.5 C284 10.748 281.055 13 275.5 13 C269.945 13 243.97 8.39939 221 31.125 C209.25 42.75 202 59 202 77 L202 254.5 C202 370.503 220.33 440.946 257.25 448.375 C277.75 452.5 299 455 317 455 C376 455 406 399 406 329 L406 77 C406 59 398.75 42.75 387 31.125 C364.03 8.39939 338.055 13 332.5 13 C326.945 13 324 10.748 324 6.5 C324 2.25202 365.403 0 443.5 0 L443.5 0 Z " />
<glyph glyph-name="Ncaron" unicode="&#x147;" horiz-adv-x="687" d="M409.875 879.75 C366.26 824.147 328.307 816.563 296.875 857.75 C260.729 905.114 238.614 927.787 236 925.5 C233.386 923.213 244.86 890.807 272.625 833.625 C303.345 770.359 321.827 731.666 328.625 724.25 C332.75 719.75 338 716 344 716 C350 716 355.25 719.75 359.375 724.25 C366.173 731.666 390.739 782.469 431.5 869.25 C447.66 903.655 454.614 923.039 452 925 C449.386 926.961 434.679 911.371 409.875 879.75 L409.875 879.75 Z M49.5 648 C55.0551 648 81.03 652.601 104 629.875 C115.75 618.25 123 602 123 584 L123 78 C123 60 115.75 43.75 104 32.125 C81.03 9.39939 55.0551 14 49.5 14 C43.9449 14 41 11.748 41 7.5 C41 3.25202 73.7409 1 135.5 1 C197.259 1 230 3.25202 230 7.5 C230 11.748 227.055 14 221.5 14 C215.945 14 189.97 9.39939 167 32.125 C155.25 43.75 148 60 148 78 L148 331 C148 496.344 215.113 480.135 341.375 284 C467.493 88.088 539.37 -16 549.5 -16 C559.63 -16 565 87.9394 565 284 L565 584 C565 602 572.25 618.25 584 629.875 C606.97 652.601 632.945 648 638.5 648 C644.055 648 647 650.252 647 654.5 C647 658.748 614.259 661 552.5 661 C490.741 661 458 658.748 458 654.5 C458 650.252 460.945 648 466.5 648 C472.055 648 498.03 652.601 521 629.875 C532.75 618.25 540 602 540 584 L540 354.5 C540 204.514 480.581 217.853 368.5 393 C256.419 568.147 169.976 661 119 661 C68.0242 661 41 658.748 41 654.5 C41 650.252 43.9449 648 49.5 648 L49.5 648 Z " />
<glyph glyph-name="ncaron" unicode="&#x148;" horiz-adv-x="602" d="M369.875 719.75 C326.26 664.147 288.307 656.563 256.875 697.75 C220.729 745.114 198.614 767.787 196 765.5 C193.386 763.213 204.86 730.807 232.625 673.625 C263.345 610.359 281.827 571.666 288.625 564.25 C292.75 559.75 298 556 304 556 C310 556 315.25 559.75 319.375 564.25 C326.173 571.666 350.739 622.469 391.5 709.25 C407.66 743.655 414.614 763.039 412 765 C409.386 766.961 394.679 751.371 369.875 719.75 L369.875 719.75 Z M443.5 1 C521.597 1 563 3.25202 563 7.5 C563 11.748 560.055 14 554.5 14 C548.945 14 522.97 9.39939 500 32.125 C488.25 43.75 481 60 481 78 L481 338 C481 431 446 506 375 506 C361.5 506 335.75 498.75 304.625 487 C235.863 461.042 202 451.394 202 471 C202 490.606 199.402 501 194.5 501 C189.598 501 162.401 493.724 116 480 C69.599 466.276 45 456.921 45 453 C45 449.079 47.0788 447 51 447 L57 447 C111 446 127 431 127 380 L127 78 C127 60 119.75 43.75 108 32.125 C85.03 9.39939 59.0551 14 53.5 14 C47.9449 14 45 11.748 45 7.5 C45 3.25202 86.4025 1 164.5 1 C242.597 1 284 3.25202 284 7.5 C284 11.748 281.055 14 275.5 14 C269.945 14 243.97 9.39939 221 32.125 C209.25 43.75 202 60 202 78 L202 255.5 C202 371.503 220.33 441.946 257.25 449.375 C277.75 453.5 299 456 317 456 C376 456 406 400 406 330 L406 78 C406 60 398.75 43.75 387 32.125 C364.03 9.39939 338.055 14 332.5 14 C326.945 14 324 11.748 324 7.5 C324 3.25202 365.403 1 443.5 1 L443.5 1 Z " />
<glyph glyph-name="Omacron" unicode="&#x14c;" horiz-adv-x="721" d="M362.5 767 C448.44 767 494 774.103 494 787.5 C494 800.897 448.44 808 362.5 808 C276.56 808 231 800.897 231 787.5 C231 774.103 276.56 767 362.5 767 L362.5 767 Z M146 330 C146 487 231 644 363 644 C495 644 580 487 580 330 C580 173 495 16 363 16 C231 16 146 173 146 330 L146 330 Z M54 330 C54 163 174 -5 363 -5 C551 -5 671 163 671 330 C671 497 551 665 363 665 C174 665 54 497 54 330 L54 330 Z " />
<glyph glyph-name="omacron" unicode="&#x14d;" horiz-adv-x="558" d="M279 607 C364.613 607 410 614.103 410 627.5 C410 640.897 364.613 648 279 648 C193.387 648 148 640.897 148 627.5 C148 614.103 193.387 607 279 607 L279 607 Z M133 250 C133 382 198 488 279 488 C360 488 425 382 425 250 C425 118 360 12 279 12 C198 12 133 118 133 250 L133 250 Z M50 250 C50 108 152 -5 279 -5 C406 -5 508 108 508 250 C508 392 406 505 279 505 C152 505 50 392 50 250 L50 250 Z " />
<glyph glyph-name="Obreve" unicode="&#x14e;" horiz-adv-x="721" d="M302.875 789.5 C321.5 768.75 343 756 363 756 C382.5 756 403.75 769 422.25 790 C462.2 835.348 462.748 872.52 458.5 873.5 C454.252 874.48 448.964 849.962 418.375 826.25 C402.25 813.75 382.5 806 363 806 C343 806 323 813.75 306.75 826.25 C276.036 849.876 270.748 874.307 266.5 873 C262.252 871.693 262.674 834.288 302.875 789.5 L302.875 789.5 Z M146 330 C146 487 231 644 363 644 C495 644 580 487 580 330 C580 173 495 16 363 16 C231 16 146 173 146 330 L146 330 Z M54 330 C54 163 174 -5 363 -5 C551 -5 671 163 671 330 C671 497 551 665 363 665 C174 665 54 497 54 330 L54 330 Z " />
<glyph glyph-name="obreve" unicode="&#x14f;" horiz-adv-x="558" d="M218.875 629.5 C237.5 608.75 259 596 279 596 C299 596 320.5 609 339.125 630 C379.251 675.243 379.748 712.52 375.5 713.5 C371.252 714.48 365.964 689.876 335.25 666.25 C319 653.75 299 646 279 646 C259 646 239 653.75 222.75 666.25 C192.036 689.876 186.748 714.307 182.5 713 C178.252 711.693 178.674 674.288 218.875 629.5 L218.875 629.5 Z M133 250 C133 382 198 488 279 488 C360 488 425 382 425 250 C425 118 360 12 279 12 C198 12 133 118 133 250 L133 250 Z M50 250 C50 108 152 -5 279 -5 C406 -5 508 108 508 250 C508 392 406 505 279 505 C152 505 50 392 50 250 L50 250 Z " />
<glyph glyph-name="Racute" unicode="&#x154;" horiz-adv-x="617" d="M289.625 740.125 C314.25 767.5 342.5 799.5 357 818 C379 843 396 865 396 869 C396 878 365 901 353 901 C351.5 901 347 895 340.75 885.25 C325.054 860.764 296.837 817.956 266.125 758.125 C245.787 718.505 237.386 695.787 240 693.5 C242.614 691.213 260 707.192 289.625 740.125 L289.625 740.125 Z M52.5 647 C58.0551 647 84.03 651.601 107 628.875 C118.75 617.25 126 601 126 583 L126 77 C126 59 118.75 42.75 107 31.125 C84.03 8.39939 58.0551 13 52.5 13 C46.9449 13 44 10.748 44 6.5 C44 2.25202 86.7884 0 167.5 0 C248.212 0 291 2.25202 291 6.5 C291 10.748 288.055 13 282.5 13 C276.945 13 250.97 8.39939 228 31.125 C216.25 42.75 209 59 209 77 L209 196 C209 273.771 219.221 315 238.5 315 C257.779 315 288.698 286.434 327.5 232.375 C386.203 150.59 430.121 59.7856 495.5 18.75 C519 4 544.5 1 586 1 L601.5 1 C611.63 1 617 3.77172 617 9 C617 14.2283 598.894 11.4713 579.5 28.125 C539.823 62.1951 493.741 142.185 424.5 238.125 C383.035 295.579 414.633 327.989 471.75 388.25 C499 417 515 452.5 515 491 C515 585 422 661 307 661 L175 661 C88.7333 661 43.1732 658.575 43.5 654 C43.8268 649.425 46.9449 647 52.5 647 L52.5 647 Z M287 337 L247.5 337 C221.685 337 208 389.489 208 488.5 C208 587.511 225.15 640 257.5 640 L307 640 C374 640 428 574 428 491 C428 406 365 337 287 337 L287 337 Z " />
<glyph glyph-name="Rcaron" unicode="&#x158;" horiz-adv-x="617" d="M386.875 879.75 C343.26 824.147 305.307 816.563 273.875 857.75 C237.729 905.114 215.614 927.787 213 925.5 C210.386 923.213 221.86 890.807 249.625 833.625 C280.345 770.359 298.827 731.666 305.625 724.25 C309.75 719.75 315 716 321 716 C327 716 332.25 719.75 336.375 724.25 C343.173 731.666 367.739 782.469 408.5 869.25 C424.66 903.655 431.614 923.039 429 925 C426.386 926.961 411.679 911.371 386.875 879.75 L386.875 879.75 Z M52.5 648 C58.0551 648 84.03 652.601 107 629.875 C118.75 618.25 126 602 126 584 L126 78 C126 60 118.75 43.75 107 32.125 C84.03 9.39939 58.0551 14 52.5 14 C46.9449 14 44 11.748 44 7.5 C44 3.25202 86.7884 1 167.5 1 C248.212 1 291 3.25202 291 7.5 C291 11.748 288.055 14 282.5 14 C276.945 14 250.97 9.39939 228 32.125 C216.25 43.75 209 60 209 78 L209 197 C209 274.771 219.221 316 238.5 316 C257.779 316 288.698 287.434 327.5 233.375 C386.203 151.59 430.121 60.7856 495.5 19.75 C519 5 544.5 2 586 2 L601.5 2 C611.63 2 617 4.77172 617 10 C617 15.2283 598.894 12.4713 579.5 29.125 C539.823 63.1951 493.741 143.185 424.5 239.125 C383.035 296.579 414.633 328.989 471.75 389.25 C499 418 515 453.5 515 492 C515 586 422 662 307 662 L175 662 C88.7333 662 43.1732 659.575 43.5 655 C43.8268 650.425 46.9449 648 52.5 648 L52.5 648 Z M287 338 L247.5 338 C221.685 338 208 390.489 208 489.5 C208 588.511 225.15 641 257.5 641 L307 641 C374 641 428 575 428 492 C428 407 365 338 287 338 L287 338 Z " />
<glyph glyph-name="rcaron" unicode="&#x159;" horiz-adv-x="393" d="M287.375 719.25 C243.409 663.34 205.307 655.563 173.875 696.75 C137.729 744.114 115.614 766.787 113 764.5 C110.386 762.213 122.645 729.708 150.875 671.875 C181.501 609.133 199.827 570.666 206.625 563.25 C210.75 558.75 216 555 222 555 C227.5 555 232.5 558.75 236.5 563.25 C243.153 570.735 267.269 621.582 308.625 707.875 C325.254 742.572 332.614 762.213 330 764.5 C327.386 766.787 312.501 751.202 287.375 719.25 L287.375 719.25 Z M51 446 L57 446 C111 445 127 430 127 379 L127 77 C127 59 119.75 42.75 108 31.125 C85.03 8.39939 59.0551 13 53.5 13 C47.9449 13 45 10.748 45 6.5 C45 2.25202 86.4025 0 164.5 0 C242.597 0 284 2.25202 284 6.5 C284 10.748 281.055 13 275.5 13 C269.945 13 243.97 8.39939 221 31.125 C209.25 42.75 202 59 202 77 L202 247 C202 358.101 209.633 427.603 229.75 439.25 C239.25 444.75 248.5 448 256 448 C282 448 322 418 348 418 C367 418 383 434 383 454 C383 482 361 504 316 504 C302 504 282.75 495.5 262.375 481.625 C218.394 451.675 202 439.473 202 463 C202 486.527 199.402 499 194.5 499 C189.598 499 162.401 491.724 116 478 C69.599 464.276 45 455.094 45 451.5 C45 447.906 47.0788 446 51 446 L51 446 Z " />
<glyph glyph-name="Sacute" unicode="&#x15a;" horiz-adv-x="470" d="M225.625 740.125 C250.25 767.5 278.5 799.5 293 818 C315 843 332 865 332 869 C332 878 301 901 289 901 C287.5 901 283 895 276.75 885.25 C261.054 860.764 232.837 817.956 202.125 758.125 C181.787 718.505 173.386 695.787 176 693.5 C178.614 691.213 196 707.192 225.625 740.125 L225.625 740.125 Z M387 537.5 C387 588.803 360.923 633.37 306 650.625 C277.75 659.5 250.5 665 231 665 C129 665 47 580 47 474 C47 441.5 64 405.75 91.625 374.125 C148.32 309.22 252.373 289.267 317.5 227.125 C347.5 198.5 366 167.5 366 141 C366 72 309 16 238 16 C237 16 212 17 212 18 C148 26 84 90 67 163 C66 168.5 64.25 175.25 62.5 182 C59.2976 194.352 55.0551 201 49.5 201 C43.9449 201 41 173.803 41 122.5 C41 71.1975 71.0181 25.0341 133.875 9.375 C169.5 0.5 207 -5 238 -5 C342 -5 425 76 425 176 C425 210.5 407 248.25 377.75 281.625 C317.649 350.202 213.651 370.441 150.5 428.375 C121.75 454.75 104 483 104 507 C104 583 159 644 227 644 C257.5 644 285.5 632.25 307.375 614.25 C347.828 580.963 354.698 531.808 361 503 C367.302 474.192 373.772 459 379 459 C384.228 459 387 486.197 387 537.5 L387 537.5 Z " />
</font>
</svg>
